<svg width="400" height="133" viewBox="0 0 400 133" fill="none" xmlns="http://www.w3.org/2000/svg">
<path d="M5.52273 18.1918C4.51705 18.1918 3.65199 17.9787 2.92756 17.5526C2.20739 17.1222 1.65341 16.5256 1.26562 15.7628C0.882102 15 0.690341 14.1222 0.690341 13.1293C0.690341 12.1236 0.884233 11.2415 1.27202 10.483C1.66406 9.72017 2.22017 9.12571 2.94034 8.69957C3.66051 8.26918 4.51705 8.05398 5.50994 8.05398C6.36648 8.05398 7.11648 8.20952 7.75994 8.5206C8.40341 8.83168 8.91264 9.26847 9.28764 9.83097C9.66264 10.3935 9.86932 11.054 9.90767 11.8125H7.33807C7.26563 11.3224 7.07386 10.9283 6.76278 10.63C6.45597 10.3274 6.05327 10.1761 5.55469 10.1761C5.13281 10.1761 4.7642 10.2912 4.44886 10.5213C4.13778 10.7472 3.89489 11.0774 3.72017 11.5121C3.54545 11.9467 3.4581 12.473 3.4581 13.0909C3.4581 13.7173 3.54332 14.25 3.71378 14.6889C3.88849 15.1278 4.13352 15.4624 4.44886 15.6925C4.7642 15.9226 5.13281 16.0376 5.55469 16.0376C5.86577 16.0376 6.14489 15.9737 6.39205 15.8459C6.64347 15.718 6.85014 15.5327 7.01207 15.2898C7.17827 15.0426 7.28693 14.7464 7.33807 14.4013H9.90767C9.86506 15.1513 9.66051 15.8118 9.29403 16.3828C8.93182 16.9496 8.43111 17.3928 7.7919 17.7124C7.1527 18.032 6.39631 18.1918 5.52273 18.1918ZM16.0872 18.1918C15.0943 18.1918 14.2356 17.9808 13.5112 17.5589C12.791 17.1328 12.2349 16.5405 11.8429 15.782C11.4508 15.0192 11.2548 14.1349 11.2548 13.1293C11.2548 12.1151 11.4508 11.2287 11.8429 10.4702C12.2349 9.70739 12.791 9.11506 13.5112 8.69318C14.2356 8.26705 15.0943 8.05398 16.0872 8.05398C17.0801 8.05398 17.9366 8.26705 18.6568 8.69318C19.3812 9.11506 19.9395 9.70739 20.3315 10.4702C20.7235 11.2287 20.9196 12.1151 20.9196 13.1293C20.9196 14.1349 20.7235 15.0192 20.3315 15.782C19.9395 16.5405 19.3812 17.1328 18.6568 17.5589C17.9366 17.9808 17.0801 18.1918 16.0872 18.1918ZM16.1 16.0824C16.5517 16.0824 16.9288 15.9545 17.2314 15.6989C17.5339 15.4389 17.7619 15.0852 17.9153 14.6378C18.073 14.1903 18.1518 13.6811 18.1518 13.1101C18.1518 12.5391 18.073 12.0298 17.9153 11.5824C17.7619 11.1349 17.5339 10.7812 17.2314 10.5213C16.9288 10.2614 16.5517 10.1314 16.1 10.1314C15.644 10.1314 15.2605 10.2614 14.9494 10.5213C14.6426 10.7812 14.4103 11.1349 14.2527 11.5824C14.0993 12.0298 14.0225 12.5391 14.0225 13.1101C14.0225 13.6811 14.0993 14.1903 14.2527 14.6378C14.4103 15.0852 14.6426 15.4389 14.9494 15.6989C15.2605 15.9545 15.644 16.0824 16.1 16.0824ZM25.4132 4.90909V18H22.6902V4.90909H25.4132ZM33.8906 13.8196V8.18182H36.6136V18H33.9993V16.2166H33.897C33.6754 16.7919 33.3068 17.2543 32.7912 17.6037C32.2798 17.9531 31.6555 18.1278 30.9183 18.1278C30.2621 18.1278 29.6847 17.9787 29.1861 17.6804C28.6875 17.3821 28.2976 16.9581 28.0163 16.4084C27.7393 15.8587 27.5987 15.2003 27.5945 14.4332V8.18182H30.3175V13.9474C30.3217 14.527 30.4773 14.9851 30.7841 15.3217C31.0909 15.6584 31.5021 15.8267 32.0178 15.8267C32.3459 15.8267 32.6527 15.7521 32.9382 15.603C33.2237 15.4496 33.4538 15.2237 33.6286 14.9254C33.8075 14.6271 33.8949 14.2585 33.8906 13.8196ZM38.7917 18V8.18182H41.3869V9.91406H41.502C41.7065 9.33878 42.0474 8.88494 42.5247 8.55256C43.002 8.22017 43.573 8.05398 44.2377 8.05398C44.911 8.05398 45.4842 8.2223 45.9572 8.55895C46.4302 8.89133 46.7456 9.34304 46.9032 9.91406H47.0055C47.2058 9.35156 47.568 8.90199 48.0922 8.56534C48.6206 8.22443 49.2449 8.05398 49.965 8.05398C50.8812 8.05398 51.6248 8.34588 52.1958 8.92969C52.7711 9.50923 53.0588 10.3317 53.0588 11.397V18H50.3422V11.9339C50.3422 11.3885 50.1973 10.9794 49.9075 10.7067C49.6177 10.4339 49.2555 10.2976 48.8208 10.2976C48.3265 10.2976 47.9409 10.4553 47.6639 10.7706C47.3869 11.0817 47.2484 11.4929 47.2484 12.0043V18H44.6085V11.8764C44.6085 11.3949 44.47 11.0114 44.193 10.7259C43.9203 10.4403 43.5602 10.2976 43.1127 10.2976C42.8102 10.2976 42.5375 10.3743 42.2946 10.5277C42.0559 10.6768 41.8663 10.8878 41.7257 11.1605C41.585 11.429 41.5147 11.7443 41.5147 12.1065V18H38.7917ZM57.9327 12.3239V18H55.2097V8.18182H57.8049V9.91406H57.9199C58.1373 9.34304 58.5016 8.89133 59.013 8.55895C59.5243 8.2223 60.1444 8.05398 60.873 8.05398C61.5549 8.05398 62.1493 8.20312 62.6564 8.50142C63.1635 8.79972 63.5577 9.22585 63.839 9.77983C64.1202 10.3295 64.2608 10.9858 64.2608 11.7486V18H61.5378V12.2344C61.5421 11.6335 61.3887 11.1648 61.0776 10.8281C60.7665 10.4872 60.3382 10.3168 59.7928 10.3168C59.4263 10.3168 59.1025 10.3956 58.8212 10.5533C58.5442 10.7109 58.3269 10.9411 58.1692 11.2436C58.0158 11.5419 57.937 11.902 57.9327 12.3239ZM72.5241 11.544V13.7045H66.554V11.544H72.5241ZM77.5675 12.3239V18H74.8445V8.18182H77.4396V9.91406H77.5547C77.772 9.34304 78.1364 8.89133 78.6477 8.55895C79.1591 8.2223 79.7791 8.05398 80.5078 8.05398C81.1896 8.05398 81.7841 8.20312 82.2912 8.50142C82.7983 8.79972 83.1925 9.22585 83.4737 9.77983C83.755 10.3295 83.8956 10.9858 83.8956 11.7486V18H81.1726V12.2344C81.1768 11.6335 81.0234 11.1648 80.7124 10.8281C80.4013 10.4872 79.973 10.3168 79.4276 10.3168C79.0611 10.3168 78.7372 10.3956 78.456 10.5533C78.179 10.7109 77.9616 10.9411 77.804 11.2436C77.6506 11.5419 77.5717 11.902 77.5675 12.3239ZM88.8414 18.1854C88.215 18.1854 87.6568 18.0767 87.1667 17.8594C86.6767 17.6378 86.2889 17.3118 86.0034 16.8814C85.7221 16.4467 85.5815 15.9055 85.5815 15.2578C85.5815 14.7124 85.6816 14.2543 85.8819 13.8835C86.0822 13.5128 86.3549 13.2145 86.7001 12.9886C87.0453 12.7628 87.4373 12.5923 87.8762 12.4773C88.3194 12.3622 88.7839 12.2812 89.2697 12.2344C89.8407 12.1747 90.301 12.1193 90.6504 12.0682C90.9998 12.0128 91.2534 11.9318 91.411 11.8253C91.5687 11.7187 91.6476 11.5611 91.6476 11.3523V11.3139C91.6476 10.9091 91.5197 10.5959 91.264 10.3743C91.0126 10.1527 90.6547 10.0419 90.1902 10.0419C89.7001 10.0419 89.3102 10.1506 89.0204 10.3679C88.7306 10.581 88.5389 10.8494 88.4451 11.1733L85.9267 10.9688C86.0545 10.3722 86.3059 9.85653 86.6809 9.42188C87.0559 8.98295 87.5396 8.64631 88.1319 8.41193C88.7285 8.1733 89.4189 8.05398 90.2029 8.05398C90.7484 8.05398 91.2704 8.1179 91.769 8.24574C92.2718 8.37358 92.7172 8.57173 93.1049 8.8402C93.497 9.10866 93.8059 9.45384 94.0318 9.87571C94.2576 10.2933 94.3706 10.794 94.3706 11.3778V18H91.7882V16.6385H91.7115C91.5538 16.9453 91.3429 17.2159 91.0787 17.4503C90.8145 17.6804 90.497 17.8615 90.1262 17.9936C89.7555 18.1214 89.3272 18.1854 88.8414 18.1854ZM89.6213 16.3061C90.0218 16.3061 90.3755 16.2273 90.6824 16.0696C90.9892 15.9077 91.2299 15.6903 91.4047 15.4176C91.5794 15.1449 91.6667 14.8359 91.6667 14.4908V13.4489C91.5815 13.5043 91.4643 13.5554 91.3152 13.6023C91.1703 13.6449 91.0062 13.6854 90.823 13.7237C90.6397 13.7578 90.4565 13.7898 90.2733 13.8196C90.09 13.8452 89.9238 13.8686 89.7747 13.8899C89.4551 13.9368 89.176 14.0114 88.9373 14.1136C88.6987 14.2159 88.5133 14.3544 88.3812 14.5291C88.2491 14.6996 88.1831 14.9126 88.1831 15.1683C88.1831 15.5391 88.3173 15.8224 88.5858 16.0185C88.8585 16.2102 89.2037 16.3061 89.6213 16.3061ZM96.4831 18V8.18182H99.0783V9.91406H99.1934C99.3979 9.33878 99.7388 8.88494 100.216 8.55256C100.693 8.22017 101.264 8.05398 101.929 8.05398C102.602 8.05398 103.176 8.2223 103.649 8.55895C104.122 8.89133 104.437 9.34304 104.595 9.91406H104.697C104.897 9.35156 105.259 8.90199 105.784 8.56534C106.312 8.22443 106.936 8.05398 107.656 8.05398C108.573 8.05398 109.316 8.34588 109.887 8.92969C110.463 9.50923 110.75 10.3317 110.75 11.397V18H108.034V11.9339C108.034 11.3885 107.889 10.9794 107.599 10.7067C107.309 10.4339 106.947 10.2976 106.512 10.2976C106.018 10.2976 105.632 10.4553 105.355 10.7706C105.078 11.0817 104.94 11.4929 104.94 12.0043V18H102.3V11.8764C102.3 11.3949 102.161 11.0114 101.884 10.7259C101.612 10.4403 101.252 10.2976 100.804 10.2976C100.502 10.2976 100.229 10.3743 99.986 10.5277C99.7473 10.6768 99.5577 10.8878 99.4171 11.1605C99.2765 11.429 99.2061 11.7443 99.2061 12.1065V18H96.4831ZM117.376 18.1918C116.366 18.1918 115.496 17.9872 114.768 17.5781C114.043 17.1648 113.485 16.581 113.093 15.8267C112.701 15.0682 112.505 14.1712 112.505 13.1357C112.505 12.1257 112.701 11.2393 113.093 10.4766C113.485 9.71378 114.037 9.11932 114.748 8.69318C115.464 8.26705 116.304 8.05398 117.267 8.05398C117.915 8.05398 118.518 8.15838 119.076 8.36719C119.638 8.57173 120.128 8.88068 120.546 9.29403C120.968 9.70739 121.296 10.2273 121.53 10.8537C121.765 11.4759 121.882 12.2045 121.882 13.0398V13.7876H113.591V12.1001H119.319C119.319 11.7081 119.233 11.3608 119.063 11.0582C118.893 10.7557 118.656 10.5192 118.354 10.3487C118.055 10.174 117.708 10.0866 117.312 10.0866C116.898 10.0866 116.532 10.1825 116.212 10.3743C115.897 10.5618 115.65 10.8153 115.471 11.1349C115.292 11.4503 115.2 11.8018 115.196 12.1896V13.794C115.196 14.2798 115.285 14.6996 115.464 15.0533C115.648 15.407 115.905 15.6797 116.238 15.8714C116.57 16.0632 116.964 16.1591 117.42 16.1591C117.723 16.1591 118 16.1165 118.251 16.0312C118.503 15.946 118.718 15.8182 118.897 15.6477C119.076 15.4773 119.212 15.2685 119.306 15.0213L121.824 15.1875C121.697 15.7926 121.434 16.321 121.038 16.7727C120.646 17.2202 120.139 17.5696 119.517 17.821C118.899 18.0682 118.185 18.1918 117.376 18.1918ZM129.776 11.544V13.7045H123.806V11.544H129.776ZM134.819 4.90909V18H132.096V4.90909H134.819ZM137.001 18V8.18182H139.724V18H137.001ZM138.369 6.91619C137.964 6.91619 137.616 6.78196 137.327 6.51349C137.041 6.24077 136.898 5.91477 136.898 5.53551C136.898 5.16051 137.041 4.83878 137.327 4.57031C137.616 4.29758 137.964 4.16122 138.369 4.16122C138.773 4.16122 139.119 4.29758 139.404 4.57031C139.694 4.83878 139.839 5.16051 139.839 5.53551C139.839 5.91477 139.694 6.24077 139.404 6.51349C139.119 6.78196 138.773 6.91619 138.369 6.91619ZM150.074 10.9815L147.581 11.1349C147.539 10.9219 147.447 10.7301 147.306 10.5597C147.166 10.3849 146.98 10.2464 146.75 10.1442C146.524 10.0376 146.254 9.98438 145.938 9.98438C145.517 9.98438 145.161 10.0739 144.871 10.2528C144.581 10.4276 144.436 10.6619 144.436 10.956C144.436 11.1903 144.53 11.3885 144.718 11.5504C144.905 11.7124 145.227 11.8423 145.683 11.9403L147.46 12.2983C148.414 12.4943 149.126 12.8097 149.595 13.2443C150.063 13.679 150.298 14.25 150.298 14.9574C150.298 15.6009 150.108 16.1655 149.729 16.6513C149.354 17.1371 148.838 17.5163 148.182 17.7891C147.53 18.0575 146.778 18.1918 145.926 18.1918C144.626 18.1918 143.59 17.9212 142.819 17.38C142.052 16.8345 141.602 16.093 141.47 15.1555L144.149 15.0149C144.23 15.4112 144.426 15.7138 144.737 15.9226C145.048 16.1271 145.446 16.2294 145.932 16.2294C146.409 16.2294 146.793 16.1378 147.083 15.9545C147.377 15.767 147.526 15.5263 147.53 15.2322C147.526 14.9851 147.421 14.7827 147.217 14.625C147.012 14.4631 146.697 14.3395 146.271 14.2543L144.57 13.9155C143.612 13.7237 142.898 13.3913 142.429 12.9183C141.965 12.4453 141.732 11.8423 141.732 11.1094C141.732 10.4787 141.903 9.93537 142.244 9.4794C142.589 9.02344 143.073 8.67188 143.695 8.42472C144.321 8.17756 145.054 8.05398 145.894 8.05398C147.134 8.05398 148.11 8.31605 148.821 8.8402C149.537 9.36435 149.955 10.0781 150.074 10.9815ZM157.235 8.18182V10.2273H151.322V8.18182H157.235ZM152.664 5.82955H155.387V14.983C155.387 15.2344 155.426 15.4304 155.502 15.571C155.579 15.7074 155.686 15.8033 155.822 15.8587C155.963 15.9141 156.125 15.9418 156.308 15.9418C156.436 15.9418 156.564 15.9311 156.691 15.9098C156.819 15.8842 156.917 15.8651 156.985 15.8523L157.414 17.8786C157.277 17.9212 157.086 17.9702 156.838 18.0256C156.591 18.0852 156.291 18.1214 155.937 18.1342C155.281 18.1598 154.706 18.0724 154.211 17.8722C153.721 17.6719 153.34 17.3608 153.067 16.9389C152.794 16.517 152.66 15.9844 152.664 15.3409V5.82955Z" fill="white"/>
<circle cx="4" cy="53" r="3.5" stroke="white"/>
<circle cx="396" cy="53" r="3.5" stroke="white"/>
<path d="M32 53L22 47.2265V58.7735L32 53ZM8 54H23V52H8V54Z" fill="white"/>
<path d="M94 53L84 47.2265V58.7735L94 53ZM68 54H85V52H68V54Z" fill="white"/>
<path d="M129 53L119 47.2265V58.7735L129 53ZM68 54H120V52H68V54Z" fill="white"/>
<path d="M326 53L316 47.2265V58.7735L326 53ZM273 54H317V52H273V54Z" fill="white"/>
<path d="M392 53L382 47.2265V58.7735L392 53ZM359 54H383V52H359V54Z" fill="white"/>
<path d="M184.5 117L111 117C105.477 117 101 112.523 101 107L101 63C101 57.4772 105.477 53 111 53L123 53" stroke="white" stroke-width="2"/>
<path d="M220 118L230 123.774V112.226L220 118ZM274.73 54H291V52H274.73V54ZM291 117H229V119H291V117ZM300 63V85.5H302V63H300ZM300 85.5V108H302V85.5H300ZM291 119C297.075 119 302 114.075 302 108H300C300 112.971 295.971 117 291 117V119ZM291 54C295.971 54 300 58.0294 300 63H302C302 56.9249 297.075 52 291 52V54Z" fill="white"/>
<circle cx="51.5" cy="53.5" r="16" stroke="white"/>
<path d="M48.6875 53.7521C48.6875 52.1669 48.8984 50.7074 49.3203 49.3736C49.7464 48.0398 50.3963 46.804 51.2699 45.6662H53.8714C53.5391 46.0881 53.2301 46.6037 52.9446 47.2131C52.6591 47.8182 52.4098 48.483 52.1967 49.2074C51.9837 49.9318 51.8175 50.6818 51.6982 51.4574C51.5788 52.2287 51.5192 52.9936 51.5192 53.7521C51.5192 54.7621 51.6214 55.7827 51.826 56.8139C52.0348 57.8409 52.3161 58.7955 52.6697 59.6776C53.0277 60.5597 53.4283 61.282 53.8714 61.8445H51.2699C50.3963 60.7067 49.7464 59.4709 49.3203 58.1371C48.8984 56.8033 48.6875 55.3416 48.6875 53.7521Z" fill="white"/>
<circle cx="342.5" cy="53.5" r="16" stroke="white"/>
<circle cx="201.5" cy="116.5" r="16" stroke="white"/>
<path d="M345.676 53.7521C345.676 55.3416 345.463 56.8033 345.037 58.1371C344.615 59.4709 343.967 60.7067 343.094 61.8445H340.492C340.825 61.4226 341.134 60.907 341.419 60.2976C341.705 59.6882 341.954 59.0234 342.167 58.3033C342.38 57.5788 342.546 56.8288 342.665 56.0533C342.785 55.2777 342.844 54.5107 342.844 53.7521C342.844 52.7422 342.74 51.7237 342.531 50.6967C342.327 49.6655 342.045 48.7109 341.688 47.8331C341.334 46.951 340.935 46.2287 340.492 45.6662H343.094C343.967 46.804 344.615 48.0398 345.037 49.3736C345.463 50.7074 345.676 52.1669 345.676 53.7521Z" fill="white"/>
<path d="M203.046 120.21L202.976 120.913C202.92 121.476 202.814 122.036 202.656 122.594C202.503 123.157 202.341 123.666 202.17 124.122C202.004 124.578 201.87 124.936 201.768 125.196H200.004C200.067 124.945 200.155 124.593 200.266 124.141C200.376 123.694 200.481 123.191 200.579 122.633C200.677 122.075 200.739 121.506 200.764 120.926L200.796 120.21H203.046Z" fill="white"/>
<path d="M144.523 59.1918C143.517 59.1918 142.652 58.9787 141.928 58.5526C141.207 58.1222 140.653 57.5256 140.266 56.7628C139.882 56 139.69 55.1222 139.69 54.1293C139.69 53.1236 139.884 52.2415 140.272 51.483C140.664 50.7202 141.22 50.1257 141.94 49.6996C142.661 49.2692 143.517 49.054 144.51 49.054C145.366 49.054 146.116 49.2095 146.76 49.5206C147.403 49.8317 147.913 50.2685 148.288 50.831C148.663 51.3935 148.869 52.054 148.908 52.8125H146.338C146.266 52.3224 146.074 51.9283 145.763 51.63C145.456 51.3274 145.053 51.1761 144.555 51.1761C144.133 51.1761 143.764 51.2912 143.449 51.5213C143.138 51.7472 142.895 52.0774 142.72 52.5121C142.545 52.9467 142.458 53.473 142.458 54.0909C142.458 54.7173 142.543 55.25 142.714 55.6889C142.888 56.1278 143.134 56.4624 143.449 56.6925C143.764 56.9226 144.133 57.0376 144.555 57.0376C144.866 57.0376 145.145 56.9737 145.392 56.8459C145.643 56.718 145.85 56.5327 146.012 56.2898C146.178 56.0426 146.287 55.7464 146.338 55.4013H148.908C148.865 56.1513 148.661 56.8118 148.294 57.3828C147.932 57.9496 147.431 58.3928 146.792 58.7124C146.153 59.032 145.396 59.1918 144.523 59.1918ZM155.087 59.1918C154.094 59.1918 153.236 58.9808 152.511 58.5589C151.791 58.1328 151.235 57.5405 150.843 56.782C150.451 56.0192 150.255 55.1349 150.255 54.1293C150.255 53.1151 150.451 52.2287 150.843 51.4702C151.235 50.7074 151.791 50.1151 152.511 49.6932C153.236 49.267 154.094 49.054 155.087 49.054C156.08 49.054 156.937 49.267 157.657 49.6932C158.381 50.1151 158.939 50.7074 159.331 51.4702C159.724 52.2287 159.92 53.1151 159.92 54.1293C159.92 55.1349 159.724 56.0192 159.331 56.782C158.939 57.5405 158.381 58.1328 157.657 58.5589C156.937 58.9808 156.08 59.1918 155.087 59.1918ZM155.1 57.0824C155.552 57.0824 155.929 56.9545 156.231 56.6989C156.534 56.4389 156.762 56.0852 156.915 55.6378C157.073 55.1903 157.152 54.6811 157.152 54.1101C157.152 53.5391 157.073 53.0298 156.915 52.5824C156.762 52.1349 156.534 51.7812 156.231 51.5213C155.929 51.2614 155.552 51.1314 155.1 51.1314C154.644 51.1314 154.26 51.2614 153.949 51.5213C153.643 51.7812 153.41 52.1349 153.253 52.5824C153.099 53.0298 153.023 53.5391 153.023 54.1101C153.023 54.6811 153.099 55.1903 153.253 55.6378C153.41 56.0852 153.643 56.4389 153.949 56.6989C154.26 56.9545 154.644 57.0824 155.1 57.0824ZM164.413 45.9091V59H161.69V45.9091H164.413ZM172.891 54.8196V49.1818H175.614V59H172.999V57.2166H172.897C172.675 57.7919 172.307 58.2543 171.791 58.6037C171.28 58.9531 170.656 59.1278 169.918 59.1278C169.262 59.1278 168.685 58.9787 168.186 58.6804C167.688 58.3821 167.298 57.9581 167.016 57.4084C166.739 56.8587 166.599 56.2003 166.594 55.4332V49.1818H169.317V54.9474C169.322 55.527 169.477 55.9851 169.784 56.3217C170.091 56.6584 170.502 56.8267 171.018 56.8267C171.346 56.8267 171.653 56.7521 171.938 56.603C172.224 56.4496 172.454 56.2237 172.629 55.9254C172.808 55.6271 172.895 55.2585 172.891 54.8196ZM177.792 59V49.1818H180.387V50.9141H180.502C180.706 50.3388 181.047 49.8849 181.525 49.5526C182.002 49.2202 182.573 49.054 183.238 49.054C183.911 49.054 184.484 49.2223 184.957 49.5589C185.43 49.8913 185.746 50.343 185.903 50.9141H186.006C186.206 50.3516 186.568 49.902 187.092 49.5653C187.621 49.2244 188.245 49.054 188.965 49.054C189.881 49.054 190.625 49.3459 191.196 49.9297C191.771 50.5092 192.059 51.3317 192.059 52.397V59H189.342V52.9339C189.342 52.3885 189.197 51.9794 188.907 51.7067C188.618 51.4339 188.256 51.2976 187.821 51.2976C187.327 51.2976 186.941 51.4553 186.664 51.7706C186.387 52.0817 186.248 52.4929 186.248 53.0043V59H183.608V52.8764C183.608 52.3949 183.47 52.0114 183.193 51.7259C182.92 51.4403 182.56 51.2976 182.113 51.2976C181.81 51.2976 181.537 51.3743 181.295 51.5277C181.056 51.6768 180.866 51.8878 180.726 52.1605C180.585 52.429 180.515 52.7443 180.515 53.1065V59H177.792ZM196.933 53.3239V59H194.21V49.1818H196.805V50.9141H196.92C197.137 50.343 197.502 49.8913 198.013 49.5589C198.524 49.2223 199.144 49.054 199.873 49.054C200.555 49.054 201.149 49.2031 201.656 49.5014C202.164 49.7997 202.558 50.2259 202.839 50.7798C203.12 51.3295 203.261 51.9858 203.261 52.7486V59H200.538V53.2344C200.542 52.6335 200.389 52.1648 200.078 51.8281C199.767 51.4872 199.338 51.3168 198.793 51.3168C198.426 51.3168 198.102 51.3956 197.821 51.5533C197.544 51.7109 197.327 51.9411 197.169 52.2436C197.016 52.5419 196.937 52.902 196.933 53.3239ZM211.524 52.544V54.7045H205.554V52.544H211.524ZM216.567 53.3239V59H213.844V49.1818H216.44V50.9141H216.555C216.772 50.343 217.136 49.8913 217.648 49.5589C218.159 49.2223 218.779 49.054 219.508 49.054C220.19 49.054 220.784 49.2031 221.291 49.5014C221.798 49.7997 222.192 50.2259 222.474 50.7798C222.755 51.3295 222.896 51.9858 222.896 52.7486V59H220.173V53.2344C220.177 52.6335 220.023 52.1648 219.712 51.8281C219.401 51.4872 218.973 51.3168 218.428 51.3168C218.061 51.3168 217.737 51.3956 217.456 51.5533C217.179 51.7109 216.962 51.9411 216.804 52.2436C216.651 52.5419 216.572 52.902 216.567 53.3239ZM227.841 59.1854C227.215 59.1854 226.657 59.0767 226.167 58.8594C225.677 58.6378 225.289 58.3118 225.003 57.8814C224.722 57.4467 224.581 56.9055 224.581 56.2578C224.581 55.7124 224.682 55.2543 224.882 54.8835C225.082 54.5128 225.355 54.2145 225.7 53.9886C226.045 53.7628 226.437 53.5923 226.876 53.4773C227.319 53.3622 227.784 53.2812 228.27 53.2344C228.841 53.1747 229.301 53.1193 229.65 53.0682C230 53.0128 230.253 52.9318 230.411 52.8253C230.569 52.7187 230.648 52.5611 230.648 52.3523V52.3139C230.648 51.9091 230.52 51.5959 230.264 51.3743C230.013 51.1527 229.655 51.0419 229.19 51.0419C228.7 51.0419 228.31 51.1506 228.02 51.3679C227.731 51.581 227.539 51.8494 227.445 52.1733L224.927 51.9688C225.055 51.3722 225.306 50.8565 225.681 50.4219C226.056 49.983 226.54 49.6463 227.132 49.4119C227.729 49.1733 228.419 49.054 229.203 49.054C229.748 49.054 230.27 49.1179 230.769 49.2457C231.272 49.3736 231.717 49.5717 232.105 49.8402C232.497 50.1087 232.806 50.4538 233.032 50.8757C233.258 51.2933 233.371 51.794 233.371 52.3778V59H230.788V57.6385H230.711C230.554 57.9453 230.343 58.2159 230.079 58.4503C229.814 58.6804 229.497 58.8615 229.126 58.9936C228.756 59.1214 228.327 59.1854 227.841 59.1854ZM228.621 57.3061C229.022 57.3061 229.376 57.2273 229.682 57.0696C229.989 56.9077 230.23 56.6903 230.405 56.4176C230.579 56.1449 230.667 55.8359 230.667 55.4908V54.4489C230.581 54.5043 230.464 54.5554 230.315 54.6023C230.17 54.6449 230.006 54.6854 229.823 54.7237C229.64 54.7578 229.456 54.7898 229.273 54.8196C229.09 54.8452 228.924 54.8686 228.775 54.8899C228.455 54.9368 228.176 55.0114 227.937 55.1136C227.699 55.2159 227.513 55.3544 227.381 55.5291C227.249 55.6996 227.183 55.9126 227.183 56.1683C227.183 56.5391 227.317 56.8224 227.586 57.0185C227.858 57.2102 228.204 57.3061 228.621 57.3061ZM235.483 59V49.1818H238.078V50.9141H238.193C238.398 50.3388 238.739 49.8849 239.216 49.5526C239.693 49.2202 240.264 49.054 240.929 49.054C241.602 49.054 242.176 49.2223 242.649 49.5589C243.122 49.8913 243.437 50.343 243.595 50.9141H243.697C243.897 50.3516 244.259 49.902 244.784 49.5653C245.312 49.2244 245.936 49.054 246.656 49.054C247.573 49.054 248.316 49.3459 248.887 49.9297C249.463 50.5092 249.75 51.3317 249.75 52.397V59H247.034V52.9339C247.034 52.3885 246.889 51.9794 246.599 51.7067C246.309 51.4339 245.947 51.2976 245.512 51.2976C245.018 51.2976 244.632 51.4553 244.355 51.7706C244.078 52.0817 243.94 52.4929 243.94 53.0043V59H241.3V52.8764C241.3 52.3949 241.161 52.0114 240.884 51.7259C240.612 51.4403 240.252 51.2976 239.804 51.2976C239.502 51.2976 239.229 51.3743 238.986 51.5277C238.747 51.6768 238.558 51.8878 238.417 52.1605C238.276 52.429 238.206 52.7443 238.206 53.1065V59H235.483ZM256.376 59.1918C255.366 59.1918 254.496 58.9872 253.768 58.5781C253.043 58.1648 252.485 57.581 252.093 56.8267C251.701 56.0682 251.505 55.1712 251.505 54.1357C251.505 53.1257 251.701 52.2393 252.093 51.4766C252.485 50.7138 253.037 50.1193 253.748 49.6932C254.464 49.267 255.304 49.054 256.267 49.054C256.915 49.054 257.518 49.1584 258.076 49.3672C258.638 49.5717 259.128 49.8807 259.546 50.294C259.968 50.7074 260.296 51.2273 260.53 51.8537C260.765 52.4759 260.882 53.2045 260.882 54.0398V54.7876H252.591V53.1001H258.319C258.319 52.7081 258.233 52.3608 258.063 52.0582C257.893 51.7557 257.656 51.5192 257.354 51.3487C257.055 51.174 256.708 51.0866 256.312 51.0866C255.898 51.0866 255.532 51.1825 255.212 51.3743C254.897 51.5618 254.65 51.8153 254.471 52.1349C254.292 52.4503 254.2 52.8018 254.196 53.1896V54.794C254.196 55.2798 254.285 55.6996 254.464 56.0533C254.648 56.407 254.905 56.6797 255.238 56.8714C255.57 57.0632 255.964 57.1591 256.42 57.1591C256.723 57.1591 257 57.1165 257.251 57.0312C257.503 56.946 257.718 56.8182 257.897 56.6477C258.076 56.4773 258.212 56.2685 258.306 56.0213L260.824 56.1875C260.697 56.7926 260.434 57.321 260.038 57.7727C259.646 58.2202 259.139 58.5696 258.517 58.821C257.899 59.0682 257.185 59.1918 256.376 59.1918Z" fill="white"/>
<rect x="129.5" y="37.5" width="143" height="32" rx="16" stroke="white"/>
</svg>
