<svg width="678" height="193" viewBox="0 0 678 193" fill="none" xmlns="http://www.w3.org/2000/svg">
<path d="M5.52273 18.1918C4.51705 18.1918 3.65199 17.9787 2.92756 17.5526C2.20739 17.1222 1.65341 16.5256 1.26562 15.7628C0.882102 15 0.690341 14.1222 0.690341 13.1293C0.690341 12.1236 0.884233 11.2415 1.27202 10.483C1.66406 9.72017 2.22017 9.12571 2.94034 8.69957C3.66051 8.26918 4.51705 8.05398 5.50994 8.05398C6.36648 8.05398 7.11648 8.20952 7.75994 8.5206C8.40341 8.83168 8.91264 9.26847 9.28764 9.83097C9.66264 10.3935 9.86932 11.054 9.90767 11.8125H7.33807C7.26563 11.3224 7.07386 10.9283 6.76278 10.63C6.45597 10.3274 6.05327 10.1761 5.55469 10.1761C5.13281 10.1761 4.7642 10.2912 4.44886 10.5213C4.13778 10.7472 3.89489 11.0774 3.72017 11.5121C3.54545 11.9467 3.4581 12.473 3.4581 13.0909C3.4581 13.7173 3.54332 14.25 3.71378 14.6889C3.88849 15.1278 4.13352 15.4624 4.44886 15.6925C4.7642 15.9226 5.13281 16.0376 5.55469 16.0376C5.86577 16.0376 6.14489 15.9737 6.39205 15.8459C6.64347 15.718 6.85014 15.5327 7.01207 15.2898C7.17827 15.0426 7.28693 14.7464 7.33807 14.4013H9.90767C9.86506 15.1513 9.66051 15.8118 9.29403 16.3828C8.93182 16.9496 8.43111 17.3928 7.7919 17.7124C7.1527 18.032 6.39631 18.1918 5.52273 18.1918ZM16.0872 18.1918C15.0943 18.1918 14.2356 17.9808 13.5112 17.5589C12.791 17.1328 12.2349 16.5405 11.8429 15.782C11.4508 15.0192 11.2548 14.1349 11.2548 13.1293C11.2548 12.1151 11.4508 11.2287 11.8429 10.4702C12.2349 9.70739 12.791 9.11506 13.5112 8.69318C14.2356 8.26705 15.0943 8.05398 16.0872 8.05398C17.0801 8.05398 17.9366 8.26705 18.6568 8.69318C19.3812 9.11506 19.9395 9.70739 20.3315 10.4702C20.7235 11.2287 20.9196 12.1151 20.9196 13.1293C20.9196 14.1349 20.7235 15.0192 20.3315 15.782C19.9395 16.5405 19.3812 17.1328 18.6568 17.5589C17.9366 17.9808 17.0801 18.1918 16.0872 18.1918ZM16.1 16.0824C16.5517 16.0824 16.9288 15.9545 17.2314 15.6989C17.5339 15.4389 17.7619 15.0852 17.9153 14.6378C18.073 14.1903 18.1518 13.6811 18.1518 13.1101C18.1518 12.5391 18.073 12.0298 17.9153 11.5824C17.7619 11.1349 17.5339 10.7812 17.2314 10.5213C16.9288 10.2614 16.5517 10.1314 16.1 10.1314C15.644 10.1314 15.2605 10.2614 14.9494 10.5213C14.6426 10.7812 14.4103 11.1349 14.2527 11.5824C14.0993 12.0298 14.0225 12.5391 14.0225 13.1101C14.0225 13.6811 14.0993 14.1903 14.2527 14.6378C14.4103 15.0852 14.6426 15.4389 14.9494 15.6989C15.2605 15.9545 15.644 16.0824 16.1 16.0824ZM22.6902 18V8.18182H25.2853V9.91406H25.4004C25.6049 9.33878 25.9458 8.88494 26.4231 8.55256C26.9004 8.22017 27.4714 8.05398 28.1362 8.05398C28.8095 8.05398 29.3826 8.2223 29.8556 8.55895C30.3287 8.89133 30.644 9.34304 30.8017 9.91406H30.9039C31.1042 9.35156 31.4664 8.90199 31.9906 8.56534C32.519 8.22443 33.1433 8.05398 33.8635 8.05398C34.7797 8.05398 35.5233 8.34588 36.0943 8.92969C36.6696 9.50923 36.9572 10.3317 36.9572 11.397V18H34.2406V11.9339C34.2406 11.3885 34.0957 10.9794 33.8059 10.7067C33.5162 10.4339 33.1539 10.2976 32.7193 10.2976C32.225 10.2976 31.8393 10.4553 31.5623 10.7706C31.2853 11.0817 31.1468 11.4929 31.1468 12.0043V18H28.5069V11.8764C28.5069 11.3949 28.3684 11.0114 28.0914 10.7259C27.8187 10.4403 27.4586 10.2976 27.0112 10.2976C26.7086 10.2976 26.4359 10.3743 26.193 10.5277C25.9544 10.6768 25.7647 10.8878 25.6241 11.1605C25.4835 11.429 25.4132 11.7443 25.4132 12.1065V18H22.6902ZM39.1081 18V8.18182H41.7033V9.91406H41.8184C42.0229 9.33878 42.3638 8.88494 42.8411 8.55256C43.3184 8.22017 43.8894 8.05398 44.5542 8.05398C45.2275 8.05398 45.8006 8.2223 46.2736 8.55895C46.7466 8.89133 47.062 9.34304 47.2196 9.91406H47.3219C47.5222 9.35156 47.8844 8.90199 48.4086 8.56534C48.937 8.22443 49.5613 8.05398 50.2814 8.05398C51.1976 8.05398 51.9412 8.34588 52.5123 8.92969C53.0875 9.50923 53.3752 10.3317 53.3752 11.397V18H50.6586V11.9339C50.6586 11.3885 50.5137 10.9794 50.2239 10.7067C49.9341 10.4339 49.5719 10.2976 49.1373 10.2976C48.6429 10.2976 48.2573 10.4553 47.9803 10.7706C47.7033 11.0817 47.5648 11.4929 47.5648 12.0043V18H44.9249V11.8764C44.9249 11.3949 44.7864 11.0114 44.5094 10.7259C44.2367 10.4403 43.8766 10.2976 43.4292 10.2976C43.1266 10.2976 42.8539 10.3743 42.611 10.5277C42.3723 10.6768 42.1827 10.8878 42.0421 11.1605C41.9015 11.429 41.8311 11.7443 41.8311 12.1065V18H39.1081ZM59.9622 18.1918C58.9693 18.1918 58.1106 17.9808 57.3862 17.5589C56.666 17.1328 56.1099 16.5405 55.7179 15.782C55.3258 15.0192 55.1298 14.1349 55.1298 13.1293C55.1298 12.1151 55.3258 11.2287 55.7179 10.4702C56.1099 9.70739 56.666 9.11506 57.3862 8.69318C58.1106 8.26705 58.9693 8.05398 59.9622 8.05398C60.9551 8.05398 61.8116 8.26705 62.5318 8.69318C63.2562 9.11506 63.8145 9.70739 64.2065 10.4702C64.5985 11.2287 64.7946 12.1151 64.7946 13.1293C64.7946 14.1349 64.5985 15.0192 64.2065 15.782C63.8145 16.5405 63.2562 17.1328 62.5318 17.5589C61.8116 17.9808 60.9551 18.1918 59.9622 18.1918ZM59.975 16.0824C60.4267 16.0824 60.8038 15.9545 61.1064 15.6989C61.4089 15.4389 61.6369 15.0852 61.7903 14.6378C61.948 14.1903 62.0268 13.6811 62.0268 13.1101C62.0268 12.5391 61.948 12.0298 61.7903 11.5824C61.6369 11.1349 61.4089 10.7812 61.1064 10.5213C60.8038 10.2614 60.4267 10.1314 59.975 10.1314C59.519 10.1314 59.1355 10.2614 58.8244 10.5213C58.5176 10.7812 58.2853 11.1349 58.1277 11.5824C57.9743 12.0298 57.8975 12.5391 57.8975 13.1101C57.8975 13.6811 57.9743 14.1903 58.1277 14.6378C58.2853 15.0852 58.5176 15.4389 58.8244 15.6989C59.1355 15.9545 59.519 16.0824 59.975 16.0824ZM69.2882 12.3239V18H66.5652V8.18182H69.1603V9.91406H69.2754C69.4927 9.34304 69.8571 8.89133 70.3684 8.55895C70.8798 8.2223 71.4998 8.05398 72.2285 8.05398C72.9103 8.05398 73.5048 8.20312 74.0119 8.50142C74.519 8.79972 74.9132 9.22585 75.1944 9.77983C75.4757 10.3295 75.6163 10.9858 75.6163 11.7486V18H72.8933V12.2344C72.8975 11.6335 72.7441 11.1648 72.4331 10.8281C72.122 10.4872 71.6937 10.3168 71.1483 10.3168C70.7818 10.3168 70.4579 10.3956 70.1767 10.5533C69.8997 10.7109 69.6824 10.9411 69.5247 11.2436C69.3713 11.5419 69.2924 11.902 69.2882 12.3239ZM83.8796 11.544V13.7045H77.9094V11.544H83.8796ZM91.4222 8.18182V10.2273H85.5096V8.18182H91.4222ZM86.8519 5.82955H89.5749V14.983C89.5749 15.2344 89.6133 15.4304 89.69 15.571C89.7667 15.7074 89.8732 15.8033 90.0096 15.8587C90.1502 15.9141 90.3121 15.9418 90.4954 15.9418C90.6232 15.9418 90.7511 15.9311 90.8789 15.9098C91.0067 15.8842 91.1048 15.8651 91.1729 15.8523L91.6012 17.8786C91.4648 17.9212 91.2731 17.9702 91.0259 18.0256C90.7788 18.0852 90.4783 18.1214 90.1246 18.1342C89.4684 18.1598 88.8931 18.0724 88.3988 17.8722C87.9087 17.6719 87.5273 17.3608 87.2546 16.9389C86.9819 16.517 86.8477 15.9844 86.8519 15.3409V5.82955ZM95.9957 18.1854C95.3693 18.1854 94.8111 18.0767 94.321 17.8594C93.831 17.6378 93.4432 17.3118 93.1577 16.8814C92.8764 16.4467 92.7358 15.9055 92.7358 15.2578C92.7358 14.7124 92.8359 14.2543 93.0362 13.8835C93.2365 13.5128 93.5092 13.2145 93.8544 12.9886C94.1996 12.7628 94.5916 12.5923 95.0305 12.4773C95.4737 12.3622 95.9382 12.2812 96.424 12.2344C96.995 12.1747 97.4553 12.1193 97.8047 12.0682C98.1541 12.0128 98.4077 11.9318 98.5653 11.8253C98.723 11.7187 98.8018 11.5611 98.8018 11.3523V11.3139C98.8018 10.9091 98.674 10.5959 98.4183 10.3743C98.1669 10.1527 97.8089 10.0419 97.3445 10.0419C96.8544 10.0419 96.4645 10.1506 96.1747 10.3679C95.8849 10.581 95.6932 10.8494 95.5994 11.1733L93.081 10.9688C93.2088 10.3722 93.4602 9.85653 93.8352 9.42188C94.2102 8.98295 94.6939 8.64631 95.2862 8.41193C95.8828 8.1733 96.5732 8.05398 97.3572 8.05398C97.9027 8.05398 98.4247 8.1179 98.9233 8.24574C99.4261 8.37358 99.8714 8.57173 100.259 8.8402C100.651 9.10866 100.96 9.45384 101.186 9.87571C101.412 10.2933 101.525 10.794 101.525 11.3778V18H98.9425V16.6385H98.8658C98.7081 16.9453 98.4972 17.2159 98.233 17.4503C97.9688 17.6804 97.6513 17.8615 97.2805 17.9936C96.9098 18.1214 96.4815 18.1854 95.9957 18.1854ZM96.7756 16.3061C97.1761 16.3061 97.5298 16.2273 97.8366 16.0696C98.1435 15.9077 98.3842 15.6903 98.5589 15.4176C98.7337 15.1449 98.821 14.8359 98.821 14.4908V13.4489C98.7358 13.5043 98.6186 13.5554 98.4695 13.6023C98.3246 13.6449 98.1605 13.6854 97.9773 13.7237C97.794 13.7578 97.6108 13.7898 97.4276 13.8196C97.2443 13.8452 97.0781 13.8686 96.929 13.8899C96.6094 13.9368 96.3303 14.0114 96.0916 14.1136C95.853 14.2159 95.6676 14.3544 95.5355 14.5291C95.4034 14.6996 95.3374 14.9126 95.3374 15.1683C95.3374 15.5391 95.4716 15.8224 95.7401 16.0185C96.0128 16.2102 96.358 16.3061 96.7756 16.3061ZM103.689 18V4.90909H106.412V9.83097H106.495C106.614 9.56676 106.787 9.2983 107.012 9.02557C107.243 8.74858 107.541 8.51847 107.907 8.33523C108.278 8.14773 108.738 8.05398 109.288 8.05398C110.004 8.05398 110.664 8.24148 111.27 8.61648C111.875 8.98722 112.358 9.54759 112.721 10.2976C113.083 11.0433 113.264 11.9787 113.264 13.1037C113.264 14.1989 113.087 15.1236 112.733 15.8778C112.384 16.6278 111.907 17.1967 111.301 17.5845C110.701 17.968 110.027 18.1598 109.282 18.1598C108.753 18.1598 108.304 18.0724 107.933 17.8977C107.566 17.723 107.266 17.5036 107.032 17.2393C106.797 16.9709 106.618 16.7003 106.495 16.4276H106.373V18H103.689ZM106.354 13.0909C106.354 13.6747 106.435 14.1839 106.597 14.6186C106.759 15.0533 106.993 15.392 107.3 15.6349C107.607 15.8736 107.98 15.9929 108.419 15.9929C108.862 15.9929 109.237 15.8714 109.544 15.6286C109.85 15.3814 110.083 15.0405 110.24 14.6058C110.402 14.1669 110.483 13.6619 110.483 13.0909C110.483 12.5241 110.404 12.0256 110.247 11.5952C110.089 11.1648 109.857 10.8281 109.55 10.5852C109.243 10.3423 108.866 10.2209 108.419 10.2209C107.975 10.2209 107.6 10.3381 107.294 10.5724C106.991 10.8068 106.759 11.1392 106.597 11.5696C106.435 12 106.354 12.5071 106.354 13.0909ZM117.804 4.90909V18H115.081V4.90909H117.804ZM124.46 18.1918C123.45 18.1918 122.58 17.9872 121.852 17.5781C121.127 17.1648 120.569 16.581 120.177 15.8267C119.785 15.0682 119.589 14.1712 119.589 13.1357C119.589 12.1257 119.785 11.2393 120.177 10.4766C120.569 9.71378 121.121 9.11932 121.832 8.69318C122.548 8.26705 123.388 8.05398 124.351 8.05398C124.999 8.05398 125.602 8.15838 126.16 8.36719C126.722 8.57173 127.212 8.88068 127.63 9.29403C128.052 9.70739 128.38 10.2273 128.614 10.8537C128.849 11.4759 128.966 12.2045 128.966 13.0398V13.7876H120.675V12.1001H126.403C126.403 11.7081 126.317 11.3608 126.147 11.0582C125.977 10.7557 125.74 10.5192 125.438 10.3487C125.139 10.174 124.792 10.0866 124.396 10.0866C123.982 10.0866 123.616 10.1825 123.296 10.3743C122.981 10.5618 122.734 10.8153 122.555 11.1349C122.376 11.4503 122.284 11.8018 122.28 12.1896V13.794C122.28 14.2798 122.369 14.6996 122.548 15.0533C122.732 15.407 122.989 15.6797 123.322 15.8714C123.654 16.0632 124.048 16.1591 124.504 16.1591C124.807 16.1591 125.084 16.1165 125.335 16.0312C125.587 15.946 125.802 15.8182 125.981 15.6477C126.16 15.4773 126.296 15.2685 126.39 15.0213L128.908 15.1875C128.781 15.7926 128.518 16.321 128.122 16.7727C127.73 17.2202 127.223 17.5696 126.601 17.821C125.983 18.0682 125.269 18.1918 124.46 18.1918ZM136.86 11.544V13.7045H130.89V11.544H136.86ZM143.655 18.1918C142.645 18.1918 141.776 17.9872 141.047 17.5781C140.322 17.1648 139.764 16.581 139.372 15.8267C138.98 15.0682 138.784 14.1712 138.784 13.1357C138.784 12.1257 138.98 11.2393 139.372 10.4766C139.764 9.71378 140.316 9.11932 141.028 8.69318C141.744 8.26705 142.583 8.05398 143.546 8.05398C144.194 8.05398 144.797 8.15838 145.355 8.36719C145.918 8.57173 146.408 8.88068 146.825 9.29403C147.247 9.70739 147.575 10.2273 147.81 10.8537C148.044 11.4759 148.161 12.2045 148.161 13.0398V13.7876H139.871V12.1001H145.598C145.598 11.7081 145.513 11.3608 145.342 11.0582C145.172 10.7557 144.935 10.5192 144.633 10.3487C144.335 10.174 143.987 10.0866 143.591 10.0866C143.178 10.0866 142.811 10.1825 142.491 10.3743C142.176 10.5618 141.929 10.8153 141.75 11.1349C141.571 11.4503 141.479 11.8018 141.475 12.1896V13.794C141.475 14.2798 141.565 14.6996 141.744 15.0533C141.927 15.407 142.185 15.6797 142.517 15.8714C142.849 16.0632 143.244 16.1591 143.7 16.1591C144.002 16.1591 144.279 16.1165 144.531 16.0312C144.782 15.946 144.997 15.8182 145.176 15.6477C145.355 15.4773 145.491 15.2685 145.585 15.0213L148.104 15.1875C147.976 15.7926 147.714 16.321 147.317 16.7727C146.925 17.2202 146.418 17.5696 145.796 17.821C145.178 18.0682 144.464 18.1918 143.655 18.1918ZM152.038 8.18182L153.841 11.6143L155.688 8.18182H158.481L155.637 13.0909L158.558 18H155.777L153.841 14.6058L151.936 18H149.123L152.038 13.0909L149.225 8.18182H152.038ZM160.098 21.6818V8.18182H162.783V9.83097H162.904C163.024 9.56676 163.196 9.2983 163.422 9.02557C163.652 8.74858 163.951 8.51847 164.317 8.33523C164.688 8.14773 165.148 8.05398 165.698 8.05398C166.414 8.05398 167.074 8.24148 167.679 8.61648C168.284 8.98722 168.768 9.54759 169.13 10.2976C169.493 11.0433 169.674 11.9787 169.674 13.1037C169.674 14.1989 169.497 15.1236 169.143 15.8778C168.794 16.6278 168.316 17.1967 167.711 17.5845C167.11 17.968 166.437 18.1598 165.691 18.1598C165.163 18.1598 164.713 18.0724 164.343 17.8977C163.976 17.723 163.676 17.5036 163.441 17.2393C163.207 16.9709 163.028 16.7003 162.904 16.4276H162.821V21.6818H160.098ZM162.764 13.0909C162.764 13.6747 162.845 14.1839 163.007 14.6186C163.169 15.0533 163.403 15.392 163.71 15.6349C164.017 15.8736 164.39 15.9929 164.828 15.9929C165.272 15.9929 165.647 15.8714 165.953 15.6286C166.26 15.3814 166.493 15.0405 166.65 14.6058C166.812 14.1669 166.893 13.6619 166.893 13.0909C166.893 12.5241 166.814 12.0256 166.657 11.5952C166.499 11.1648 166.267 10.8281 165.96 10.5852C165.653 10.3423 165.276 10.2209 164.828 10.2209C164.385 10.2209 164.01 10.3381 163.703 10.5724C163.401 10.8068 163.169 11.1392 163.007 11.5696C162.845 12 162.764 12.5071 162.764 13.0909ZM171.489 18V8.18182H174.129V9.89489H174.231C174.41 9.28551 174.711 8.82528 175.132 8.5142C175.554 8.19886 176.04 8.04119 176.59 8.04119C176.726 8.04119 176.873 8.04972 177.031 8.06676C177.189 8.08381 177.327 8.10724 177.446 8.13707V10.5533C177.319 10.5149 177.142 10.4808 176.916 10.451C176.69 10.4212 176.483 10.4062 176.296 10.4062C175.895 10.4062 175.537 10.4936 175.222 10.6683C174.911 10.8388 174.664 11.0774 174.48 11.3842C174.301 11.6911 174.212 12.0447 174.212 12.4453V18H171.489ZM182.872 18.1918C181.862 18.1918 180.992 17.9872 180.264 17.5781C179.539 17.1648 178.981 16.581 178.589 15.8267C178.197 15.0682 178.001 14.1712 178.001 13.1357C178.001 12.1257 178.197 11.2393 178.589 10.4766C178.981 9.71378 179.533 9.11932 180.244 8.69318C180.96 8.26705 181.8 8.05398 182.763 8.05398C183.411 8.05398 184.014 8.15838 184.572 8.36719C185.134 8.57173 185.624 8.88068 186.042 9.29403C186.464 9.70739 186.792 10.2273 187.026 10.8537C187.261 11.4759 187.378 12.2045 187.378 13.0398V13.7876H179.088V12.1001H184.815C184.815 11.7081 184.73 11.3608 184.559 11.0582C184.389 10.7557 184.152 10.5192 183.85 10.3487C183.551 10.174 183.204 10.0866 182.808 10.0866C182.394 10.0866 182.028 10.1825 181.708 10.3743C181.393 10.5618 181.146 10.8153 180.967 11.1349C180.788 11.4503 180.696 11.8018 180.692 12.1896V13.794C180.692 14.2798 180.781 14.6996 180.96 15.0533C181.144 15.407 181.401 15.6797 181.734 15.8714C182.066 16.0632 182.46 16.1591 182.916 16.1591C183.219 16.1591 183.496 16.1165 183.747 16.0312C183.999 15.946 184.214 15.8182 184.393 15.6477C184.572 15.4773 184.708 15.2685 184.802 15.0213L187.32 15.1875C187.193 15.7926 186.931 16.321 186.534 16.7727C186.142 17.2202 185.635 17.5696 185.013 17.821C184.395 18.0682 183.681 18.1918 182.872 18.1918ZM197.324 10.9815L194.831 11.1349C194.789 10.9219 194.697 10.7301 194.556 10.5597C194.416 10.3849 194.23 10.2464 194 10.1442C193.774 10.0376 193.504 9.98438 193.188 9.98438C192.767 9.98438 192.411 10.0739 192.121 10.2528C191.831 10.4276 191.686 10.6619 191.686 10.956C191.686 11.1903 191.78 11.3885 191.968 11.5504C192.155 11.7124 192.477 11.8423 192.933 11.9403L194.71 12.2983C195.664 12.4943 196.376 12.8097 196.845 13.2443C197.313 13.679 197.548 14.25 197.548 14.9574C197.548 15.6009 197.358 16.1655 196.979 16.6513C196.604 17.1371 196.088 17.5163 195.432 17.7891C194.78 18.0575 194.028 18.1918 193.176 18.1918C191.876 18.1918 190.84 17.9212 190.069 17.38C189.302 16.8345 188.852 16.093 188.72 15.1555L191.399 15.0149C191.48 15.4112 191.676 15.7138 191.987 15.9226C192.298 16.1271 192.696 16.2294 193.182 16.2294C193.659 16.2294 194.043 16.1378 194.333 15.9545C194.627 15.767 194.776 15.5263 194.78 15.2322C194.776 14.9851 194.671 14.7827 194.467 14.625C194.262 14.4631 193.947 14.3395 193.521 14.2543L191.82 13.9155C190.862 13.7237 190.148 13.3913 189.679 12.9183C189.215 12.4453 188.982 11.8423 188.982 11.1094C188.982 10.4787 189.153 9.93537 189.494 9.4794C189.839 9.02344 190.323 8.67188 190.945 8.42472C191.571 8.17756 192.304 8.05398 193.144 8.05398C194.384 8.05398 195.36 8.31605 196.071 8.8402C196.787 9.36435 197.205 10.0781 197.324 10.9815ZM207.431 10.9815L204.939 11.1349C204.896 10.9219 204.804 10.7301 204.664 10.5597C204.523 10.3849 204.338 10.2464 204.108 10.1442C203.882 10.0376 203.611 9.98438 203.296 9.98438C202.874 9.98438 202.518 10.0739 202.228 10.2528C201.939 10.4276 201.794 10.6619 201.794 10.956C201.794 11.1903 201.887 11.3885 202.075 11.5504C202.262 11.7124 202.584 11.8423 203.04 11.9403L204.817 12.2983C205.772 12.4943 206.483 12.8097 206.952 13.2443C207.421 13.679 207.655 14.25 207.655 14.9574C207.655 15.6009 207.466 16.1655 207.086 16.6513C206.711 17.1371 206.196 17.5163 205.539 17.7891C204.887 18.0575 204.135 18.1918 203.283 18.1918C201.983 18.1918 200.948 17.9212 200.176 17.38C199.409 16.8345 198.96 16.093 198.828 15.1555L201.506 15.0149C201.587 15.4112 201.783 15.7138 202.094 15.9226C202.405 16.1271 202.804 16.2294 203.289 16.2294C203.767 16.2294 204.15 16.1378 204.44 15.9545C204.734 15.767 204.883 15.5263 204.887 15.2322C204.883 14.9851 204.779 14.7827 204.574 14.625C204.37 14.4631 204.054 14.3395 203.628 14.2543L201.928 13.9155C200.969 13.7237 200.255 13.3913 199.787 12.9183C199.322 12.4453 199.09 11.8423 199.09 11.1094C199.09 10.4787 199.26 9.93537 199.601 9.4794C199.946 9.02344 200.43 8.67188 201.052 8.42472C201.679 8.17756 202.412 8.05398 203.251 8.05398C204.491 8.05398 205.467 8.31605 206.179 8.8402C206.895 9.36435 207.312 10.0781 207.431 10.9815ZM209.37 18V8.18182H212.093V18H209.37ZM210.738 6.91619C210.333 6.91619 209.986 6.78196 209.696 6.51349C209.41 6.24077 209.268 5.91477 209.268 5.53551C209.268 5.16051 209.41 4.83878 209.696 4.57031C209.986 4.29758 210.333 4.16122 210.738 4.16122C211.143 4.16122 211.488 4.29758 211.773 4.57031C212.063 4.83878 212.208 5.16051 212.208 5.53551C212.208 5.91477 212.063 6.24077 211.773 6.51349C211.488 6.78196 211.143 6.91619 210.738 6.91619ZM218.71 18.1918C217.717 18.1918 216.859 17.9808 216.134 17.5589C215.414 17.1328 214.858 16.5405 214.466 15.782C214.074 15.0192 213.878 14.1349 213.878 13.1293C213.878 12.1151 214.074 11.2287 214.466 10.4702C214.858 9.70739 215.414 9.11506 216.134 8.69318C216.859 8.26705 217.717 8.05398 218.71 8.05398C219.703 8.05398 220.56 8.26705 221.28 8.69318C222.004 9.11506 222.562 9.70739 222.955 10.4702C223.347 11.2287 223.543 12.1151 223.543 13.1293C223.543 14.1349 223.347 15.0192 222.955 15.782C222.562 16.5405 222.004 17.1328 221.28 17.5589C220.56 17.9808 219.703 18.1918 218.71 18.1918ZM218.723 16.0824C219.175 16.0824 219.552 15.9545 219.854 15.6989C220.157 15.4389 220.385 15.0852 220.538 14.6378C220.696 14.1903 220.775 13.6811 220.775 13.1101C220.775 12.5391 220.696 12.0298 220.538 11.5824C220.385 11.1349 220.157 10.7812 219.854 10.5213C219.552 10.2614 219.175 10.1314 218.723 10.1314C218.267 10.1314 217.884 10.2614 217.572 10.5213C217.266 10.7812 217.033 11.1349 216.876 11.5824C216.722 12.0298 216.646 12.5391 216.646 13.1101C216.646 13.6811 216.722 14.1903 216.876 14.6378C217.033 15.0852 217.266 15.4389 217.572 15.6989C217.884 15.9545 218.267 16.0824 218.723 16.0824ZM228.036 12.3239V18H225.313V8.18182H227.908V9.91406H228.023C228.241 9.34304 228.605 8.89133 229.116 8.55895C229.628 8.2223 230.248 8.05398 230.977 8.05398C231.658 8.05398 232.253 8.20312 232.76 8.50142C233.267 8.79972 233.661 9.22585 233.942 9.77983C234.224 10.3295 234.364 10.9858 234.364 11.7486V18H231.641V12.2344C231.646 11.6335 231.492 11.1648 231.181 10.8281C230.87 10.4872 230.442 10.3168 229.896 10.3168C229.53 10.3168 229.206 10.3956 228.925 10.5533C228.648 10.7109 228.43 10.9411 228.273 11.2436C228.119 11.5419 228.04 11.902 228.036 12.3239Z" fill="white"/>
<circle cx="253.5" cy="66.5" r="16" stroke="white"/>
<path d="M250.688 66.7521C250.688 65.1669 250.898 63.7074 251.32 62.3736C251.746 61.0398 252.396 59.804 253.27 58.6662H255.871C255.539 59.0881 255.23 59.6037 254.945 60.2131C254.659 60.8182 254.41 61.483 254.197 62.2074C253.984 62.9318 253.817 63.6818 253.698 64.4574C253.579 65.2287 253.519 65.9936 253.519 66.7521C253.519 67.7621 253.621 68.7827 253.826 69.8139C254.035 70.8409 254.316 71.7955 254.67 72.6776C255.028 73.5597 255.428 74.282 255.871 74.8445H253.27C252.396 73.7067 251.746 72.4709 251.32 71.1371C250.898 69.8033 250.688 68.3416 250.688 66.7521Z" fill="white"/>
<circle cx="433.5" cy="176.5" r="16" stroke="white"/>
<path d="M430.688 176.752C430.688 175.167 430.898 173.707 431.32 172.374C431.746 171.04 432.396 169.804 433.27 168.666H435.871C435.539 169.088 435.23 169.604 434.945 170.213C434.659 170.818 434.41 171.483 434.197 172.207C433.984 172.932 433.817 173.682 433.698 174.457C433.579 175.229 433.519 175.994 433.519 176.752C433.519 177.762 433.621 178.783 433.826 179.814C434.035 180.841 434.316 181.795 434.67 182.678C435.028 183.56 435.428 184.282 435.871 184.844H433.27C432.396 183.707 431.746 182.471 431.32 181.137C430.898 179.803 430.688 178.342 430.688 176.752Z" fill="white"/>
<circle cx="545.5" cy="66.5" r="16" stroke="white"/>
<path d="M547.676 66.7521C547.676 68.3416 547.463 69.8033 547.037 71.1371C546.615 72.4709 545.967 73.7067 545.094 74.8445H542.492C542.825 74.4226 543.134 73.907 543.419 73.2976C543.705 72.6882 543.954 72.0234 544.167 71.3033C544.38 70.5788 544.546 69.8288 544.665 69.0533C544.785 68.2777 544.844 67.5107 544.844 66.7521C544.844 65.7422 544.74 64.7237 544.531 63.6967C544.327 62.6655 544.045 61.7109 543.688 60.8331C543.334 59.951 542.935 59.2287 542.492 58.6662H545.094C545.967 59.804 546.615 61.0398 547.037 62.3736C547.463 63.7074 547.676 65.1669 547.676 66.7521Z" fill="white"/>
<circle cx="422.5" cy="112.5" r="16" stroke="white"/>
<path d="M422.046 116.21L421.976 116.913C421.92 117.476 421.814 118.036 421.656 118.594C421.503 119.157 421.341 119.666 421.17 120.122C421.004 120.578 420.87 120.936 420.768 121.196H419.004C419.067 120.945 419.155 120.593 419.266 120.141C419.376 119.694 419.481 119.191 419.579 118.633C419.677 118.075 419.739 117.506 419.764 116.926L419.796 116.21H422.046Z" fill="white"/>
<circle cx="7" cy="66" r="3.5" stroke="white"/>
<circle cx="674" cy="176" r="3.5" stroke="white"/>
<path d="M35 66L25 60.2265V71.7735L35 66ZM11 67H26V65H11V67Z" fill="white"/>
<path d="M193 66L183 60.2265V71.7735L193 66ZM169 67H184V65H169V67Z" fill="white"/>
<path d="M237 66L227 60.2265V71.7735L237 66ZM169 67H228V65H169V67Z" fill="white"/>
<path d="M297 66L287 60.2265V71.7735L297 66ZM270 67H288V65H270V67Z" fill="white"/>
<path d="M340 66L330 60.2265V71.7735L340 66ZM270 67H331V65H270V67Z" fill="white"/>
<path d="M406 112L320 112C314.477 112 310 107.523 310 102L310 76C310 70.4771 314.477 66 320 66L327.089 66" stroke="white" stroke-width="2"/>
<path d="M529 66L519 60.2265V71.7735L529 66ZM493 67H520V65H493V67Z" fill="white"/>
<path d="M320.5 136.002L320.5 137.002L320.5 136.002ZM320.5 175.5L320.5 174.5L320.5 175.5ZM345.5 175.5L335.5 169.727L335.5 181.274L345.5 175.5ZM481 135.002L320.5 135.002L320.5 137.002L481 137.002L481 135.002ZM309.5 146.002L309.5 165.5L311.5 165.5L311.5 146.002L309.5 146.002ZM320.5 176.5L336.5 176.5L336.5 174.5L320.5 174.5L320.5 176.5ZM309.5 165.5C309.5 171.575 314.425 176.5 320.5 176.5L320.5 174.5C315.529 174.5 311.5 170.471 311.5 165.5L309.5 165.5ZM320.5 135.002C314.425 135.002 309.5 139.927 309.5 146.002L311.5 146.002C311.5 141.031 315.529 137.002 320.5 137.002L320.5 135.002Z" fill="white"/>
<path d="M464 136L474 141.774V130.226L464 136ZM596 67H611.5V65H596V67ZM620.5 76V126H622.5V76H620.5ZM611.5 135H473V137H611.5V135ZM620.5 126C620.5 130.971 616.471 135 611.5 135V137C617.575 137 622.5 132.075 622.5 126H620.5ZM611.5 67C616.471 67 620.5 71.0294 620.5 76H622.5C622.5 69.9249 617.575 65 611.5 65V67Z" fill="white"/>
<path d="M417 176L407 170.226V181.774L417 176ZM393 177H408V175H393V177Z" fill="white"/>
<circle cx="629.5" cy="176.5" r="16" stroke="white"/>
<path d="M631.676 176.752C631.676 178.342 631.463 179.803 631.037 181.137C630.615 182.471 629.967 183.707 629.094 184.844H626.492C626.825 184.423 627.134 183.907 627.419 183.298C627.705 182.688 627.954 182.023 628.167 181.303C628.38 180.579 628.546 179.829 628.665 179.053C628.785 178.278 628.844 177.511 628.844 176.752C628.844 175.742 628.74 174.724 628.531 173.697C628.327 172.665 628.045 171.711 627.688 170.833C627.334 169.951 626.935 169.229 626.492 168.666H629.094C629.967 169.804 630.615 171.04 631.037 172.374C631.463 173.707 631.676 175.167 631.676 176.752Z" fill="white"/>
<path d="M613 176L603 170.226V181.774L613 176ZM589 177H604V175H589V177Z" fill="white"/>
<path d="M474 176L464 170.226V181.774L474 176ZM450 177H465V175H450V177Z" fill="white"/>
<path d="M670 176L660 170.226V181.774L670 176ZM646 177H661V175H646V177Z" fill="white"/>
<path d="M608.5 66L598.5 60.2265V71.7735L608.5 66ZM406 40H573V38H406V40ZM582 49V56H584V49H582ZM593 67H598.5V65H593V67ZM598.5 67H599.5V65H598.5V67ZM562.5 67H593V65H562.5V67ZM582 56C582 62.0751 586.925 67 593 67V65C588.029 65 584 60.9706 584 56H582ZM573 40C577.971 40 582 44.0294 582 49H584C584 42.9249 579.075 38 573 38V40Z" fill="white"/>
<path d="M439 112L449 117.774V106.226L439 112ZM495.429 67H504V65H495.429V67ZM513 76V102H515V76H513ZM504 111H489V113H504V111ZM489 111H448V113H489V111ZM513 102C513 106.971 508.971 111 504 111V113C510.075 113 515 108.075 515 102H513ZM504 67C508.971 67 513 71.0294 513 76H515C515 69.9249 510.075 65 504 65V67Z" fill="white"/>
<path d="M421.5 39L411.5 33.2265V44.7735L421.5 39ZM169 67H199.258V65H169V67ZM210.258 56V49H208.258V56H210.258ZM219.258 40H412.5V38H219.258V40ZM210.258 49C210.258 44.0294 214.287 40 219.258 40V38C213.183 38 208.258 42.9249 208.258 49H210.258ZM199.258 67C205.333 67 210.258 62.0751 210.258 56H208.258C208.258 60.9706 204.228 65 199.258 65V67Z" fill="white"/>
<path d="M57.3089 62.1818V64.2273H51.3963V62.1818H57.3089ZM52.7386 59.8295H55.4616V68.983C55.4616 69.2344 55.5 69.4304 55.5767 69.571C55.6534 69.7074 55.7599 69.8033 55.8963 69.8587C56.0369 69.9141 56.1989 69.9418 56.3821 69.9418C56.5099 69.9418 56.6378 69.9311 56.7656 69.9098C56.8935 69.8842 56.9915 69.8651 57.0597 69.8523L57.4879 71.8786C57.3516 71.9212 57.1598 71.9702 56.9126 72.0256C56.6655 72.0852 56.3651 72.1214 56.0114 72.1342C55.3551 72.1598 54.7798 72.0724 54.2855 71.8722C53.7955 71.6719 53.4141 71.3608 53.1413 70.9389C52.8686 70.517 52.7344 69.9844 52.7386 69.3409V59.8295ZM61.8825 72.1854C61.256 72.1854 60.6978 72.0767 60.2077 71.8594C59.7177 71.6378 59.3299 71.3118 59.0444 70.8814C58.7631 70.4467 58.6225 69.9055 58.6225 69.2578C58.6225 68.7124 58.7227 68.2543 58.9229 67.8835C59.1232 67.5128 59.396 67.2145 59.7411 66.9886C60.0863 66.7628 60.4783 66.5923 60.9173 66.4773C61.3604 66.3622 61.8249 66.2812 62.3107 66.2344C62.8817 66.1747 63.342 66.1193 63.6914 66.0682C64.0408 66.0128 64.2944 65.9318 64.4521 65.8253C64.6097 65.7187 64.6886 65.5611 64.6886 65.3523V65.3139C64.6886 64.9091 64.5607 64.5959 64.305 64.3743C64.0536 64.1527 63.6957 64.0419 63.2312 64.0419C62.7411 64.0419 62.3512 64.1506 62.0614 64.3679C61.7717 64.581 61.5799 64.8494 61.4862 65.1733L58.9677 64.9688C59.0955 64.3722 59.3469 63.8565 59.7219 63.4219C60.0969 62.983 60.5806 62.6463 61.1729 62.4119C61.7695 62.1733 62.4599 62.054 63.244 62.054C63.7894 62.054 64.3114 62.1179 64.81 62.2457C65.3129 62.3736 65.7582 62.5717 66.146 62.8402C66.538 63.1087 66.8469 63.4538 67.0728 63.8757C67.2987 64.2933 67.4116 64.794 67.4116 65.3778V72H64.8292V70.6385H64.7525C64.5948 70.9453 64.3839 71.2159 64.1197 71.4503C63.8555 71.6804 63.538 71.8615 63.1673 71.9936C62.7965 72.1214 62.3683 72.1854 61.8825 72.1854ZM62.6623 70.3061C63.0629 70.3061 63.4165 70.2273 63.7234 70.0696C64.0302 69.9077 64.271 69.6903 64.4457 69.4176C64.6204 69.1449 64.7077 68.8359 64.7077 68.4908V67.4489C64.6225 67.5043 64.5053 67.5554 64.3562 67.6023C64.2113 67.6449 64.0472 67.6854 63.864 67.7237C63.6808 67.7578 63.4975 67.7898 63.3143 67.8196C63.131 67.8452 62.9648 67.8686 62.8157 67.8899C62.4961 67.9368 62.217 68.0114 61.9783 68.1136C61.7397 68.2159 61.5543 68.3544 61.4222 68.5291C61.2901 68.6996 61.2241 68.9126 61.2241 69.1683C61.2241 69.5391 61.3583 69.8224 61.6268 70.0185C61.8995 70.2102 62.2447 70.3061 62.6623 70.3061ZM69.5753 72V58.9091H72.2983V63.831H72.3814C72.5007 63.5668 72.6733 63.2983 72.8991 63.0256C73.1293 62.7486 73.4276 62.5185 73.794 62.3352C74.1648 62.1477 74.625 62.054 75.1747 62.054C75.8906 62.054 76.5511 62.2415 77.1562 62.6165C77.7614 62.9872 78.245 63.5476 78.6072 64.2976C78.9695 65.0433 79.1506 65.9787 79.1506 67.1037C79.1506 68.1989 78.9737 69.1236 78.62 69.8778C78.2706 70.6278 77.7933 71.1967 77.1882 71.5845C76.5874 71.968 75.9141 72.1598 75.1683 72.1598C74.6399 72.1598 74.1903 72.0724 73.8196 71.8977C73.4531 71.723 73.1527 71.5036 72.9183 71.2393C72.6839 70.9709 72.505 70.7003 72.3814 70.4276H72.2599V72H69.5753ZM72.2408 67.0909C72.2408 67.6747 72.3217 68.1839 72.4837 68.6186C72.6456 69.0533 72.88 69.392 73.1868 69.6349C73.4936 69.8736 73.8665 69.9929 74.3054 69.9929C74.7486 69.9929 75.1236 69.8714 75.4304 69.6286C75.7372 69.3814 75.9695 69.0405 76.1271 68.6058C76.2891 68.1669 76.37 67.6619 76.37 67.0909C76.37 66.5241 76.2912 66.0256 76.1335 65.5952C75.9759 65.1648 75.7436 64.8281 75.4368 64.5852C75.13 64.3423 74.7528 64.2209 74.3054 64.2209C73.8622 64.2209 73.4872 64.3381 73.1804 64.5724C72.8778 64.8068 72.6456 65.1392 72.4837 65.5696C72.3217 66 72.2408 66.5071 72.2408 67.0909ZM83.6905 58.9091V72H80.9675V58.9091H83.6905ZM90.3462 72.1918C89.3363 72.1918 88.467 71.9872 87.7383 71.5781C87.0138 71.1648 86.4556 70.581 86.0636 69.8267C85.6715 69.0682 85.4755 68.1712 85.4755 67.1357C85.4755 66.1257 85.6715 65.2393 86.0636 64.4766C86.4556 63.7138 87.0075 63.1193 87.7191 62.6932C88.435 62.267 89.2745 62.054 90.2376 62.054C90.8853 62.054 91.4883 62.1584 92.0465 62.3672C92.609 62.5717 93.0991 62.8807 93.5167 63.294C93.9386 63.7074 94.2667 64.2273 94.5011 64.8537C94.7354 65.4759 94.8526 66.2045 94.8526 67.0398V67.7876H86.5621V66.1001H92.2894C92.2894 65.7081 92.2042 65.3608 92.0337 65.0582C91.8633 64.7557 91.6268 64.5192 91.3242 64.3487C91.0259 64.174 90.6786 64.0866 90.2823 64.0866C89.869 64.0866 89.5025 64.1825 89.1829 64.3743C88.8675 64.5618 88.6204 64.8153 88.4414 65.1349C88.2624 65.4503 88.1708 65.8018 88.1665 66.1896V67.794C88.1665 68.2798 88.256 68.6996 88.435 69.0533C88.6183 69.407 88.8761 69.6797 89.2085 69.8714C89.5408 70.0632 89.935 70.1591 90.391 70.1591C90.6935 70.1591 90.9705 70.1165 91.2219 70.0312C91.4734 69.946 91.6886 69.8182 91.8675 69.6477C92.0465 69.4773 92.1829 69.2685 92.2766 69.0213L94.7951 69.1875C94.6673 69.7926 94.4052 70.321 94.0089 70.7727C93.6168 71.2202 93.1097 71.5696 92.4876 71.821C91.8697 72.0682 91.1559 72.1918 90.3462 72.1918ZM102.747 65.544V67.7045H96.7766V65.544H102.747ZM107.79 66.3239V72H105.067V62.1818H107.662V63.9141H107.777C107.995 63.343 108.359 62.8913 108.87 62.5589C109.382 62.2223 110.002 62.054 110.73 62.054C111.412 62.054 112.007 62.2031 112.514 62.5014C113.021 62.7997 113.415 63.2259 113.696 63.7798C113.978 64.3295 114.118 64.9858 114.118 65.7486V72H111.395V66.2344C111.4 65.6335 111.246 65.1648 110.935 64.8281C110.624 64.4872 110.196 64.3168 109.65 64.3168C109.284 64.3168 108.96 64.3956 108.679 64.5533C108.402 64.7109 108.184 64.9411 108.027 65.2436C107.873 65.5419 107.794 65.902 107.79 66.3239ZM119.064 72.1854C118.438 72.1854 117.879 72.0767 117.389 71.8594C116.899 71.6378 116.512 71.3118 116.226 70.8814C115.945 70.4467 115.804 69.9055 115.804 69.2578C115.804 68.7124 115.904 68.2543 116.105 67.8835C116.305 67.5128 116.578 67.2145 116.923 66.9886C117.268 66.7628 117.66 66.5923 118.099 66.4773C118.542 66.3622 119.007 66.2812 119.492 66.2344C120.063 66.1747 120.524 66.1193 120.873 66.0682C121.222 66.0128 121.476 65.9318 121.634 65.8253C121.791 65.7187 121.87 65.5611 121.87 65.3523V65.3139C121.87 64.9091 121.742 64.5959 121.487 64.3743C121.235 64.1527 120.877 64.0419 120.413 64.0419C119.923 64.0419 119.533 64.1506 119.243 64.3679C118.953 64.581 118.762 64.8494 118.668 65.1733L116.149 64.9688C116.277 64.3722 116.529 63.8565 116.904 63.4219C117.279 62.983 117.762 62.6463 118.355 62.4119C118.951 62.1733 119.642 62.054 120.426 62.054C120.971 62.054 121.493 62.1179 121.992 62.2457C122.494 62.3736 122.94 62.5717 123.328 62.8402C123.72 63.1087 124.029 63.4538 124.254 63.8757C124.48 64.2933 124.593 64.794 124.593 65.3778V72H122.011V70.6385H121.934C121.776 70.9453 121.566 71.2159 121.301 71.4503C121.037 71.6804 120.72 71.8615 120.349 71.9936C119.978 72.1214 119.55 72.1854 119.064 72.1854ZM119.844 70.3061C120.244 70.3061 120.598 70.2273 120.905 70.0696C121.212 69.9077 121.453 69.6903 121.627 69.4176C121.802 69.1449 121.889 68.8359 121.889 68.4908V67.4489C121.804 67.5043 121.687 67.5554 121.538 67.6023C121.393 67.6449 121.229 67.6854 121.046 67.7237C120.862 67.7578 120.679 67.7898 120.496 67.8196C120.313 67.8452 120.146 67.8686 119.997 67.8899C119.678 67.9368 119.399 68.0114 119.16 68.1136C118.921 68.2159 118.736 68.3544 118.604 68.5291C118.472 68.6996 118.406 68.9126 118.406 69.1683C118.406 69.5391 118.54 69.8224 118.808 70.0185C119.081 70.2102 119.426 70.3061 119.844 70.3061ZM126.706 72V62.1818H129.301V63.9141H129.416C129.621 63.3388 129.961 62.8849 130.439 62.5526C130.916 62.2202 131.487 62.054 132.152 62.054C132.825 62.054 133.398 62.2223 133.871 62.5589C134.344 62.8913 134.66 63.343 134.817 63.9141H134.92C135.12 63.3516 135.482 62.902 136.006 62.5653C136.535 62.2244 137.159 62.054 137.879 62.054C138.795 62.054 139.539 62.3459 140.11 62.9297C140.685 63.5092 140.973 64.3317 140.973 65.397V72H138.256V65.9339C138.256 65.3885 138.111 64.9794 137.822 64.7067C137.532 64.4339 137.17 64.2976 136.735 64.2976C136.241 64.2976 135.855 64.4553 135.578 64.7706C135.301 65.0817 135.162 65.4929 135.162 66.0043V72H132.523V65.8764C132.523 65.3949 132.384 65.0114 132.107 64.7259C131.834 64.4403 131.474 64.2976 131.027 64.2976C130.724 64.2976 130.452 64.3743 130.209 64.5277C129.97 64.6768 129.78 64.8878 129.64 65.1605C129.499 65.429 129.429 65.7443 129.429 66.1065V72H126.706ZM147.598 72.1918C146.588 72.1918 145.719 71.9872 144.99 71.5781C144.266 71.1648 143.708 70.581 143.316 69.8267C142.923 69.0682 142.727 68.1712 142.727 67.1357C142.727 66.1257 142.923 65.2393 143.316 64.4766C143.708 63.7138 144.259 63.1193 144.971 62.6932C145.687 62.267 146.526 62.054 147.49 62.054C148.137 62.054 148.74 62.1584 149.298 62.3672C149.861 62.5717 150.351 62.8807 150.769 63.294C151.191 63.7074 151.519 64.2273 151.753 64.8537C151.987 65.4759 152.105 66.2045 152.105 67.0398V67.7876H143.814V66.1001H149.541C149.541 65.7081 149.456 65.3608 149.286 65.0582C149.115 64.7557 148.879 64.5192 148.576 64.3487C148.278 64.174 147.931 64.0866 147.534 64.0866C147.121 64.0866 146.754 64.1825 146.435 64.3743C146.119 64.5618 145.872 64.8153 145.693 65.1349C145.514 65.4503 145.423 65.8018 145.419 66.1896V67.794C145.419 68.2798 145.508 68.6996 145.687 69.0533C145.87 69.407 146.128 69.6797 146.46 69.8714C146.793 70.0632 147.187 70.1591 147.643 70.1591C147.945 70.1591 148.222 70.1165 148.474 70.0312C148.725 69.946 148.941 69.8182 149.119 69.6477C149.298 69.4773 149.435 69.2685 149.529 69.0213L152.047 69.1875C151.919 69.7926 151.657 70.321 151.261 70.7727C150.869 71.2202 150.362 71.5696 149.74 71.821C149.122 72.0682 148.408 72.1918 147.598 72.1918Z" fill="white"/>
<rect x="36.5" y="50.5" width="132" height="32" rx="16" stroke="white"/>
<path d="M360.523 72.1918C359.517 72.1918 358.652 71.9787 357.928 71.5526C357.207 71.1222 356.653 70.5256 356.266 69.7628C355.882 69 355.69 68.1222 355.69 67.1293C355.69 66.1236 355.884 65.2415 356.272 64.483C356.664 63.7202 357.22 63.1257 357.94 62.6996C358.661 62.2692 359.517 62.054 360.51 62.054C361.366 62.054 362.116 62.2095 362.76 62.5206C363.403 62.8317 363.913 63.2685 364.288 63.831C364.663 64.3935 364.869 65.054 364.908 65.8125H362.338C362.266 65.3224 362.074 64.9283 361.763 64.63C361.456 64.3274 361.053 64.1761 360.555 64.1761C360.133 64.1761 359.764 64.2912 359.449 64.5213C359.138 64.7472 358.895 65.0774 358.72 65.5121C358.545 65.9467 358.458 66.473 358.458 67.0909C358.458 67.7173 358.543 68.25 358.714 68.6889C358.888 69.1278 359.134 69.4624 359.449 69.6925C359.764 69.9226 360.133 70.0376 360.555 70.0376C360.866 70.0376 361.145 69.9737 361.392 69.8459C361.643 69.718 361.85 69.5327 362.012 69.2898C362.178 69.0426 362.287 68.7464 362.338 68.4013H364.908C364.865 69.1513 364.661 69.8118 364.294 70.3828C363.932 70.9496 363.431 71.3928 362.792 71.7124C362.153 72.032 361.396 72.1918 360.523 72.1918ZM371.087 72.1918C370.094 72.1918 369.236 71.9808 368.511 71.5589C367.791 71.1328 367.235 70.5405 366.843 69.782C366.451 69.0192 366.255 68.1349 366.255 67.1293C366.255 66.1151 366.451 65.2287 366.843 64.4702C367.235 63.7074 367.791 63.1151 368.511 62.6932C369.236 62.267 370.094 62.054 371.087 62.054C372.08 62.054 372.937 62.267 373.657 62.6932C374.381 63.1151 374.939 63.7074 375.331 64.4702C375.724 65.2287 375.92 66.1151 375.92 67.1293C375.92 68.1349 375.724 69.0192 375.331 69.782C374.939 70.5405 374.381 71.1328 373.657 71.5589C372.937 71.9808 372.08 72.1918 371.087 72.1918ZM371.1 70.0824C371.552 70.0824 371.929 69.9545 372.231 69.6989C372.534 69.4389 372.762 69.0852 372.915 68.6378C373.073 68.1903 373.152 67.6811 373.152 67.1101C373.152 66.5391 373.073 66.0298 372.915 65.5824C372.762 65.1349 372.534 64.7812 372.231 64.5213C371.929 64.2614 371.552 64.1314 371.1 64.1314C370.644 64.1314 370.26 64.2614 369.949 64.5213C369.643 64.7812 369.41 65.1349 369.253 65.5824C369.099 66.0298 369.023 66.5391 369.023 67.1101C369.023 67.6811 369.099 68.1903 369.253 68.6378C369.41 69.0852 369.643 69.4389 369.949 69.6989C370.26 69.9545 370.644 70.0824 371.1 70.0824ZM380.413 58.9091V72H377.69V58.9091H380.413ZM388.891 67.8196V62.1818H391.614V72H388.999V70.2166H388.897C388.675 70.7919 388.307 71.2543 387.791 71.6037C387.28 71.9531 386.656 72.1278 385.918 72.1278C385.262 72.1278 384.685 71.9787 384.186 71.6804C383.688 71.3821 383.298 70.9581 383.016 70.4084C382.739 69.8587 382.599 69.2003 382.594 68.4332V62.1818H385.317V67.9474C385.322 68.527 385.477 68.9851 385.784 69.3217C386.091 69.6584 386.502 69.8267 387.018 69.8267C387.346 69.8267 387.653 69.7521 387.938 69.603C388.224 69.4496 388.454 69.2237 388.629 68.9254C388.808 68.6271 388.895 68.2585 388.891 67.8196ZM393.792 72V62.1818H396.387V63.9141H396.502C396.706 63.3388 397.047 62.8849 397.525 62.5526C398.002 62.2202 398.573 62.054 399.238 62.054C399.911 62.054 400.484 62.2223 400.957 62.5589C401.43 62.8913 401.746 63.343 401.903 63.9141H402.006C402.206 63.3516 402.568 62.902 403.092 62.5653C403.621 62.2244 404.245 62.054 404.965 62.054C405.881 62.054 406.625 62.3459 407.196 62.9297C407.771 63.5092 408.059 64.3317 408.059 65.397V72H405.342V65.9339C405.342 65.3885 405.197 64.9794 404.907 64.7067C404.618 64.4339 404.256 64.2976 403.821 64.2976C403.327 64.2976 402.941 64.4553 402.664 64.7706C402.387 65.0817 402.248 65.4929 402.248 66.0043V72H399.608V65.8764C399.608 65.3949 399.47 65.0114 399.193 64.7259C398.92 64.4403 398.56 64.2976 398.113 64.2976C397.81 64.2976 397.537 64.3743 397.295 64.5277C397.056 64.6768 396.866 64.8878 396.726 65.1605C396.585 65.429 396.515 65.7443 396.515 66.1065V72H393.792ZM412.933 66.3239V72H410.21V62.1818H412.805V63.9141H412.92C413.137 63.343 413.502 62.8913 414.013 62.5589C414.524 62.2223 415.144 62.054 415.873 62.054C416.555 62.054 417.149 62.2031 417.656 62.5014C418.164 62.7997 418.558 63.2259 418.839 63.7798C419.12 64.3295 419.261 64.9858 419.261 65.7486V72H416.538V66.2344C416.542 65.6335 416.389 65.1648 416.078 64.8281C415.767 64.4872 415.338 64.3168 414.793 64.3168C414.426 64.3168 414.102 64.3956 413.821 64.5533C413.544 64.7109 413.327 64.9411 413.169 65.2436C413.016 65.5419 412.937 65.902 412.933 66.3239ZM427.524 65.544V67.7045H421.554V65.544H427.524ZM432.567 66.3239V72H429.844V62.1818H432.44V63.9141H432.555C432.772 63.343 433.136 62.8913 433.648 62.5589C434.159 62.2223 434.779 62.054 435.508 62.054C436.19 62.054 436.784 62.2031 437.291 62.5014C437.798 62.7997 438.192 63.2259 438.474 63.7798C438.755 64.3295 438.896 64.9858 438.896 65.7486V72H436.173V66.2344C436.177 65.6335 436.023 65.1648 435.712 64.8281C435.401 64.4872 434.973 64.3168 434.428 64.3168C434.061 64.3168 433.737 64.3956 433.456 64.5533C433.179 64.7109 432.962 64.9411 432.804 65.2436C432.651 65.5419 432.572 65.902 432.567 66.3239ZM443.841 72.1854C443.215 72.1854 442.657 72.0767 442.167 71.8594C441.677 71.6378 441.289 71.3118 441.003 70.8814C440.722 70.4467 440.581 69.9055 440.581 69.2578C440.581 68.7124 440.682 68.2543 440.882 67.8835C441.082 67.5128 441.355 67.2145 441.7 66.9886C442.045 66.7628 442.437 66.5923 442.876 66.4773C443.319 66.3622 443.784 66.2812 444.27 66.2344C444.841 66.1747 445.301 66.1193 445.65 66.0682C446 66.0128 446.253 65.9318 446.411 65.8253C446.569 65.7187 446.648 65.5611 446.648 65.3523V65.3139C446.648 64.9091 446.52 64.5959 446.264 64.3743C446.013 64.1527 445.655 64.0419 445.19 64.0419C444.7 64.0419 444.31 64.1506 444.02 64.3679C443.731 64.581 443.539 64.8494 443.445 65.1733L440.927 64.9688C441.055 64.3722 441.306 63.8565 441.681 63.4219C442.056 62.983 442.54 62.6463 443.132 62.4119C443.729 62.1733 444.419 62.054 445.203 62.054C445.748 62.054 446.27 62.1179 446.769 62.2457C447.272 62.3736 447.717 62.5717 448.105 62.8402C448.497 63.1087 448.806 63.4538 449.032 63.8757C449.258 64.2933 449.371 64.794 449.371 65.3778V72H446.788V70.6385H446.711C446.554 70.9453 446.343 71.2159 446.079 71.4503C445.814 71.6804 445.497 71.8615 445.126 71.9936C444.756 72.1214 444.327 72.1854 443.841 72.1854ZM444.621 70.3061C445.022 70.3061 445.376 70.2273 445.682 70.0696C445.989 69.9077 446.23 69.6903 446.405 69.4176C446.579 69.1449 446.667 68.8359 446.667 68.4908V67.4489C446.581 67.5043 446.464 67.5554 446.315 67.6023C446.17 67.6449 446.006 67.6854 445.823 67.7237C445.64 67.7578 445.456 67.7898 445.273 67.8196C445.09 67.8452 444.924 67.8686 444.775 67.8899C444.455 67.9368 444.176 68.0114 443.937 68.1136C443.699 68.2159 443.513 68.3544 443.381 68.5291C443.249 68.6996 443.183 68.9126 443.183 69.1683C443.183 69.5391 443.317 69.8224 443.586 70.0185C443.858 70.2102 444.204 70.3061 444.621 70.3061ZM451.483 72V62.1818H454.078V63.9141H454.193C454.398 63.3388 454.739 62.8849 455.216 62.5526C455.693 62.2202 456.264 62.054 456.929 62.054C457.602 62.054 458.176 62.2223 458.649 62.5589C459.122 62.8913 459.437 63.343 459.595 63.9141H459.697C459.897 63.3516 460.259 62.902 460.784 62.5653C461.312 62.2244 461.936 62.054 462.656 62.054C463.573 62.054 464.316 62.3459 464.887 62.9297C465.463 63.5092 465.75 64.3317 465.75 65.397V72H463.034V65.9339C463.034 65.3885 462.889 64.9794 462.599 64.7067C462.309 64.4339 461.947 64.2976 461.512 64.2976C461.018 64.2976 460.632 64.4553 460.355 64.7706C460.078 65.0817 459.94 65.4929 459.94 66.0043V72H457.3V65.8764C457.3 65.3949 457.161 65.0114 456.884 64.7259C456.612 64.4403 456.252 64.2976 455.804 64.2976C455.502 64.2976 455.229 64.3743 454.986 64.5277C454.747 64.6768 454.558 64.8878 454.417 65.1605C454.276 65.429 454.206 65.7443 454.206 66.1065V72H451.483ZM472.376 72.1918C471.366 72.1918 470.496 71.9872 469.768 71.5781C469.043 71.1648 468.485 70.581 468.093 69.8267C467.701 69.0682 467.505 68.1712 467.505 67.1357C467.505 66.1257 467.701 65.2393 468.093 64.4766C468.485 63.7138 469.037 63.1193 469.748 62.6932C470.464 62.267 471.304 62.054 472.267 62.054C472.915 62.054 473.518 62.1584 474.076 62.3672C474.638 62.5717 475.128 62.8807 475.546 63.294C475.968 63.7074 476.296 64.2273 476.53 64.8537C476.765 65.4759 476.882 66.2045 476.882 67.0398V67.7876H468.591V66.1001H474.319C474.319 65.7081 474.233 65.3608 474.063 65.0582C473.893 64.7557 473.656 64.5192 473.354 64.3487C473.055 64.174 472.708 64.0866 472.312 64.0866C471.898 64.0866 471.532 64.1825 471.212 64.3743C470.897 64.5618 470.65 64.8153 470.471 65.1349C470.292 65.4503 470.2 65.8018 470.196 66.1896V67.794C470.196 68.2798 470.285 68.6996 470.464 69.0533C470.648 69.407 470.905 69.6797 471.238 69.8714C471.57 70.0632 471.964 70.1591 472.42 70.1591C472.723 70.1591 473 70.1165 473.251 70.0312C473.503 69.946 473.718 69.8182 473.897 69.6477C474.076 69.4773 474.212 69.2685 474.306 69.0213L476.824 69.1875C476.697 69.7926 476.434 70.321 476.038 70.7727C475.646 71.2202 475.139 71.5696 474.517 71.821C473.899 72.0682 473.185 72.1918 472.376 72.1918Z" fill="white"/>
<rect x="340.5" y="50.5" width="152" height="32" rx="16" stroke="white"/>
<path d="M489.256 174.982L486.763 175.135C486.72 174.922 486.629 174.73 486.488 174.56C486.347 174.385 486.162 174.246 485.932 174.144C485.706 174.038 485.435 173.984 485.12 173.984C484.698 173.984 484.342 174.074 484.053 174.253C483.763 174.428 483.618 174.662 483.618 174.956C483.618 175.19 483.712 175.388 483.899 175.55C484.087 175.712 484.408 175.842 484.864 175.94L486.641 176.298C487.596 176.494 488.308 176.81 488.776 177.244C489.245 177.679 489.479 178.25 489.479 178.957C489.479 179.601 489.29 180.165 488.911 180.651C488.536 181.137 488.02 181.516 487.364 181.789C486.712 182.058 485.96 182.192 485.107 182.192C483.808 182.192 482.772 181.921 482.001 181.38C481.234 180.835 480.784 180.093 480.652 179.156L483.33 179.015C483.411 179.411 483.607 179.714 483.918 179.923C484.229 180.127 484.628 180.229 485.114 180.229C485.591 180.229 485.974 180.138 486.264 179.955C486.558 179.767 486.707 179.526 486.712 179.232C486.707 178.985 486.603 178.783 486.398 178.625C486.194 178.463 485.879 178.339 485.452 178.254L483.752 177.915C482.793 177.724 482.08 177.391 481.611 176.918C481.146 176.445 480.914 175.842 480.914 175.109C480.914 174.479 481.085 173.935 481.425 173.479C481.771 173.023 482.254 172.672 482.876 172.425C483.503 172.178 484.236 172.054 485.075 172.054C486.315 172.054 487.291 172.316 488.003 172.84C488.719 173.364 489.136 174.078 489.256 174.982ZM495.669 182.192C494.659 182.192 493.789 181.987 493.061 181.578C492.336 181.165 491.778 180.581 491.386 179.827C490.994 179.068 490.798 178.171 490.798 177.136C490.798 176.126 490.994 175.239 491.386 174.477C491.778 173.714 492.33 173.119 493.041 172.693C493.757 172.267 494.597 172.054 495.56 172.054C496.208 172.054 496.811 172.158 497.369 172.367C497.931 172.572 498.421 172.881 498.839 173.294C499.261 173.707 499.589 174.227 499.823 174.854C500.058 175.476 500.175 176.205 500.175 177.04V177.788H491.884V176.1H497.612C497.612 175.708 497.526 175.361 497.356 175.058C497.186 174.756 496.949 174.519 496.646 174.349C496.348 174.174 496.001 174.087 495.605 174.087C495.191 174.087 494.825 174.183 494.505 174.374C494.19 174.562 493.943 174.815 493.764 175.135C493.585 175.45 493.493 175.802 493.489 176.19V177.794C493.489 178.28 493.578 178.7 493.757 179.053C493.941 179.407 494.198 179.68 494.531 179.871C494.863 180.063 495.257 180.159 495.713 180.159C496.016 180.159 496.293 180.116 496.544 180.031C496.796 179.946 497.011 179.818 497.19 179.648C497.369 179.477 497.505 179.268 497.599 179.021L500.117 179.188C499.99 179.793 499.727 180.321 499.331 180.773C498.939 181.22 498.432 181.57 497.81 181.821C497.192 182.068 496.478 182.192 495.669 182.192ZM504.675 168.909V182H501.952V168.909H504.675ZM511.331 182.192C510.321 182.192 509.451 181.987 508.723 181.578C507.998 181.165 507.44 180.581 507.048 179.827C506.656 179.068 506.46 178.171 506.46 177.136C506.46 176.126 506.656 175.239 507.048 174.477C507.44 173.714 507.992 173.119 508.703 172.693C509.419 172.267 510.259 172.054 511.222 172.054C511.87 172.054 512.473 172.158 513.031 172.367C513.593 172.572 514.083 172.881 514.501 173.294C514.923 173.707 515.251 174.227 515.485 174.854C515.72 175.476 515.837 176.205 515.837 177.04V177.788H507.547V176.1H513.274C513.274 175.708 513.189 175.361 513.018 175.058C512.848 174.756 512.611 174.519 512.309 174.349C512.01 174.174 511.663 174.087 511.267 174.087C510.853 174.087 510.487 174.183 510.167 174.374C509.852 174.562 509.605 174.815 509.426 175.135C509.247 175.45 509.155 175.802 509.151 176.19V177.794C509.151 178.28 509.24 178.7 509.419 179.053C509.603 179.407 509.86 179.68 510.193 179.871C510.525 180.063 510.919 180.159 511.375 180.159C511.678 180.159 511.955 180.116 512.206 180.031C512.458 179.946 512.673 179.818 512.852 179.648C513.031 179.477 513.167 179.268 513.261 179.021L515.779 179.188C515.652 179.793 515.39 180.321 514.993 180.773C514.601 181.22 514.094 181.57 513.472 181.821C512.854 182.068 512.14 182.192 511.331 182.192ZM522.05 182.192C521.044 182.192 520.179 181.979 519.455 181.553C518.735 181.122 518.181 180.526 517.793 179.763C517.409 179 517.218 178.122 517.218 177.129C517.218 176.124 517.412 175.241 517.799 174.483C518.191 173.72 518.748 173.126 519.468 172.7C520.188 172.269 521.044 172.054 522.037 172.054C522.894 172.054 523.644 172.21 524.287 172.521C524.931 172.832 525.44 173.268 525.815 173.831C526.19 174.393 526.397 175.054 526.435 175.812H523.865C523.793 175.322 523.601 174.928 523.29 174.63C522.983 174.327 522.581 174.176 522.082 174.176C521.66 174.176 521.292 174.291 520.976 174.521C520.665 174.747 520.422 175.077 520.248 175.512C520.073 175.947 519.985 176.473 519.985 177.091C519.985 177.717 520.071 178.25 520.241 178.689C520.416 179.128 520.661 179.462 520.976 179.692C521.292 179.923 521.66 180.038 522.082 180.038C522.393 180.038 522.672 179.974 522.919 179.846C523.171 179.718 523.377 179.533 523.539 179.29C523.706 179.043 523.814 178.746 523.865 178.401H526.435C526.392 179.151 526.188 179.812 525.821 180.383C525.459 180.95 524.958 181.393 524.319 181.712C523.68 182.032 522.924 182.192 522.05 182.192ZM533.401 172.182V174.227H527.488V172.182H533.401ZM528.83 169.83H531.553V178.983C531.553 179.234 531.592 179.43 531.669 179.571C531.745 179.707 531.852 179.803 531.988 179.859C532.129 179.914 532.291 179.942 532.474 179.942C532.602 179.942 532.73 179.931 532.857 179.91C532.985 179.884 533.083 179.865 533.151 179.852L533.58 181.879C533.443 181.921 533.252 181.97 533.004 182.026C532.757 182.085 532.457 182.121 532.103 182.134C531.447 182.16 530.872 182.072 530.377 181.872C529.887 181.672 529.506 181.361 529.233 180.939C528.96 180.517 528.826 179.984 528.83 179.341V169.83ZM540.993 175.544V177.705H535.023V175.544H540.993ZM551.482 174.982L548.989 175.135C548.947 174.922 548.855 174.73 548.714 174.56C548.574 174.385 548.388 174.246 548.158 174.144C547.933 174.038 547.662 173.984 547.347 173.984C546.925 173.984 546.569 174.074 546.279 174.253C545.989 174.428 545.844 174.662 545.844 174.956C545.844 175.19 545.938 175.388 546.126 175.55C546.313 175.712 546.635 175.842 547.091 175.94L548.868 176.298C549.822 176.494 550.534 176.81 551.003 177.244C551.472 177.679 551.706 178.25 551.706 178.957C551.706 179.601 551.516 180.165 551.137 180.651C550.762 181.137 550.246 181.516 549.59 181.789C548.938 182.058 548.186 182.192 547.334 182.192C546.034 182.192 544.999 181.921 544.227 181.38C543.46 180.835 543.011 180.093 542.879 179.156L545.557 179.015C545.638 179.411 545.834 179.714 546.145 179.923C546.456 180.127 546.854 180.229 547.34 180.229C547.817 180.229 548.201 180.138 548.491 179.955C548.785 179.767 548.934 179.526 548.938 179.232C548.934 178.985 548.83 178.783 548.625 178.625C548.42 178.463 548.105 178.339 547.679 178.254L545.979 177.915C545.02 177.724 544.306 177.391 543.837 176.918C543.373 176.445 543.141 175.842 543.141 175.109C543.141 174.479 543.311 173.935 543.652 173.479C543.997 173.023 544.481 172.672 545.103 172.425C545.729 172.178 546.462 172.054 547.302 172.054C548.542 172.054 549.518 172.316 550.229 172.84C550.945 173.364 551.363 174.078 551.482 174.982ZM558.643 172.182V174.227H552.73V172.182H558.643ZM554.073 169.83H556.796V178.983C556.796 179.234 556.834 179.43 556.911 179.571C556.987 179.707 557.094 179.803 557.23 179.859C557.371 179.914 557.533 179.942 557.716 179.942C557.844 179.942 557.972 179.931 558.1 179.91C558.227 179.884 558.325 179.865 558.394 179.852L558.822 181.879C558.686 181.921 558.494 181.97 558.247 182.026C557.999 182.085 557.699 182.121 557.345 182.134C556.689 182.16 556.114 182.072 555.619 181.872C555.129 181.672 554.748 181.361 554.475 180.939C554.203 180.517 554.068 179.984 554.073 179.341V169.83ZM560.417 182V172.182H563.012V173.914H563.127C563.331 173.339 563.672 172.885 564.15 172.553C564.627 172.22 565.198 172.054 565.863 172.054C566.536 172.054 567.109 172.222 567.582 172.559C568.055 172.891 568.371 173.343 568.528 173.914H568.631C568.831 173.352 569.193 172.902 569.717 172.565C570.246 172.224 570.87 172.054 571.59 172.054C572.506 172.054 573.25 172.346 573.821 172.93C574.396 173.509 574.684 174.332 574.684 175.397V182H571.967V175.934C571.967 175.388 571.822 174.979 571.532 174.707C571.243 174.434 570.881 174.298 570.446 174.298C569.952 174.298 569.566 174.455 569.289 174.771C569.012 175.082 568.873 175.493 568.873 176.004V182H566.233V175.876C566.233 175.395 566.095 175.011 565.818 174.726C565.545 174.44 565.185 174.298 564.738 174.298C564.435 174.298 564.162 174.374 563.92 174.528C563.681 174.677 563.491 174.888 563.351 175.161C563.21 175.429 563.14 175.744 563.14 176.107V182H560.417ZM582.057 172.182V174.227H576.144V172.182H582.057ZM577.487 169.83H580.21V178.983C580.21 179.234 580.248 179.43 580.325 179.571C580.401 179.707 580.508 179.803 580.644 179.859C580.785 179.914 580.947 179.942 581.13 179.942C581.258 179.942 581.386 179.931 581.514 179.91C581.642 179.884 581.74 179.865 581.808 179.852L582.236 181.879C582.1 181.921 581.908 181.97 581.661 182.026C581.414 182.085 581.113 182.121 580.759 182.134C580.103 182.16 579.528 182.072 579.034 181.872C578.544 181.672 578.162 181.361 577.889 180.939C577.617 180.517 577.482 179.984 577.487 179.341V169.83Z" fill="white"/>
<rect x="474.5" y="160.5" width="115" height="32" stroke="white"/>
<path d="M359.394 182H356.428L360.947 168.909H364.514L369.027 182H366.061L362.782 171.901H362.68L359.394 182ZM359.209 176.854H366.214V179.015H359.209V176.854ZM377.405 172.674C377.354 172.158 377.135 171.758 376.747 171.472C376.359 171.187 375.833 171.044 375.168 171.044C374.716 171.044 374.335 171.108 374.024 171.236C373.713 171.359 373.474 171.532 373.308 171.754C373.146 171.975 373.065 172.227 373.065 172.508C373.057 172.742 373.106 172.947 373.212 173.121C373.323 173.296 373.474 173.447 373.666 173.575C373.858 173.699 374.079 173.808 374.331 173.901C374.582 173.991 374.851 174.067 375.136 174.131L376.312 174.413C376.883 174.54 377.407 174.711 377.885 174.924C378.362 175.137 378.775 175.399 379.125 175.71C379.474 176.021 379.745 176.388 379.937 176.81C380.133 177.232 380.233 177.715 380.237 178.261C380.233 179.062 380.028 179.756 379.623 180.344C379.223 180.928 378.643 181.382 377.885 181.706C377.131 182.026 376.221 182.185 375.155 182.185C374.099 182.185 373.178 182.023 372.394 181.7C371.614 181.376 371.005 180.896 370.566 180.261C370.131 179.622 369.903 178.832 369.882 177.89H372.56C372.59 178.329 372.716 178.695 372.937 178.989C373.163 179.279 373.464 179.499 373.839 179.648C374.218 179.793 374.646 179.865 375.123 179.865C375.592 179.865 375.999 179.797 376.344 179.661C376.694 179.524 376.964 179.335 377.156 179.092C377.348 178.849 377.444 178.57 377.444 178.254C377.444 177.96 377.356 177.713 377.182 177.513C377.011 177.312 376.76 177.142 376.427 177.001C376.099 176.861 375.697 176.733 375.219 176.618L373.794 176.26C372.69 175.991 371.819 175.572 371.18 175.001C370.54 174.43 370.223 173.661 370.227 172.693C370.223 171.901 370.434 171.208 370.86 170.616C371.29 170.023 371.881 169.561 372.631 169.229C373.381 168.896 374.233 168.73 375.187 168.73C376.159 168.73 377.007 168.896 377.731 169.229C378.46 169.561 379.027 170.023 379.432 170.616C379.836 171.208 380.045 171.894 380.058 172.674H377.405Z" fill="white"/>
<rect x="345.5" y="160.5" width="47" height="32" rx="16" stroke="white"/>
</svg>
