<svg width="302" height="194" viewBox="0 0 302 194" fill="none" xmlns="http://www.w3.org/2000/svg">
<path d="M5.52273 18.1918C4.51705 18.1918 3.65199 17.9787 2.92756 17.5526C2.20739 17.1222 1.65341 16.5256 1.26562 15.7628C0.882102 15 0.690341 14.1222 0.690341 13.1293C0.690341 12.1236 0.884233 11.2415 1.27202 10.483C1.66406 9.72017 2.22017 9.12571 2.94034 8.69957C3.66051 8.26918 4.51705 8.05398 5.50994 8.05398C6.36648 8.05398 7.11648 8.20952 7.75994 8.5206C8.40341 8.83168 8.91264 9.26847 9.28764 9.83097C9.66264 10.3935 9.86932 11.054 9.90767 11.8125H7.33807C7.26563 11.3224 7.07386 10.9283 6.76278 10.63C6.45597 10.3274 6.05327 10.1761 5.55469 10.1761C5.13281 10.1761 4.7642 10.2912 4.44886 10.5213C4.13778 10.7472 3.89489 11.0774 3.72017 11.5121C3.54545 11.9467 3.4581 12.473 3.4581 13.0909C3.4581 13.7173 3.54332 14.25 3.71378 14.6889C3.88849 15.1278 4.13352 15.4624 4.44886 15.6925C4.7642 15.9226 5.13281 16.0376 5.55469 16.0376C5.86577 16.0376 6.14489 15.9737 6.39205 15.8459C6.64347 15.718 6.85014 15.5327 7.01207 15.2898C7.17827 15.0426 7.28693 14.7464 7.33807 14.4013H9.90767C9.86506 15.1513 9.66051 15.8118 9.29403 16.3828C8.93182 16.9496 8.43111 17.3928 7.7919 17.7124C7.1527 18.032 6.39631 18.1918 5.52273 18.1918ZM16.0872 18.1918C15.0943 18.1918 14.2356 17.9808 13.5112 17.5589C12.791 17.1328 12.2349 16.5405 11.8429 15.782C11.4508 15.0192 11.2548 14.1349 11.2548 13.1293C11.2548 12.1151 11.4508 11.2287 11.8429 10.4702C12.2349 9.70739 12.791 9.11506 13.5112 8.69318C14.2356 8.26705 15.0943 8.05398 16.0872 8.05398C17.0801 8.05398 17.9366 8.26705 18.6568 8.69318C19.3812 9.11506 19.9395 9.70739 20.3315 10.4702C20.7235 11.2287 20.9196 12.1151 20.9196 13.1293C20.9196 14.1349 20.7235 15.0192 20.3315 15.782C19.9395 16.5405 19.3812 17.1328 18.6568 17.5589C17.9366 17.9808 17.0801 18.1918 16.0872 18.1918ZM16.1 16.0824C16.5517 16.0824 16.9288 15.9545 17.2314 15.6989C17.5339 15.4389 17.7619 15.0852 17.9153 14.6378C18.073 14.1903 18.1518 13.6811 18.1518 13.1101C18.1518 12.5391 18.073 12.0298 17.9153 11.5824C17.7619 11.1349 17.5339 10.7812 17.2314 10.5213C16.9288 10.2614 16.5517 10.1314 16.1 10.1314C15.644 10.1314 15.2605 10.2614 14.9494 10.5213C14.6426 10.7812 14.4103 11.1349 14.2527 11.5824C14.0993 12.0298 14.0225 12.5391 14.0225 13.1101C14.0225 13.6811 14.0993 14.1903 14.2527 14.6378C14.4103 15.0852 14.6426 15.4389 14.9494 15.6989C15.2605 15.9545 15.644 16.0824 16.1 16.0824ZM22.6902 18V8.18182H25.2853V9.91406H25.4004C25.6049 9.33878 25.9458 8.88494 26.4231 8.55256C26.9004 8.22017 27.4714 8.05398 28.1362 8.05398C28.8095 8.05398 29.3826 8.2223 29.8556 8.55895C30.3287 8.89133 30.644 9.34304 30.8017 9.91406H30.9039C31.1042 9.35156 31.4664 8.90199 31.9906 8.56534C32.519 8.22443 33.1433 8.05398 33.8635 8.05398C34.7797 8.05398 35.5233 8.34588 36.0943 8.92969C36.6696 9.50923 36.9572 10.3317 36.9572 11.397V18H34.2406V11.9339C34.2406 11.3885 34.0957 10.9794 33.8059 10.7067C33.5162 10.4339 33.1539 10.2976 32.7193 10.2976C32.225 10.2976 31.8393 10.4553 31.5623 10.7706C31.2853 11.0817 31.1468 11.4929 31.1468 12.0043V18H28.5069V11.8764C28.5069 11.3949 28.3684 11.0114 28.0914 10.7259C27.8187 10.4403 27.4586 10.2976 27.0112 10.2976C26.7086 10.2976 26.4359 10.3743 26.193 10.5277C25.9544 10.6768 25.7647 10.8878 25.6241 11.1605C25.4835 11.429 25.4132 11.7443 25.4132 12.1065V18H22.6902ZM39.1081 21.6818V8.18182H41.7928V9.83097H41.9142C42.0336 9.56676 42.2061 9.2983 42.432 9.02557C42.6621 8.74858 42.9604 8.51847 43.3269 8.33523C43.6976 8.14773 44.1578 8.05398 44.7076 8.05398C45.4235 8.05398 46.084 8.24148 46.6891 8.61648C47.2942 8.98722 47.7779 9.54759 48.1401 10.2976C48.5023 11.0433 48.6834 11.9787 48.6834 13.1037C48.6834 14.1989 48.5066 15.1236 48.1529 15.8778C47.8034 16.6278 47.3262 17.1967 46.7211 17.5845C46.1202 17.968 45.4469 18.1598 44.7012 18.1598C44.1728 18.1598 43.7232 18.0724 43.3525 17.8977C42.986 17.723 42.6855 17.5036 42.4512 17.2393C42.2168 16.9709 42.0378 16.7003 41.9142 16.4276H41.8311V21.6818H39.1081ZM41.7736 13.0909C41.7736 13.6747 41.8546 14.1839 42.0165 14.6186C42.1784 15.0533 42.4128 15.392 42.7196 15.6349C43.0265 15.8736 43.3993 15.9929 43.8382 15.9929C44.2814 15.9929 44.6564 15.8714 44.9632 15.6286C45.2701 15.3814 45.5023 15.0405 45.66 14.6058C45.8219 14.1669 45.9029 13.6619 45.9029 13.0909C45.9029 12.5241 45.824 12.0256 45.6664 11.5952C45.5087 11.1648 45.2765 10.8281 44.9696 10.5852C44.6628 10.3423 44.2857 10.2209 43.8382 10.2209C43.3951 10.2209 43.0201 10.3381 42.7132 10.5724C42.4107 10.8068 42.1784 11.1392 42.0165 11.5696C41.8546 12 41.7736 12.5071 41.7736 13.0909ZM54.9348 18.1918C53.9419 18.1918 53.0833 17.9808 52.3588 17.5589C51.6387 17.1328 51.0826 16.5405 50.6905 15.782C50.2985 15.0192 50.1025 14.1349 50.1025 13.1293C50.1025 12.1151 50.2985 11.2287 50.6905 10.4702C51.0826 9.70739 51.6387 9.11506 52.3588 8.69318C53.0833 8.26705 53.9419 8.05398 54.9348 8.05398C55.9277 8.05398 56.7843 8.26705 57.5044 8.69318C58.2289 9.11506 58.7871 9.70739 59.1792 10.4702C59.5712 11.2287 59.7672 12.1151 59.7672 13.1293C59.7672 14.1349 59.5712 15.0192 59.1792 15.782C58.7871 16.5405 58.2289 17.1328 57.5044 17.5589C56.7843 17.9808 55.9277 18.1918 54.9348 18.1918ZM54.9476 16.0824C55.3993 16.0824 55.7765 15.9545 56.079 15.6989C56.3816 15.4389 56.6096 15.0852 56.763 14.6378C56.9206 14.1903 56.9995 13.6811 56.9995 13.1101C56.9995 12.5391 56.9206 12.0298 56.763 11.5824C56.6096 11.1349 56.3816 10.7812 56.079 10.5213C55.7765 10.2614 55.3993 10.1314 54.9476 10.1314C54.4917 10.1314 54.1081 10.2614 53.7971 10.5213C53.4902 10.7812 53.258 11.1349 53.1003 11.5824C52.9469 12.0298 52.8702 12.5391 52.8702 13.1101C52.8702 13.6811 52.9469 14.1903 53.1003 14.6378C53.258 15.0852 53.4902 15.4389 53.7971 15.6989C54.1081 15.9545 54.4917 16.0824 54.9476 16.0824ZM67.834 13.8196V8.18182H70.557V18H67.9426V16.2166H67.8404C67.6188 16.7919 67.2502 17.2543 66.7346 17.6037C66.2232 17.9531 65.5989 18.1278 64.8617 18.1278C64.2054 18.1278 63.628 17.9787 63.1294 17.6804C62.6309 17.3821 62.2409 16.9581 61.9597 16.4084C61.6827 15.8587 61.5421 15.2003 61.5378 14.4332V8.18182H64.2608V13.9474C64.2651 14.527 64.4206 14.9851 64.7275 15.3217C65.0343 15.6584 65.4455 15.8267 65.9611 15.8267C66.2892 15.8267 66.5961 15.7521 66.8816 15.603C67.1671 15.4496 67.3972 15.2237 67.5719 14.9254C67.7509 14.6271 67.8382 14.2585 67.834 13.8196ZM75.4581 12.3239V18H72.7351V8.18182H75.3303V9.91406H75.4453C75.6626 9.34304 76.027 8.89133 76.5384 8.55895C77.0497 8.2223 77.6697 8.05398 78.3984 8.05398C79.0803 8.05398 79.6747 8.20312 80.1818 8.50142C80.6889 8.79972 81.0831 9.22585 81.3643 9.77983C81.6456 10.3295 81.7862 10.9858 81.7862 11.7486V18H79.0632V12.2344C79.0675 11.6335 78.9141 11.1648 78.603 10.8281C78.2919 10.4872 77.8636 10.3168 77.3182 10.3168C76.9517 10.3168 76.6278 10.3956 76.3466 10.5533C76.0696 10.7109 75.8523 10.9411 75.6946 11.2436C75.5412 11.5419 75.4624 11.902 75.4581 12.3239ZM87.5502 18.1598C86.8045 18.1598 86.1291 17.968 85.524 17.5845C84.9231 17.1967 84.4458 16.6278 84.0922 15.8778C83.7427 15.1236 83.568 14.1989 83.568 13.1037C83.568 11.9787 83.7491 11.0433 84.1113 10.2976C84.4735 9.54759 84.9551 8.98722 85.5559 8.61648C86.161 8.24148 86.8237 8.05398 87.5439 8.05398C88.0936 8.05398 88.5517 8.14773 88.9181 8.33523C89.2889 8.51847 89.5872 8.74858 89.813 9.02557C90.0431 9.2983 90.2179 9.56676 90.3372 9.83097H90.4203V4.90909H93.1369V18H90.4522V16.4276H90.3372C90.2093 16.7003 90.0282 16.9709 89.7939 17.2393C89.5637 17.5036 89.2633 17.723 88.8926 17.8977C88.5261 18.0724 88.0787 18.1598 87.5502 18.1598ZM88.4132 15.9929C88.8521 15.9929 89.2228 15.8736 89.5254 15.6349C89.8322 15.392 90.0666 15.0533 90.2285 14.6186C90.3947 14.1839 90.4778 13.6747 90.4778 13.0909C90.4778 12.5071 90.3968 12 90.2349 11.5696C90.073 11.1392 89.8386 10.8068 89.5318 10.5724C89.225 10.3381 88.8521 10.2209 88.4132 10.2209C87.9657 10.2209 87.5886 10.3423 87.2818 10.5852C86.975 10.8281 86.7427 11.1648 86.585 11.5952C86.4274 12.0256 86.3485 12.5241 86.3485 13.0909C86.3485 13.6619 86.4274 14.1669 86.585 14.6058C86.747 15.0405 86.9792 15.3814 87.2818 15.6286C87.5886 15.8714 87.9657 15.9929 88.4132 15.9929ZM101.493 11.544V13.7045H95.5227V11.544H101.493ZM108.249 18.1918C107.256 18.1918 106.398 17.9808 105.673 17.5589C104.953 17.1328 104.397 16.5405 104.005 15.782C103.613 15.0192 103.417 14.1349 103.417 13.1293C103.417 12.1151 103.613 11.2287 104.005 10.4702C104.397 9.70739 104.953 9.11506 105.673 8.69318C106.398 8.26705 107.256 8.05398 108.249 8.05398C109.242 8.05398 110.099 8.26705 110.819 8.69318C111.543 9.11506 112.102 9.70739 112.494 10.4702C112.886 11.2287 113.082 12.1151 113.082 13.1293C113.082 14.1349 112.886 15.0192 112.494 15.782C112.102 16.5405 111.543 17.1328 110.819 17.5589C110.099 17.9808 109.242 18.1918 108.249 18.1918ZM108.262 16.0824C108.714 16.0824 109.091 15.9545 109.393 15.6989C109.696 15.4389 109.924 15.0852 110.077 14.6378C110.235 14.1903 110.314 13.6811 110.314 13.1101C110.314 12.5391 110.235 12.0298 110.077 11.5824C109.924 11.1349 109.696 10.7812 109.393 10.5213C109.091 10.2614 108.714 10.1314 108.262 10.1314C107.806 10.1314 107.423 10.2614 107.112 10.5213C106.805 10.7812 106.572 11.1349 106.415 11.5824C106.261 12.0298 106.185 12.5391 106.185 13.1101C106.185 13.6811 106.261 14.1903 106.415 14.6378C106.572 15.0852 106.805 15.4389 107.112 15.6989C107.423 15.9545 107.806 16.0824 108.262 16.0824ZM114.852 21.6818V8.18182H117.537V9.83097H117.658C117.778 9.56676 117.95 9.2983 118.176 9.02557C118.406 8.74858 118.705 8.51847 119.071 8.33523C119.442 8.14773 119.902 8.05398 120.452 8.05398C121.168 8.05398 121.828 8.24148 122.433 8.61648C123.038 8.98722 123.522 9.54759 123.884 10.2976C124.246 11.0433 124.428 11.9787 124.428 13.1037C124.428 14.1989 124.251 15.1236 123.897 15.8778C123.548 16.6278 123.07 17.1967 122.465 17.5845C121.864 17.968 121.191 18.1598 120.445 18.1598C119.917 18.1598 119.467 18.0724 119.097 17.8977C118.73 17.723 118.43 17.5036 118.195 17.2393C117.961 16.9709 117.782 16.7003 117.658 16.4276H117.575V21.6818H114.852ZM117.518 13.0909C117.518 13.6747 117.599 14.1839 117.761 14.6186C117.923 15.0533 118.157 15.392 118.464 15.6349C118.771 15.8736 119.143 15.9929 119.582 15.9929C120.026 15.9929 120.401 15.8714 120.707 15.6286C121.014 15.3814 121.246 15.0405 121.404 14.6058C121.566 14.1669 121.647 13.6619 121.647 13.0909C121.647 12.5241 121.568 12.0256 121.411 11.5952C121.253 11.1648 121.021 10.8281 120.714 10.5852C120.407 10.3423 120.03 10.2209 119.582 10.2209C119.139 10.2209 118.764 10.3381 118.457 10.5724C118.155 10.8068 117.923 11.1392 117.761 11.5696C117.599 12 117.518 12.5071 117.518 13.0909ZM130.717 18.1918C129.707 18.1918 128.838 17.9872 128.109 17.5781C127.385 17.1648 126.827 16.581 126.435 15.8267C126.043 15.0682 125.847 14.1712 125.847 13.1357C125.847 12.1257 126.043 11.2393 126.435 10.4766C126.827 9.71378 127.379 9.11932 128.09 8.69318C128.806 8.26705 129.646 8.05398 130.609 8.05398C131.256 8.05398 131.859 8.15838 132.418 8.36719C132.98 8.57173 133.47 8.88068 133.888 9.29403C134.31 9.70739 134.638 10.2273 134.872 10.8537C135.107 11.4759 135.224 12.2045 135.224 13.0398V13.7876H126.933V12.1001H132.661C132.661 11.7081 132.575 11.3608 132.405 11.0582C132.234 10.7557 131.998 10.5192 131.695 10.3487C131.397 10.174 131.05 10.0866 130.653 10.0866C130.24 10.0866 129.874 10.1825 129.554 10.3743C129.239 10.5618 128.991 10.8153 128.812 11.1349C128.634 11.4503 128.542 11.8018 128.538 12.1896V13.794C128.538 14.2798 128.627 14.6996 128.806 15.0533C128.989 15.407 129.247 15.6797 129.58 15.8714C129.912 16.0632 130.306 16.1591 130.762 16.1591C131.065 16.1591 131.342 16.1165 131.593 16.0312C131.844 15.946 132.06 15.8182 132.239 15.6477C132.418 15.4773 132.554 15.2685 132.648 15.0213L135.166 15.1875C135.038 15.7926 134.776 16.321 134.38 16.7727C133.988 17.2202 133.481 17.5696 132.859 17.821C132.241 18.0682 131.527 18.1918 130.717 18.1918ZM137.001 18V8.18182H139.641V9.89489H139.743C139.922 9.28551 140.222 8.82528 140.644 8.5142C141.066 8.19886 141.552 8.04119 142.102 8.04119C142.238 8.04119 142.385 8.04972 142.543 8.06676C142.7 8.08381 142.839 8.10724 142.958 8.13707V10.5533C142.83 10.5149 142.653 10.4808 142.428 10.451C142.202 10.4212 141.995 10.4062 141.808 10.4062C141.407 10.4062 141.049 10.4936 140.734 10.6683C140.423 10.8388 140.175 11.0774 139.992 11.3842C139.813 11.6911 139.724 12.0447 139.724 12.4453V18H137.001ZM146.884 18.1854C146.258 18.1854 145.7 18.0767 145.21 17.8594C144.72 17.6378 144.332 17.3118 144.046 16.8814C143.765 16.4467 143.624 15.9055 143.624 15.2578C143.624 14.7124 143.725 14.2543 143.925 13.8835C144.125 13.5128 144.398 13.2145 144.743 12.9886C145.088 12.7628 145.48 12.5923 145.919 12.4773C146.362 12.3622 146.827 12.2812 147.313 12.2344C147.884 12.1747 148.344 12.1193 148.693 12.0682C149.043 12.0128 149.296 11.9318 149.454 11.8253C149.612 11.7187 149.691 11.5611 149.691 11.3523V11.3139C149.691 10.9091 149.563 10.5959 149.307 10.3743C149.056 10.1527 148.698 10.0419 148.233 10.0419C147.743 10.0419 147.353 10.1506 147.063 10.3679C146.774 10.581 146.582 10.8494 146.488 11.1733L143.97 10.9688C144.097 10.3722 144.349 9.85653 144.724 9.42188C145.099 8.98295 145.583 8.64631 146.175 8.41193C146.771 8.1733 147.462 8.05398 148.246 8.05398C148.791 8.05398 149.313 8.1179 149.812 8.24574C150.315 8.37358 150.76 8.57173 151.148 8.8402C151.54 9.10866 151.849 9.45384 152.075 9.87571C152.301 10.2933 152.414 10.794 152.414 11.3778V18H149.831V16.6385H149.754C149.597 16.9453 149.386 17.2159 149.122 17.4503C148.857 17.6804 148.54 17.8615 148.169 17.9936C147.798 18.1214 147.37 18.1854 146.884 18.1854ZM147.664 16.3061C148.065 16.3061 148.419 16.2273 148.725 16.0696C149.032 15.9077 149.273 15.6903 149.448 15.4176C149.622 15.1449 149.71 14.8359 149.71 14.4908V13.4489C149.624 13.5043 149.507 13.5554 149.358 13.6023C149.213 13.6449 149.049 13.6854 148.866 13.7237C148.683 13.7578 148.499 13.7898 148.316 13.8196C148.133 13.8452 147.967 13.8686 147.818 13.8899C147.498 13.9368 147.219 14.0114 146.98 14.1136C146.742 14.2159 146.556 14.3544 146.424 14.5291C146.292 14.6996 146.226 14.9126 146.226 15.1683C146.226 15.5391 146.36 15.8224 146.629 16.0185C146.901 16.2102 147.247 16.3061 147.664 16.3061ZM159.748 8.18182V10.2273H153.836V8.18182H159.748ZM155.178 5.82955H157.901V14.983C157.901 15.2344 157.939 15.4304 158.016 15.571C158.093 15.7074 158.199 15.8033 158.336 15.8587C158.476 15.9141 158.638 15.9418 158.822 15.9418C158.949 15.9418 159.077 15.9311 159.205 15.9098C159.333 15.8842 159.431 15.8651 159.499 15.8523L159.927 17.8786C159.791 17.9212 159.599 17.9702 159.352 18.0256C159.105 18.0852 158.805 18.1214 158.451 18.1342C157.795 18.1598 157.219 18.0724 156.725 17.8722C156.235 17.6719 155.854 17.3608 155.581 16.9389C155.308 16.517 155.174 15.9844 155.178 15.3409V5.82955ZM165.853 18.1918C164.86 18.1918 164.001 17.9808 163.277 17.5589C162.557 17.1328 162.001 16.5405 161.608 15.782C161.216 15.0192 161.02 14.1349 161.02 13.1293C161.02 12.1151 161.216 11.2287 161.608 10.4702C162.001 9.70739 162.557 9.11506 163.277 8.69318C164.001 8.26705 164.86 8.05398 165.853 8.05398C166.846 8.05398 167.702 8.26705 168.422 8.69318C169.147 9.11506 169.705 9.70739 170.097 10.4702C170.489 11.2287 170.685 12.1151 170.685 13.1293C170.685 14.1349 170.489 15.0192 170.097 15.782C169.705 16.5405 169.147 17.1328 168.422 17.5589C167.702 17.9808 166.846 18.1918 165.853 18.1918ZM165.866 16.0824C166.317 16.0824 166.694 15.9545 166.997 15.6989C167.3 15.4389 167.528 15.0852 167.681 14.6378C167.839 14.1903 167.917 13.6811 167.917 13.1101C167.917 12.5391 167.839 12.0298 167.681 11.5824C167.528 11.1349 167.3 10.7812 166.997 10.5213C166.694 10.2614 166.317 10.1314 165.866 10.1314C165.41 10.1314 165.026 10.2614 164.715 10.5213C164.408 10.7812 164.176 11.1349 164.018 11.5824C163.865 12.0298 163.788 12.5391 163.788 13.1101C163.788 13.6811 163.865 14.1903 164.018 14.6378C164.176 15.0852 164.408 15.4389 164.715 15.6989C165.026 15.9545 165.41 16.0824 165.866 16.0824ZM172.456 18V8.18182H175.096V9.89489H175.198C175.377 9.28551 175.677 8.82528 176.099 8.5142C176.521 8.19886 177.007 8.04119 177.557 8.04119C177.693 8.04119 177.84 8.04972 177.998 8.06676C178.155 8.08381 178.294 8.10724 178.413 8.13707V10.5533C178.285 10.5149 178.108 10.4808 177.883 10.451C177.657 10.4212 177.45 10.4062 177.263 10.4062C176.862 10.4062 176.504 10.4936 176.189 10.6683C175.878 10.8388 175.631 11.0774 175.447 11.3842C175.268 11.6911 175.179 12.0447 175.179 12.4453V18H172.456Z" fill="white"/>
<circle cx="4" cy="49" r="3.5" stroke="white"/>
<circle cx="298" cy="49" r="3.5" stroke="white"/>
<path d="M71 136L61 130.226V141.774L71 136ZM8 50H22.1126V48H8V50ZM31.1126 59V126H33.1126V59H31.1126ZM42.1126 137H62V135H42.1126V137ZM31.1126 126C31.1126 132.075 36.0375 137 42.1126 137V135C37.1421 135 33.1126 130.971 33.1126 126H31.1126ZM22.1126 50C27.0832 50 31.1126 54.0294 31.1126 59H33.1126C33.1126 52.9249 28.1878 48 22.1126 48V50Z" fill="white"/>
<path d="M71 92L61 86.2265V97.7735L71 92ZM8 50H22.1126V48H8V50ZM31.1126 59V82H33.1126V59H31.1126ZM42.1126 93H62V91H42.1126V93ZM31.1126 82C31.1126 88.0751 36.0375 93 42.1126 93V91C37.1421 91 33.1126 86.9706 33.1126 82H31.1126ZM22.1126 50C27.0832 50 31.1126 54.0294 31.1126 59H33.1126C33.1126 52.9249 28.1878 48 22.1126 48V50Z" fill="white"/>
<path d="M72 179L62 173.226V184.773L72 179ZM8 50H22.304V48H8V50ZM31.304 59V169H33.304V59H31.304ZM42.304 180H63V178H42.304V180ZM31.304 169C31.304 175.075 36.2289 180 42.304 180V178C37.3334 178 33.304 173.971 33.304 169H31.304ZM22.304 50C27.2746 50 31.304 54.0294 31.304 59H33.304C33.304 52.9249 28.3791 48 22.304 48V50Z" fill="white"/>
<path d="M91.9055 127.909V141H89.1378V127.909H91.9055ZM105.132 127.909V141H102.742L97.0463 132.761H96.9505V141H94.1827V127.909H96.6117L102.262 136.142H102.377V127.909H105.132ZM106.92 130.191V127.909H117.672V130.191H113.664V141H110.928V130.191H106.92ZM119.442 141V127.909H128.263V130.191H122.21V133.31H127.81V135.592H122.21V138.718H128.289V141H119.442ZM130.464 141V127.909H135.629C136.617 127.909 137.461 128.086 138.16 128.44C138.863 128.789 139.398 129.286 139.764 129.929C140.135 130.568 140.32 131.32 140.32 132.185C140.32 133.055 140.133 133.803 139.758 134.429C139.383 135.051 138.84 135.528 138.128 135.861C137.421 136.193 136.564 136.359 135.558 136.359H132.1V134.135H135.111C135.639 134.135 136.078 134.062 136.428 133.918C136.777 133.773 137.037 133.555 137.208 133.266C137.382 132.976 137.47 132.616 137.47 132.185C137.47 131.751 137.382 131.384 137.208 131.086C137.037 130.788 136.775 130.562 136.421 130.408C136.072 130.251 135.631 130.172 135.098 130.172H133.232V141H130.464ZM137.534 135.043L140.787 141H137.732L134.548 135.043H137.534ZM149.378 131.674C149.327 131.158 149.107 130.758 148.72 130.472C148.332 130.187 147.806 130.044 147.141 130.044C146.689 130.044 146.308 130.108 145.997 130.236C145.686 130.359 145.447 130.532 145.281 130.754C145.119 130.975 145.038 131.227 145.038 131.508C145.029 131.742 145.078 131.947 145.185 132.121C145.296 132.296 145.447 132.447 145.639 132.575C145.83 132.699 146.052 132.808 146.303 132.901C146.555 132.991 146.823 133.067 147.109 133.131L148.285 133.413C148.856 133.54 149.38 133.711 149.857 133.924C150.335 134.137 150.748 134.399 151.097 134.71C151.447 135.021 151.718 135.388 151.909 135.81C152.105 136.232 152.205 136.715 152.21 137.261C152.205 138.062 152.001 138.756 151.596 139.344C151.195 139.928 150.616 140.382 149.857 140.706C149.103 141.026 148.193 141.185 147.128 141.185C146.071 141.185 145.151 141.023 144.367 140.7C143.587 140.376 142.977 139.896 142.539 139.261C142.104 138.622 141.876 137.832 141.855 136.89H144.533C144.563 137.329 144.688 137.695 144.91 137.989C145.136 138.279 145.436 138.499 145.811 138.648C146.191 138.793 146.619 138.865 147.096 138.865C147.565 138.865 147.972 138.797 148.317 138.661C148.666 138.524 148.937 138.335 149.129 138.092C149.32 137.849 149.416 137.57 149.416 137.254C149.416 136.96 149.329 136.713 149.154 136.513C148.984 136.312 148.732 136.142 148.4 136.001C148.072 135.861 147.669 135.733 147.192 135.618L145.767 135.26C144.663 134.991 143.791 134.572 143.152 134.001C142.513 133.43 142.195 132.661 142.2 131.693C142.195 130.901 142.406 130.208 142.833 129.616C143.263 129.023 143.853 128.561 144.603 128.229C145.353 127.896 146.205 127.73 147.16 127.73C148.132 127.73 148.98 127.896 149.704 128.229C150.433 128.561 150.999 129.023 151.404 129.616C151.809 130.208 152.018 130.894 152.031 131.674H149.378ZM154.071 141V127.909H162.892V130.191H156.839V133.31H162.439V135.592H156.839V138.718H162.918V141H154.071ZM176.643 132.492H173.844C173.792 132.13 173.688 131.808 173.53 131.527C173.373 131.241 173.17 130.999 172.923 130.798C172.676 130.598 172.39 130.445 172.067 130.338C171.747 130.232 171.4 130.178 171.025 130.178C170.347 130.178 169.757 130.347 169.254 130.683C168.751 131.016 168.361 131.501 168.084 132.141C167.807 132.776 167.669 133.547 167.669 134.455C167.669 135.388 167.807 136.172 168.084 136.807C168.366 137.442 168.758 137.921 169.26 138.245C169.763 138.569 170.345 138.731 171.006 138.731C171.376 138.731 171.719 138.682 172.035 138.584C172.354 138.486 172.638 138.343 172.885 138.156C173.132 137.964 173.336 137.732 173.498 137.459C173.665 137.186 173.78 136.875 173.844 136.526L176.643 136.538C176.571 137.139 176.39 137.719 176.1 138.277C175.814 138.831 175.429 139.327 174.943 139.766C174.461 140.201 173.886 140.546 173.217 140.802C172.552 141.053 171.8 141.179 170.961 141.179C169.793 141.179 168.749 140.915 167.829 140.386C166.912 139.858 166.188 139.093 165.655 138.092C165.127 137.09 164.863 135.878 164.863 134.455C164.863 133.027 165.131 131.812 165.668 130.811C166.205 129.81 166.934 129.047 167.854 128.523C168.775 127.994 169.81 127.73 170.961 127.73C171.719 127.73 172.422 127.837 173.07 128.05C173.722 128.263 174.3 128.574 174.802 128.983C175.305 129.388 175.714 129.884 176.03 130.472C176.349 131.06 176.554 131.734 176.643 132.492ZM178.129 130.191V127.909H188.881V130.191H184.873V141H182.137V130.191H178.129Z" fill="white"/>
<rect x="73.5" y="118.5" width="125" height="32" rx="16" stroke="white"/>
<path d="M89.1378 184V170.909H97.9588V173.191H91.9055V176.31H97.505V178.592H91.9055V181.718H97.9844V184H89.1378ZM102.754 170.909L105.394 175.371H105.497L108.149 170.909H111.275L107.28 177.455L111.365 184H108.181L105.497 179.532H105.394L102.71 184H99.5392L103.637 177.455L99.6159 170.909H102.754ZM123.962 175.492H121.162C121.111 175.13 121.006 174.808 120.849 174.527C120.691 174.241 120.489 173.999 120.241 173.798C119.994 173.598 119.709 173.445 119.385 173.338C119.065 173.232 118.718 173.178 118.343 173.178C117.665 173.178 117.075 173.347 116.572 173.683C116.07 174.016 115.68 174.501 115.403 175.141C115.126 175.776 114.987 176.547 114.987 177.455C114.987 178.388 115.126 179.172 115.403 179.807C115.684 180.442 116.076 180.921 116.579 181.245C117.082 181.569 117.663 181.731 118.324 181.731C118.695 181.731 119.038 181.682 119.353 181.584C119.673 181.486 119.956 181.343 120.203 181.156C120.45 180.964 120.655 180.732 120.817 180.459C120.983 180.186 121.098 179.875 121.162 179.526L123.962 179.538C123.889 180.139 123.708 180.719 123.418 181.277C123.133 181.831 122.747 182.327 122.261 182.766C121.78 183.201 121.205 183.546 120.536 183.802C119.871 184.053 119.119 184.179 118.279 184.179C117.112 184.179 116.067 183.915 115.147 183.386C114.231 182.858 113.506 182.093 112.974 181.092C112.445 180.09 112.181 178.878 112.181 177.455C112.181 176.027 112.45 174.812 112.987 173.811C113.523 172.81 114.252 172.047 115.173 171.523C116.093 170.994 117.129 170.73 118.279 170.73C119.038 170.73 119.741 170.837 120.388 171.05C121.04 171.263 121.618 171.574 122.121 171.983C122.624 172.388 123.033 172.884 123.348 173.472C123.668 174.06 123.872 174.734 123.962 175.492ZM125.946 184V170.909H134.767V173.191H128.714V176.31H134.314V178.592H128.714V181.718H134.793V184H125.946ZM136.968 184V170.909H142.133C143.126 170.909 143.971 171.099 144.67 171.478C145.369 171.853 145.902 172.375 146.268 173.044C146.639 173.709 146.824 174.476 146.824 175.345C146.824 176.214 146.637 176.982 146.262 177.646C145.887 178.311 145.344 178.829 144.632 179.2C143.925 179.57 143.068 179.756 142.062 179.756H138.77V177.538H141.615C142.148 177.538 142.586 177.446 142.932 177.263C143.281 177.075 143.541 176.817 143.711 176.489C143.886 176.157 143.974 175.776 143.974 175.345C143.974 174.911 143.886 174.531 143.711 174.207C143.541 173.879 143.281 173.626 142.932 173.447C142.582 173.263 142.139 173.172 141.602 173.172H139.736V184H136.968ZM148.124 173.191V170.909H158.875V173.191H154.867V184H152.131V173.191H148.124Z" fill="white"/>
<rect x="73.5" y="161.5" width="97" height="32" rx="16" stroke="white"/>
<path d="M97.2237 41.9091H99.9915V50.4105C99.9915 51.3651 99.7635 52.2003 99.3075 52.9162C98.8558 53.6321 98.223 54.1903 97.4091 54.5909C96.5952 54.9872 95.647 55.1854 94.5646 55.1854C93.478 55.1854 92.5277 54.9872 91.7138 54.5909C90.8999 54.1903 90.267 53.6321 89.8153 52.9162C89.3636 52.2003 89.1378 51.3651 89.1378 50.4105V41.9091H91.9055V50.174C91.9055 50.6726 92.0142 51.1158 92.2315 51.5036C92.4531 51.8913 92.7642 52.196 93.1648 52.4176C93.5653 52.6392 94.032 52.75 94.5646 52.75C95.1016 52.75 95.5682 52.6392 95.9645 52.4176C96.3651 52.196 96.674 51.8913 96.8913 51.5036C97.1129 51.1158 97.2237 50.6726 97.2237 50.174V41.9091ZM113.218 41.9091V55H110.828L105.132 46.7607H105.036V55H102.269V41.9091H104.698L110.348 50.142H110.463V41.9091H113.218ZM118.273 41.9091V55H115.505V41.9091H118.273ZM132.58 48.4545C132.58 49.8821 132.309 51.0966 131.768 52.098C131.231 53.0994 130.498 53.8643 129.569 54.3928C128.644 54.9169 127.605 55.179 126.45 55.179C125.286 55.179 124.242 54.9148 123.318 54.3864C122.393 53.858 121.662 53.093 121.125 52.0916C120.588 51.0902 120.32 49.8778 120.32 48.4545C120.32 47.027 120.588 45.8125 121.125 44.8111C121.662 43.8097 122.393 43.0469 123.318 42.5227C124.242 41.9943 125.286 41.7301 126.45 41.7301C127.605 41.7301 128.644 41.9943 129.569 42.5227C130.498 43.0469 131.231 43.8097 131.768 44.8111C132.309 45.8125 132.58 47.027 132.58 48.4545ZM129.774 48.4545C129.774 47.5298 129.635 46.75 129.358 46.1151C129.085 45.4801 128.7 44.9986 128.201 44.6705C127.703 44.3423 127.119 44.1783 126.45 44.1783C125.781 44.1783 125.197 44.3423 124.698 44.6705C124.2 44.9986 123.812 45.4801 123.535 46.1151C123.262 46.75 123.126 47.5298 123.126 48.4545C123.126 49.3793 123.262 50.1591 123.535 50.794C123.812 51.429 124.2 51.9105 124.698 52.2386C125.197 52.5668 125.781 52.7308 126.45 52.7308C127.119 52.7308 127.703 52.5668 128.201 52.2386C128.7 51.9105 129.085 51.429 129.358 50.794C129.635 50.1591 129.774 49.3793 129.774 48.4545ZM145.58 41.9091V55H143.189L137.494 46.7607H137.398V55H134.63V41.9091H137.059L142.71 50.142H142.825V41.9091H145.58Z" fill="white"/>
<rect x="73.5" y="32.5" width="89" height="32" rx="16" stroke="white"/>
<path d="M97.2237 84.9091H99.9915V93.4105C99.9915 94.3651 99.7635 95.2003 99.3075 95.9162C98.8558 96.6321 98.223 97.1903 97.4091 97.5909C96.5952 97.9872 95.647 98.1854 94.5646 98.1854C93.478 98.1854 92.5277 97.9872 91.7138 97.5909C90.8999 97.1903 90.267 96.6321 89.8153 95.9162C89.3636 95.2003 89.1378 94.3651 89.1378 93.4105V84.9091H91.9055V93.174C91.9055 93.6726 92.0142 94.1158 92.2315 94.5036C92.4531 94.8913 92.7642 95.196 93.1648 95.4176C93.5653 95.6392 94.032 95.75 94.5646 95.75C95.1016 95.75 95.5682 95.6392 95.9645 95.4176C96.3651 95.196 96.674 94.8913 96.8913 94.5036C97.1129 94.1158 97.2237 93.6726 97.2237 93.174V84.9091ZM113.218 84.9091V98H110.828L105.132 89.7607H105.036V98H102.269V84.9091H104.698L110.348 93.142H110.463V84.9091H113.218ZM118.273 84.9091V98H115.505V84.9091H118.273ZM132.58 91.4545C132.58 92.8821 132.309 94.0966 131.768 95.098C131.231 96.0994 130.498 96.8643 129.569 97.3928C128.644 97.9169 127.605 98.179 126.45 98.179C125.286 98.179 124.242 97.9148 123.318 97.3864C122.393 96.858 121.662 96.093 121.125 95.0916C120.588 94.0902 120.32 92.8778 120.32 91.4545C120.32 90.027 120.588 88.8125 121.125 87.8111C121.662 86.8097 122.393 86.0469 123.318 85.5227C124.242 84.9943 125.286 84.7301 126.45 84.7301C127.605 84.7301 128.644 84.9943 129.569 85.5227C130.498 86.0469 131.231 86.8097 131.768 87.8111C132.309 88.8125 132.58 90.027 132.58 91.4545ZM129.774 91.4545C129.774 90.5298 129.635 89.75 129.358 89.1151C129.085 88.4801 128.7 87.9986 128.201 87.6705C127.703 87.3423 127.119 87.1783 126.45 87.1783C125.781 87.1783 125.197 87.3423 124.698 87.6705C124.2 87.9986 123.812 88.4801 123.535 89.1151C123.262 89.75 123.126 90.5298 123.126 91.4545C123.126 92.3793 123.262 93.1591 123.535 93.794C123.812 94.429 124.2 94.9105 124.698 95.2386C125.197 95.5668 125.781 95.7308 126.45 95.7308C127.119 95.7308 127.703 95.5668 128.201 95.2386C128.7 94.9105 129.085 94.429 129.358 93.794C129.635 93.1591 129.774 92.3793 129.774 91.4545ZM145.58 84.9091V98H143.189L137.494 89.7607H137.398V98H134.63V84.9091H137.059L142.71 93.142H142.825V84.9091H145.58Z" fill="white"/>
<rect x="73.5" y="75.5" width="89" height="32" rx="16" stroke="white"/>
<path d="M198.394 98H195.428L199.947 84.9091H203.514L208.027 98H205.061L201.782 87.9006H201.68L198.394 98ZM198.209 92.8544H205.214V95.0149H198.209V92.8544ZM209.603 98V84.9091H212.37V95.718H217.983V98H209.603ZM219.816 98V84.9091H222.583V95.718H228.195V98H219.816Z" fill="white"/>
<rect x="184.5" y="75.5" width="54" height="32" rx="16" stroke="white"/>
<path d="M73 49L63 43.2265V54.7735L73 49ZM12.5 50L64 50V48L12.5 48V50Z" fill="white"/>
<path d="M184 92L174 86.2265V97.7735L184 92ZM163 93H175V91H163V93Z" fill="white"/>
<path d="M260 92L250 86.2265V97.7735L260 92ZM239 93H251V91H239V93Z" fill="white"/>
<path d="M294 49L284 43.2265L284 54.7735L294 49ZM162 50L285 50L285 48L162 48L162 50Z" fill="white"/>
<path d="M249.5 92H258.376C263.899 92 268.376 87.5228 268.376 82V59C268.376 53.4772 272.853 49 278.376 49H280" stroke="white" stroke-width="2"/>
<path d="M171 178L258.248 178C263.771 178 268.248 173.523 268.248 168V58.7517C268.248 53.366 272.614 49 278 49V49" stroke="white" stroke-width="2"/>
<path d="M199 135H233.652H258.304C263.827 135 268.304 130.523 268.304 125V59C268.304 53.4772 272.781 49 278.304 49H280" stroke="white" stroke-width="2"/>
</svg>
