<svg width="417" height="66" viewBox="0 0 417 66" fill="none" xmlns="http://www.w3.org/2000/svg">
<path d="M6.36648 8.18182V10.2273H0.306818V8.18182H6.36648ZM1.69389 18V7.4723C1.69389 6.76065 1.83239 6.17045 2.10938 5.7017C2.39062 5.23295 2.77415 4.88139 3.25994 4.64702C3.74574 4.41264 4.29759 4.29545 4.91548 4.29545C5.3331 4.29545 5.71449 4.32741 6.05966 4.39134C6.40909 4.45526 6.66903 4.51278 6.83949 4.56392L6.35369 6.60938C6.24716 6.57528 6.11506 6.54332 5.95739 6.51349C5.80398 6.48366 5.64631 6.46875 5.48438 6.46875C5.08381 6.46875 4.80469 6.5625 4.64702 6.75C4.48935 6.93324 4.41051 7.19105 4.41051 7.52344V18H1.69389ZM8.03001 18V8.18182H10.753V18H8.03001ZM9.3979 6.91619C8.99308 6.91619 8.64577 6.78196 8.356 6.51349C8.07049 6.24077 7.92773 5.91477 7.92773 5.53551C7.92773 5.16051 8.07049 4.83878 8.356 4.57031C8.64577 4.29758 8.99308 4.16122 9.3979 4.16122C9.80273 4.16122 10.1479 4.29758 10.4334 4.57031C10.7232 4.83878 10.8681 5.16051 10.8681 5.53551C10.8681 5.91477 10.7232 6.24077 10.4334 6.51349C10.1479 6.78196 9.80273 6.91619 9.3979 6.91619ZM15.6573 4.90909V18H12.9343V4.90909H15.6573ZM23.0609 8.18182V10.2273H17.1483V8.18182H23.0609ZM18.4906 5.82955H21.2136V14.983C21.2136 15.2344 21.252 15.4304 21.3287 15.571C21.4054 15.7074 21.5119 15.8033 21.6483 15.8587C21.7889 15.9141 21.9508 15.9418 22.1341 15.9418C22.2619 15.9418 22.3897 15.9311 22.5176 15.9098C22.6454 15.8842 22.7434 15.8651 22.8116 15.8523L23.2399 17.8786C23.1035 17.9212 22.9118 17.9702 22.6646 18.0256C22.4174 18.0852 22.117 18.1214 21.7633 18.1342C21.1071 18.1598 20.5318 18.0724 20.0375 17.8722C19.5474 17.6719 19.166 17.3608 18.8933 16.9389C18.6206 16.517 18.4863 15.9844 18.4906 15.3409V5.82955ZM29.2037 18.1918C28.1937 18.1918 27.3244 17.9872 26.5957 17.5781C25.8713 17.1648 25.313 16.581 24.921 15.8267C24.5289 15.0682 24.3329 14.1712 24.3329 13.1357C24.3329 12.1257 24.5289 11.2393 24.921 10.4766C25.313 9.71378 25.8649 9.11932 26.5765 8.69318C27.2924 8.26705 28.1319 8.05398 29.095 8.05398C29.7427 8.05398 30.3457 8.15838 30.9039 8.36719C31.4664 8.57173 31.9565 8.88068 32.3741 9.29403C32.796 9.70739 33.1241 10.2273 33.3585 10.8537C33.5929 11.4759 33.7101 12.2045 33.7101 13.0398V13.7876H25.4196V12.1001H31.1468C31.1468 11.7081 31.0616 11.3608 30.8912 11.0582C30.7207 10.7557 30.4842 10.5192 30.1816 10.3487C29.8833 10.174 29.536 10.0866 29.1397 10.0866C28.7264 10.0866 28.3599 10.1825 28.0403 10.3743C27.725 10.5618 27.4778 10.8153 27.2988 11.1349C27.1199 11.4503 27.0282 11.8018 27.024 12.1896V13.794C27.024 14.2798 27.1135 14.6996 27.2924 15.0533C27.4757 15.407 27.7335 15.6797 28.0659 15.8714C28.3983 16.0632 28.7924 16.1591 29.2484 16.1591C29.551 16.1591 29.8279 16.1165 30.0794 16.0312C30.3308 15.946 30.546 15.8182 30.725 15.6477C30.9039 15.4773 31.0403 15.2685 31.1341 15.0213L33.6525 15.1875C33.5247 15.7926 33.2626 16.321 32.8663 16.7727C32.4743 17.2202 31.9672 17.5696 31.345 17.821C30.7271 18.0682 30.0133 18.1918 29.2037 18.1918ZM35.487 18V8.18182H38.127V9.89489H38.2292C38.4082 9.28551 38.7086 8.82528 39.1305 8.5142C39.5524 8.19886 40.0382 8.04119 40.5879 8.04119C40.7243 8.04119 40.8713 8.04972 41.0289 8.06676C41.1866 8.08381 41.3251 8.10724 41.4444 8.13707V10.5533C41.3166 10.5149 41.1397 10.4808 40.9139 10.451C40.688 10.4212 40.4814 10.4062 40.2939 10.4062C39.8933 10.4062 39.5353 10.4936 39.22 10.6683C38.9089 10.8388 38.6618 11.0774 38.4785 11.3842C38.2995 11.6911 38.21 12.0447 38.21 12.4453V18H35.487ZM48.6706 11.544V13.7045H42.7005V11.544H48.6706ZM55.427 18.1918C54.4213 18.1918 53.5563 17.9787 52.8319 17.5526C52.1117 17.1222 51.5577 16.5256 51.1699 15.7628C50.7864 15 50.5946 14.1222 50.5946 13.1293C50.5946 12.1236 50.7885 11.2415 51.1763 10.483C51.5684 9.72017 52.1245 9.12571 52.8446 8.69957C53.5648 8.26918 54.4213 8.05398 55.4142 8.05398C56.2708 8.05398 57.0208 8.20952 57.6642 8.5206C58.3077 8.83168 58.8169 9.26847 59.1919 9.83097C59.5669 10.3935 59.7736 11.054 59.812 11.8125H57.2424C57.1699 11.3224 56.9782 10.9283 56.6671 10.63C56.3603 10.3274 55.9576 10.1761 55.459 10.1761C55.0371 10.1761 54.6685 10.2912 54.3532 10.5213C54.0421 10.7472 53.7992 11.0774 53.6245 11.5121C53.4498 11.9467 53.3624 12.473 53.3624 13.0909C53.3624 13.7173 53.4476 14.25 53.6181 14.6889C53.7928 15.1278 54.0378 15.4624 54.3532 15.6925C54.6685 15.9226 55.0371 16.0376 55.459 16.0376C55.7701 16.0376 56.0492 15.9737 56.2963 15.8459C56.5478 15.718 56.7544 15.5327 56.9164 15.2898C57.0826 15.0426 57.1912 14.7464 57.2424 14.4013H59.812C59.7694 15.1513 59.5648 15.8118 59.1983 16.3828C58.8361 16.9496 58.3354 17.3928 57.6962 17.7124C57.057 18.032 56.3006 18.1918 55.427 18.1918ZM64.2784 4.90909V18H61.5554V4.90909H64.2784ZM69.2594 18.1854C68.633 18.1854 68.0748 18.0767 67.5847 17.8594C67.0946 17.6378 66.7069 17.3118 66.4213 16.8814C66.1401 16.4467 65.9995 15.9055 65.9995 15.2578C65.9995 14.7124 66.0996 14.2543 66.2999 13.8835C66.5002 13.5128 66.7729 13.2145 67.1181 12.9886C67.4632 12.7628 67.8553 12.5923 68.2942 12.4773C68.7374 12.3622 69.2019 12.2812 69.6877 12.2344C70.2587 12.1747 70.7189 12.1193 71.0684 12.0682C71.4178 12.0128 71.6713 11.9318 71.829 11.8253C71.9867 11.7187 72.0655 11.5611 72.0655 11.3523V11.3139C72.0655 10.9091 71.9377 10.5959 71.682 10.3743C71.4306 10.1527 71.0726 10.0419 70.6081 10.0419C70.1181 10.0419 69.7282 10.1506 69.4384 10.3679C69.1486 10.581 68.9569 10.8494 68.8631 11.1733L66.3446 10.9688C66.4725 10.3722 66.7239 9.85653 67.0989 9.42188C67.4739 8.98295 67.9576 8.64631 68.5499 8.41193C69.1465 8.1733 69.8368 8.05398 70.6209 8.05398C71.1664 8.05398 71.6884 8.1179 72.187 8.24574C72.6898 8.37358 73.1351 8.57173 73.5229 8.8402C73.915 9.10866 74.2239 9.45384 74.4498 9.87571C74.6756 10.2933 74.7885 10.794 74.7885 11.3778V18H72.2061V16.6385H72.1294C71.9718 16.9453 71.7608 17.2159 71.4966 17.4503C71.2324 17.6804 70.915 17.8615 70.5442 17.9936C70.1735 18.1214 69.7452 18.1854 69.2594 18.1854ZM70.0392 16.3061C70.4398 16.3061 70.7935 16.2273 71.1003 16.0696C71.4071 15.9077 71.6479 15.6903 71.8226 15.4176C71.9973 15.1449 72.0847 14.8359 72.0847 14.4908V13.4489C71.9995 13.5043 71.8823 13.5554 71.7331 13.6023C71.5882 13.6449 71.4242 13.6854 71.2409 13.7237C71.0577 13.7578 70.8745 13.7898 70.6912 13.8196C70.508 13.8452 70.3418 13.8686 70.1926 13.8899C69.873 13.9368 69.5939 14.0114 69.3553 14.1136C69.1167 14.2159 68.9313 14.3544 68.7992 14.5291C68.6671 14.6996 68.601 14.9126 68.601 15.1683C68.601 15.5391 68.7353 15.8224 69.0037 16.0185C69.2765 16.2102 69.6216 16.3061 70.0392 16.3061ZM83.1973 13.8196V8.18182H85.9203V18H83.3059V16.2166H83.2037C82.9821 16.7919 82.6135 17.2543 82.0978 17.6037C81.5865 17.9531 80.9622 18.1278 80.225 18.1278C79.5687 18.1278 78.9913 17.9787 78.4927 17.6804C77.9941 17.3821 77.6042 16.9581 77.323 16.4084C77.046 15.8587 76.9054 15.2003 76.9011 14.4332V8.18182H79.6241V13.9474C79.6284 14.527 79.7839 14.9851 80.0907 15.3217C80.3975 15.6584 80.8088 15.8267 81.3244 15.8267C81.6525 15.8267 81.9593 15.7521 82.2449 15.603C82.5304 15.4496 82.7605 15.2237 82.9352 14.9254C83.1142 14.6271 83.2015 14.2585 83.1973 13.8196ZM96.2674 10.9815L93.7745 11.1349C93.7319 10.9219 93.6403 10.7301 93.4996 10.5597C93.359 10.3849 93.1737 10.2464 92.9435 10.1442C92.7177 10.0376 92.4471 9.98438 92.1317 9.98438C91.7099 9.98438 91.354 10.0739 91.0643 10.2528C90.7745 10.4276 90.6296 10.6619 90.6296 10.956C90.6296 11.1903 90.7234 11.3885 90.9109 11.5504C91.0984 11.7124 91.4201 11.8423 91.8761 11.9403L93.6531 12.2983C94.6076 12.4943 95.3192 12.8097 95.788 13.2443C96.2567 13.679 96.4911 14.25 96.4911 14.9574C96.4911 15.6009 96.3015 16.1655 95.9222 16.6513C95.5472 17.1371 95.0316 17.5163 94.3754 17.7891C93.7234 18.0575 92.9712 18.1918 92.119 18.1918C90.8192 18.1918 89.7837 17.9212 89.0124 17.38C88.2454 16.8345 87.7958 16.093 87.6637 15.1555L90.342 15.0149C90.4229 15.4112 90.619 15.7138 90.93 15.9226C91.2411 16.1271 91.6396 16.2294 92.1254 16.2294C92.6026 16.2294 92.9862 16.1378 93.2759 15.9545C93.57 15.767 93.7191 15.5263 93.7234 15.2322C93.7191 14.9851 93.6147 14.7827 93.4102 14.625C93.2056 14.4631 92.8903 14.3395 92.4641 14.2543L90.7638 13.9155C89.805 13.7237 89.0913 13.3913 88.6225 12.9183C88.158 12.4453 87.9258 11.8423 87.9258 11.1094C87.9258 10.4787 88.0962 9.93537 88.4371 9.4794C88.7823 9.02344 89.266 8.67188 89.8881 8.42472C90.5146 8.17756 91.2475 8.05398 92.087 8.05398C93.3271 8.05398 94.3029 8.31605 95.0146 8.8402C95.7305 9.36435 96.1481 10.0781 96.2674 10.9815ZM102.68 18.1918C101.67 18.1918 100.801 17.9872 100.072 17.5781C99.3478 17.1648 98.7896 16.581 98.3975 15.8267C98.0055 15.0682 97.8095 14.1712 97.8095 13.1357C97.8095 12.1257 98.0055 11.2393 98.3975 10.4766C98.7896 9.71378 99.3414 9.11932 100.053 8.69318C100.769 8.26705 101.608 8.05398 102.572 8.05398C103.219 8.05398 103.822 8.15838 104.381 8.36719C104.943 8.57173 105.433 8.88068 105.851 9.29403C106.273 9.70739 106.601 10.2273 106.835 10.8537C107.069 11.4759 107.187 12.2045 107.187 13.0398V13.7876H98.8961V12.1001H104.623C104.623 11.7081 104.538 11.3608 104.368 11.0582C104.197 10.7557 103.961 10.5192 103.658 10.3487C103.36 10.174 103.013 10.0866 102.616 10.0866C102.203 10.0866 101.836 10.1825 101.517 10.3743C101.202 10.5618 100.954 10.8153 100.775 11.1349C100.596 11.4503 100.505 11.8018 100.501 12.1896V13.794C100.501 14.2798 100.59 14.6996 100.769 15.0533C100.952 15.407 101.21 15.6797 101.542 15.8714C101.875 16.0632 102.269 16.1591 102.725 16.1591C103.028 16.1591 103.305 16.1165 103.556 16.0312C103.807 15.946 104.023 15.8182 104.202 15.6477C104.381 15.4773 104.517 15.2685 104.611 15.0213L107.129 15.1875C107.001 15.7926 106.739 16.321 106.343 16.7727C105.951 17.2202 105.444 17.5696 104.822 17.821C104.204 18.0682 103.49 18.1918 102.68 18.1918Z" fill="white"/>
<circle cx="4" cy="49" r="3.5" stroke="white"/>
<circle cx="413" cy="49" r="3.5" stroke="white"/>
<path d="M40.1378 56V42.9091H48.8054V45.1911H42.9055V48.3104H48.2301V50.5923H42.9055V56H40.1378ZM53.4348 42.9091V56H50.6671V42.9091H53.4348ZM55.712 56V42.9091H58.4798V53.718H64.092V56H55.712ZM63.7915 45.1911V42.9091H74.543V45.1911H70.5352V56H67.7994V45.1911H63.7915ZM76.3136 56V42.9091H85.1346V45.1911H79.0813V48.3104H84.6808V50.5923H79.0813V53.718H85.1602V56H76.3136ZM87.335 56V42.9091H92.4998C93.4885 42.9091 94.3322 43.0859 95.0311 43.4396C95.7342 43.7891 96.269 44.2855 96.6355 44.929C97.0062 45.5682 97.1916 46.3203 97.1916 47.1854C97.1916 48.0547 97.0041 48.8026 96.6291 49.429C96.2541 50.0511 95.7108 50.5284 94.9991 50.8608C94.2917 51.1932 93.4352 51.3594 92.4295 51.3594H88.9714V49.1349H91.9821C92.5105 49.1349 92.9494 49.0625 93.2988 48.9176C93.6483 48.7727 93.9082 48.5554 94.0787 48.2656C94.2534 47.9759 94.3407 47.6158 94.3407 47.1854C94.3407 46.7507 94.2534 46.3842 94.0787 46.0859C93.9082 45.7876 93.6461 45.5618 93.2924 45.4084C92.943 45.2507 92.502 45.1719 91.9693 45.1719H90.1028V56H87.335ZM94.4047 50.0426L97.6582 56H94.6028L91.4196 50.0426H94.4047Z" fill="white"/>
<rect x="28.5" y="33.5" width="78" height="32" rx="16" stroke="white"/>
<path d="M195.085 56L191.339 42.9091H194.362L196.529 52.005H196.638L199.028 42.9091H201.617L204.001 52.0241H204.116L206.283 42.9091H209.307L205.561 56H202.864L200.371 47.4411H200.268L197.782 56H195.085ZM210.788 56V42.9091H213.556V48.3104H219.175V42.9091H221.936V56H219.175V50.5923H213.556V56H210.788ZM224.218 56V42.9091H233.039V45.1911H226.986V48.3104H232.585V50.5923H226.986V53.718H233.064V56H224.218ZM235.239 56V42.9091H240.404C241.393 42.9091 242.237 43.0859 242.935 43.4396C243.638 43.7891 244.173 44.2855 244.54 44.929C244.911 45.5682 245.096 46.3203 245.096 47.1854C245.096 48.0547 244.908 48.8026 244.533 49.429C244.158 50.0511 243.615 50.5284 242.903 50.8608C242.196 51.1932 241.339 51.3594 240.334 51.3594H236.876V49.1349H239.886C240.415 49.1349 240.854 49.0625 241.203 48.9176C241.553 48.7727 241.813 48.5554 241.983 48.2656C242.158 47.9759 242.245 47.6158 242.245 47.1854C242.245 46.7507 242.158 46.3842 241.983 46.0859C241.813 45.7876 241.55 45.5618 241.197 45.4084C240.847 45.2507 240.406 45.1719 239.874 45.1719H238.007V56H235.239ZM242.309 50.0426L245.562 56H242.507L239.324 50.0426H242.309ZM247.052 56V42.9091H255.873V45.1911H249.82V48.3104H255.419V50.5923H249.82V53.718H255.898V56H247.052Z" fill="white"/>
<path d="M297.561 54.1918C296.551 54.1918 295.682 53.9872 294.953 53.5781C294.229 53.1648 293.67 52.581 293.278 51.8267C292.886 51.0682 292.69 50.1712 292.69 49.1357C292.69 48.1257 292.886 47.2393 293.278 46.4766C293.67 45.7138 294.222 45.1193 294.934 44.6932C295.65 44.267 296.489 44.054 297.452 44.054C298.1 44.054 298.703 44.1584 299.261 44.3672C299.824 44.5717 300.314 44.8807 300.732 45.294C301.153 45.7074 301.482 46.2273 301.716 46.8537C301.95 47.4759 302.067 48.2045 302.067 49.0398V49.7876H293.777V48.1001H299.504C299.504 47.7081 299.419 47.3608 299.249 47.0582C299.078 46.7557 298.842 46.5192 298.539 46.3487C298.241 46.174 297.893 46.0866 297.497 46.0866C297.084 46.0866 296.717 46.1825 296.398 46.3743C296.082 46.5618 295.835 46.8153 295.656 47.1349C295.477 47.4503 295.386 47.8018 295.381 48.1896V49.794C295.381 50.2798 295.471 50.6996 295.65 51.0533C295.833 51.407 296.091 51.6797 296.423 51.8714C296.756 52.0632 297.15 52.1591 297.606 52.1591C297.908 52.1591 298.185 52.1165 298.437 52.0312C298.688 51.946 298.903 51.8182 299.082 51.6477C299.261 51.4773 299.398 51.2685 299.491 51.0213L302.01 51.1875C301.882 51.7926 301.62 52.321 301.224 52.7727C300.832 53.2202 300.325 53.5696 299.702 53.821C299.085 54.0682 298.371 54.1918 297.561 54.1918ZM305.944 44.1818L307.747 47.6143L309.594 44.1818H312.387L309.543 49.0909L312.464 54H309.684L307.747 50.6058L305.842 54H303.029L305.944 49.0909L303.132 44.1818H305.944ZM314.005 57.6818V44.1818H316.689V45.831H316.811C316.93 45.5668 317.103 45.2983 317.328 45.0256C317.559 44.7486 317.857 44.5185 318.223 44.3352C318.594 44.1477 319.054 44.054 319.604 44.054C320.32 44.054 320.98 44.2415 321.586 44.6165C322.191 44.9872 322.674 45.5476 323.037 46.2976C323.399 47.0433 323.58 47.9787 323.58 49.1037C323.58 50.1989 323.403 51.1236 323.049 51.8778C322.7 52.6278 322.223 53.1967 321.618 53.5845C321.017 53.968 320.343 54.1598 319.598 54.1598C319.069 54.1598 318.62 54.0724 318.249 53.8977C317.882 53.723 317.582 53.5036 317.348 53.2393C317.113 52.9709 316.934 52.7003 316.811 52.4276H316.728V57.6818H314.005ZM316.67 49.0909C316.67 49.6747 316.751 50.1839 316.913 50.6186C317.075 51.0533 317.309 51.392 317.616 51.6349C317.923 51.8736 318.296 51.9929 318.735 51.9929C319.178 51.9929 319.553 51.8714 319.86 51.6286C320.167 51.3814 320.399 51.0405 320.556 50.6058C320.718 50.1669 320.799 49.6619 320.799 49.0909C320.799 48.5241 320.721 48.0256 320.563 47.5952C320.405 47.1648 320.173 46.8281 319.866 46.5852C319.559 46.3423 319.182 46.2209 318.735 46.2209C318.292 46.2209 317.917 46.3381 317.61 46.5724C317.307 46.8068 317.075 47.1392 316.913 47.5696C316.751 48 316.67 48.5071 316.67 49.0909ZM325.395 54V44.1818H328.035V45.8949H328.137C328.316 45.2855 328.617 44.8253 329.039 44.5142C329.461 44.1989 329.946 44.0412 330.496 44.0412C330.632 44.0412 330.779 44.0497 330.937 44.0668C331.095 44.0838 331.233 44.1072 331.353 44.1371V46.5533C331.225 46.5149 331.048 46.4808 330.822 46.451C330.596 46.4212 330.39 46.4062 330.202 46.4062C329.801 46.4062 329.444 46.4936 329.128 46.6683C328.817 46.8388 328.57 47.0774 328.387 47.3842C328.208 47.6911 328.118 48.0447 328.118 48.4453V54H325.395Z" fill="white"/>
<rect x="180.5" y="33.5" width="87" height="32" rx="16" stroke="white"/>
<rect x="288.5" y="33.5" width="47" height="32" stroke="white"/>
<path d="M139.688 48.7521C139.688 47.1669 139.898 45.7074 140.32 44.3736C140.746 43.0398 141.396 41.804 142.27 40.6662H144.871C144.539 41.0881 144.23 41.6037 143.945 42.2131C143.659 42.8182 143.41 43.483 143.197 44.2074C142.984 44.9318 142.817 45.6818 142.698 46.4574C142.579 47.2287 142.519 47.9936 142.519 48.7521C142.519 49.7621 142.621 50.7827 142.826 51.8139C143.035 52.8409 143.316 53.7955 143.67 54.6776C144.028 55.5597 144.428 56.282 144.871 56.8445H142.27C141.396 55.7067 140.746 54.4709 140.32 53.1371C139.898 51.8033 139.688 50.3416 139.688 48.7521Z" fill="white"/>
<rect x="127.5" y="33.5" width="32" height="32" rx="16" stroke="white"/>
<path d="M375.676 48.7521C375.676 50.3416 375.463 51.8033 375.037 53.1371C374.615 54.4709 373.967 55.7067 373.094 56.8445H370.492C370.825 56.4226 371.134 55.907 371.419 55.2976C371.705 54.6882 371.954 54.0234 372.167 53.3033C372.38 52.5788 372.546 51.8288 372.665 51.0533C372.785 50.2777 372.844 49.5107 372.844 48.7521C372.844 47.7422 372.74 46.7237 372.531 45.6967C372.327 44.6655 372.045 43.7109 371.688 42.8331C371.334 41.951 370.935 41.2287 370.492 40.6662H373.094C373.967 41.804 374.615 43.0398 375.037 44.3736C375.463 45.7074 375.676 47.1669 375.676 48.7521Z" fill="white"/>
<rect x="356.5" y="33.5" width="32" height="32" rx="16" stroke="white"/>
<path d="M28 49L18 43.2265V54.7735L28 49ZM8 50H19V48H8V50Z" fill="white"/>
<path d="M127 49L117 43.2265V54.7735L127 49ZM107 50H118V48H107V50Z" fill="white"/>
<path d="M180 49L170 43.2265V54.7735L180 49ZM160 50H171V48H160V50Z" fill="white"/>
<path d="M288 49L278 43.2265V54.7735L288 49ZM268 50H279V48H268V50Z" fill="white"/>
<path d="M356 49L346 43.2265V54.7735L356 49ZM336 50H347V48H336V50Z" fill="white"/>
<path d="M409 49L399 43.2265V54.7735L409 49ZM389 50H400V48H389V50Z" fill="white"/>
</svg>
