<svg width="195" height="66" viewBox="0 0 195 66" fill="none" xmlns="http://www.w3.org/2000/svg">
<path d="M2.08665 8.18182H4.80966V18.4858C4.80966 19.2443 4.66051 19.858 4.36222 20.3267C4.06392 20.7955 3.63565 21.1385 3.07741 21.3558C2.52344 21.5732 1.8608 21.6818 1.08949 21.6818C0.995739 21.6818 0.90625 21.6797 0.821023 21.6754C0.731534 21.6754 0.637784 21.6733 0.539773 21.669V19.5405C0.612216 19.5447 0.676136 19.5469 0.731534 19.5469C0.78267 19.5511 0.838068 19.5533 0.897727 19.5533C1.33665 19.5533 1.64347 19.4595 1.81818 19.272C1.99716 19.0888 2.08665 18.8118 2.08665 18.4411V8.18182ZM3.44176 6.91619C3.04119 6.91619 2.69602 6.78196 2.40625 6.51349C2.11648 6.24077 1.97159 5.91477 1.97159 5.53551C1.97159 5.16051 2.11648 4.83878 2.40625 4.57031C2.69602 4.29758 3.04119 4.16122 3.44176 4.16122C3.85085 4.16122 4.19815 4.29758 4.48366 4.57031C4.77344 4.83878 4.91832 5.16051 4.91832 5.53551C4.91832 5.91477 4.77344 6.24077 4.48366 6.51349C4.19815 6.78196 3.85085 6.91619 3.44176 6.91619ZM11.427 18.1918C10.4341 18.1918 9.57546 17.9808 8.85103 17.5589C8.13086 17.1328 7.57475 16.5405 7.18271 15.782C6.79066 15.0192 6.59464 14.1349 6.59464 13.1293C6.59464 12.1151 6.79066 11.2287 7.18271 10.4702C7.57475 9.70739 8.13086 9.11506 8.85103 8.69318C9.57546 8.26705 10.4341 8.05398 11.427 8.05398C12.4199 8.05398 13.2765 8.26705 13.9966 8.69318C14.7211 9.11506 15.2793 9.70739 15.6713 10.4702C16.0634 11.2287 16.2594 12.1151 16.2594 13.1293C16.2594 14.1349 16.0634 15.0192 15.6713 15.782C15.2793 16.5405 14.7211 17.1328 13.9966 17.5589C13.2765 17.9808 12.4199 18.1918 11.427 18.1918ZM11.4398 16.0824C11.8915 16.0824 12.2686 15.9545 12.5712 15.6989C12.8738 15.4389 13.1017 15.0852 13.2551 14.6378C13.4128 14.1903 13.4917 13.6811 13.4917 13.1101C13.4917 12.5391 13.4128 12.0298 13.2551 11.5824C13.1017 11.1349 12.8738 10.7812 12.5712 10.5213C12.2686 10.2614 11.8915 10.1314 11.4398 10.1314C10.9838 10.1314 10.6003 10.2614 10.2892 10.5213C9.98242 10.7812 9.75018 11.1349 9.59251 11.5824C9.4391 12.0298 9.36239 12.5391 9.36239 13.1101C9.36239 13.6811 9.4391 14.1903 9.59251 14.6378C9.75018 15.0852 9.98242 15.4389 10.2892 15.6989C10.6003 15.9545 10.9838 16.0824 11.4398 16.0824ZM18.03 18V8.18182H20.753V18H18.03ZM19.3979 6.91619C18.9931 6.91619 18.6458 6.78196 18.356 6.51349C18.0705 6.24077 17.9277 5.91477 17.9277 5.53551C17.9277 5.16051 18.0705 4.83878 18.356 4.57031C18.6458 4.29758 18.9931 4.16122 19.3979 4.16122C19.8027 4.16122 20.1479 4.29758 20.4334 4.57031C20.7232 4.83878 20.8681 5.16051 20.8681 5.53551C20.8681 5.91477 20.7232 6.24077 20.4334 6.51349C20.1479 6.78196 19.8027 6.91619 19.3979 6.91619ZM25.6573 12.3239V18H22.9343V8.18182H25.5295V9.91406H25.6445C25.8619 9.34304 26.2262 8.89133 26.7376 8.55895C27.2489 8.2223 27.869 8.05398 28.5977 8.05398C29.2795 8.05398 29.8739 8.20312 30.381 8.50142C30.8881 8.79972 31.2823 9.22585 31.5636 9.77983C31.8448 10.3295 31.9854 10.9858 31.9854 11.7486V18H29.2624V12.2344C29.2667 11.6335 29.1133 11.1648 28.8022 10.8281C28.4911 10.4872 28.0629 10.3168 27.5174 10.3168C27.1509 10.3168 26.8271 10.3956 26.5458 10.5533C26.2688 10.7109 26.0515 10.9411 25.8938 11.2436C25.7404 11.5419 25.6616 11.902 25.6573 12.3239ZM40.2488 11.544V13.7045H34.2786V11.544H40.2488ZM47.0051 18.1918C45.9995 18.1918 45.1344 17.9787 44.41 17.5526C43.6898 17.1222 43.1358 16.5256 42.748 15.7628C42.3645 15 42.1728 14.1222 42.1728 13.1293C42.1728 12.1236 42.3667 11.2415 42.7544 10.483C43.1465 9.72017 43.7026 9.12571 44.4228 8.69957C45.1429 8.26918 45.9995 8.05398 46.9924 8.05398C47.8489 8.05398 48.5989 8.20952 49.2424 8.5206C49.8858 8.83168 50.3951 9.26847 50.7701 9.83097C51.1451 10.3935 51.3517 11.054 51.3901 11.8125H48.8205C48.748 11.3224 48.5563 10.9283 48.2452 10.63C47.9384 10.3274 47.5357 10.1761 47.0371 10.1761C46.6152 10.1761 46.2466 10.2912 45.9313 10.5213C45.6202 10.7472 45.3773 11.0774 45.2026 11.5121C45.0279 11.9467 44.9405 12.473 44.9405 13.0909C44.9405 13.7173 45.0257 14.25 45.1962 14.6889C45.3709 15.1278 45.6159 15.4624 45.9313 15.6925C46.2466 15.9226 46.6152 16.0376 47.0371 16.0376C47.3482 16.0376 47.6273 15.9737 47.8745 15.8459C48.1259 15.718 48.3326 15.5327 48.4945 15.2898C48.6607 15.0426 48.7694 14.7464 48.8205 14.4013H51.3901C51.3475 15.1513 51.1429 15.8118 50.7765 16.3828C50.4142 16.9496 49.9135 17.3928 49.2743 17.7124C48.6351 18.032 47.8787 18.1918 47.0051 18.1918ZM57.5696 18.1918C56.5767 18.1918 55.718 17.9808 54.9936 17.5589C54.2734 17.1328 53.7173 16.5405 53.3253 15.782C52.9332 15.0192 52.7372 14.1349 52.7372 13.1293C52.7372 12.1151 52.9332 11.2287 53.3253 10.4702C53.7173 9.70739 54.2734 9.11506 54.9936 8.69318C55.718 8.26705 56.5767 8.05398 57.5696 8.05398C58.5625 8.05398 59.419 8.26705 60.1392 8.69318C60.8636 9.11506 61.4219 9.70739 61.8139 10.4702C62.206 11.2287 62.402 12.1151 62.402 13.1293C62.402 14.1349 62.206 15.0192 61.8139 15.782C61.4219 16.5405 60.8636 17.1328 60.1392 17.5589C59.419 17.9808 58.5625 18.1918 57.5696 18.1918ZM57.5824 16.0824C58.0341 16.0824 58.4112 15.9545 58.7138 15.6989C59.0163 15.4389 59.2443 15.0852 59.3977 14.6378C59.5554 14.1903 59.6342 13.6811 59.6342 13.1101C59.6342 12.5391 59.5554 12.0298 59.3977 11.5824C59.2443 11.1349 59.0163 10.7812 58.7138 10.5213C58.4112 10.2614 58.0341 10.1314 57.5824 10.1314C57.1264 10.1314 56.7429 10.2614 56.4318 10.5213C56.125 10.7812 55.8928 11.1349 55.7351 11.5824C55.5817 12.0298 55.505 12.5391 55.505 13.1101C55.505 13.6811 55.5817 14.1903 55.7351 14.6378C55.8928 15.0852 56.125 15.4389 56.4318 15.6989C56.7429 15.9545 57.1264 16.0824 57.5824 16.0824ZM66.8956 12.3239V18H64.1726V8.18182H66.7678V9.91406H66.8828C67.1001 9.34304 67.4645 8.89133 67.9759 8.55895C68.4872 8.2223 69.1072 8.05398 69.8359 8.05398C70.5178 8.05398 71.1122 8.20312 71.6193 8.50142C72.1264 8.79972 72.5206 9.22585 72.8018 9.77983C73.0831 10.3295 73.2237 10.9858 73.2237 11.7486V18H70.5007V12.2344C70.505 11.6335 70.3516 11.1648 70.0405 10.8281C69.7294 10.4872 69.3011 10.3168 68.7557 10.3168C68.3892 10.3168 68.0653 10.3956 67.7841 10.5533C67.5071 10.7109 67.2898 10.9411 67.1321 11.2436C66.9787 11.5419 66.8999 11.902 66.8956 12.3239ZM83.5389 10.9815L81.046 11.1349C81.0034 10.9219 80.9118 10.7301 80.7711 10.5597C80.6305 10.3849 80.4451 10.2464 80.215 10.1442C79.9892 10.0376 79.7186 9.98438 79.4032 9.98438C78.9814 9.98438 78.6255 10.0739 78.3358 10.2528C78.046 10.4276 77.9011 10.6619 77.9011 10.956C77.9011 11.1903 77.9949 11.3885 78.1824 11.5504C78.3699 11.7124 78.6916 11.8423 79.1476 11.9403L80.9245 12.2983C81.8791 12.4943 82.5907 12.8097 83.0595 13.2443C83.5282 13.679 83.7626 14.25 83.7626 14.9574C83.7626 15.6009 83.573 16.1655 83.1937 16.6513C82.8187 17.1371 82.3031 17.5163 81.6468 17.7891C80.9949 18.0575 80.2427 18.1918 79.3904 18.1918C78.0907 18.1918 77.0552 17.9212 76.2839 17.38C75.5169 16.8345 75.0673 16.093 74.9352 15.1555L77.6135 15.0149C77.6944 15.4112 77.8904 15.7138 78.2015 15.9226C78.5126 16.1271 78.911 16.2294 79.3968 16.2294C79.8741 16.2294 80.2576 16.1378 80.5474 15.9545C80.8414 15.767 80.9906 15.5263 80.9949 15.2322C80.9906 14.9851 80.8862 14.7827 80.6816 14.625C80.4771 14.4631 80.1618 14.3395 79.7356 14.2543L78.0353 13.9155C77.0765 13.7237 76.3627 13.3913 75.894 12.9183C75.4295 12.4453 75.1973 11.8423 75.1973 11.1094C75.1973 10.4787 75.3677 9.93537 75.7086 9.4794C76.0538 9.02344 76.5375 8.67188 77.1596 8.42472C77.786 8.17756 78.519 8.05398 79.3585 8.05398C80.5985 8.05398 81.5744 8.31605 82.286 8.8402C83.002 9.36435 83.4196 10.0781 83.5389 10.9815ZM90.6996 8.18182V10.2273H84.7869V8.18182H90.6996ZM86.1293 5.82955H88.8523V14.983C88.8523 15.2344 88.8906 15.4304 88.9673 15.571C89.044 15.7074 89.1506 15.8033 89.2869 15.8587C89.4276 15.9141 89.5895 15.9418 89.7727 15.9418C89.9006 15.9418 90.0284 15.9311 90.1562 15.9098C90.2841 15.8842 90.3821 15.8651 90.4503 15.8523L90.8786 17.8786C90.7422 17.9212 90.5504 17.9702 90.3033 18.0256C90.0561 18.0852 89.7557 18.1214 89.402 18.1342C88.7457 18.1598 88.1705 18.0724 87.6761 17.8722C87.1861 17.6719 86.8047 17.3608 86.532 16.9389C86.2592 16.517 86.125 15.9844 86.1293 15.3409V5.82955ZM92.4734 18V8.18182H95.1133V9.89489H95.2156C95.3945 9.28551 95.695 8.82528 96.1168 8.5142C96.5387 8.19886 97.0245 8.04119 97.5742 8.04119C97.7106 8.04119 97.8576 8.04972 98.0153 8.06676C98.1729 8.08381 98.3114 8.10724 98.4308 8.13707V10.5533C98.3029 10.5149 98.1261 10.4808 97.9002 10.451C97.6744 10.4212 97.4677 10.4062 97.2802 10.4062C96.8796 10.4062 96.5217 10.4936 96.2063 10.6683C95.8952 10.8388 95.6481 11.0774 95.4648 11.3842C95.2859 11.6911 95.1964 12.0447 95.1964 12.4453V18H92.4734ZM102.357 18.1854C101.731 18.1854 101.172 18.0767 100.682 17.8594C100.192 17.6378 99.8045 17.3118 99.519 16.8814C99.2377 16.4467 99.0971 15.9055 99.0971 15.2578C99.0971 14.7124 99.1973 14.2543 99.3975 13.8835C99.5978 13.5128 99.8706 13.2145 100.216 12.9886C100.561 12.7628 100.953 12.5923 101.392 12.4773C101.835 12.3622 102.3 12.2812 102.785 12.2344C103.356 12.1747 103.817 12.1193 104.166 12.0682C104.515 12.0128 104.769 11.9318 104.927 11.8253C105.084 11.7187 105.163 11.5611 105.163 11.3523V11.3139C105.163 10.9091 105.035 10.5959 104.78 10.3743C104.528 10.1527 104.17 10.0419 103.706 10.0419C103.216 10.0419 102.826 10.1506 102.536 10.3679C102.246 10.581 102.055 10.8494 101.961 11.1733L99.4423 10.9688C99.5701 10.3722 99.8216 9.85653 100.197 9.42188C100.572 8.98295 101.055 8.64631 101.648 8.41193C102.244 8.1733 102.934 8.05398 103.719 8.05398C104.264 8.05398 104.786 8.1179 105.285 8.24574C105.787 8.37358 106.233 8.57173 106.621 8.8402C107.013 9.10866 107.322 9.45384 107.547 9.87571C107.773 10.2933 107.886 10.794 107.886 11.3778V18H105.304V16.6385H105.227C105.069 16.9453 104.858 17.2159 104.594 17.4503C104.33 17.6804 104.013 17.8615 103.642 17.9936C103.271 18.1214 102.843 18.1854 102.357 18.1854ZM103.137 16.3061C103.537 16.3061 103.891 16.2273 104.198 16.0696C104.505 15.9077 104.746 15.6903 104.92 15.4176C105.095 15.1449 105.182 14.8359 105.182 14.4908V13.4489C105.097 13.5043 104.98 13.5554 104.831 13.6023C104.686 13.6449 104.522 13.6854 104.339 13.7237C104.155 13.7578 103.972 13.7898 103.789 13.8196C103.606 13.8452 103.439 13.8686 103.29 13.8899C102.971 13.9368 102.692 14.0114 102.453 14.1136C102.214 14.2159 102.029 14.3544 101.897 14.5291C101.765 14.6996 101.699 14.9126 101.699 15.1683C101.699 15.5391 101.833 15.8224 102.101 16.0185C102.374 16.2102 102.719 16.3061 103.137 16.3061ZM109.999 18V8.18182H112.722V18H109.999ZM111.367 6.91619C110.962 6.91619 110.615 6.78196 110.325 6.51349C110.039 6.24077 109.896 5.91477 109.896 5.53551C109.896 5.16051 110.039 4.83878 110.325 4.57031C110.615 4.29758 110.962 4.16122 111.367 4.16122C111.771 4.16122 112.117 4.29758 112.402 4.57031C112.692 4.83878 112.837 5.16051 112.837 5.53551C112.837 5.91477 112.692 6.24077 112.402 6.51349C112.117 6.78196 111.771 6.91619 111.367 6.91619ZM117.626 12.3239V18H114.903V8.18182H117.498V9.91406H117.613C117.831 9.34304 118.195 8.89133 118.706 8.55895C119.218 8.2223 119.838 8.05398 120.566 8.05398C121.248 8.05398 121.843 8.20312 122.35 8.50142C122.857 8.79972 123.251 9.22585 123.532 9.77983C123.814 10.3295 123.954 10.9858 123.954 11.7486V18H121.231V12.2344C121.235 11.6335 121.082 11.1648 120.771 10.8281C120.46 10.4872 120.032 10.3168 119.486 10.3168C119.12 10.3168 118.796 10.3956 118.515 10.5533C118.238 10.7109 118.02 10.9411 117.863 11.2436C117.709 11.5419 117.63 11.902 117.626 12.3239ZM131.323 8.18182V10.2273H125.41V8.18182H131.323ZM126.752 5.82955H129.475V14.983C129.475 15.2344 129.514 15.4304 129.59 15.571C129.667 15.7074 129.774 15.8033 129.91 15.8587C130.051 15.9141 130.213 15.9418 130.396 15.9418C130.524 15.9418 130.651 15.9311 130.779 15.9098C130.907 15.8842 131.005 15.8651 131.073 15.8523L131.502 17.8786C131.365 17.9212 131.173 17.9702 130.926 18.0256C130.679 18.0852 130.379 18.1214 130.025 18.1342C129.369 18.1598 128.794 18.0724 128.299 17.8722C127.809 17.6719 127.428 17.3608 127.155 16.9389C126.882 16.517 126.748 15.9844 126.752 15.3409V5.82955Z" fill="white"/>
<circle cx="5" cy="49" r="3.5" stroke="white"/>
<circle cx="191" cy="49" r="3.5" stroke="white"/>
<path d="M56.1676 49.4545C56.1676 50.8821 55.897 52.0966 55.3558 53.098C54.8189 54.0994 54.0859 54.8643 53.157 55.3928C52.2322 55.9169 51.1925 56.179 50.0376 56.179C48.8743 56.179 47.8303 55.9148 46.9055 55.3864C45.9808 54.858 45.25 54.093 44.7131 53.0916C44.1761 52.0902 43.9077 50.8778 43.9077 49.4545C43.9077 48.027 44.1761 46.8125 44.7131 45.8111C45.25 44.8097 45.9808 44.0469 46.9055 43.5227C47.8303 42.9943 48.8743 42.7301 50.0376 42.7301C51.1925 42.7301 52.2322 42.9943 53.157 43.5227C54.0859 44.0469 54.8189 44.8097 55.3558 45.8111C55.897 46.8125 56.1676 48.027 56.1676 49.4545ZM53.3615 49.4545C53.3615 48.5298 53.223 47.75 52.946 47.1151C52.6733 46.4801 52.2876 45.9986 51.7891 45.6705C51.2905 45.3423 50.7067 45.1783 50.0376 45.1783C49.3686 45.1783 48.7848 45.3423 48.2862 45.6705C47.7876 45.9986 47.3999 46.4801 47.1229 47.1151C46.8501 47.75 46.7138 48.5298 46.7138 49.4545C46.7138 50.3793 46.8501 51.1591 47.1229 51.794C47.3999 52.429 47.7876 52.9105 48.2862 53.2386C48.7848 53.5668 49.3686 53.7308 50.0376 53.7308C50.7067 53.7308 51.2905 53.5668 51.7891 53.2386C52.2876 52.9105 52.6733 52.429 52.946 51.794C53.223 51.1591 53.3615 50.3793 53.3615 49.4545ZM69.1674 42.9091V56H66.7768L61.0815 47.7607H60.9856V56H58.2179V42.9091H60.6468L66.2974 51.142H66.4125V42.9091H69.1674Z" fill="white"/>
<rect x="29.5" y="33.5" width="55" height="32" rx="16" stroke="white"/>
<path d="M118.561 54.1918C117.551 54.1918 116.682 53.9872 115.953 53.5781C115.229 53.1648 114.67 52.581 114.278 51.8267C113.886 51.0682 113.69 50.1712 113.69 49.1357C113.69 48.1257 113.886 47.2393 114.278 46.4766C114.67 45.7138 115.222 45.1193 115.934 44.6932C116.65 44.267 117.489 44.054 118.452 44.054C119.1 44.054 119.703 44.1584 120.261 44.3672C120.824 44.5717 121.314 44.8807 121.732 45.294C122.153 45.7074 122.482 46.2273 122.716 46.8537C122.95 47.4759 123.067 48.2045 123.067 49.0398V49.7876H114.777V48.1001H120.504C120.504 47.7081 120.419 47.3608 120.249 47.0582C120.078 46.7557 119.842 46.5192 119.539 46.3487C119.241 46.174 118.893 46.0866 118.497 46.0866C118.084 46.0866 117.717 46.1825 117.398 46.3743C117.082 46.5618 116.835 46.8153 116.656 47.1349C116.477 47.4503 116.386 47.8018 116.381 48.1896V49.794C116.381 50.2798 116.471 50.6996 116.65 51.0533C116.833 51.407 117.091 51.6797 117.423 51.8714C117.756 52.0632 118.15 52.1591 118.606 52.1591C118.908 52.1591 119.185 52.1165 119.437 52.0312C119.688 51.946 119.903 51.8182 120.082 51.6477C120.261 51.4773 120.398 51.2685 120.491 51.0213L123.01 51.1875C122.882 51.7926 122.62 52.321 122.224 52.7727C121.832 53.2202 121.325 53.5696 120.702 53.821C120.085 54.0682 119.371 54.1918 118.561 54.1918ZM126.944 44.1818L128.747 47.6143L130.594 44.1818H133.387L130.543 49.0909L133.464 54H130.684L128.747 50.6058L126.842 54H124.029L126.944 49.0909L124.132 44.1818H126.944ZM135.005 57.6818V44.1818H137.689V45.831H137.811C137.93 45.5668 138.103 45.2983 138.328 45.0256C138.559 44.7486 138.857 44.5185 139.223 44.3352C139.594 44.1477 140.054 44.054 140.604 44.054C141.32 44.054 141.98 44.2415 142.586 44.6165C143.191 44.9872 143.674 45.5476 144.037 46.2976C144.399 47.0433 144.58 47.9787 144.58 49.1037C144.58 50.1989 144.403 51.1236 144.049 51.8778C143.7 52.6278 143.223 53.1967 142.618 53.5845C142.017 53.968 141.343 54.1598 140.598 54.1598C140.069 54.1598 139.62 54.0724 139.249 53.8977C138.882 53.723 138.582 53.5036 138.348 53.2393C138.113 52.9709 137.934 52.7003 137.811 52.4276H137.728V57.6818H135.005ZM137.67 49.0909C137.67 49.6747 137.751 50.1839 137.913 50.6186C138.075 51.0533 138.309 51.392 138.616 51.6349C138.923 51.8736 139.296 51.9929 139.735 51.9929C140.178 51.9929 140.553 51.8714 140.86 51.6286C141.167 51.3814 141.399 51.0405 141.556 50.6058C141.718 50.1669 141.799 49.6619 141.799 49.0909C141.799 48.5241 141.721 48.0256 141.563 47.5952C141.405 47.1648 141.173 46.8281 140.866 46.5852C140.559 46.3423 140.182 46.2209 139.735 46.2209C139.292 46.2209 138.917 46.3381 138.61 46.5724C138.307 46.8068 138.075 47.1392 137.913 47.5696C137.751 48 137.67 48.5071 137.67 49.0909ZM146.395 54V44.1818H149.035V45.8949H149.137C149.316 45.2855 149.617 44.8253 150.039 44.5142C150.461 44.1989 150.946 44.0412 151.496 44.0412C151.632 44.0412 151.779 44.0497 151.937 44.0668C152.095 44.0838 152.233 44.1072 152.353 44.1371V46.5533C152.225 46.5149 152.048 46.4808 151.822 46.451C151.596 46.4212 151.39 46.4062 151.202 46.4062C150.801 46.4062 150.444 46.4936 150.128 46.6683C149.817 46.8388 149.57 47.0774 149.387 47.3842C149.208 47.6911 149.118 48.0447 149.118 48.4453V54H146.395Z" fill="white"/>
<rect x="109.5" y="33.5" width="47" height="32" stroke="white"/>
<path d="M29 49L19 43.2265V54.7735L29 49ZM9 50H20V48H9V50Z" fill="white"/>
<path d="M109 49L99 43.2265V54.7735L109 49ZM85 50L100 50V48L85 48V50Z" fill="white"/>
<path d="M187 49L177 43.2265V54.7735L187 49ZM157 50L178 50V48L157 48V50Z" fill="white"/>
</svg>
