<svg width="789" height="143" viewBox="0 0 789 143" fill="none" xmlns="http://www.w3.org/2000/svg">
<path d="M2.08665 8.18182H4.80966V18.4858C4.80966 19.2443 4.66051 19.858 4.36222 20.3267C4.06392 20.7955 3.63565 21.1385 3.07741 21.3558C2.52344 21.5732 1.8608 21.6818 1.08949 21.6818C0.995739 21.6818 0.90625 21.6797 0.821023 21.6754C0.731534 21.6754 0.637784 21.6733 0.539773 21.669V19.5405C0.612216 19.5447 0.676136 19.5469 0.731534 19.5469C0.78267 19.5511 0.838068 19.5533 0.897727 19.5533C1.33665 19.5533 1.64347 19.4595 1.81818 19.272C1.99716 19.0888 2.08665 18.8118 2.08665 18.4411V8.18182ZM3.44176 6.91619C3.04119 6.91619 2.69602 6.78196 2.40625 6.51349C2.11648 6.24077 1.97159 5.91477 1.97159 5.53551C1.97159 5.16051 2.11648 4.83878 2.40625 4.57031C2.69602 4.29758 3.04119 4.16122 3.44176 4.16122C3.85085 4.16122 4.19815 4.29758 4.48366 4.57031C4.77344 4.83878 4.91832 5.16051 4.91832 5.53551C4.91832 5.91477 4.77344 6.24077 4.48366 6.51349C4.19815 6.78196 3.85085 6.91619 3.44176 6.91619ZM11.427 18.1918C10.4341 18.1918 9.57546 17.9808 8.85103 17.5589C8.13086 17.1328 7.57475 16.5405 7.18271 15.782C6.79066 15.0192 6.59464 14.1349 6.59464 13.1293C6.59464 12.1151 6.79066 11.2287 7.18271 10.4702C7.57475 9.70739 8.13086 9.11506 8.85103 8.69318C9.57546 8.26705 10.4341 8.05398 11.427 8.05398C12.4199 8.05398 13.2765 8.26705 13.9966 8.69318C14.7211 9.11506 15.2793 9.70739 15.6713 10.4702C16.0634 11.2287 16.2594 12.1151 16.2594 13.1293C16.2594 14.1349 16.0634 15.0192 15.6713 15.782C15.2793 16.5405 14.7211 17.1328 13.9966 17.5589C13.2765 17.9808 12.4199 18.1918 11.427 18.1918ZM11.4398 16.0824C11.8915 16.0824 12.2686 15.9545 12.5712 15.6989C12.8738 15.4389 13.1017 15.0852 13.2551 14.6378C13.4128 14.1903 13.4917 13.6811 13.4917 13.1101C13.4917 12.5391 13.4128 12.0298 13.2551 11.5824C13.1017 11.1349 12.8738 10.7812 12.5712 10.5213C12.2686 10.2614 11.8915 10.1314 11.4398 10.1314C10.9838 10.1314 10.6003 10.2614 10.2892 10.5213C9.98242 10.7812 9.75018 11.1349 9.59251 11.5824C9.4391 12.0298 9.36239 12.5391 9.36239 13.1101C9.36239 13.6811 9.4391 14.1903 9.59251 14.6378C9.75018 15.0852 9.98242 15.4389 10.2892 15.6989C10.6003 15.9545 10.9838 16.0824 11.4398 16.0824ZM18.03 18V8.18182H20.753V18H18.03ZM19.3979 6.91619C18.9931 6.91619 18.6458 6.78196 18.356 6.51349C18.0705 6.24077 17.9277 5.91477 17.9277 5.53551C17.9277 5.16051 18.0705 4.83878 18.356 4.57031C18.6458 4.29758 18.9931 4.16122 19.3979 4.16122C19.8027 4.16122 20.1479 4.29758 20.4334 4.57031C20.7232 4.83878 20.8681 5.16051 20.8681 5.53551C20.8681 5.91477 20.7232 6.24077 20.4334 6.51349C20.1479 6.78196 19.8027 6.91619 19.3979 6.91619ZM25.6573 12.3239V18H22.9343V8.18182H25.5295V9.91406H25.6445C25.8619 9.34304 26.2262 8.89133 26.7376 8.55895C27.2489 8.2223 27.869 8.05398 28.5977 8.05398C29.2795 8.05398 29.8739 8.20312 30.381 8.50142C30.8881 8.79972 31.2823 9.22585 31.5636 9.77983C31.8448 10.3295 31.9854 10.9858 31.9854 11.7486V18H29.2624V12.2344C29.2667 11.6335 29.1133 11.1648 28.8022 10.8281C28.4911 10.4872 28.0629 10.3168 27.5174 10.3168C27.1509 10.3168 26.8271 10.3956 26.5458 10.5533C26.2688 10.7109 26.0515 10.9411 25.8938 11.2436C25.7404 11.5419 25.6616 11.902 25.6573 12.3239ZM40.2488 11.544V13.7045H34.2786V11.544H40.2488ZM47.0051 18.1918C45.9995 18.1918 45.1344 17.9787 44.41 17.5526C43.6898 17.1222 43.1358 16.5256 42.748 15.7628C42.3645 15 42.1728 14.1222 42.1728 13.1293C42.1728 12.1236 42.3667 11.2415 42.7544 10.483C43.1465 9.72017 43.7026 9.12571 44.4228 8.69957C45.1429 8.26918 45.9995 8.05398 46.9924 8.05398C47.8489 8.05398 48.5989 8.20952 49.2424 8.5206C49.8858 8.83168 50.3951 9.26847 50.7701 9.83097C51.1451 10.3935 51.3517 11.054 51.3901 11.8125H48.8205C48.748 11.3224 48.5563 10.9283 48.2452 10.63C47.9384 10.3274 47.5357 10.1761 47.0371 10.1761C46.6152 10.1761 46.2466 10.2912 45.9313 10.5213C45.6202 10.7472 45.3773 11.0774 45.2026 11.5121C45.0279 11.9467 44.9405 12.473 44.9405 13.0909C44.9405 13.7173 45.0257 14.25 45.1962 14.6889C45.3709 15.1278 45.6159 15.4624 45.9313 15.6925C46.2466 15.9226 46.6152 16.0376 47.0371 16.0376C47.3482 16.0376 47.6273 15.9737 47.8745 15.8459C48.1259 15.718 48.3326 15.5327 48.4945 15.2898C48.6607 15.0426 48.7694 14.7464 48.8205 14.4013H51.3901C51.3475 15.1513 51.1429 15.8118 50.7765 16.3828C50.4142 16.9496 49.9135 17.3928 49.2743 17.7124C48.6351 18.032 47.8787 18.1918 47.0051 18.1918ZM55.8565 4.90909V18H53.1335V4.90909H55.8565ZM60.8375 18.1854C60.2111 18.1854 59.6529 18.0767 59.1628 17.8594C58.6728 17.6378 58.285 17.3118 57.9995 16.8814C57.7182 16.4467 57.5776 15.9055 57.5776 15.2578C57.5776 14.7124 57.6777 14.2543 57.878 13.8835C58.0783 13.5128 58.351 13.2145 58.6962 12.9886C59.0414 12.7628 59.4334 12.5923 59.8723 12.4773C60.3155 12.3622 60.78 12.2812 61.2658 12.2344C61.8368 12.1747 62.2971 12.1193 62.6465 12.0682C62.9959 12.0128 63.2495 11.9318 63.4071 11.8253C63.5648 11.7187 63.6436 11.5611 63.6436 11.3523V11.3139C63.6436 10.9091 63.5158 10.5959 63.2601 10.3743C63.0087 10.1527 62.6507 10.0419 62.1863 10.0419C61.6962 10.0419 61.3063 10.1506 61.0165 10.3679C60.7267 10.581 60.535 10.8494 60.4412 11.1733L57.9228 10.9688C58.0506 10.3722 58.302 9.85653 58.677 9.42188C59.052 8.98295 59.5357 8.64631 60.128 8.41193C60.7246 8.1733 61.415 8.05398 62.199 8.05398C62.7445 8.05398 63.2665 8.1179 63.7651 8.24574C64.2679 8.37358 64.7132 8.57173 65.101 8.8402C65.4931 9.10866 65.802 9.45384 66.0279 9.87571C66.2537 10.2933 66.3667 10.794 66.3667 11.3778V18H63.7843V16.6385H63.7076C63.5499 16.9453 63.339 17.2159 63.0748 17.4503C62.8105 17.6804 62.4931 17.8615 62.1223 17.9936C61.7516 18.1214 61.3233 18.1854 60.8375 18.1854ZM61.6174 16.3061C62.0179 16.3061 62.3716 16.2273 62.6784 16.0696C62.9853 15.9077 63.226 15.6903 63.4007 15.4176C63.5755 15.1449 63.6628 14.8359 63.6628 14.4908V13.4489C63.5776 13.5043 63.4604 13.5554 63.3113 13.6023C63.1664 13.6449 63.0023 13.6854 62.8191 13.7237C62.6358 13.7578 62.4526 13.7898 62.2694 13.8196C62.0861 13.8452 61.9199 13.8686 61.7708 13.8899C61.4512 13.9368 61.1721 14.0114 60.9334 14.1136C60.6948 14.2159 60.5094 14.3544 60.3773 14.5291C60.2452 14.6996 60.1792 14.9126 60.1792 15.1683C60.1792 15.5391 60.3134 15.8224 60.5819 16.0185C60.8546 16.2102 61.1998 16.3061 61.6174 16.3061ZM74.7754 13.8196V8.18182H77.4984V18H74.8841V16.2166H74.7818C74.5602 16.7919 74.1916 17.2543 73.676 17.6037C73.1646 17.9531 72.5403 18.1278 71.8031 18.1278C71.1468 18.1278 70.5694 17.9787 70.0708 17.6804C69.5723 17.3821 69.1824 16.9581 68.9011 16.4084C68.6241 15.8587 68.4835 15.2003 68.4792 14.4332V8.18182H71.2022V13.9474C71.2065 14.527 71.362 14.9851 71.6689 15.3217C71.9757 15.6584 72.3869 15.8267 72.9025 15.8267C73.2306 15.8267 73.5375 15.7521 73.823 15.603C74.1085 15.4496 74.3386 15.2237 74.5133 14.9254C74.6923 14.6271 74.7797 14.2585 74.7754 13.8196ZM87.8455 10.9815L85.3526 11.1349C85.31 10.9219 85.2184 10.7301 85.0778 10.5597C84.9371 10.3849 84.7518 10.2464 84.5217 10.1442C84.2958 10.0376 84.0252 9.98438 83.7099 9.98438C83.288 9.98438 82.9322 10.0739 82.6424 10.2528C82.3526 10.4276 82.2077 10.6619 82.2077 10.956C82.2077 11.1903 82.3015 11.3885 82.489 11.5504C82.6765 11.7124 82.9982 11.8423 83.4542 11.9403L85.2312 12.2983C86.1857 12.4943 86.8974 12.8097 87.3661 13.2443C87.8349 13.679 88.0692 14.25 88.0692 14.9574C88.0692 15.6009 87.8796 16.1655 87.5004 16.6513C87.1254 17.1371 86.6097 17.5163 85.9535 17.7891C85.3015 18.0575 84.5494 18.1918 83.6971 18.1918C82.3974 18.1918 81.3619 17.9212 80.5906 17.38C79.8235 16.8345 79.3739 16.093 79.2418 15.1555L81.9201 15.0149C82.0011 15.4112 82.1971 15.7138 82.5082 15.9226C82.8192 16.1271 83.2177 16.2294 83.7035 16.2294C84.1808 16.2294 84.5643 16.1378 84.854 15.9545C85.1481 15.767 85.2972 15.5263 85.3015 15.2322C85.2972 14.9851 85.1928 14.7827 84.9883 14.625C84.7837 14.4631 84.4684 14.3395 84.0423 14.2543L82.342 13.9155C81.3832 13.7237 80.6694 13.3913 80.2006 12.9183C79.7362 12.4453 79.5039 11.8423 79.5039 11.1094C79.5039 10.4787 79.6744 9.93537 80.0153 9.4794C80.3604 9.02344 80.8441 8.67188 81.4663 8.42472C82.0927 8.17756 82.8256 8.05398 83.6651 8.05398C84.9052 8.05398 85.881 8.31605 86.5927 8.8402C87.3086 9.36435 87.7262 10.0781 87.8455 10.9815ZM94.2583 18.1918C93.2484 18.1918 92.3791 17.9872 91.6504 17.5781C90.926 17.1648 90.3677 16.581 89.9757 15.8267C89.5836 15.0682 89.3876 14.1712 89.3876 13.1357C89.3876 12.1257 89.5836 11.2393 89.9757 10.4766C90.3677 9.71378 90.9196 9.11932 91.6312 8.69318C92.3471 8.26705 93.1866 8.05398 94.1497 8.05398C94.7974 8.05398 95.4004 8.15838 95.9586 8.36719C96.5211 8.57173 97.0112 8.88068 97.4288 9.29403C97.8507 9.70739 98.1788 10.2273 98.4132 10.8537C98.6476 11.4759 98.7647 12.2045 98.7647 13.0398V13.7876H90.4743V12.1001H96.2015C96.2015 11.7081 96.1163 11.3608 95.9458 11.0582C95.7754 10.7557 95.5389 10.5192 95.2363 10.3487C94.938 10.174 94.5907 10.0866 94.1944 10.0866C93.7811 10.0866 93.4146 10.1825 93.095 10.3743C92.7797 10.5618 92.5325 10.8153 92.3535 11.1349C92.1745 11.4503 92.0829 11.8018 92.0787 12.1896V13.794C92.0787 14.2798 92.1681 14.6996 92.3471 15.0533C92.5304 15.407 92.7882 15.6797 93.1206 15.8714C93.4529 16.0632 93.8471 16.1591 94.3031 16.1591C94.6056 16.1591 94.8826 16.1165 95.1341 16.0312C95.3855 15.946 95.6007 15.8182 95.7797 15.6477C95.9586 15.4773 96.095 15.2685 96.1887 15.0213L98.7072 15.1875C98.5794 15.7926 98.3173 16.321 97.921 16.7727C97.5289 17.2202 97.0218 17.5696 96.3997 17.821C95.7818 18.0682 95.068 18.1918 94.2583 18.1918Z" fill="white"/>
<circle cx="5" cy="49" r="3.5" stroke="white"/>
<circle cx="785" cy="49" r="3.5" stroke="white"/>
<path d="M39.3089 45.1818V47.2273H33.3963V45.1818H39.3089ZM34.7386 42.8295H37.4616V51.983C37.4616 52.2344 37.5 52.4304 37.5767 52.571C37.6534 52.7074 37.7599 52.8033 37.8963 52.8587C38.0369 52.9141 38.1989 52.9418 38.3821 52.9418C38.5099 52.9418 38.6378 52.9311 38.7656 52.9098C38.8935 52.8842 38.9915 52.8651 39.0597 52.8523L39.4879 54.8786C39.3516 54.9212 39.1598 54.9702 38.9126 55.0256C38.6655 55.0852 38.3651 55.1214 38.0114 55.1342C37.3551 55.1598 36.7798 55.0724 36.2855 54.8722C35.7955 54.6719 35.4141 54.3608 35.1413 53.9389C34.8686 53.517 34.7344 52.9844 34.7386 52.3409V42.8295ZM43.8825 55.1854C43.256 55.1854 42.6978 55.0767 42.2077 54.8594C41.7177 54.6378 41.3299 54.3118 41.0444 53.8814C40.7631 53.4467 40.6225 52.9055 40.6225 52.2578C40.6225 51.7124 40.7227 51.2543 40.9229 50.8835C41.1232 50.5128 41.396 50.2145 41.7411 49.9886C42.0863 49.7628 42.4783 49.5923 42.9173 49.4773C43.3604 49.3622 43.8249 49.2812 44.3107 49.2344C44.8817 49.1747 45.342 49.1193 45.6914 49.0682C46.0408 49.0128 46.2944 48.9318 46.4521 48.8253C46.6097 48.7187 46.6886 48.5611 46.6886 48.3523V48.3139C46.6886 47.9091 46.5607 47.5959 46.305 47.3743C46.0536 47.1527 45.6957 47.0419 45.2312 47.0419C44.7411 47.0419 44.3512 47.1506 44.0614 47.3679C43.7717 47.581 43.5799 47.8494 43.4862 48.1733L40.9677 47.9688C41.0955 47.3722 41.3469 46.8565 41.7219 46.4219C42.0969 45.983 42.5806 45.6463 43.1729 45.4119C43.7695 45.1733 44.4599 45.054 45.244 45.054C45.7894 45.054 46.3114 45.1179 46.81 45.2457C47.3129 45.3736 47.7582 45.5717 48.146 45.8402C48.538 46.1087 48.8469 46.4538 49.0728 46.8757C49.2987 47.2933 49.4116 47.794 49.4116 48.3778V55H46.8292V53.6385H46.7525C46.5948 53.9453 46.3839 54.2159 46.1197 54.4503C45.8555 54.6804 45.538 54.8615 45.1673 54.9936C44.7965 55.1214 44.3683 55.1854 43.8825 55.1854ZM44.6623 53.3061C45.0629 53.3061 45.4165 53.2273 45.7234 53.0696C46.0302 52.9077 46.271 52.6903 46.4457 52.4176C46.6204 52.1449 46.7077 51.8359 46.7077 51.4908V50.4489C46.6225 50.5043 46.5053 50.5554 46.3562 50.6023C46.2113 50.6449 46.0472 50.6854 45.864 50.7237C45.6808 50.7578 45.4975 50.7898 45.3143 50.8196C45.131 50.8452 44.9648 50.8686 44.8157 50.8899C44.4961 50.9368 44.217 51.0114 43.9783 51.1136C43.7397 51.2159 43.5543 51.3544 43.4222 51.5291C43.2901 51.6996 43.2241 51.9126 43.2241 52.1683C43.2241 52.5391 43.3583 52.8224 43.6268 53.0185C43.8995 53.2102 44.2447 53.3061 44.6623 53.3061ZM51.5753 55V41.9091H54.2983V46.831H54.3814C54.5007 46.5668 54.6733 46.2983 54.8991 46.0256C55.1293 45.7486 55.4276 45.5185 55.794 45.3352C56.1648 45.1477 56.625 45.054 57.1747 45.054C57.8906 45.054 58.5511 45.2415 59.1562 45.6165C59.7614 45.9872 60.245 46.5476 60.6072 47.2976C60.9695 48.0433 61.1506 48.9787 61.1506 50.1037C61.1506 51.1989 60.9737 52.1236 60.62 52.8778C60.2706 53.6278 59.7933 54.1967 59.1882 54.5845C58.5874 54.968 57.9141 55.1598 57.1683 55.1598C56.6399 55.1598 56.1903 55.0724 55.8196 54.8977C55.4531 54.723 55.1527 54.5036 54.9183 54.2393C54.6839 53.9709 54.505 53.7003 54.3814 53.4276H54.2599V55H51.5753ZM54.2408 50.0909C54.2408 50.6747 54.3217 51.1839 54.4837 51.6186C54.6456 52.0533 54.88 52.392 55.1868 52.6349C55.4936 52.8736 55.8665 52.9929 56.3054 52.9929C56.7486 52.9929 57.1236 52.8714 57.4304 52.6286C57.7372 52.3814 57.9695 52.0405 58.1271 51.6058C58.2891 51.1669 58.37 50.6619 58.37 50.0909C58.37 49.5241 58.2912 49.0256 58.1335 48.5952C57.9759 48.1648 57.7436 47.8281 57.4368 47.5852C57.13 47.3423 56.7528 47.2209 56.3054 47.2209C55.8622 47.2209 55.4872 47.3381 55.1804 47.5724C54.8778 47.8068 54.6456 48.1392 54.4837 48.5696C54.3217 49 54.2408 49.5071 54.2408 50.0909ZM65.6905 41.9091V55H62.9675V41.9091H65.6905ZM72.3462 55.1918C71.3363 55.1918 70.467 54.9872 69.7383 54.5781C69.0138 54.1648 68.4556 53.581 68.0636 52.8267C67.6715 52.0682 67.4755 51.1712 67.4755 50.1357C67.4755 49.1257 67.6715 48.2393 68.0636 47.4766C68.4556 46.7138 69.0075 46.1193 69.7191 45.6932C70.435 45.267 71.2745 45.054 72.2376 45.054C72.8853 45.054 73.4883 45.1584 74.0465 45.3672C74.609 45.5717 75.0991 45.8807 75.5167 46.294C75.9386 46.7074 76.2667 47.2273 76.5011 47.8537C76.7354 48.4759 76.8526 49.2045 76.8526 50.0398V50.7876H68.5621V49.1001H74.2894C74.2894 48.7081 74.2042 48.3608 74.0337 48.0582C73.8633 47.7557 73.6268 47.5192 73.3242 47.3487C73.0259 47.174 72.6786 47.0866 72.2823 47.0866C71.869 47.0866 71.5025 47.1825 71.1829 47.3743C70.8675 47.5618 70.6204 47.8153 70.4414 48.1349C70.2624 48.4503 70.1708 48.8018 70.1665 49.1896V50.794C70.1665 51.2798 70.256 51.6996 70.435 52.0533C70.6183 52.407 70.8761 52.6797 71.2085 52.8714C71.5408 53.0632 71.935 53.1591 72.391 53.1591C72.6935 53.1591 72.9705 53.1165 73.2219 53.0312C73.4734 52.946 73.6886 52.8182 73.8675 52.6477C74.0465 52.4773 74.1829 52.2685 74.2766 52.0213L76.7951 52.1875C76.6673 52.7926 76.4052 53.321 76.0089 53.7727C75.6168 54.2202 75.1097 54.5696 74.4876 54.821C73.8697 55.0682 73.1559 55.1918 72.3462 55.1918ZM84.7468 48.544V50.7045H78.7766V48.544H84.7468ZM91.5032 55.1918C90.5103 55.1918 89.6516 54.9808 88.9272 54.5589C88.207 54.1328 87.6509 53.5405 87.2589 52.782C86.8668 52.0192 86.6708 51.1349 86.6708 50.1293C86.6708 49.1151 86.8668 48.2287 87.2589 47.4702C87.6509 46.7074 88.207 46.1151 88.9272 45.6932C89.6516 45.267 90.5103 45.054 91.5032 45.054C92.4961 45.054 93.3526 45.267 94.0728 45.6932C94.7972 46.1151 95.3555 46.7074 95.7475 47.4702C96.1396 48.2287 96.3356 49.1151 96.3356 50.1293C96.3356 51.1349 96.1396 52.0192 95.7475 52.782C95.3555 53.5405 94.7972 54.1328 94.0728 54.5589C93.3526 54.9808 92.4961 55.1918 91.5032 55.1918ZM91.516 53.0824C91.9677 53.0824 92.3448 52.9545 92.6474 52.6989C92.9499 52.4389 93.1779 52.0852 93.3313 51.6378C93.489 51.1903 93.5678 50.6811 93.5678 50.1101C93.5678 49.5391 93.489 49.0298 93.3313 48.5824C93.1779 48.1349 92.9499 47.7812 92.6474 47.5213C92.3448 47.2614 91.9677 47.1314 91.516 47.1314C91.06 47.1314 90.6765 47.2614 90.3654 47.5213C90.0586 47.7812 89.8263 48.1349 89.6687 48.5824C89.5153 49.0298 89.4386 49.5391 89.4386 50.1101C89.4386 50.6811 89.5153 51.1903 89.6687 51.6378C89.8263 52.0852 90.0586 52.4389 90.3654 52.6989C90.6765 52.9545 91.06 53.0824 91.516 53.0824ZM98.1062 55V45.1818H100.746V46.8949H100.848C101.027 46.2855 101.328 45.8253 101.75 45.5142C102.172 45.1989 102.657 45.0412 103.207 45.0412C103.343 45.0412 103.49 45.0497 103.648 45.0668C103.806 45.0838 103.944 45.1072 104.064 45.1371V47.5533C103.936 47.5149 103.759 47.4808 103.533 47.451C103.307 47.4212 103.1 47.4062 102.913 47.4062C102.512 47.4062 102.154 47.4936 101.839 47.6683C101.528 47.8388 101.281 48.0774 101.098 48.3842C100.919 48.6911 100.829 49.0447 100.829 49.4453V55H98.1062ZM111.29 48.544V50.7045H105.32V48.544H111.29ZM121.779 47.9815L119.286 48.1349C119.244 47.9219 119.152 47.7301 119.011 47.5597C118.871 47.3849 118.685 47.2464 118.455 47.1442C118.229 47.0376 117.959 46.9844 117.643 46.9844C117.222 46.9844 116.866 47.0739 116.576 47.2528C116.286 47.4276 116.141 47.6619 116.141 47.956C116.141 48.1903 116.235 48.3885 116.423 48.5504C116.61 48.7124 116.932 48.8423 117.388 48.9403L119.165 49.2983C120.119 49.4943 120.831 49.8097 121.3 50.2443C121.768 50.679 122.003 51.25 122.003 51.9574C122.003 52.6009 121.813 53.1655 121.434 53.6513C121.059 54.1371 120.543 54.5163 119.887 54.7891C119.235 55.0575 118.483 55.1918 117.631 55.1918C116.331 55.1918 115.295 54.9212 114.524 54.38C113.757 53.8345 113.308 53.093 113.175 52.1555L115.854 52.0149C115.935 52.4112 116.131 52.7138 116.442 52.9226C116.753 53.1271 117.151 53.2294 117.637 53.2294C118.114 53.2294 118.498 53.1378 118.788 52.9545C119.082 52.767 119.231 52.5263 119.235 52.2322C119.231 51.9851 119.126 51.7827 118.922 51.625C118.717 51.4631 118.402 51.3395 117.976 51.2543L116.276 50.9155C115.317 50.7237 114.603 50.3913 114.134 49.9183C113.67 49.4453 113.438 48.8423 113.438 48.1094C113.438 47.4787 113.608 46.9354 113.949 46.4794C114.294 46.0234 114.778 45.6719 115.4 45.4247C116.026 45.1776 116.759 45.054 117.599 45.054C118.839 45.054 119.815 45.3161 120.526 45.8402C121.242 46.3643 121.66 47.0781 121.779 47.9815ZM130.014 50.8196V45.1818H132.737V55H130.122V53.2166H130.02C129.798 53.7919 129.43 54.2543 128.914 54.6037C128.403 54.9531 127.779 55.1278 127.041 55.1278C126.385 55.1278 125.808 54.9787 125.309 54.6804C124.811 54.3821 124.421 53.9581 124.139 53.4084C123.862 52.8587 123.722 52.2003 123.718 51.4332V45.1818H126.441V50.9474C126.445 51.527 126.6 51.9851 126.907 52.3217C127.214 52.6584 127.625 52.8267 128.141 52.8267C128.469 52.8267 128.776 52.7521 129.061 52.603C129.347 52.4496 129.577 52.2237 129.752 51.9254C129.931 51.6271 130.018 51.2585 130.014 50.8196ZM134.966 55V41.9091H137.689V46.831H137.772C137.891 46.5668 138.064 46.2983 138.29 46.0256C138.52 45.7486 138.818 45.5185 139.185 45.3352C139.555 45.1477 140.016 45.054 140.565 45.054C141.281 45.054 141.942 45.2415 142.547 45.6165C143.152 45.9872 143.636 46.5476 143.998 47.2976C144.36 48.0433 144.541 48.9787 144.541 50.1037C144.541 51.1989 144.364 52.1236 144.011 52.8778C143.661 53.6278 143.184 54.1967 142.579 54.5845C141.978 54.968 141.305 55.1598 140.559 55.1598C140.031 55.1598 139.581 55.0724 139.21 54.8977C138.844 54.723 138.543 54.5036 138.309 54.2393C138.075 53.9709 137.896 53.7003 137.772 53.4276H137.651V55H134.966ZM137.631 50.0909C137.631 50.6747 137.712 51.1839 137.874 51.6186C138.036 52.0533 138.271 52.392 138.577 52.6349C138.884 52.8736 139.257 52.9929 139.696 52.9929C140.139 52.9929 140.514 52.8714 140.821 52.6286C141.128 52.3814 141.36 52.0405 141.518 51.6058C141.68 51.1669 141.761 50.6619 141.761 50.0909C141.761 49.5241 141.682 49.0256 141.524 48.5952C141.366 48.1648 141.134 47.8281 140.827 47.5852C140.521 47.3423 140.143 47.2209 139.696 47.2209C139.253 47.2209 138.878 47.3381 138.571 47.5724C138.268 47.8068 138.036 48.1392 137.874 48.5696C137.712 49 137.631 49.5071 137.631 50.0909ZM152.846 58.6818V53.4276H152.763C152.635 53.7003 152.454 53.9709 152.22 54.2393C151.99 54.5036 151.689 54.723 151.318 54.8977C150.952 55.0724 150.504 55.1598 149.976 55.1598C149.23 55.1598 148.555 54.968 147.95 54.5845C147.349 54.1967 146.872 53.6278 146.518 52.8778C146.169 52.1236 145.994 51.1989 145.994 50.1037C145.994 48.9787 146.175 48.0433 146.537 47.2976C146.899 46.5476 147.381 45.9872 147.982 45.6165C148.587 45.2415 149.249 45.054 149.97 45.054C150.519 45.054 150.977 45.1477 151.344 45.3352C151.715 45.5185 152.013 45.7486 152.239 46.0256C152.469 46.2983 152.644 46.5668 152.763 46.831H152.878V45.1818H155.563V58.6818H152.846ZM150.839 52.9929C151.278 52.9929 151.649 52.8736 151.951 52.6349C152.258 52.392 152.492 52.0533 152.654 51.6186C152.82 51.1839 152.904 50.6747 152.904 50.0909C152.904 49.5071 152.823 49 152.661 48.5696C152.499 48.1392 152.264 47.8068 151.958 47.5724C151.651 47.3381 151.278 47.2209 150.839 47.2209C150.392 47.2209 150.014 47.3423 149.708 47.5852C149.401 47.8281 149.169 48.1648 149.011 48.5952C148.853 49.0256 148.774 49.5241 148.774 50.0909C148.774 50.6619 148.853 51.1669 149.011 51.6058C149.173 52.0405 149.405 52.3814 149.708 52.6286C150.014 52.8714 150.392 52.9929 150.839 52.9929ZM164.045 50.8196V45.1818H166.768V55H164.154V53.2166H164.051C163.83 53.7919 163.461 54.2543 162.945 54.6037C162.434 54.9531 161.81 55.1278 161.073 55.1278C160.416 55.1278 159.839 54.9787 159.34 54.6804C158.842 54.3821 158.452 53.9581 158.171 53.4084C157.894 52.8587 157.753 52.2003 157.749 51.4332V45.1818H160.472V50.9474C160.476 51.527 160.632 51.9851 160.938 52.3217C161.245 52.6584 161.656 52.8267 162.172 52.8267C162.5 52.8267 162.807 52.7521 163.093 52.603C163.378 52.4496 163.608 52.2237 163.783 51.9254C163.962 51.6271 164.049 51.2585 164.045 50.8196ZM173.42 55.1918C172.411 55.1918 171.541 54.9872 170.812 54.5781C170.088 54.1648 169.53 53.581 169.138 52.8267C168.746 52.0682 168.55 51.1712 168.55 50.1357C168.55 49.1257 168.746 48.2393 169.138 47.4766C169.53 46.7138 170.082 46.1193 170.793 45.6932C171.509 45.267 172.349 45.054 173.312 45.054C173.96 45.054 174.563 45.1584 175.121 45.3672C175.683 45.5717 176.173 45.8807 176.591 46.294C177.013 46.7074 177.341 47.2273 177.575 47.8537C177.81 48.4759 177.927 49.2045 177.927 50.0398V50.7876H169.636V49.1001H175.364C175.364 48.7081 175.278 48.3608 175.108 48.0582C174.938 47.7557 174.701 47.5192 174.398 47.3487C174.1 47.174 173.753 47.0866 173.357 47.0866C172.943 47.0866 172.577 47.1825 172.257 47.3743C171.942 47.5618 171.695 47.8153 171.516 48.1349C171.337 48.4503 171.245 48.8018 171.241 49.1896V50.794C171.241 51.2798 171.33 51.6996 171.509 52.0533C171.692 52.407 171.95 52.6797 172.283 52.8714C172.615 53.0632 173.009 53.1591 173.465 53.1591C173.768 53.1591 174.045 53.1165 174.296 53.0312C174.548 52.946 174.763 52.8182 174.942 52.6477C175.121 52.4773 175.257 52.2685 175.351 52.0213L177.869 52.1875C177.741 52.7926 177.479 53.321 177.083 53.7727C176.691 54.2202 176.184 54.5696 175.562 54.821C174.944 55.0682 174.23 55.1918 173.42 55.1918ZM179.704 55V45.1818H182.344V46.8949H182.446C182.625 46.2855 182.925 45.8253 183.347 45.5142C183.769 45.1989 184.255 45.0412 184.805 45.0412C184.941 45.0412 185.088 45.0497 185.246 45.0668C185.403 45.0838 185.542 45.1072 185.661 45.1371V47.5533C185.533 47.5149 185.357 47.4808 185.131 47.451C184.905 47.4212 184.698 47.4062 184.511 47.4062C184.11 47.4062 183.752 47.4936 183.437 47.6683C183.126 47.8388 182.879 48.0774 182.695 48.3842C182.516 48.6911 182.427 49.0447 182.427 49.4453V55H179.704ZM189.049 58.6818C188.704 58.6818 188.38 58.6541 188.077 58.5987C187.779 58.5476 187.532 58.4815 187.336 58.4006L187.95 56.3679C188.269 56.4659 188.557 56.5192 188.812 56.5277C189.072 56.5362 189.296 56.4766 189.484 56.3487C189.675 56.2209 189.831 56.0036 189.95 55.6967L190.11 55.2812L186.588 45.1818H189.452L191.484 52.392H191.587L193.638 45.1818H196.521L192.705 56.0611C192.522 56.5895 192.273 57.0497 191.957 57.4418C191.646 57.8381 191.252 58.1428 190.775 58.3558C190.298 58.5732 189.722 58.6818 189.049 58.6818Z" fill="white"/>
<rect x="29.5" y="33.5" width="170" height="32" stroke="white"/>
<path d="M397.309 97.1818V99.2273H391.396V97.1818H397.309ZM392.739 94.8295H395.462V103.983C395.462 104.234 395.5 104.43 395.577 104.571C395.653 104.707 395.76 104.803 395.896 104.859C396.037 104.914 396.199 104.942 396.382 104.942C396.51 104.942 396.638 104.931 396.766 104.91C396.893 104.884 396.991 104.865 397.06 104.852L397.488 106.879C397.352 106.921 397.16 106.97 396.913 107.026C396.665 107.085 396.365 107.121 396.011 107.134C395.355 107.16 394.78 107.072 394.286 106.872C393.795 106.672 393.414 106.361 393.141 105.939C392.869 105.517 392.734 104.984 392.739 104.341V94.8295ZM401.882 107.185C401.256 107.185 400.698 107.077 400.208 106.859C399.718 106.638 399.33 106.312 399.044 105.881C398.763 105.447 398.623 104.906 398.623 104.258C398.623 103.712 398.723 103.254 398.923 102.884C399.123 102.513 399.396 102.214 399.741 101.989C400.086 101.763 400.478 101.592 400.917 101.477C401.36 101.362 401.825 101.281 402.311 101.234C402.882 101.175 403.342 101.119 403.691 101.068C404.041 101.013 404.294 100.932 404.452 100.825C404.61 100.719 404.689 100.561 404.689 100.352V100.314C404.689 99.9091 404.561 99.5959 404.305 99.3743C404.054 99.1527 403.696 99.0419 403.231 99.0419C402.741 99.0419 402.351 99.1506 402.061 99.3679C401.772 99.581 401.58 99.8494 401.486 100.173L398.968 99.9688C399.096 99.3722 399.347 98.8565 399.722 98.4219C400.097 97.983 400.581 97.6463 401.173 97.4119C401.77 97.1733 402.46 97.054 403.244 97.054C403.789 97.054 404.311 97.1179 404.81 97.2457C405.313 97.3736 405.758 97.5717 406.146 97.8402C406.538 98.1087 406.847 98.4538 407.073 98.8757C407.299 99.2933 407.412 99.794 407.412 100.378V107H404.829V105.638H404.752C404.595 105.945 404.384 106.216 404.12 106.45C403.855 106.68 403.538 106.862 403.167 106.994C402.797 107.121 402.368 107.185 401.882 107.185ZM402.662 105.306C403.063 105.306 403.417 105.227 403.723 105.07C404.03 104.908 404.271 104.69 404.446 104.418C404.62 104.145 404.708 103.836 404.708 103.491V102.449C404.623 102.504 404.505 102.555 404.356 102.602C404.211 102.645 404.047 102.685 403.864 102.724C403.681 102.758 403.498 102.79 403.314 102.82C403.131 102.845 402.965 102.869 402.816 102.89C402.496 102.937 402.217 103.011 401.978 103.114C401.74 103.216 401.554 103.354 401.422 103.529C401.29 103.7 401.224 103.913 401.224 104.168C401.224 104.539 401.358 104.822 401.627 105.018C401.9 105.21 402.245 105.306 402.662 105.306ZM409.575 107V93.9091H412.298V98.831H412.381C412.501 98.5668 412.673 98.2983 412.899 98.0256C413.129 97.7486 413.428 97.5185 413.794 97.3352C414.165 97.1477 414.625 97.054 415.175 97.054C415.891 97.054 416.551 97.2415 417.156 97.6165C417.761 97.9872 418.245 98.5476 418.607 99.2976C418.969 100.043 419.151 100.979 419.151 102.104C419.151 103.199 418.974 104.124 418.62 104.878C418.271 105.628 417.793 106.197 417.188 106.585C416.587 106.968 415.914 107.16 415.168 107.16C414.64 107.16 414.19 107.072 413.82 106.898C413.453 106.723 413.153 106.504 412.918 106.239C412.684 105.971 412.505 105.7 412.381 105.428H412.26V107H409.575ZM412.241 102.091C412.241 102.675 412.322 103.184 412.484 103.619C412.646 104.053 412.88 104.392 413.187 104.635C413.494 104.874 413.866 104.993 414.305 104.993C414.749 104.993 415.124 104.871 415.43 104.629C415.737 104.381 415.969 104.04 416.127 103.606C416.289 103.167 416.37 102.662 416.37 102.091C416.37 101.524 416.291 101.026 416.134 100.595C415.976 100.165 415.744 99.8281 415.437 99.5852C415.13 99.3423 414.753 99.2209 414.305 99.2209C413.862 99.2209 413.487 99.3381 413.18 99.5724C412.878 99.8068 412.646 100.139 412.484 100.57C412.322 101 412.241 101.507 412.241 102.091ZM423.691 93.9091V107H420.968V93.9091H423.691ZM430.346 107.192C429.336 107.192 428.467 106.987 427.738 106.578C427.014 106.165 426.456 105.581 426.064 104.827C425.672 104.068 425.475 103.171 425.475 102.136C425.475 101.126 425.672 100.239 426.064 99.4766C426.456 98.7138 427.007 98.1193 427.719 97.6932C428.435 97.267 429.275 97.054 430.238 97.054C430.885 97.054 431.488 97.1584 432.047 97.3672C432.609 97.5717 433.099 97.8807 433.517 98.294C433.939 98.7074 434.267 99.2273 434.501 99.8537C434.735 100.476 434.853 101.205 434.853 102.04V102.788H426.562V101.1H432.289C432.289 100.708 432.204 100.361 432.034 100.058C431.863 99.7557 431.627 99.5192 431.324 99.3487C431.026 99.174 430.679 99.0866 430.282 99.0866C429.869 99.0866 429.502 99.1825 429.183 99.3743C428.868 99.5618 428.62 99.8153 428.441 100.135C428.262 100.45 428.171 100.802 428.167 101.19V102.794C428.167 103.28 428.256 103.7 428.435 104.053C428.618 104.407 428.876 104.68 429.208 104.871C429.541 105.063 429.935 105.159 430.391 105.159C430.694 105.159 430.971 105.116 431.222 105.031C431.473 104.946 431.689 104.818 431.868 104.648C432.047 104.477 432.183 104.268 432.277 104.021L434.795 104.188C434.667 104.793 434.405 105.321 434.009 105.773C433.617 106.22 433.11 106.57 432.488 106.821C431.87 107.068 431.156 107.192 430.346 107.192ZM442.747 100.544V102.705H436.777V100.544H442.747ZM449.503 107.192C448.51 107.192 447.652 106.981 446.927 106.559C446.207 106.133 445.651 105.54 445.259 104.782C444.867 104.019 444.671 103.135 444.671 102.129C444.671 101.115 444.867 100.229 445.259 99.4702C445.651 98.7074 446.207 98.1151 446.927 97.6932C447.652 97.267 448.51 97.054 449.503 97.054C450.496 97.054 451.353 97.267 452.073 97.6932C452.797 98.1151 453.355 98.7074 453.748 99.4702C454.14 100.229 454.336 101.115 454.336 102.129C454.336 103.135 454.14 104.019 453.748 104.782C453.355 105.54 452.797 106.133 452.073 106.559C451.353 106.981 450.496 107.192 449.503 107.192ZM449.516 105.082C449.968 105.082 450.345 104.955 450.647 104.699C450.95 104.439 451.178 104.085 451.331 103.638C451.489 103.19 451.568 102.681 451.568 102.11C451.568 101.539 451.489 101.03 451.331 100.582C451.178 100.135 450.95 99.7812 450.647 99.5213C450.345 99.2614 449.968 99.1314 449.516 99.1314C449.06 99.1314 448.676 99.2614 448.365 99.5213C448.059 99.7812 447.826 100.135 447.669 100.582C447.515 101.03 447.439 101.539 447.439 102.11C447.439 102.681 447.515 103.19 447.669 103.638C447.826 104.085 448.059 104.439 448.365 104.699C448.676 104.955 449.06 105.082 449.516 105.082ZM456.106 107V97.1818H458.746V98.8949H458.848C459.027 98.2855 459.328 97.8253 459.75 97.5142C460.172 97.1989 460.657 97.0412 461.207 97.0412C461.343 97.0412 461.49 97.0497 461.648 97.0668C461.806 97.0838 461.944 97.1072 462.064 97.1371V99.5533C461.936 99.5149 461.759 99.4808 461.533 99.451C461.307 99.4212 461.1 99.4062 460.913 99.4062C460.512 99.4062 460.154 99.4936 459.839 99.6683C459.528 99.8388 459.281 100.077 459.098 100.384C458.919 100.691 458.829 101.045 458.829 101.445V107H456.106ZM469.29 100.544V102.705H463.32V100.544H469.29ZM479.779 99.9815L477.286 100.135C477.244 99.9219 477.152 99.7301 477.011 99.5597C476.871 99.3849 476.685 99.2464 476.455 99.1442C476.229 99.0376 475.959 98.9844 475.643 98.9844C475.222 98.9844 474.866 99.0739 474.576 99.2528C474.286 99.4276 474.141 99.6619 474.141 99.956C474.141 100.19 474.235 100.388 474.423 100.55C474.61 100.712 474.932 100.842 475.388 100.94L477.165 101.298C478.119 101.494 478.831 101.81 479.3 102.244C479.768 102.679 480.003 103.25 480.003 103.957C480.003 104.601 479.813 105.165 479.434 105.651C479.059 106.137 478.543 106.516 477.887 106.789C477.235 107.058 476.483 107.192 475.631 107.192C474.331 107.192 473.295 106.921 472.524 106.38C471.757 105.835 471.308 105.093 471.175 104.156L473.854 104.015C473.935 104.411 474.131 104.714 474.442 104.923C474.753 105.127 475.151 105.229 475.637 105.229C476.114 105.229 476.498 105.138 476.788 104.955C477.082 104.767 477.231 104.526 477.235 104.232C477.231 103.985 477.126 103.783 476.922 103.625C476.717 103.463 476.402 103.339 475.976 103.254L474.276 102.915C473.317 102.724 472.603 102.391 472.134 101.918C471.67 101.445 471.438 100.842 471.438 100.109C471.438 99.4787 471.608 98.9354 471.949 98.4794C472.294 98.0234 472.778 97.6719 473.4 97.4247C474.026 97.1776 474.759 97.054 475.599 97.054C476.839 97.054 477.815 97.3161 478.526 97.8402C479.242 98.3643 479.66 99.0781 479.779 99.9815ZM488.014 102.82V97.1818H490.737V107H488.122V105.217H488.02C487.798 105.792 487.43 106.254 486.914 106.604C486.403 106.953 485.779 107.128 485.041 107.128C484.385 107.128 483.808 106.979 483.309 106.68C482.811 106.382 482.421 105.958 482.139 105.408C481.862 104.859 481.722 104.2 481.718 103.433V97.1818H484.441V102.947C484.445 103.527 484.6 103.985 484.907 104.322C485.214 104.658 485.625 104.827 486.141 104.827C486.469 104.827 486.776 104.752 487.061 104.603C487.347 104.45 487.577 104.224 487.752 103.925C487.931 103.627 488.018 103.259 488.014 102.82ZM492.966 107V93.9091H495.689V98.831H495.772C495.891 98.5668 496.064 98.2983 496.29 98.0256C496.52 97.7486 496.818 97.5185 497.185 97.3352C497.555 97.1477 498.016 97.054 498.565 97.054C499.281 97.054 499.942 97.2415 500.547 97.6165C501.152 97.9872 501.636 98.5476 501.998 99.2976C502.36 100.043 502.541 100.979 502.541 102.104C502.541 103.199 502.364 104.124 502.011 104.878C501.661 105.628 501.184 106.197 500.579 106.585C499.978 106.968 499.305 107.16 498.559 107.16C498.031 107.16 497.581 107.072 497.21 106.898C496.844 106.723 496.543 106.504 496.309 106.239C496.075 105.971 495.896 105.7 495.772 105.428H495.651V107H492.966ZM495.631 102.091C495.631 102.675 495.712 103.184 495.874 103.619C496.036 104.053 496.271 104.392 496.577 104.635C496.884 104.874 497.257 104.993 497.696 104.993C498.139 104.993 498.514 104.871 498.821 104.629C499.128 104.381 499.36 104.04 499.518 103.606C499.68 103.167 499.761 102.662 499.761 102.091C499.761 101.524 499.682 101.026 499.524 100.595C499.366 100.165 499.134 99.8281 498.827 99.5852C498.521 99.3423 498.143 99.2209 497.696 99.2209C497.253 99.2209 496.878 99.3381 496.571 99.5724C496.268 99.8068 496.036 100.139 495.874 100.57C495.712 101 495.631 101.507 495.631 102.091ZM510.846 110.682V105.428H510.763C510.635 105.7 510.454 105.971 510.22 106.239C509.99 106.504 509.689 106.723 509.318 106.898C508.952 107.072 508.504 107.16 507.976 107.16C507.23 107.16 506.555 106.968 505.95 106.585C505.349 106.197 504.872 105.628 504.518 104.878C504.169 104.124 503.994 103.199 503.994 102.104C503.994 100.979 504.175 100.043 504.537 99.2976C504.899 98.5476 505.381 97.9872 505.982 97.6165C506.587 97.2415 507.249 97.054 507.97 97.054C508.519 97.054 508.977 97.1477 509.344 97.3352C509.715 97.5185 510.013 97.7486 510.239 98.0256C510.469 98.2983 510.644 98.5668 510.763 98.831H510.878V97.1818H513.563V110.682H510.846ZM508.839 104.993C509.278 104.993 509.649 104.874 509.951 104.635C510.258 104.392 510.492 104.053 510.654 103.619C510.82 103.184 510.904 102.675 510.904 102.091C510.904 101.507 510.823 101 510.661 100.57C510.499 100.139 510.264 99.8068 509.958 99.5724C509.651 99.3381 509.278 99.2209 508.839 99.2209C508.392 99.2209 508.014 99.3423 507.708 99.5852C507.401 99.8281 507.169 100.165 507.011 100.595C506.853 101.026 506.774 101.524 506.774 102.091C506.774 102.662 506.853 103.167 507.011 103.606C507.173 104.04 507.405 104.381 507.708 104.629C508.014 104.871 508.392 104.993 508.839 104.993ZM522.045 102.82V97.1818H524.768V107H522.154V105.217H522.051C521.83 105.792 521.461 106.254 520.945 106.604C520.434 106.953 519.81 107.128 519.073 107.128C518.416 107.128 517.839 106.979 517.34 106.68C516.842 106.382 516.452 105.958 516.171 105.408C515.894 104.859 515.753 104.2 515.749 103.433V97.1818H518.472V102.947C518.476 103.527 518.632 103.985 518.938 104.322C519.245 104.658 519.656 104.827 520.172 104.827C520.5 104.827 520.807 104.752 521.093 104.603C521.378 104.45 521.608 104.224 521.783 103.925C521.962 103.627 522.049 103.259 522.045 102.82ZM531.42 107.192C530.411 107.192 529.541 106.987 528.812 106.578C528.088 106.165 527.53 105.581 527.138 104.827C526.746 104.068 526.55 103.171 526.55 102.136C526.55 101.126 526.746 100.239 527.138 99.4766C527.53 98.7138 528.082 98.1193 528.793 97.6932C529.509 97.267 530.349 97.054 531.312 97.054C531.96 97.054 532.563 97.1584 533.121 97.3672C533.683 97.5717 534.173 97.8807 534.591 98.294C535.013 98.7074 535.341 99.2273 535.575 99.8537C535.81 100.476 535.927 101.205 535.927 102.04V102.788H527.636V101.1H533.364C533.364 100.708 533.278 100.361 533.108 100.058C532.938 99.7557 532.701 99.5192 532.398 99.3487C532.1 99.174 531.753 99.0866 531.357 99.0866C530.943 99.0866 530.577 99.1825 530.257 99.3743C529.942 99.5618 529.695 99.8153 529.516 100.135C529.337 100.45 529.245 100.802 529.241 101.19V102.794C529.241 103.28 529.33 103.7 529.509 104.053C529.692 104.407 529.95 104.68 530.283 104.871C530.615 105.063 531.009 105.159 531.465 105.159C531.768 105.159 532.045 105.116 532.296 105.031C532.548 104.946 532.763 104.818 532.942 104.648C533.121 104.477 533.257 104.268 533.351 104.021L535.869 104.188C535.741 104.793 535.479 105.321 535.083 105.773C534.691 106.22 534.184 106.57 533.562 106.821C532.944 107.068 532.23 107.192 531.42 107.192ZM537.704 107V97.1818H540.344V98.8949H540.446C540.625 98.2855 540.925 97.8253 541.347 97.5142C541.769 97.1989 542.255 97.0412 542.805 97.0412C542.941 97.0412 543.088 97.0497 543.246 97.0668C543.403 97.0838 543.542 97.1072 543.661 97.1371V99.5533C543.533 99.5149 543.357 99.4808 543.131 99.451C542.905 99.4212 542.698 99.4062 542.511 99.4062C542.11 99.4062 541.752 99.4936 541.437 99.6683C541.126 99.8388 540.879 100.077 540.695 100.384C540.516 100.691 540.427 101.045 540.427 101.445V107H537.704ZM547.049 110.682C546.704 110.682 546.38 110.654 546.077 110.599C545.779 110.548 545.532 110.482 545.336 110.401L545.95 108.368C546.269 108.466 546.557 108.519 546.812 108.528C547.072 108.536 547.296 108.477 547.484 108.349C547.675 108.221 547.831 108.004 547.95 107.697L548.11 107.281L544.588 97.1818H547.452L549.484 104.392H549.587L551.638 97.1818H554.521L550.705 108.061C550.522 108.589 550.273 109.05 549.957 109.442C549.646 109.838 549.252 110.143 548.775 110.356C548.298 110.573 547.722 110.682 547.049 110.682Z" fill="white"/>
<rect x="387.5" y="85.5" width="170" height="32" stroke="white"/>
<path d="M244.087 97.1818H246.81V107.486C246.81 108.244 246.661 108.858 246.362 109.327C246.064 109.795 245.636 110.138 245.077 110.356C244.523 110.573 243.861 110.682 243.089 110.682C242.996 110.682 242.906 110.68 242.821 110.675C242.732 110.675 242.638 110.673 242.54 110.669V108.54C242.612 108.545 242.676 108.547 242.732 108.547C242.783 108.551 242.838 108.553 242.898 108.553C243.337 108.553 243.643 108.46 243.818 108.272C243.997 108.089 244.087 107.812 244.087 107.441V97.1818ZM245.442 95.9162C245.041 95.9162 244.696 95.782 244.406 95.5135C244.116 95.2408 243.972 94.9148 243.972 94.5355C243.972 94.1605 244.116 93.8388 244.406 93.5703C244.696 93.2976 245.041 93.1612 245.442 93.1612C245.851 93.1612 246.198 93.2976 246.484 93.5703C246.773 93.8388 246.918 94.1605 246.918 94.5355C246.918 94.9148 246.773 95.2408 246.484 95.5135C246.198 95.782 245.851 95.9162 245.442 95.9162ZM253.427 107.192C252.434 107.192 251.575 106.981 250.851 106.559C250.131 106.133 249.575 105.54 249.183 104.782C248.791 104.019 248.595 103.135 248.595 102.129C248.595 101.115 248.791 100.229 249.183 99.4702C249.575 98.7074 250.131 98.1151 250.851 97.6932C251.575 97.267 252.434 97.054 253.427 97.054C254.42 97.054 255.276 97.267 255.997 97.6932C256.721 98.1151 257.279 98.7074 257.671 99.4702C258.063 100.229 258.259 101.115 258.259 102.129C258.259 103.135 258.063 104.019 257.671 104.782C257.279 105.54 256.721 106.133 255.997 106.559C255.276 106.981 254.42 107.192 253.427 107.192ZM253.44 105.082C253.892 105.082 254.269 104.955 254.571 104.699C254.874 104.439 255.102 104.085 255.255 103.638C255.413 103.19 255.492 102.681 255.492 102.11C255.492 101.539 255.413 101.03 255.255 100.582C255.102 100.135 254.874 99.7812 254.571 99.5213C254.269 99.2614 253.892 99.1314 253.44 99.1314C252.984 99.1314 252.6 99.2614 252.289 99.5213C251.982 99.7812 251.75 100.135 251.593 100.582C251.439 101.03 251.362 101.539 251.362 102.11C251.362 102.681 251.439 103.19 251.593 103.638C251.75 104.085 251.982 104.439 252.289 104.699C252.6 104.955 252.984 105.082 253.44 105.082ZM260.03 107V97.1818H262.753V107H260.03ZM261.398 95.9162C260.993 95.9162 260.646 95.782 260.356 95.5135C260.07 95.2408 259.928 94.9148 259.928 94.5355C259.928 94.1605 260.07 93.8388 260.356 93.5703C260.646 93.2976 260.993 93.1612 261.398 93.1612C261.803 93.1612 262.148 93.2976 262.433 93.5703C262.723 93.8388 262.868 94.1605 262.868 94.5355C262.868 94.9148 262.723 95.2408 262.433 95.5135C262.148 95.782 261.803 95.9162 261.398 95.9162ZM267.657 101.324V107H264.934V97.1818H267.529V98.9141H267.645C267.862 98.343 268.226 97.8913 268.738 97.5589C269.249 97.2223 269.869 97.054 270.598 97.054C271.279 97.054 271.874 97.2031 272.381 97.5014C272.888 97.7997 273.282 98.2259 273.564 98.7798C273.845 99.3295 273.985 99.9858 273.985 100.749V107H271.262V101.234C271.267 100.634 271.113 100.165 270.802 99.8281C270.491 99.4872 270.063 99.3168 269.517 99.3168C269.151 99.3168 268.827 99.3956 268.546 99.5533C268.269 99.7109 268.051 99.9411 267.894 100.244C267.74 100.542 267.662 100.902 267.657 101.324ZM282.249 100.544V102.705H276.279V100.544H282.249ZM289.005 107.192C288.012 107.192 287.154 106.981 286.429 106.559C285.709 106.133 285.153 105.54 284.761 104.782C284.369 104.019 284.173 103.135 284.173 102.129C284.173 101.115 284.369 100.229 284.761 99.4702C285.153 98.7074 285.709 98.1151 286.429 97.6932C287.154 97.267 288.012 97.054 289.005 97.054C289.998 97.054 290.855 97.267 291.575 97.6932C292.299 98.1151 292.857 98.7074 293.249 99.4702C293.642 100.229 293.838 101.115 293.838 102.129C293.838 103.135 293.642 104.019 293.249 104.782C292.857 105.54 292.299 106.133 291.575 106.559C290.855 106.981 289.998 107.192 289.005 107.192ZM289.018 105.082C289.47 105.082 289.847 104.955 290.149 104.699C290.452 104.439 290.68 104.085 290.833 103.638C290.991 103.19 291.07 102.681 291.07 102.11C291.07 101.539 290.991 101.03 290.833 100.582C290.68 100.135 290.452 99.7812 290.149 99.5213C289.847 99.2614 289.47 99.1314 289.018 99.1314C288.562 99.1314 288.178 99.2614 287.867 99.5213C287.561 99.7812 287.328 100.135 287.171 100.582C287.017 101.03 286.941 101.539 286.941 102.11C286.941 102.681 287.017 103.19 287.171 103.638C287.328 104.085 287.561 104.439 287.867 104.699C288.178 104.955 288.562 105.082 289.018 105.082ZM295.608 110.682V97.1818H298.293V98.831H298.414C298.534 98.5668 298.706 98.2983 298.932 98.0256C299.162 97.7486 299.46 97.5185 299.827 97.3352C300.198 97.1477 300.658 97.054 301.208 97.054C301.923 97.054 302.584 97.2415 303.189 97.6165C303.794 97.9872 304.278 98.5476 304.64 99.2976C305.002 100.043 305.183 100.979 305.183 102.104C305.183 103.199 305.007 104.124 304.653 104.878C304.303 105.628 303.826 106.197 303.221 106.585C302.62 106.968 301.947 107.16 301.201 107.16C300.673 107.16 300.223 107.072 299.852 106.898C299.486 106.723 299.186 106.504 298.951 106.239C298.717 105.971 298.538 105.7 298.414 105.428H298.331V110.682H295.608ZM298.274 102.091C298.274 102.675 298.355 103.184 298.517 103.619C298.678 104.053 298.913 104.392 299.22 104.635C299.526 104.874 299.899 104.993 300.338 104.993C300.781 104.993 301.156 104.871 301.463 104.629C301.77 104.381 302.002 104.04 302.16 103.606C302.322 103.167 302.403 102.662 302.403 102.091C302.403 101.524 302.324 101.026 302.166 100.595C302.009 100.165 301.776 99.8281 301.47 99.5852C301.163 99.3423 300.786 99.2209 300.338 99.2209C299.895 99.2209 299.52 99.3381 299.213 99.5724C298.911 99.8068 298.678 100.139 298.517 100.57C298.355 101 298.274 101.507 298.274 102.091ZM311.473 107.192C310.463 107.192 309.594 106.987 308.865 106.578C308.141 106.165 307.583 105.581 307.191 104.827C306.798 104.068 306.602 103.171 306.602 102.136C306.602 101.126 306.798 100.239 307.191 99.4766C307.583 98.7138 308.134 98.1193 308.846 97.6932C309.562 97.267 310.401 97.054 311.365 97.054C312.012 97.054 312.615 97.1584 313.173 97.3672C313.736 97.5717 314.226 97.8807 314.644 98.294C315.066 98.7074 315.394 99.2273 315.628 99.8537C315.862 100.476 315.98 101.205 315.98 102.04V102.788H307.689V101.1H313.416C313.416 100.708 313.331 100.361 313.161 100.058C312.99 99.7557 312.754 99.5192 312.451 99.3487C312.153 99.174 311.806 99.0866 311.409 99.0866C310.996 99.0866 310.629 99.1825 310.31 99.3743C309.994 99.5618 309.747 99.8153 309.568 100.135C309.389 100.45 309.298 100.802 309.294 101.19V102.794C309.294 103.28 309.383 103.7 309.562 104.053C309.745 104.407 310.003 104.68 310.335 104.871C310.668 105.063 311.062 105.159 311.518 105.159C311.82 105.159 312.097 105.116 312.349 105.031C312.6 104.946 312.816 104.818 312.994 104.648C313.173 104.477 313.31 104.268 313.404 104.021L315.922 104.188C315.794 104.793 315.532 105.321 315.136 105.773C314.744 106.22 314.237 106.57 313.615 106.821C312.997 107.068 312.283 107.192 311.473 107.192ZM317.757 107V97.1818H320.396V98.8949H320.499C320.678 98.2855 320.978 97.8253 321.4 97.5142C321.822 97.1989 322.308 97.0412 322.857 97.0412C322.994 97.0412 323.141 97.0497 323.298 97.0668C323.456 97.0838 323.595 97.1072 323.714 97.1371V99.5533C323.586 99.5149 323.409 99.4808 323.183 99.451C322.958 99.4212 322.751 99.4062 322.563 99.4062C322.163 99.4062 321.805 99.4936 321.49 99.6683C321.178 99.8388 320.931 100.077 320.748 100.384C320.569 100.691 320.48 101.045 320.48 101.445V107H317.757ZM327.64 107.185C327.014 107.185 326.456 107.077 325.966 106.859C325.475 106.638 325.088 106.312 324.802 105.881C324.521 105.447 324.38 104.906 324.38 104.258C324.38 103.712 324.48 103.254 324.681 102.884C324.881 102.513 325.154 102.214 325.499 101.989C325.844 101.763 326.236 101.592 326.675 101.477C327.118 101.362 327.583 101.281 328.069 101.234C328.64 101.175 329.1 101.119 329.449 101.068C329.799 101.013 330.052 100.932 330.21 100.825C330.368 100.719 330.446 100.561 330.446 100.352V100.314C330.446 99.9091 330.319 99.5959 330.063 99.3743C329.811 99.1527 329.453 99.0419 328.989 99.0419C328.499 99.0419 328.109 99.1506 327.819 99.3679C327.529 99.581 327.338 99.8494 327.244 100.173L324.725 99.9688C324.853 99.3722 325.105 98.8565 325.48 98.4219C325.855 97.983 326.338 97.6463 326.931 97.4119C327.527 97.1733 328.218 97.054 329.002 97.054C329.547 97.054 330.069 97.1179 330.568 97.2457C331.071 97.3736 331.516 97.5717 331.904 97.8402C332.296 98.1087 332.605 98.4538 332.831 98.8757C333.056 99.2933 333.169 99.794 333.169 100.378V107H330.587V105.638H330.51C330.353 105.945 330.142 106.216 329.877 106.45C329.613 106.68 329.296 106.862 328.925 106.994C328.554 107.121 328.126 107.185 327.64 107.185ZM328.42 105.306C328.821 105.306 329.174 105.227 329.481 105.07C329.788 104.908 330.029 104.69 330.203 104.418C330.378 104.145 330.466 103.836 330.466 103.491V102.449C330.38 102.504 330.263 102.555 330.114 102.602C329.969 102.645 329.805 102.685 329.622 102.724C329.439 102.758 329.255 102.79 329.072 102.82C328.889 102.845 328.723 102.869 328.574 102.89C328.254 102.937 327.975 103.011 327.736 103.114C327.498 103.216 327.312 103.354 327.18 103.529C327.048 103.7 326.982 103.913 326.982 104.168C326.982 104.539 327.116 104.822 327.385 105.018C327.657 105.21 328.002 105.306 328.42 105.306ZM340.504 97.1818V99.2273H334.592V97.1818H340.504ZM335.934 94.8295H338.657V103.983C338.657 104.234 338.695 104.43 338.772 104.571C338.849 104.707 338.955 104.803 339.092 104.859C339.232 104.914 339.394 104.942 339.577 104.942C339.705 104.942 339.833 104.931 339.961 104.91C340.089 104.884 340.187 104.865 340.255 104.852L340.683 106.879C340.547 106.921 340.355 106.97 340.108 107.026C339.861 107.085 339.56 107.121 339.207 107.134C338.55 107.16 337.975 107.072 337.481 106.872C336.991 106.672 336.609 106.361 336.337 105.939C336.064 105.517 335.93 104.984 335.934 104.341V94.8295ZM346.609 107.192C345.616 107.192 344.757 106.981 344.033 106.559C343.313 106.133 342.756 105.54 342.364 104.782C341.972 104.019 341.776 103.135 341.776 102.129C341.776 101.115 341.972 100.229 342.364 99.4702C342.756 98.7074 343.313 98.1151 344.033 97.6932C344.757 97.267 345.616 97.054 346.609 97.054C347.602 97.054 348.458 97.267 349.178 97.6932C349.903 98.1151 350.461 98.7074 350.853 99.4702C351.245 100.229 351.441 101.115 351.441 102.129C351.441 103.135 351.245 104.019 350.853 104.782C350.461 105.54 349.903 106.133 349.178 106.559C348.458 106.981 347.602 107.192 346.609 107.192ZM346.621 105.082C347.073 105.082 347.45 104.955 347.753 104.699C348.055 104.439 348.283 104.085 348.437 103.638C348.594 103.19 348.673 102.681 348.673 102.11C348.673 101.539 348.594 101.03 348.437 100.582C348.283 100.135 348.055 99.7812 347.753 99.5213C347.45 99.2614 347.073 99.1314 346.621 99.1314C346.165 99.1314 345.782 99.2614 345.471 99.5213C345.164 99.7812 344.932 100.135 344.774 100.582C344.621 101.03 344.544 101.539 344.544 102.11C344.544 102.681 344.621 103.19 344.774 103.638C344.932 104.085 345.164 104.439 345.471 104.699C345.782 104.955 346.165 105.082 346.621 105.082ZM353.212 107V97.1818H355.852V98.8949H355.954C356.133 98.2855 356.433 97.8253 356.855 97.5142C357.277 97.1989 357.763 97.0412 358.312 97.0412C358.449 97.0412 358.596 97.0497 358.754 97.0668C358.911 97.0838 359.05 97.1072 359.169 97.1371V99.5533C359.041 99.5149 358.864 99.4808 358.638 99.451C358.413 99.4212 358.206 99.4062 358.018 99.4062C357.618 99.4062 357.26 99.4936 356.945 99.6683C356.634 99.8388 356.386 100.077 356.203 100.384C356.024 100.691 355.935 101.045 355.935 101.445V107H353.212Z" fill="white"/>
<rect x="239.5" y="85.5" width="123" height="32" stroke="white"/>
<path d="M588.087 97.1818H590.81V107.486C590.81 108.244 590.661 108.858 590.362 109.327C590.064 109.795 589.636 110.138 589.077 110.356C588.523 110.573 587.861 110.682 587.089 110.682C586.996 110.682 586.906 110.68 586.821 110.675C586.732 110.675 586.638 110.673 586.54 110.669V108.54C586.612 108.545 586.676 108.547 586.732 108.547C586.783 108.551 586.838 108.553 586.898 108.553C587.337 108.553 587.643 108.46 587.818 108.272C587.997 108.089 588.087 107.812 588.087 107.441V97.1818ZM589.442 95.9162C589.041 95.9162 588.696 95.782 588.406 95.5135C588.116 95.2408 587.972 94.9148 587.972 94.5355C587.972 94.1605 588.116 93.8388 588.406 93.5703C588.696 93.2976 589.041 93.1612 589.442 93.1612C589.851 93.1612 590.198 93.2976 590.484 93.5703C590.773 93.8388 590.918 94.1605 590.918 94.5355C590.918 94.9148 590.773 95.2408 590.484 95.5135C590.198 95.782 589.851 95.9162 589.442 95.9162ZM597.427 107.192C596.434 107.192 595.575 106.981 594.851 106.559C594.131 106.133 593.575 105.54 593.183 104.782C592.791 104.019 592.595 103.135 592.595 102.129C592.595 101.115 592.791 100.229 593.183 99.4702C593.575 98.7074 594.131 98.1151 594.851 97.6932C595.575 97.267 596.434 97.054 597.427 97.054C598.42 97.054 599.276 97.267 599.997 97.6932C600.721 98.1151 601.279 98.7074 601.671 99.4702C602.063 100.229 602.259 101.115 602.259 102.129C602.259 103.135 602.063 104.019 601.671 104.782C601.279 105.54 600.721 106.133 599.997 106.559C599.276 106.981 598.42 107.192 597.427 107.192ZM597.44 105.082C597.892 105.082 598.269 104.955 598.571 104.699C598.874 104.439 599.102 104.085 599.255 103.638C599.413 103.19 599.492 102.681 599.492 102.11C599.492 101.539 599.413 101.03 599.255 100.582C599.102 100.135 598.874 99.7812 598.571 99.5213C598.269 99.2614 597.892 99.1314 597.44 99.1314C596.984 99.1314 596.6 99.2614 596.289 99.5213C595.982 99.7812 595.75 100.135 595.593 100.582C595.439 101.03 595.362 101.539 595.362 102.11C595.362 102.681 595.439 103.19 595.593 103.638C595.75 104.085 595.982 104.439 596.289 104.699C596.6 104.955 596.984 105.082 597.44 105.082ZM604.03 107V97.1818H606.753V107H604.03ZM605.398 95.9162C604.993 95.9162 604.646 95.782 604.356 95.5135C604.07 95.2408 603.928 94.9148 603.928 94.5355C603.928 94.1605 604.07 93.8388 604.356 93.5703C604.646 93.2976 604.993 93.1612 605.398 93.1612C605.803 93.1612 606.148 93.2976 606.433 93.5703C606.723 93.8388 606.868 94.1605 606.868 94.5355C606.868 94.9148 606.723 95.2408 606.433 95.5135C606.148 95.782 605.803 95.9162 605.398 95.9162ZM611.657 101.324V107H608.934V97.1818H611.529V98.9141H611.645C611.862 98.343 612.226 97.8913 612.738 97.5589C613.249 97.2223 613.869 97.054 614.598 97.054C615.279 97.054 615.874 97.2031 616.381 97.5014C616.888 97.7997 617.282 98.2259 617.564 98.7798C617.845 99.3295 617.985 99.9858 617.985 100.749V107H615.262V101.234C615.267 100.634 615.113 100.165 614.802 99.8281C614.491 99.4872 614.063 99.3168 613.517 99.3168C613.151 99.3168 612.827 99.3956 612.546 99.5533C612.269 99.7109 612.051 99.9411 611.894 100.244C611.74 100.542 611.662 100.902 611.657 101.324ZM626.249 100.544V102.705H620.279V100.544H626.249ZM633.005 107.192C631.999 107.192 631.134 106.979 630.41 106.553C629.69 106.122 629.136 105.526 628.748 104.763C628.365 104 628.173 103.122 628.173 102.129C628.173 101.124 628.367 100.241 628.754 99.483C629.146 98.7202 629.703 98.1257 630.423 97.6996C631.143 97.2692 631.999 97.054 632.992 97.054C633.849 97.054 634.599 97.2095 635.242 97.5206C635.886 97.8317 636.395 98.2685 636.77 98.831C637.145 99.3935 637.352 100.054 637.39 100.812H634.82C634.748 100.322 634.556 99.9283 634.245 99.63C633.938 99.3274 633.536 99.1761 633.037 99.1761C632.615 99.1761 632.247 99.2912 631.931 99.5213C631.62 99.7472 631.377 100.077 631.203 100.512C631.028 100.947 630.941 101.473 630.941 102.091C630.941 102.717 631.026 103.25 631.196 103.689C631.371 104.128 631.616 104.462 631.931 104.692C632.247 104.923 632.615 105.038 633.037 105.038C633.348 105.038 633.627 104.974 633.874 104.846C634.126 104.718 634.333 104.533 634.494 104.29C634.661 104.043 634.769 103.746 634.82 103.401H637.39C637.347 104.151 637.143 104.812 636.776 105.383C636.414 105.95 635.914 106.393 635.274 106.712C634.635 107.032 633.879 107.192 633.005 107.192ZM643.57 107.192C642.577 107.192 641.718 106.981 640.994 106.559C640.273 106.133 639.717 105.54 639.325 104.782C638.933 104.019 638.737 103.135 638.737 102.129C638.737 101.115 638.933 100.229 639.325 99.4702C639.717 98.7074 640.273 98.1151 640.994 97.6932C641.718 97.267 642.577 97.054 643.57 97.054C644.562 97.054 645.419 97.267 646.139 97.6932C646.864 98.1151 647.422 98.7074 647.814 99.4702C648.206 100.229 648.402 101.115 648.402 102.129C648.402 103.135 648.206 104.019 647.814 104.782C647.422 105.54 646.864 106.133 646.139 106.559C645.419 106.981 644.562 107.192 643.57 107.192ZM643.582 105.082C644.034 105.082 644.411 104.955 644.714 104.699C645.016 104.439 645.244 104.085 645.398 103.638C645.555 103.19 645.634 102.681 645.634 102.11C645.634 101.539 645.555 101.03 645.398 100.582C645.244 100.135 645.016 99.7812 644.714 99.5213C644.411 99.2614 644.034 99.1314 643.582 99.1314C643.126 99.1314 642.743 99.2614 642.432 99.5213C642.125 99.7812 641.893 100.135 641.735 100.582C641.582 101.03 641.505 101.539 641.505 102.11C641.505 102.681 641.582 103.19 641.735 103.638C641.893 104.085 642.125 104.439 642.432 104.699C642.743 104.955 643.126 105.082 643.582 105.082ZM652.896 101.324V107H650.173V97.1818H652.768V98.9141H652.883C653.1 98.343 653.464 97.8913 653.976 97.5589C654.487 97.2223 655.107 97.054 655.836 97.054C656.518 97.054 657.112 97.2031 657.619 97.5014C658.126 97.7997 658.521 98.2259 658.802 98.7798C659.083 99.3295 659.224 99.9858 659.224 100.749V107H656.501V101.234C656.505 100.634 656.352 100.165 656.04 99.8281C655.729 99.4872 655.301 99.3168 654.756 99.3168C654.389 99.3168 654.065 99.3956 653.784 99.5533C653.507 99.7109 653.29 99.9411 653.132 100.244C652.979 100.542 652.9 100.902 652.896 101.324ZM669.539 99.9815L667.046 100.135C667.003 99.9219 666.912 99.7301 666.771 99.5597C666.631 99.3849 666.445 99.2464 666.215 99.1442C665.989 99.0376 665.719 98.9844 665.403 98.9844C664.981 98.9844 664.626 99.0739 664.336 99.2528C664.046 99.4276 663.901 99.6619 663.901 99.956C663.901 100.19 663.995 100.388 664.182 100.55C664.37 100.712 664.692 100.842 665.148 100.94L666.925 101.298C667.879 101.494 668.591 101.81 669.059 102.244C669.528 102.679 669.763 103.25 669.763 103.957C669.763 104.601 669.573 105.165 669.194 105.651C668.819 106.137 668.303 106.516 667.647 106.789C666.995 107.058 666.243 107.192 665.39 107.192C664.091 107.192 663.055 106.921 662.284 106.38C661.517 105.835 661.067 105.093 660.935 104.156L663.613 104.015C663.694 104.411 663.89 104.714 664.202 104.923C664.513 105.127 664.911 105.229 665.397 105.229C665.874 105.229 666.258 105.138 666.547 104.955C666.841 104.767 666.991 104.526 666.995 104.232C666.991 103.985 666.886 103.783 666.682 103.625C666.477 103.463 666.162 103.339 665.736 103.254L664.035 102.915C663.077 102.724 662.363 102.391 661.894 101.918C661.43 101.445 661.197 100.842 661.197 100.109C661.197 99.4787 661.368 98.9354 661.709 98.4794C662.054 98.0234 662.537 97.6719 663.16 97.4247C663.786 97.1776 664.519 97.054 665.358 97.054C666.599 97.054 667.574 97.3161 668.286 97.8402C669.002 98.3643 669.42 99.0781 669.539 99.9815ZM676.7 97.1818V99.2273H670.787V97.1818H676.7ZM672.129 94.8295H674.852V103.983C674.852 104.234 674.891 104.43 674.967 104.571C675.044 104.707 675.151 104.803 675.287 104.859C675.428 104.914 675.589 104.942 675.773 104.942C675.901 104.942 676.028 104.931 676.156 104.91C676.284 104.884 676.382 104.865 676.45 104.852L676.879 106.879C676.742 106.921 676.55 106.97 676.303 107.026C676.056 107.085 675.756 107.121 675.402 107.134C674.746 107.16 674.17 107.072 673.676 106.872C673.186 106.672 672.805 106.361 672.532 105.939C672.259 105.517 672.125 104.984 672.129 104.341V94.8295ZM678.473 107V97.1818H681.113V98.8949H681.216C681.395 98.2855 681.695 97.8253 682.117 97.5142C682.539 97.1989 683.025 97.0412 683.574 97.0412C683.711 97.0412 683.858 97.0497 684.015 97.0668C684.173 97.0838 684.311 97.1072 684.431 97.1371V99.5533C684.303 99.5149 684.126 99.4808 683.9 99.451C683.674 99.4212 683.468 99.4062 683.28 99.4062C682.88 99.4062 682.522 99.4936 682.206 99.6683C681.895 99.8388 681.648 100.077 681.465 100.384C681.286 100.691 681.196 101.045 681.196 101.445V107H678.473ZM688.357 107.185C687.731 107.185 687.172 107.077 686.682 106.859C686.192 106.638 685.805 106.312 685.519 105.881C685.238 105.447 685.097 104.906 685.097 104.258C685.097 103.712 685.197 103.254 685.398 102.884C685.598 102.513 685.871 102.214 686.216 101.989C686.561 101.763 686.953 101.592 687.392 101.477C687.835 101.362 688.3 101.281 688.785 101.234C689.356 101.175 689.817 101.119 690.166 101.068C690.515 101.013 690.769 100.932 690.927 100.825C691.084 100.719 691.163 100.561 691.163 100.352V100.314C691.163 99.9091 691.035 99.5959 690.78 99.3743C690.528 99.1527 690.17 99.0419 689.706 99.0419C689.216 99.0419 688.826 99.1506 688.536 99.3679C688.246 99.581 688.055 99.8494 687.961 100.173L685.442 99.9688C685.57 99.3722 685.822 98.8565 686.197 98.4219C686.572 97.983 687.055 97.6463 687.648 97.4119C688.244 97.1733 688.934 97.054 689.719 97.054C690.264 97.054 690.786 97.1179 691.285 97.2457C691.787 97.3736 692.233 97.5717 692.621 97.8402C693.013 98.1087 693.322 98.4538 693.547 98.8757C693.773 99.2933 693.886 99.794 693.886 100.378V107H691.304V105.638H691.227C691.069 105.945 690.858 106.216 690.594 106.45C690.33 106.68 690.013 106.862 689.642 106.994C689.271 107.121 688.843 107.185 688.357 107.185ZM689.137 105.306C689.537 105.306 689.891 105.227 690.198 105.07C690.505 104.908 690.746 104.69 690.92 104.418C691.095 104.145 691.182 103.836 691.182 103.491V102.449C691.097 102.504 690.98 102.555 690.831 102.602C690.686 102.645 690.522 102.685 690.339 102.724C690.155 102.758 689.972 102.79 689.789 102.82C689.606 102.845 689.439 102.869 689.29 102.89C688.971 102.937 688.692 103.011 688.453 103.114C688.214 103.216 688.029 103.354 687.897 103.529C687.765 103.7 687.699 103.913 687.699 104.168C687.699 104.539 687.833 104.822 688.101 105.018C688.374 105.21 688.719 105.306 689.137 105.306ZM695.999 107V97.1818H698.722V107H695.999ZM697.367 95.9162C696.962 95.9162 696.615 95.782 696.325 95.5135C696.039 95.2408 695.896 94.9148 695.896 94.5355C695.896 94.1605 696.039 93.8388 696.325 93.5703C696.615 93.2976 696.962 93.1612 697.367 93.1612C697.771 93.1612 698.117 93.2976 698.402 93.5703C698.692 93.8388 698.837 94.1605 698.837 94.5355C698.837 94.9148 698.692 95.2408 698.402 95.5135C698.117 95.782 697.771 95.9162 697.367 95.9162ZM703.626 101.324V107H700.903V97.1818H703.498V98.9141H703.613C703.831 98.343 704.195 97.8913 704.706 97.5589C705.218 97.2223 705.838 97.054 706.566 97.054C707.248 97.054 707.843 97.2031 708.35 97.5014C708.857 97.7997 709.251 98.2259 709.532 98.7798C709.814 99.3295 709.954 99.9858 709.954 100.749V107H707.231V101.234C707.235 100.634 707.082 100.165 706.771 99.8281C706.46 99.4872 706.032 99.3168 705.486 99.3168C705.12 99.3168 704.796 99.3956 704.515 99.5533C704.238 99.7109 704.02 99.9411 703.863 100.244C703.709 100.542 703.63 100.902 703.626 101.324ZM717.323 97.1818V99.2273H711.41V97.1818H717.323ZM712.752 94.8295H715.475V103.983C715.475 104.234 715.514 104.43 715.59 104.571C715.667 104.707 715.774 104.803 715.91 104.859C716.051 104.914 716.213 104.942 716.396 104.942C716.524 104.942 716.651 104.931 716.779 104.91C716.907 104.884 717.005 104.865 717.073 104.852L717.502 106.879C717.365 106.921 717.173 106.97 716.926 107.026C716.679 107.085 716.379 107.121 716.025 107.134C715.369 107.16 714.794 107.072 714.299 106.872C713.809 106.672 713.428 106.361 713.155 105.939C712.882 105.517 712.748 104.984 712.752 104.341V94.8295Z" fill="white"/>
<rect x="583.5" y="85.5" width="138" height="32" stroke="white"/>
<path d="M29 49L19 43.2265V54.7735L29 49ZM9 50H20V48H9V50Z" fill="white"/>
<path d="M781 49L771 43.2265V54.7735L781 49ZM200 50L772 50V48L200 48V50Z" fill="white"/>
<path d="M444 49L434 43.2265V54.7735L444 49ZM200 50L435 50V48L200 48V50Z" fill="white"/>
<path d="M444 49L434 43.2265V54.7735L444 49ZM200 50L435 50V48L200 48V50Z" fill="white"/>
<path d="M216 136L216 137L216 136ZM216 102L216 101L216 102ZM238.5 102L228.5 96.2265L228.5 107.774L238.5 102ZM496 135L216 135L216 137L496 137V135ZM207 126L207 112L205 112L205 126L207 126ZM216 103L229.5 103L229.5 101L216 101L216 103ZM207 112C207 107.029 211.029 103 216 103L216 101C209.925 101 205 105.925 205 112L207 112ZM216 135C211.029 135 207 130.971 207 126L205 126C205 132.075 209.925 137 216 137L216 135Z" fill="white"/>
<path d="M781 49L771 43.2265V54.7735L781 49ZM722 103H746.5V101H722V103ZM757.5 92V59H755.5V92H757.5ZM766.5 50H772V48H766.5V50ZM757.5 59C757.5 54.0294 761.529 50 766.5 50V48C760.425 48 755.5 52.9249 755.5 59H757.5ZM746.5 103C752.575 103 757.5 98.0751 757.5 92H755.5C755.5 96.9706 751.471 101 746.5 101V103Z" fill="white"/>
<path d="M480.5 136.25L490.5 142.024V130.476L480.5 136.25ZM730.5 111.5V126.25H732.5V111.5H730.5ZM721.5 135.25L489.5 135.25V137.25L721.5 137.25V135.25ZM730.5 126.25C730.5 131.221 726.471 135.25 721.5 135.25V137.25C727.575 137.25 732.5 132.325 732.5 126.25H730.5ZM722 103C726.694 103 730.5 106.806 730.5 111.5H732.5C732.5 105.701 727.799 101 722 101V103Z" fill="white"/>
<path d="M238.5 102L228.5 96.2265V107.774L238.5 102ZM205.5 55.5V92H207.5V55.5H205.5ZM216.5 103H229.5V101H216.5V103ZM205.5 92C205.5 98.0751 210.425 103 216.5 103V101C211.529 101 207.5 96.9706 207.5 92H205.5ZM200 50C203.038 50 205.5 52.4624 205.5 55.5H207.5C207.5 51.3579 204.142 48 200 48V50Z" fill="white"/>
<path d="M387 101L377 95.2265V106.774L387 101ZM363 102H378V100H363V102Z" fill="white"/>
<path d="M583 101L573 95.2265V106.774L583 101ZM558 102H574V100H558V102Z" fill="white"/>
</svg>
