<svg width="506" height="297" viewBox="0 0 506 297" fill="none" xmlns="http://www.w3.org/2000/svg">
<circle cx="207.5" cy="56.5" r="16" stroke="white"/>
<path d="M208.046 59.2102L207.976 59.9134C207.92 60.4759 207.814 61.0362 207.656 61.5945C207.503 62.157 207.341 62.6662 207.17 63.1222C207.004 63.5781 206.87 63.9361 206.768 64.196H205.004C205.067 63.9446 205.155 63.593 205.266 63.1413C205.376 62.6939 205.481 62.1911 205.579 61.6328C205.677 61.0746 205.739 60.5057 205.764 59.9261L205.796 59.2102H208.046Z" fill="white"/>
<path d="M2.08665 8.18182H4.80966V18.4858C4.80966 19.2443 4.66051 19.858 4.36222 20.3267C4.06392 20.7955 3.63565 21.1385 3.07741 21.3558C2.52344 21.5732 1.8608 21.6818 1.08949 21.6818C0.995739 21.6818 0.90625 21.6797 0.821023 21.6754C0.731534 21.6754 0.637784 21.6733 0.539773 21.669V19.5405C0.612216 19.5447 0.676136 19.5469 0.731534 19.5469C0.78267 19.5511 0.838068 19.5533 0.897727 19.5533C1.33665 19.5533 1.64347 19.4595 1.81818 19.272C1.99716 19.0888 2.08665 18.8118 2.08665 18.4411V8.18182ZM3.44176 6.91619C3.04119 6.91619 2.69602 6.78196 2.40625 6.51349C2.11648 6.24077 1.97159 5.91477 1.97159 5.53551C1.97159 5.16051 2.11648 4.83878 2.40625 4.57031C2.69602 4.29758 3.04119 4.16122 3.44176 4.16122C3.85085 4.16122 4.19815 4.29758 4.48366 4.57031C4.77344 4.83878 4.91832 5.16051 4.91832 5.53551C4.91832 5.91477 4.77344 6.24077 4.48366 6.51349C4.19815 6.78196 3.85085 6.91619 3.44176 6.91619ZM11.427 18.1918C10.4341 18.1918 9.57546 17.9808 8.85103 17.5589C8.13086 17.1328 7.57475 16.5405 7.18271 15.782C6.79066 15.0192 6.59464 14.1349 6.59464 13.1293C6.59464 12.1151 6.79066 11.2287 7.18271 10.4702C7.57475 9.70739 8.13086 9.11506 8.85103 8.69318C9.57546 8.26705 10.4341 8.05398 11.427 8.05398C12.4199 8.05398 13.2765 8.26705 13.9966 8.69318C14.7211 9.11506 15.2793 9.70739 15.6713 10.4702C16.0634 11.2287 16.2594 12.1151 16.2594 13.1293C16.2594 14.1349 16.0634 15.0192 15.6713 15.782C15.2793 16.5405 14.7211 17.1328 13.9966 17.5589C13.2765 17.9808 12.4199 18.1918 11.427 18.1918ZM11.4398 16.0824C11.8915 16.0824 12.2686 15.9545 12.5712 15.6989C12.8738 15.4389 13.1017 15.0852 13.2551 14.6378C13.4128 14.1903 13.4917 13.6811 13.4917 13.1101C13.4917 12.5391 13.4128 12.0298 13.2551 11.5824C13.1017 11.1349 12.8738 10.7812 12.5712 10.5213C12.2686 10.2614 11.8915 10.1314 11.4398 10.1314C10.9838 10.1314 10.6003 10.2614 10.2892 10.5213C9.98242 10.7812 9.75018 11.1349 9.59251 11.5824C9.4391 12.0298 9.36239 12.5391 9.36239 13.1101C9.36239 13.6811 9.4391 14.1903 9.59251 14.6378C9.75018 15.0852 9.98242 15.4389 10.2892 15.6989C10.6003 15.9545 10.9838 16.0824 11.4398 16.0824ZM18.03 18V8.18182H20.753V18H18.03ZM19.3979 6.91619C18.9931 6.91619 18.6458 6.78196 18.356 6.51349C18.0705 6.24077 17.9277 5.91477 17.9277 5.53551C17.9277 5.16051 18.0705 4.83878 18.356 4.57031C18.6458 4.29758 18.9931 4.16122 19.3979 4.16122C19.8027 4.16122 20.1479 4.29758 20.4334 4.57031C20.7232 4.83878 20.8681 5.16051 20.8681 5.53551C20.8681 5.91477 20.7232 6.24077 20.4334 6.51349C20.1479 6.78196 19.8027 6.91619 19.3979 6.91619ZM25.6573 12.3239V18H22.9343V8.18182H25.5295V9.91406H25.6445C25.8619 9.34304 26.2262 8.89133 26.7376 8.55895C27.2489 8.2223 27.869 8.05398 28.5977 8.05398C29.2795 8.05398 29.8739 8.20312 30.381 8.50142C30.8881 8.79972 31.2823 9.22585 31.5636 9.77983C31.8448 10.3295 31.9854 10.9858 31.9854 11.7486V18H29.2624V12.2344C29.2667 11.6335 29.1133 11.1648 28.8022 10.8281C28.4911 10.4872 28.0629 10.3168 27.5174 10.3168C27.1509 10.3168 26.8271 10.3956 26.5458 10.5533C26.2688 10.7109 26.0515 10.9411 25.8938 11.2436C25.7404 11.5419 25.6616 11.902 25.6573 12.3239ZM40.2488 11.544V13.7045H34.2786V11.544H40.2488ZM47.0051 18.1918C46.0123 18.1918 45.1536 17.9808 44.4292 17.5589C43.709 17.1328 43.1529 16.5405 42.7608 15.782C42.3688 15.0192 42.1728 14.1349 42.1728 13.1293C42.1728 12.1151 42.3688 11.2287 42.7608 10.4702C43.1529 9.70739 43.709 9.11506 44.4292 8.69318C45.1536 8.26705 46.0123 8.05398 47.0051 8.05398C47.998 8.05398 48.8546 8.26705 49.5748 8.69318C50.2992 9.11506 50.8574 9.70739 51.2495 10.4702C51.6415 11.2287 51.8375 12.1151 51.8375 13.1293C51.8375 14.1349 51.6415 15.0192 51.2495 15.782C50.8574 16.5405 50.2992 17.1328 49.5748 17.5589C48.8546 17.9808 47.998 18.1918 47.0051 18.1918ZM47.0179 16.0824C47.4696 16.0824 47.8468 15.9545 48.1493 15.6989C48.4519 15.4389 48.6799 15.0852 48.8333 14.6378C48.9909 14.1903 49.0698 13.6811 49.0698 13.1101C49.0698 12.5391 48.9909 12.0298 48.8333 11.5824C48.6799 11.1349 48.4519 10.7812 48.1493 10.5213C47.8468 10.2614 47.4696 10.1314 47.0179 10.1314C46.562 10.1314 46.1784 10.2614 45.8674 10.5213C45.5605 10.7812 45.3283 11.1349 45.1706 11.5824C45.0172 12.0298 44.9405 12.5391 44.9405 13.1101C44.9405 13.6811 45.0172 14.1903 45.1706 14.6378C45.3283 15.0852 45.5605 15.4389 45.8674 15.6989C46.1784 15.9545 46.562 16.0824 47.0179 16.0824ZM53.6081 21.6818V8.18182H56.2928V9.83097H56.4142C56.5336 9.56676 56.7061 9.2983 56.932 9.02557C57.1621 8.74858 57.4604 8.51847 57.8269 8.33523C58.1976 8.14773 58.6578 8.05398 59.2076 8.05398C59.9235 8.05398 60.584 8.24148 61.1891 8.61648C61.7942 8.98722 62.2779 9.54759 62.6401 10.2976C63.0023 11.0433 63.1834 11.9787 63.1834 13.1037C63.1834 14.1989 63.0066 15.1236 62.6529 15.8778C62.3034 16.6278 61.8262 17.1967 61.2211 17.5845C60.6202 17.968 59.9469 18.1598 59.2012 18.1598C58.6728 18.1598 58.2232 18.0724 57.8525 17.8977C57.486 17.723 57.1855 17.5036 56.9512 17.2393C56.7168 16.9709 56.5378 16.7003 56.4142 16.4276H56.3311V21.6818H53.6081ZM56.2736 13.0909C56.2736 13.6747 56.3546 14.1839 56.5165 14.6186C56.6784 15.0533 56.9128 15.392 57.2196 15.6349C57.5265 15.8736 57.8993 15.9929 58.3382 15.9929C58.7814 15.9929 59.1564 15.8714 59.4632 15.6286C59.7701 15.3814 60.0023 15.0405 60.16 14.6058C60.3219 14.1669 60.4029 13.6619 60.4029 13.0909C60.4029 12.5241 60.324 12.0256 60.1664 11.5952C60.0087 11.1648 59.7765 10.8281 59.4696 10.5852C59.1628 10.3423 58.7857 10.2209 58.3382 10.2209C57.8951 10.2209 57.5201 10.3381 57.2132 10.5724C56.9107 10.8068 56.6784 11.1392 56.5165 11.5696C56.3546 12 56.2736 12.5071 56.2736 13.0909ZM69.4732 18.1918C68.4632 18.1918 67.5939 17.9872 66.8652 17.5781C66.1408 17.1648 65.5826 16.581 65.1905 15.8267C64.7985 15.0682 64.6025 14.1712 64.6025 13.1357C64.6025 12.1257 64.7985 11.2393 65.1905 10.4766C65.5826 9.71378 66.1344 9.11932 66.8461 8.69318C67.562 8.26705 68.4015 8.05398 69.3645 8.05398C70.0123 8.05398 70.6152 8.15838 71.1735 8.36719C71.736 8.57173 72.226 8.88068 72.6436 9.29403C73.0655 9.70739 73.3936 10.2273 73.628 10.8537C73.8624 11.4759 73.9796 12.2045 73.9796 13.0398V13.7876H65.6891V12.1001H71.4164C71.4164 11.7081 71.3311 11.3608 71.1607 11.0582C70.9902 10.7557 70.7537 10.5192 70.4512 10.3487C70.1529 10.174 69.8056 10.0866 69.4093 10.0866C68.9959 10.0866 68.6294 10.1825 68.3098 10.3743C67.9945 10.5618 67.7473 10.8153 67.5684 11.1349C67.3894 11.4503 67.2978 11.8018 67.2935 12.1896V13.794C67.2935 14.2798 67.383 14.6996 67.562 15.0533C67.7452 15.407 68.003 15.6797 68.3354 15.8714C68.6678 16.0632 69.062 16.1591 69.5179 16.1591C69.8205 16.1591 70.0975 16.1165 70.3489 16.0312C70.6003 15.946 70.8155 15.8182 70.9945 15.6477C71.1735 15.4773 71.3098 15.2685 71.4036 15.0213L73.9221 15.1875C73.7942 15.7926 73.5321 16.321 73.1358 16.7727C72.7438 17.2202 72.2367 17.5696 71.6145 17.821C70.9966 18.0682 70.2828 18.1918 69.4732 18.1918ZM75.7566 18V8.18182H78.3965V9.89489H78.4988C78.6777 9.28551 78.9782 8.82528 79.4 8.5142C79.8219 8.19886 80.3077 8.04119 80.8574 8.04119C80.9938 8.04119 81.1408 8.04972 81.2985 8.06676C81.4561 8.08381 81.5946 8.10724 81.714 8.13707V10.5533C81.5861 10.5149 81.4093 10.4808 81.1834 10.451C80.9576 10.4212 80.7509 10.4062 80.5634 10.4062C80.1628 10.4062 79.8049 10.4936 79.4895 10.6683C79.1784 10.8388 78.9313 11.0774 78.748 11.3842C78.5691 11.6911 78.4796 12.0447 78.4796 12.4453V18H75.7566ZM85.6403 18.1854C85.0138 18.1854 84.4556 18.0767 83.9656 17.8594C83.4755 17.6378 83.0877 17.3118 82.8022 16.8814C82.521 16.4467 82.3803 15.9055 82.3803 15.2578C82.3803 14.7124 82.4805 14.2543 82.6808 13.8835C82.881 13.5128 83.1538 13.2145 83.4989 12.9886C83.8441 12.7628 84.2362 12.5923 84.6751 12.4773C85.1183 12.3622 85.5827 12.2812 86.0685 12.2344C86.6396 12.1747 87.0998 12.1193 87.4492 12.0682C87.7987 12.0128 88.0522 11.9318 88.2099 11.8253C88.3675 11.7187 88.4464 11.5611 88.4464 11.3523V11.3139C88.4464 10.9091 88.3185 10.5959 88.0629 10.3743C87.8114 10.1527 87.4535 10.0419 86.989 10.0419C86.4989 10.0419 86.109 10.1506 85.8192 10.3679C85.5295 10.581 85.3377 10.8494 85.244 11.1733L82.7255 10.9688C82.8533 10.3722 83.1048 9.85653 83.4798 9.42188C83.8548 8.98295 84.3384 8.64631 84.9308 8.41193C85.5273 8.1733 86.2177 8.05398 87.0018 8.05398C87.5472 8.05398 88.0692 8.1179 88.5678 8.24574C89.0707 8.37358 89.516 8.57173 89.9038 8.8402C90.2958 9.10866 90.6048 9.45384 90.8306 9.87571C91.0565 10.2933 91.1694 10.794 91.1694 11.3778V18H88.587V16.6385H88.5103C88.3526 16.9453 88.1417 17.2159 87.8775 17.4503C87.6133 17.6804 87.2958 17.8615 86.9251 17.9936C86.5543 18.1214 86.1261 18.1854 85.6403 18.1854ZM86.4201 16.3061C86.8207 16.3061 87.1744 16.2273 87.4812 16.0696C87.788 15.9077 88.0288 15.6903 88.2035 15.4176C88.3782 15.1449 88.4656 14.8359 88.4656 14.4908V13.4489C88.3803 13.5043 88.2631 13.5554 88.114 13.6023C87.9691 13.6449 87.805 13.6854 87.6218 13.7237C87.4386 13.7578 87.2553 13.7898 87.0721 13.8196C86.8888 13.8452 86.7227 13.8686 86.5735 13.8899C86.2539 13.9368 85.9748 14.0114 85.7362 14.1136C85.4975 14.2159 85.3121 14.3544 85.18 14.5291C85.0479 14.6996 84.9819 14.9126 84.9819 15.1683C84.9819 15.5391 85.1161 15.8224 85.3846 16.0185C85.6573 16.2102 86.0025 16.3061 86.4201 16.3061ZM98.5043 8.18182V10.2273H92.5916V8.18182H98.5043ZM93.9339 5.82955H96.657V14.983C96.657 15.2344 96.6953 15.4304 96.772 15.571C96.8487 15.7074 96.9553 15.8033 97.0916 15.8587C97.2322 15.9141 97.3942 15.9418 97.5774 15.9418C97.7053 15.9418 97.8331 15.9311 97.9609 15.9098C98.0888 15.8842 98.1868 15.8651 98.255 15.8523L98.6832 17.8786C98.5469 17.9212 98.3551 17.9702 98.108 18.0256C97.8608 18.0852 97.5604 18.1214 97.2067 18.1342C96.5504 18.1598 95.9751 18.0724 95.4808 17.8722C94.9908 17.6719 94.6094 17.3608 94.3366 16.9389C94.0639 16.517 93.9297 15.9844 93.9339 15.3409V5.82955ZM104.609 18.1918C103.616 18.1918 102.757 17.9808 102.033 17.5589C101.313 17.1328 100.756 16.5405 100.364 15.782C99.9723 15.0192 99.7763 14.1349 99.7763 13.1293C99.7763 12.1151 99.9723 11.2287 100.364 10.4702C100.756 9.70739 101.313 9.11506 102.033 8.69318C102.757 8.26705 103.616 8.05398 104.609 8.05398C105.602 8.05398 106.458 8.26705 107.178 8.69318C107.903 9.11506 108.461 9.70739 108.853 10.4702C109.245 11.2287 109.441 12.1151 109.441 13.1293C109.441 14.1349 109.245 15.0192 108.853 15.782C108.461 16.5405 107.903 17.1328 107.178 17.5589C106.458 17.9808 105.602 18.1918 104.609 18.1918ZM104.621 16.0824C105.073 16.0824 105.45 15.9545 105.753 15.6989C106.055 15.4389 106.283 15.0852 106.437 14.6378C106.594 14.1903 106.673 13.6811 106.673 13.1101C106.673 12.5391 106.594 12.0298 106.437 11.5824C106.283 11.1349 106.055 10.7812 105.753 10.5213C105.45 10.2614 105.073 10.1314 104.621 10.1314C104.165 10.1314 103.782 10.2614 103.471 10.5213C103.164 10.7812 102.932 11.1349 102.774 11.5824C102.621 12.0298 102.544 12.5391 102.544 13.1101C102.544 13.6811 102.621 14.1903 102.774 14.6378C102.932 15.0852 103.164 15.4389 103.471 15.6989C103.782 15.9545 104.165 16.0824 104.621 16.0824ZM111.212 18V8.18182H113.852V9.89489H113.954C114.133 9.28551 114.433 8.82528 114.855 8.5142C115.277 8.19886 115.763 8.04119 116.312 8.04119C116.449 8.04119 116.596 8.04972 116.754 8.06676C116.911 8.08381 117.05 8.10724 117.169 8.13707V10.5533C117.041 10.5149 116.864 10.4808 116.638 10.451C116.413 10.4212 116.206 10.4062 116.018 10.4062C115.618 10.4062 115.26 10.4936 114.945 10.6683C114.634 10.8388 114.386 11.0774 114.203 11.3842C114.024 11.6911 113.935 12.0447 113.935 12.4453V18H111.212Z" fill="white"/>
<circle cx="7" cy="56" r="3.5" stroke="white"/>
<circle cx="502" cy="56" r="3.5" stroke="white"/>
<path d="M191 56L181 50.2265V61.7735L191 56ZM11 57H182V55H11V57Z" fill="white"/>
<path d="M498 56L488 50.2265V61.7735L498 56ZM224 57H489V55H224V57Z" fill="white"/>
<path d="M498 56L488 50.2265V61.7735L498 56ZM434 102H450.5V100H434V102ZM461.5 91V66H459.5V91H461.5ZM470.5 57H489V55H470.5V57ZM461.5 66C461.5 61.0294 465.529 57 470.5 57V55C464.425 55 459.5 59.9249 459.5 66H461.5ZM450.5 102C456.575 102 461.5 97.0751 461.5 91H459.5C459.5 95.9706 455.471 100 450.5 100V102Z" fill="white"/>
<path d="M359.999 101L349.999 95.2265V106.774L359.999 101ZM313.5 152H325.401V150H313.5V152ZM336.401 141V111H334.401V141H336.401ZM345.401 102H350.999V100H345.401V102ZM336.401 111C336.401 106.029 340.431 102 345.401 102V100C339.326 100 334.401 104.925 334.401 111H336.401ZM325.401 152C331.476 152 336.401 147.075 336.401 141H334.401C334.401 145.971 330.372 150 325.401 150V152Z" fill="white"/>
<path d="M219 152L209 146.226V157.774L219 152ZM181 153H210V151H181V153Z" fill="white"/>
<path d="M274.5 101L264.5 95.2265V106.774L274.5 101ZM161 153H193V151H161V153ZM204 142V111H202V142H204ZM213 102H265.5V100H213V102ZM204 111C204 106.029 208.029 102 213 102V100C206.925 100 202 104.925 202 111H204ZM193 153C199.075 153 204 148.075 204 142H202C202 146.971 197.971 151 193 151V153Z" fill="white"/>
<path d="M149 152L191 152" stroke="white" stroke-width="2"/>
<path d="M193 152L183 146.226V157.774L193 152ZM149 239H162.2V237H149V239ZM173.2 228V162H171.2V228H173.2ZM182.2 153H184V151H182.2V153ZM173.2 162C173.2 157.029 177.229 153 182.2 153V151C176.125 151 171.2 155.925 171.2 162H173.2ZM162.2 239C168.275 239 173.2 234.075 173.2 228H171.2C171.2 232.971 167.171 237 162.2 237V239Z" fill="white"/>
<path d="M193 152L183 146.226V157.774L193 152ZM159.5 195H162V193H159.5V195ZM173 184V162H171V184H173ZM182 153H184V151H182V153ZM173 162C173 157.029 177.029 153 182 153V151C175.925 151 171 155.925 171 162H173ZM162 195C168.075 195 173 190.075 173 184H171C171 188.971 166.971 193 162 193V195Z" fill="white"/>
<path d="M314 281L304 275.226V286.774L314 281ZM160 282H305V280H160V282Z" fill="white"/>
<path d="M360 101L350 95.2265V106.774L360 101ZM160 282H325.5V280H160V282ZM336.5 271V111H334.5V271H336.5ZM345.5 102H351V100H345.5V102ZM336.5 111C336.5 106.029 340.529 102 345.5 102V100C339.425 100 334.5 104.925 334.5 111H336.5ZM325.5 282C331.575 282 336.5 277.075 336.5 271H334.5C334.5 275.971 330.471 280 325.5 280V282Z" fill="white"/>
<path d="M75.5 283L65.5 277.227V288.773L75.5 283ZM11 57H25.5V55H11V57ZM34.5 66V273H36.5V66H34.5ZM45.5 284H66.5V282H45.5V284ZM34.5 273C34.5 279.075 39.4249 284 45.5 284V282C40.5294 282 36.5 277.971 36.5 273H34.5ZM25.5 57C30.4706 57 34.5 61.0294 34.5 66H36.5C36.5 59.9249 31.5751 55 25.5 55V57Z" fill="white"/>
<path d="M74.5 153L64.5 147.226V158.774L74.5 153ZM11 57H25.304V55H11V57ZM34.304 66V143H36.304V66H34.304ZM45.304 154H65.5V152H45.304V154ZM34.304 143C34.304 149.075 39.2289 154 45.304 154V152C40.3334 152 36.304 147.971 36.304 143H34.304ZM25.304 57C30.2746 57 34.304 61.0294 34.304 66H36.304C36.304 59.9249 31.3791 55 25.304 55V57Z" fill="white"/>
<path d="M360 101L350 95.2265V106.774L360 101ZM11 57H25.304V55H11V57ZM34.304 66V91H36.304V66H34.304ZM45.304 102H351V100H45.304V102ZM34.304 91C34.304 97.0751 39.2289 102 45.304 102V100C40.3334 100 36.304 95.9706 36.304 91H34.304ZM25.304 57C30.2746 57 34.304 61.0294 34.304 66H36.304C36.304 59.9249 31.3791 55 25.304 55V57Z" fill="white"/>
<path d="M75 196L65 190.227V201.773L75 196ZM11 57H25.304V55H11V57ZM34.304 66V186H36.304V66H34.304ZM45.304 197H66V195H45.304V197ZM34.304 186C34.304 192.075 39.2289 197 45.304 197V195C40.3334 195 36.304 190.971 36.304 186H34.304ZM25.304 57C30.2746 57 34.304 61.0294 34.304 66H36.304C36.304 59.9249 31.3791 55 25.304 55V57Z" fill="white"/>
<path d="M75 238L65 232.227V243.773L75 238ZM11 57H25.304V55H11V57ZM34.304 66V228H36.304V66H34.304ZM45.304 239H66V237H45.304V239ZM34.304 228C34.304 234.075 39.2289 239 45.304 239V237C40.3334 237 36.304 232.971 36.304 228H34.304ZM25.304 57C30.2746 57 34.304 61.0294 34.304 66H36.304C36.304 59.9249 31.3791 55 25.304 55V57Z" fill="white"/>
<path d="M92.1378 158V144.909H94.9055V155.718H100.518V158H92.1378ZM102.351 158V144.909H111.172V147.191H105.118V150.31H110.718V152.592H105.118V155.718H111.197V158H102.351ZM113.372 158V144.909H122.04V147.191H116.14V150.31H121.464V152.592H116.14V158H113.372ZM123.403 147.191V144.909H134.154V147.191H130.146V158H127.411V147.191H123.403Z" fill="white"/>
<rect x="76.5" y="135.5" width="72" height="32" rx="16" stroke="white"/>
<path d="M382.379 92.9091H385.115V102.037C385.115 102.881 384.925 103.614 384.546 104.236C384.171 104.858 383.649 105.337 382.98 105.674C382.311 106.011 381.533 106.179 380.647 106.179C379.859 106.179 379.143 106.04 378.499 105.763C377.86 105.482 377.353 105.056 376.978 104.485C376.603 103.91 376.418 103.187 376.422 102.318H379.177C379.185 102.663 379.256 102.96 379.388 103.207C379.524 103.45 379.71 103.637 379.944 103.769C380.183 103.897 380.464 103.961 380.788 103.961C381.129 103.961 381.416 103.888 381.651 103.744C381.889 103.594 382.07 103.377 382.194 103.092C382.317 102.806 382.379 102.455 382.379 102.037V92.9091ZM399.433 99.4545C399.433 100.882 399.163 102.097 398.621 103.098C398.085 104.099 397.352 104.864 396.423 105.393C395.498 105.917 394.458 106.179 393.303 106.179C392.14 106.179 391.096 105.915 390.171 105.386C389.246 104.858 388.516 104.093 387.979 103.092C387.442 102.09 387.173 100.878 387.173 99.4545C387.173 98.027 387.442 96.8125 387.979 95.8111C388.516 94.8097 389.246 94.0469 390.171 93.5227C391.096 92.9943 392.14 92.7301 393.303 92.7301C394.458 92.7301 395.498 92.9943 396.423 93.5227C397.352 94.0469 398.085 94.8097 398.621 95.8111C399.163 96.8125 399.433 98.027 399.433 99.4545ZM396.627 99.4545C396.627 98.5298 396.489 97.75 396.212 97.1151C395.939 96.4801 395.553 95.9986 395.055 95.6705C394.556 95.3423 393.972 95.1783 393.303 95.1783C392.634 95.1783 392.05 95.3423 391.552 95.6705C391.053 95.9986 390.665 96.4801 390.388 97.1151C390.116 97.75 389.979 98.5298 389.979 99.4545C389.979 100.379 390.116 101.159 390.388 101.794C390.665 102.429 391.053 102.911 391.552 103.239C392.05 103.567 392.634 103.731 393.303 103.731C393.972 103.731 394.556 103.567 395.055 103.239C395.553 102.911 395.939 102.429 396.212 101.794C396.489 101.159 396.627 100.379 396.627 99.4545ZM404.251 92.9091V106H401.483V92.9091H404.251ZM417.478 92.9091V106H415.087L409.392 97.7607H409.296V106H406.528V92.9091H408.957L414.608 101.142H414.723V92.9091H417.478Z" fill="white"/>
<rect x="361.5" y="83.5" width="72" height="32" rx="16" stroke="white"/>
<path d="M92.1378 244V230.909H100.805V233.191H94.9055V236.31H100.23V238.592H94.9055V244H92.1378ZM110.753 230.909H113.521V239.411C113.521 240.365 113.293 241.2 112.837 241.916C112.385 242.632 111.752 243.19 110.938 243.591C110.124 243.987 109.176 244.185 108.094 244.185C107.007 244.185 106.057 243.987 105.243 243.591C104.429 243.19 103.796 242.632 103.345 241.916C102.893 241.2 102.667 240.365 102.667 239.411V230.909H105.435V239.174C105.435 239.673 105.544 240.116 105.761 240.504C105.982 240.891 106.294 241.196 106.694 241.418C107.095 241.639 107.561 241.75 108.094 241.75C108.631 241.75 109.097 241.639 109.494 241.418C109.894 241.196 110.203 240.891 110.421 240.504C110.642 240.116 110.753 239.673 110.753 239.174V230.909ZM115.798 244V230.909H118.566V241.718H124.178V244H115.798ZM126.011 244V230.909H128.779V241.718H134.391V244H126.011Z" fill="white"/>
<rect x="76.5" y="221.5" width="72" height="32" rx="16" stroke="white"/>
<path d="M92.1378 201V187.909H97.3026C98.2912 187.909 99.1349 188.086 99.8338 188.44C100.537 188.789 101.072 189.286 101.438 189.929C101.809 190.568 101.994 191.32 101.994 192.185C101.994 193.055 101.807 193.803 101.432 194.429C101.057 195.051 100.513 195.528 99.8018 195.861C99.0945 196.193 98.2379 196.359 97.2322 196.359H93.7741V194.135H96.7848C97.3132 194.135 97.7521 194.062 98.1016 193.918C98.451 193.773 98.7109 193.555 98.8814 193.266C99.0561 192.976 99.1435 192.616 99.1435 192.185C99.1435 191.751 99.0561 191.384 98.8814 191.086C98.7109 190.788 98.4489 190.562 98.0952 190.408C97.7457 190.251 97.3047 190.172 96.772 190.172H94.9055V201H92.1378ZM99.2074 195.043L102.461 201H99.4055L96.2223 195.043H99.2074ZM106.718 187.909V201H103.95V187.909H106.718ZM117.676 192.141C117.586 191.83 117.46 191.555 117.298 191.316C117.137 191.073 116.938 190.869 116.704 190.702C116.474 190.532 116.21 190.402 115.911 190.312C115.617 190.223 115.291 190.178 114.933 190.178C114.264 190.178 113.676 190.344 113.169 190.677C112.666 191.009 112.274 191.493 111.993 192.128C111.712 192.759 111.571 193.53 111.571 194.442C111.571 195.354 111.71 196.129 111.987 196.768C112.264 197.408 112.656 197.896 113.163 198.232C113.67 198.565 114.269 198.731 114.959 198.731C115.585 198.731 116.12 198.62 116.563 198.398C117.011 198.173 117.352 197.855 117.586 197.446C117.825 197.037 117.944 196.553 117.944 195.995L118.507 196.078H115.132V193.994H120.61V195.643C120.61 196.794 120.367 197.783 119.881 198.609C119.395 199.432 118.726 200.067 117.874 200.514C117.021 200.957 116.046 201.179 114.946 201.179C113.719 201.179 112.641 200.908 111.712 200.367C110.783 199.822 110.058 199.048 109.539 198.047C109.023 197.041 108.765 195.848 108.765 194.467C108.765 193.406 108.919 192.46 109.225 191.629C109.536 190.794 109.971 190.087 110.529 189.507C111.088 188.928 111.737 188.487 112.479 188.184C113.22 187.881 114.024 187.73 114.889 187.73C115.63 187.73 116.32 187.839 116.96 188.056C117.599 188.269 118.166 188.572 118.66 188.964C119.159 189.356 119.566 189.822 119.881 190.364C120.196 190.901 120.399 191.493 120.488 192.141H117.676ZM122.689 201V187.909H125.456V193.31H131.075V187.909H133.836V201H131.075V195.592H125.456V201H122.689ZM135.62 190.191V187.909H146.371V190.191H142.363V201H139.627V190.191H135.62Z" fill="white"/>
<rect x="76.5" y="178.5" width="83" height="32" rx="16" stroke="white"/>
<path d="M247.168 151.455C247.168 152.882 246.897 154.097 246.356 155.098C245.819 156.099 245.086 156.864 244.157 157.393C243.232 157.917 242.192 158.179 241.038 158.179C239.874 158.179 238.83 157.915 237.906 157.386C236.981 156.858 236.25 156.093 235.713 155.092C235.176 154.09 234.908 152.878 234.908 151.455C234.908 150.027 235.176 148.812 235.713 147.811C236.25 146.81 236.981 146.047 237.906 145.523C238.83 144.994 239.874 144.73 241.038 144.73C242.192 144.73 243.232 144.994 244.157 145.523C245.086 146.047 245.819 146.81 246.356 147.811C246.897 148.812 247.168 150.027 247.168 151.455ZM244.362 151.455C244.362 150.53 244.223 149.75 243.946 149.115C243.673 148.48 243.288 147.999 242.789 147.67C242.29 147.342 241.707 147.178 241.038 147.178C240.369 147.178 239.785 147.342 239.286 147.67C238.788 147.999 238.4 148.48 238.123 149.115C237.85 149.75 237.714 150.53 237.714 151.455C237.714 152.379 237.85 153.159 238.123 153.794C238.4 154.429 238.788 154.911 239.286 155.239C239.785 155.567 240.369 155.731 241.038 155.731C241.707 155.731 242.29 155.567 242.789 155.239C243.288 154.911 243.673 154.429 243.946 153.794C244.223 153.159 244.362 152.379 244.362 151.455ZM257.304 144.909H260.072V153.411C260.072 154.365 259.844 155.2 259.388 155.916C258.936 156.632 258.303 157.19 257.489 157.591C256.675 157.987 255.727 158.185 254.645 158.185C253.558 158.185 252.608 157.987 251.794 157.591C250.98 157.19 250.347 156.632 249.895 155.916C249.444 155.2 249.218 154.365 249.218 153.411V144.909H251.986V153.174C251.986 153.673 252.094 154.116 252.312 154.504C252.533 154.891 252.844 155.196 253.245 155.418C253.645 155.639 254.112 155.75 254.645 155.75C255.182 155.75 255.648 155.639 256.045 155.418C256.445 155.196 256.754 154.891 256.971 154.504C257.193 154.116 257.304 153.673 257.304 153.174V144.909ZM261.85 147.191V144.909H272.602V147.191H268.594V158H265.858V147.191H261.85ZM274.372 158V144.909H283.193V147.191H277.14V150.31H282.739V152.592H277.14V155.718H283.219V158H274.372ZM285.394 158V144.909H290.558C291.547 144.909 292.391 145.086 293.09 145.44C293.793 145.789 294.328 146.286 294.694 146.929C295.065 147.568 295.25 148.32 295.25 149.185C295.25 150.055 295.063 150.803 294.688 151.429C294.313 152.051 293.769 152.528 293.058 152.861C292.35 153.193 291.494 153.359 290.488 153.359H287.03V151.135H290.041C290.569 151.135 291.008 151.062 291.357 150.918C291.707 150.773 291.967 150.555 292.137 150.266C292.312 149.976 292.399 149.616 292.399 149.185C292.399 148.751 292.312 148.384 292.137 148.086C291.967 147.788 291.705 147.562 291.351 147.408C291.002 147.251 290.561 147.172 290.028 147.172H288.161V158H285.394ZM292.463 152.043L295.717 158H292.661L289.478 152.043H292.463Z" fill="white"/>
<rect x="219.5" y="135.5" width="94" height="32" rx="16" stroke="white"/>
<path d="M94.9055 273.909V287H92.1378V273.909H94.9055ZM108.132 273.909V287H105.742L100.046 278.761H99.9505V287H97.1827V273.909H99.6117L105.262 282.142H105.377V273.909H108.132ZM121.369 273.909V287H118.978L113.283 278.761H113.187V287H110.419V273.909H112.848L118.499 282.142H118.614V273.909H121.369ZM123.655 287V273.909H132.476V276.191H126.423V279.31H132.023V281.592H126.423V284.718H132.502V287H123.655ZM134.677 287V273.909H139.842C140.83 273.909 141.674 274.086 142.373 274.44C143.076 274.789 143.611 275.286 143.977 275.929C144.348 276.568 144.533 277.32 144.533 278.185C144.533 279.055 144.346 279.803 143.971 280.429C143.596 281.051 143.053 281.528 142.341 281.861C141.634 282.193 140.777 282.359 139.771 282.359H136.313V280.135H139.324C139.852 280.135 140.291 280.062 140.641 279.918C140.99 279.773 141.25 279.555 141.42 279.266C141.595 278.976 141.683 278.616 141.683 278.185C141.683 277.751 141.595 277.384 141.42 277.086C141.25 276.788 140.988 276.562 140.634 276.408C140.285 276.251 139.844 276.172 139.311 276.172H137.445V287H134.677ZM141.746 281.043L145 287H141.945L138.761 281.043H141.746Z" fill="white"/>
<rect x="76.5" y="264.5" width="83" height="32" rx="16" stroke="white"/>
</svg>
