<svg width="302" height="280" viewBox="0 0 302 280" fill="none" xmlns="http://www.w3.org/2000/svg">
<path d="M3.80966 4.90909V18H1.08665V4.90909H3.80966ZM5.99094 18V8.18182H8.71396V18H5.99094ZM7.35884 6.91619C6.95401 6.91619 6.60671 6.78196 6.31694 6.51349C6.03143 6.24077 5.88867 5.91477 5.88867 5.53551C5.88867 5.16051 6.03143 4.83878 6.31694 4.57031C6.60671 4.29758 6.95401 4.16122 7.35884 4.16122C7.76367 4.16122 8.10884 4.29758 8.39435 4.57031C8.68413 4.83878 8.82901 5.16051 8.82901 5.53551C8.82901 5.91477 8.68413 6.24077 8.39435 6.51349C8.10884 6.78196 7.76367 6.91619 7.35884 6.91619ZM16.1175 8.18182V10.2273H10.2049V8.18182H16.1175ZM11.5472 5.82955H14.2702V14.983C14.2702 15.2344 14.3086 15.4304 14.3853 15.571C14.462 15.7074 14.5685 15.8033 14.7049 15.8587C14.8455 15.9141 15.0075 15.9418 15.1907 15.9418C15.3185 15.9418 15.4464 15.9311 15.5742 15.9098C15.7021 15.8842 15.8001 15.8651 15.8683 15.8523L16.2965 17.8786C16.1602 17.9212 15.9684 17.9702 15.7212 18.0256C15.4741 18.0852 15.1737 18.1214 14.82 18.1342C14.1637 18.1598 13.5884 18.0724 13.0941 17.8722C12.604 17.6719 12.2227 17.3608 11.9499 16.9389C11.6772 16.517 11.543 15.9844 11.5472 15.3409V5.82955ZM22.2603 18.1918C21.2504 18.1918 20.381 17.9872 19.6523 17.5781C18.9279 17.1648 18.3697 16.581 17.9776 15.8267C17.5856 15.0682 17.3896 14.1712 17.3896 13.1357C17.3896 12.1257 17.5856 11.2393 17.9776 10.4766C18.3697 9.71378 18.9215 9.11932 19.6332 8.69318C20.3491 8.26705 21.1886 8.05398 22.1516 8.05398C22.7994 8.05398 23.4023 8.15838 23.9606 8.36719C24.5231 8.57173 25.0131 8.88068 25.4308 9.29403C25.8526 9.70739 26.1808 10.2273 26.4151 10.8537C26.6495 11.4759 26.7667 12.2045 26.7667 13.0398V13.7876H18.4762V12.1001H24.2035C24.2035 11.7081 24.1183 11.3608 23.9478 11.0582C23.7773 10.7557 23.5408 10.5192 23.2383 10.3487C22.94 10.174 22.5927 10.0866 22.1964 10.0866C21.783 10.0866 21.4165 10.1825 21.0969 10.3743C20.7816 10.5618 20.5344 10.8153 20.3555 11.1349C20.1765 11.4503 20.0849 11.8018 20.0806 12.1896V13.794C20.0806 14.2798 20.1701 14.6996 20.3491 15.0533C20.5323 15.407 20.7901 15.6797 21.1225 15.8714C21.4549 16.0632 21.8491 16.1591 22.305 16.1591C22.6076 16.1591 22.8846 16.1165 23.136 16.0312C23.3874 15.946 23.6026 15.8182 23.7816 15.6477C23.9606 15.4773 24.0969 15.2685 24.1907 15.0213L26.7092 15.1875C26.5813 15.7926 26.3192 16.321 25.9229 16.7727C25.5309 17.2202 25.0238 17.5696 24.4016 17.821C23.7837 18.0682 23.07 18.1918 22.2603 18.1918ZM28.5437 18V8.18182H31.1836V9.89489H31.2859C31.4648 9.28551 31.7653 8.82528 32.1871 8.5142C32.609 8.19886 33.0948 8.04119 33.6445 8.04119C33.7809 8.04119 33.9279 8.04972 34.0856 8.06676C34.2433 8.08381 34.3817 8.10724 34.5011 8.13707V10.5533C34.3732 10.5149 34.1964 10.4808 33.9705 10.451C33.7447 10.4212 33.538 10.4062 33.3505 10.4062C32.9499 10.4062 32.592 10.4936 32.2766 10.6683C31.9656 10.8388 31.7184 11.0774 31.5352 11.3842C31.3562 11.6911 31.2667 12.0447 31.2667 12.4453V18H28.5437ZM38.4274 18.1854C37.801 18.1854 37.2427 18.0767 36.7527 17.8594C36.2626 17.6378 35.8748 17.3118 35.5893 16.8814C35.3081 16.4467 35.1674 15.9055 35.1674 15.2578C35.1674 14.7124 35.2676 14.2543 35.4679 13.8835C35.6681 13.5128 35.9409 13.2145 36.286 12.9886C36.6312 12.7628 37.0233 12.5923 37.4622 12.4773C37.9054 12.3622 38.3699 12.2812 38.8556 12.2344C39.4267 12.1747 39.8869 12.1193 40.2363 12.0682C40.5858 12.0128 40.8393 11.9318 40.997 11.8253C41.1547 11.7187 41.2335 11.5611 41.2335 11.3523V11.3139C41.2335 10.9091 41.1056 10.5959 40.85 10.3743C40.5985 10.1527 40.2406 10.0419 39.7761 10.0419C39.286 10.0419 38.8961 10.1506 38.6064 10.3679C38.3166 10.581 38.1248 10.8494 38.0311 11.1733L35.5126 10.9688C35.6404 10.3722 35.8919 9.85653 36.2669 9.42188C36.6419 8.98295 37.1255 8.64631 37.7179 8.41193C38.3145 8.1733 39.0048 8.05398 39.7889 8.05398C40.3343 8.05398 40.8564 8.1179 41.3549 8.24574C41.8578 8.37358 42.3031 8.57173 42.6909 8.8402C43.0829 9.10866 43.3919 9.45384 43.6177 9.87571C43.8436 10.2933 43.9565 10.794 43.9565 11.3778V18H41.3741V16.6385H41.2974C41.1397 16.9453 40.9288 17.2159 40.6646 17.4503C40.4004 17.6804 40.0829 17.8615 39.7122 17.9936C39.3414 18.1214 38.9132 18.1854 38.4274 18.1854ZM39.2072 16.3061C39.6078 16.3061 39.9615 16.2273 40.2683 16.0696C40.5751 15.9077 40.8159 15.6903 40.9906 15.4176C41.1653 15.1449 41.2527 14.8359 41.2527 14.4908V13.4489C41.1674 13.5043 41.0502 13.5554 40.9011 13.6023C40.7562 13.6449 40.5922 13.6854 40.4089 13.7237C40.2257 13.7578 40.0424 13.7898 39.8592 13.8196C39.676 13.8452 39.5098 13.8686 39.3606 13.8899C39.041 13.9368 38.7619 14.0114 38.5233 14.1136C38.2846 14.2159 38.0993 14.3544 37.9672 14.5291C37.835 14.6996 37.769 14.9126 37.769 15.1683C37.769 15.5391 37.9032 15.8224 38.1717 16.0185C38.4444 16.2102 38.7896 16.3061 39.2072 16.3061ZM48.7921 4.90909V18H46.0691V4.90909H48.7921ZM57.0906 11.544V13.7045H51.1204V11.544H57.0906ZM68.5643 8.18182L65.1317 18H62.0636L58.631 8.18182H61.5075L63.5465 15.2067H63.6488L65.6815 8.18182H68.5643ZM72.4938 18.1854C71.8674 18.1854 71.3091 18.0767 70.8191 17.8594C70.329 17.6378 69.9412 17.3118 69.6557 16.8814C69.3745 16.4467 69.2338 15.9055 69.2338 15.2578C69.2338 14.7124 69.334 14.2543 69.5343 13.8835C69.7346 13.5128 70.0073 13.2145 70.3525 12.9886C70.6976 12.7628 71.0897 12.5923 71.5286 12.4773C71.9718 12.3622 72.4363 12.2812 72.9221 12.2344C73.4931 12.1747 73.9533 12.1193 74.3027 12.0682C74.6522 12.0128 74.9057 11.9318 75.0634 11.8253C75.2211 11.7187 75.2999 11.5611 75.2999 11.3523V11.3139C75.2999 10.9091 75.1721 10.5959 74.9164 10.3743C74.665 10.1527 74.307 10.0419 73.8425 10.0419C73.3525 10.0419 72.9625 10.1506 72.6728 10.3679C72.383 10.581 72.1912 10.8494 72.0975 11.1733L69.579 10.9688C69.7069 10.3722 69.9583 9.85653 70.3333 9.42188C70.7083 8.98295 71.1919 8.64631 71.7843 8.41193C72.3809 8.1733 73.0712 8.05398 73.8553 8.05398C74.4007 8.05398 74.9228 8.1179 75.4213 8.24574C75.9242 8.37358 76.3695 8.57173 76.7573 8.8402C77.1493 9.10866 77.4583 9.45384 77.6841 9.87571C77.91 10.2933 78.0229 10.794 78.0229 11.3778V18H75.4405V16.6385H75.3638C75.2061 16.9453 74.9952 17.2159 74.731 17.4503C74.4668 17.6804 74.1493 17.8615 73.7786 17.9936C73.4078 18.1214 72.9796 18.1854 72.4938 18.1854ZM73.2736 16.3061C73.6742 16.3061 74.0279 16.2273 74.3347 16.0696C74.6415 15.9077 74.8823 15.6903 75.057 15.4176C75.2317 15.1449 75.3191 14.8359 75.3191 14.4908V13.4489C75.2338 13.5043 75.1167 13.5554 74.9675 13.6023C74.8226 13.6449 74.6586 13.6854 74.4753 13.7237C74.2921 13.7578 74.1088 13.7898 73.9256 13.8196C73.7424 13.8452 73.5762 13.8686 73.427 13.8899C73.1074 13.9368 72.8283 14.0114 72.5897 14.1136C72.351 14.2159 72.1657 14.3544 72.0336 14.5291C71.9015 14.6996 71.8354 14.9126 71.8354 15.1683C71.8354 15.5391 71.9696 15.8224 72.2381 16.0185C72.5108 16.2102 72.856 16.3061 73.2736 16.3061ZM82.8585 4.90909V18H80.1355V4.90909H82.8585ZM91.3359 13.8196V8.18182H94.0589V18H91.4446V16.2166H91.3423C91.1207 16.7919 90.7521 17.2543 90.2365 17.6037C89.7251 17.9531 89.1009 18.1278 88.3636 18.1278C87.7074 18.1278 87.13 17.9787 86.6314 17.6804C86.1328 17.3821 85.7429 16.9581 85.4616 16.4084C85.1847 15.8587 85.044 15.2003 85.0398 14.4332V8.18182H87.7628V13.9474C87.767 14.527 87.9226 14.9851 88.2294 15.3217C88.5362 15.6584 88.9474 15.8267 89.4631 15.8267C89.7912 15.8267 90.098 15.7521 90.3835 15.603C90.669 15.4496 90.8991 15.2237 91.0739 14.9254C91.2528 14.6271 91.3402 14.2585 91.3359 13.8196ZM100.711 18.1918C99.7015 18.1918 98.8322 17.9872 98.1035 17.5781C97.3791 17.1648 96.8208 16.581 96.4288 15.8267C96.0368 15.0682 95.8407 14.1712 95.8407 13.1357C95.8407 12.1257 96.0368 11.2393 96.4288 10.4766C96.8208 9.71378 97.3727 9.11932 98.0843 8.69318C98.8002 8.26705 99.6397 8.05398 100.603 8.05398C101.251 8.05398 101.854 8.15838 102.412 8.36719C102.974 8.57173 103.464 8.88068 103.882 9.29403C104.304 9.70739 104.632 10.2273 104.866 10.8537C105.101 11.4759 105.218 12.2045 105.218 13.0398V13.7876H96.9274V12.1001H102.655C102.655 11.7081 102.569 11.3608 102.399 11.0582C102.229 10.7557 101.992 10.5192 101.689 10.3487C101.391 10.174 101.044 10.0866 100.648 10.0866C100.234 10.0866 99.8677 10.1825 99.5481 10.3743C99.2328 10.5618 98.9856 10.8153 98.8066 11.1349C98.6277 11.4503 98.536 11.8018 98.5318 12.1896V13.794C98.5318 14.2798 98.6213 14.6996 98.8002 15.0533C98.9835 15.407 99.2413 15.6797 99.5737 15.8714C99.9061 16.0632 100.3 16.1591 100.756 16.1591C101.059 16.1591 101.336 16.1165 101.587 16.0312C101.839 15.946 102.054 15.8182 102.233 15.6477C102.412 15.4773 102.548 15.2685 102.642 15.0213L105.16 15.1875C105.032 15.7926 104.77 16.321 104.374 16.7727C103.982 17.2202 103.475 17.5696 102.853 17.821C102.235 18.0682 101.521 18.1918 100.711 18.1918Z" fill="white"/>
<circle cx="4" cy="49" r="3.5" stroke="white"/>
<circle cx="298" cy="49" r="3.5" stroke="white"/>
<path d="M73 266L63 260.227V271.773L73 266ZM8 50H22.6899V48H8V50ZM31.6899 59V256H33.6899V59H31.6899ZM42.6899 267H64V265H42.6899V267ZM31.6899 256C31.6899 262.075 36.6148 267 42.6899 267V265C37.7194 265 33.6899 260.971 33.6899 256H31.6899ZM22.6899 50C27.6605 50 31.6899 54.0294 31.6899 59H33.6899C33.6899 52.9249 28.7651 48 22.6899 48V50Z" fill="white"/>
<path d="M71 136L61 130.226V141.774L71 136ZM8 50H22.1126V48H8V50ZM31.1126 59V126H33.1126V59H31.1126ZM42.1126 137H62V135H42.1126V137ZM31.1126 126C31.1126 132.075 36.0375 137 42.1126 137V135C37.1421 135 33.1126 130.971 33.1126 126H31.1126ZM22.1126 50C27.0832 50 31.1126 54.0294 31.1126 59H33.1126C33.1126 52.9249 28.1878 48 22.1126 48V50Z" fill="white"/>
<path d="M71 92L61 86.2265V97.7735L71 92ZM8 50H22.1126V48H8V50ZM31.1126 59V82H33.1126V59H31.1126ZM42.1126 93H62V91H42.1126V93ZM31.1126 82C31.1126 88.0751 36.0375 93 42.1126 93V91C37.1421 91 33.1126 86.9706 33.1126 82H31.1126ZM22.1126 50C27.0832 50 31.1126 54.0294 31.1126 59H33.1126C33.1126 52.9249 28.1878 48 22.1126 48V50Z" fill="white"/>
<path d="M72 179L62 173.226V184.773L72 179ZM8 50H22.304V48H8V50ZM31.304 59V169H33.304V59H31.304ZM42.304 180H63V178H42.304V180ZM31.304 169C31.304 175.075 36.2289 180 42.304 180V178C37.3334 178 33.304 173.971 33.304 169H31.304ZM22.304 50C27.2746 50 31.304 54.0294 31.304 59H33.304C33.304 52.9249 28.3791 48 22.304 48V50Z" fill="white"/>
<path d="M72 221L62 215.227V226.773L72 221ZM8 50H22.304V48H8V50ZM31.304 59V211H33.304V59H31.304ZM42.304 222H63V220H42.304V222ZM31.304 211C31.304 217.075 36.2289 222 42.304 222V220C37.3334 220 33.304 215.971 33.304 211H31.304ZM22.304 50C27.2746 50 31.304 54.0294 31.304 59H33.304C33.304 52.9249 28.3791 48 22.304 48V50Z" fill="white"/>
<path d="M89.1378 141V127.909H91.8608V132.831H91.9439C92.0632 132.567 92.2358 132.298 92.4616 132.026C92.6918 131.749 92.9901 131.518 93.3565 131.335C93.7273 131.148 94.1875 131.054 94.7372 131.054C95.4531 131.054 96.1136 131.241 96.7188 131.616C97.3239 131.987 97.8075 132.548 98.1697 133.298C98.532 134.043 98.7131 134.979 98.7131 136.104C98.7131 137.199 98.5362 138.124 98.1825 138.878C97.8331 139.628 97.3558 140.197 96.7507 140.585C96.1499 140.968 95.4766 141.16 94.7308 141.16C94.2024 141.16 93.7528 141.072 93.3821 140.898C93.0156 140.723 92.7152 140.504 92.4808 140.239C92.2464 139.971 92.0675 139.7 91.9439 139.428H91.8224V141H89.1378ZM91.8033 136.091C91.8033 136.675 91.8842 137.184 92.0462 137.619C92.2081 138.053 92.4425 138.392 92.7493 138.635C93.0561 138.874 93.429 138.993 93.8679 138.993C94.3111 138.993 94.6861 138.871 94.9929 138.629C95.2997 138.381 95.532 138.04 95.6896 137.606C95.8516 137.167 95.9325 136.662 95.9325 136.091C95.9325 135.524 95.8537 135.026 95.696 134.595C95.5384 134.165 95.3061 133.828 94.9993 133.585C94.6925 133.342 94.3153 133.221 93.8679 133.221C93.4247 133.221 93.0497 133.338 92.7429 133.572C92.4403 133.807 92.2081 134.139 92.0462 134.57C91.8842 135 91.8033 135.507 91.8033 136.091ZM103.253 127.909V141H100.53V127.909H103.253ZM109.87 141.192C108.877 141.192 108.019 140.981 107.294 140.559C106.574 140.133 106.018 139.54 105.626 138.782C105.234 138.019 105.038 137.135 105.038 136.129C105.038 135.115 105.234 134.229 105.626 133.47C106.018 132.707 106.574 132.115 107.294 131.693C108.019 131.267 108.877 131.054 109.87 131.054C110.863 131.054 111.72 131.267 112.44 131.693C113.164 132.115 113.723 132.707 114.115 133.47C114.507 134.229 114.703 135.115 114.703 136.129C114.703 137.135 114.507 138.019 114.115 138.782C113.723 139.54 113.164 140.133 112.44 140.559C111.72 140.981 110.863 141.192 109.87 141.192ZM109.883 139.082C110.335 139.082 110.712 138.955 111.015 138.699C111.317 138.439 111.545 138.085 111.699 137.638C111.856 137.19 111.935 136.681 111.935 136.11C111.935 135.539 111.856 135.03 111.699 134.582C111.545 134.135 111.317 133.781 111.015 133.521C110.712 133.261 110.335 133.131 109.883 133.131C109.427 133.131 109.044 133.261 108.733 133.521C108.426 133.781 108.194 134.135 108.036 134.582C107.882 135.03 107.806 135.539 107.806 136.11C107.806 136.681 107.882 137.19 108.036 137.638C108.194 138.085 108.426 138.439 108.733 138.699C109.044 138.955 109.427 139.082 109.883 139.082ZM116.525 141V127.909H119.248V132.831H119.331C119.45 132.567 119.623 132.298 119.848 132.026C120.078 131.749 120.377 131.518 120.743 131.335C121.114 131.148 121.574 131.054 122.124 131.054C122.84 131.054 123.5 131.241 124.105 131.616C124.711 131.987 125.194 132.548 125.556 133.298C125.919 134.043 126.1 134.979 126.1 136.104C126.1 137.199 125.923 138.124 125.569 138.878C125.22 139.628 124.743 140.197 124.137 140.585C123.537 140.968 122.863 141.16 122.118 141.16C121.589 141.16 121.14 141.072 120.769 140.898C120.402 140.723 120.102 140.504 119.868 140.239C119.633 139.971 119.454 139.7 119.331 139.428H119.209V141H116.525ZM119.19 136.091C119.19 136.675 119.271 137.184 119.433 137.619C119.595 138.053 119.829 138.392 120.136 138.635C120.443 138.874 120.816 138.993 121.255 138.993C121.698 138.993 122.073 138.871 122.38 138.629C122.686 138.381 122.919 138.04 123.076 137.606C123.238 137.167 123.319 136.662 123.319 136.091C123.319 135.524 123.24 135.026 123.083 134.595C122.925 134.165 122.693 133.828 122.386 133.585C122.079 133.342 121.702 133.221 121.255 133.221C120.811 133.221 120.436 133.338 120.13 133.572C119.827 133.807 119.595 134.139 119.433 134.57C119.271 135 119.19 135.507 119.19 136.091ZM134.034 134.544V136.705H128.064V134.544H134.034ZM139.077 127.909V141H136.354V127.909H139.077ZM141.259 141V131.182H143.982V141H141.259ZM142.626 129.916C142.222 129.916 141.874 129.782 141.585 129.513C141.299 129.241 141.156 128.915 141.156 128.536C141.156 128.161 141.299 127.839 141.585 127.57C141.874 127.298 142.222 127.161 142.626 127.161C143.031 127.161 143.376 127.298 143.662 127.57C143.952 127.839 144.097 128.161 144.097 128.536C144.097 128.915 143.952 129.241 143.662 129.513C143.376 129.782 143.031 129.916 142.626 129.916ZM151.385 131.182V133.227H145.472V131.182H151.385ZM146.815 128.83H149.538V137.983C149.538 138.234 149.576 138.43 149.653 138.571C149.73 138.707 149.836 138.803 149.972 138.859C150.113 138.914 150.275 138.942 150.458 138.942C150.586 138.942 150.714 138.931 150.842 138.91C150.97 138.884 151.068 138.865 151.136 138.852L151.564 140.879C151.428 140.921 151.236 140.97 150.989 141.026C150.742 141.085 150.441 141.121 150.088 141.134C149.431 141.16 148.856 141.072 148.362 140.872C147.872 140.672 147.49 140.361 147.218 139.939C146.945 139.517 146.811 138.984 146.815 138.341V128.83ZM157.528 141.192C156.518 141.192 155.649 140.987 154.92 140.578C154.195 140.165 153.637 139.581 153.245 138.827C152.853 138.068 152.657 137.171 152.657 136.136C152.657 135.126 152.853 134.239 153.245 133.477C153.637 132.714 154.189 132.119 154.901 131.693C155.617 131.267 156.456 131.054 157.419 131.054C158.067 131.054 158.67 131.158 159.228 131.367C159.791 131.572 160.281 131.881 160.698 132.294C161.12 132.707 161.448 133.227 161.683 133.854C161.917 134.476 162.034 135.205 162.034 136.04V136.788H153.744V135.1H159.471C159.471 134.708 159.386 134.361 159.215 134.058C159.045 133.756 158.808 133.519 158.506 133.349C158.208 133.174 157.86 133.087 157.464 133.087C157.051 133.087 156.684 133.183 156.365 133.374C156.049 133.562 155.802 133.815 155.623 134.135C155.444 134.45 155.352 134.802 155.348 135.19V136.794C155.348 137.28 155.438 137.7 155.617 138.053C155.8 138.407 156.058 138.68 156.39 138.871C156.722 139.063 157.117 139.159 157.573 139.159C157.875 139.159 158.152 139.116 158.404 139.031C158.655 138.946 158.87 138.818 159.049 138.648C159.228 138.477 159.365 138.268 159.458 138.021L161.977 138.188C161.849 138.793 161.587 139.321 161.191 139.773C160.798 140.22 160.291 140.57 159.669 140.821C159.051 141.068 158.338 141.192 157.528 141.192ZM163.811 141V131.182H166.451V132.895H166.553C166.732 132.286 167.033 131.825 167.455 131.514C167.877 131.199 168.362 131.041 168.912 131.041C169.048 131.041 169.195 131.05 169.353 131.067C169.511 131.084 169.649 131.107 169.769 131.137V133.553C169.641 133.515 169.464 133.481 169.238 133.451C169.012 133.421 168.806 133.406 168.618 133.406C168.218 133.406 167.86 133.494 167.544 133.668C167.233 133.839 166.986 134.077 166.803 134.384C166.624 134.691 166.534 135.045 166.534 135.445V141H163.811ZM173.695 141.185C173.069 141.185 172.51 141.077 172.02 140.859C171.53 140.638 171.142 140.312 170.857 139.881C170.576 139.447 170.435 138.906 170.435 138.258C170.435 137.712 170.535 137.254 170.735 136.884C170.936 136.513 171.208 136.214 171.554 135.989C171.899 135.763 172.291 135.592 172.73 135.477C173.173 135.362 173.637 135.281 174.123 135.234C174.694 135.175 175.154 135.119 175.504 135.068C175.853 135.013 176.107 134.932 176.265 134.825C176.422 134.719 176.501 134.561 176.501 134.352V134.314C176.501 133.909 176.373 133.596 176.118 133.374C175.866 133.153 175.508 133.042 175.044 133.042C174.554 133.042 174.164 133.151 173.874 133.368C173.584 133.581 173.392 133.849 173.299 134.173L170.78 133.969C170.908 133.372 171.159 132.857 171.534 132.422C171.909 131.983 172.393 131.646 172.985 131.412C173.582 131.173 174.272 131.054 175.056 131.054C175.602 131.054 176.124 131.118 176.623 131.246C177.125 131.374 177.571 131.572 177.958 131.84C178.35 132.109 178.659 132.454 178.885 132.876C179.111 133.293 179.224 133.794 179.224 134.378V141H176.642V139.638H176.565C176.407 139.945 176.196 140.216 175.932 140.45C175.668 140.68 175.35 140.862 174.98 140.994C174.609 141.121 174.181 141.185 173.695 141.185ZM174.475 139.306C174.875 139.306 175.229 139.227 175.536 139.07C175.843 138.908 176.083 138.69 176.258 138.418C176.433 138.145 176.52 137.836 176.52 137.491V136.449C176.435 136.504 176.318 136.555 176.169 136.602C176.024 136.645 175.86 136.685 175.676 136.724C175.493 136.758 175.31 136.79 175.127 136.82C174.944 136.845 174.777 136.869 174.628 136.89C174.309 136.937 174.029 137.011 173.791 137.114C173.552 137.216 173.367 137.354 173.235 137.529C173.103 137.7 173.037 137.913 173.037 138.168C173.037 138.539 173.171 138.822 173.439 139.018C173.712 139.21 174.057 139.306 174.475 139.306ZM184.06 127.909V141H181.337V127.909H184.06Z" fill="white"/>
<rect x="73.5" y="118.5" width="125" height="32" rx="16" stroke="white"/>
<path d="M88.6392 216.191V213.909H99.3906V216.191H95.3828V227H92.647V216.191H88.6392ZM101.161 227V213.909H106.326C107.315 213.909 108.158 214.086 108.857 214.44C109.56 214.789 110.095 215.286 110.462 215.929C110.832 216.568 111.018 217.32 111.018 218.185C111.018 219.055 110.83 219.803 110.455 220.429C110.08 221.051 109.537 221.528 108.825 221.861C108.118 222.193 107.261 222.359 106.256 222.359H102.798V220.135H105.808C106.337 220.135 106.776 220.062 107.125 219.918C107.474 219.773 107.734 219.555 107.905 219.266C108.08 218.976 108.167 218.616 108.167 218.185C108.167 217.751 108.08 217.384 107.905 217.086C107.734 216.788 107.472 216.562 107.119 216.408C106.769 216.251 106.328 216.172 105.795 216.172H103.929V227H101.161ZM108.231 221.043L111.484 227H108.429L105.246 221.043H108.231ZM121.06 213.909H123.827V222.411C123.827 223.365 123.599 224.2 123.143 224.916C122.692 225.632 122.059 226.19 121.245 226.591C120.431 226.987 119.483 227.185 118.401 227.185C117.314 227.185 116.364 226.987 115.55 226.591C114.736 226.19 114.103 225.632 113.651 224.916C113.2 224.2 112.974 223.365 112.974 222.411V213.909H115.741V222.174C115.741 222.673 115.85 223.116 116.067 223.504C116.289 223.891 116.6 224.196 117.001 224.418C117.401 224.639 117.868 224.75 118.401 224.75C118.938 224.75 119.404 224.639 119.8 224.418C120.201 224.196 120.51 223.891 120.727 223.504C120.949 223.116 121.06 222.673 121.06 222.174V213.909ZM126.105 227V213.909H134.926V216.191H128.872V219.31H134.472V221.592H128.872V224.718H134.951V227H126.105Z" fill="white"/>
<rect x="73.5" y="204.5" width="79" height="32" rx="16" stroke="white"/>
<path d="M100.087 170.909V184H97.6967L92.0014 175.761H91.9055V184H89.1378V170.909H91.5668L97.2173 179.142H97.3324V170.909H100.087ZM110.46 170.909H113.228V179.411C113.228 180.365 113 181.2 112.544 181.916C112.092 182.632 111.459 183.19 110.645 183.591C109.831 183.987 108.883 184.185 107.801 184.185C106.714 184.185 105.764 183.987 104.95 183.591C104.136 183.19 103.503 182.632 103.052 181.916C102.6 181.2 102.374 180.365 102.374 179.411V170.909H105.142V179.174C105.142 179.673 105.251 180.116 105.468 180.504C105.689 180.891 106.001 181.196 106.401 181.418C106.802 181.639 107.268 181.75 107.801 181.75C108.338 181.75 108.805 181.639 109.201 181.418C109.601 181.196 109.91 180.891 110.128 180.504C110.349 180.116 110.46 179.673 110.46 179.174V170.909ZM115.505 184V170.909H118.273V181.718H123.885V184H115.505ZM125.718 184V170.909H128.486V181.718H134.098V184H125.718Z" fill="white"/>
<rect x="73.5" y="161.5" width="72" height="32" rx="16" stroke="white"/>
<path d="M91.8097 49.3239V55H89.0866V45.1818H91.6818V46.9141H91.7969C92.0142 46.343 92.3786 45.8913 92.8899 45.5589C93.4013 45.2223 94.0213 45.054 94.75 45.054C95.4318 45.054 96.0263 45.2031 96.5334 45.5014C97.0405 45.7997 97.4347 46.2259 97.7159 46.7798C97.9972 47.3295 98.1378 47.9858 98.1378 48.7486V55H95.4148V49.2344C95.419 48.6335 95.2656 48.1648 94.9545 47.8281C94.6435 47.4872 94.2152 47.3168 93.6697 47.3168C93.3033 47.3168 92.9794 47.3956 92.6982 47.5533C92.4212 47.7109 92.2038 47.9411 92.0462 48.2436C91.8928 48.5419 91.8139 48.902 91.8097 49.3239ZM106.58 50.8196V45.1818H109.303V55H106.689V53.2166H106.586C106.365 53.7919 105.996 54.2543 105.481 54.6037C104.969 54.9531 104.345 55.1278 103.608 55.1278C102.952 55.1278 102.374 54.9787 101.876 54.6804C101.377 54.3821 100.987 53.9581 100.706 53.4084C100.429 52.8587 100.288 52.2003 100.284 51.4332V45.1818H103.007V50.9474C103.011 51.527 103.167 51.9851 103.474 52.3217C103.78 52.6584 104.192 52.8267 104.707 52.8267C105.035 52.8267 105.342 52.7521 105.628 52.603C105.913 52.4496 106.143 52.2237 106.318 51.9254C106.497 51.6271 106.584 51.2585 106.58 50.8196ZM111.481 55V45.1818H114.076V46.9141H114.191C114.396 46.3388 114.737 45.8849 115.214 45.5526C115.691 45.2202 116.262 45.054 116.927 45.054C117.6 45.054 118.174 45.2223 118.647 45.5589C119.12 45.8913 119.435 46.343 119.593 46.9141H119.695C119.895 46.3516 120.257 45.902 120.782 45.5653C121.31 45.2244 121.934 45.054 122.654 45.054C123.571 45.054 124.314 45.3459 124.885 45.9297C125.461 46.5092 125.748 47.3317 125.748 48.397V55H123.032V48.9339C123.032 48.3885 122.887 47.9794 122.597 47.7067C122.307 47.4339 121.945 47.2976 121.51 47.2976C121.016 47.2976 120.63 47.4553 120.353 47.7706C120.076 48.0817 119.938 48.4929 119.938 49.0043V55H117.298V48.8764C117.298 48.3949 117.159 48.0114 116.882 47.7259C116.61 47.4403 116.25 47.2976 115.802 47.2976C115.5 47.2976 115.227 47.3743 114.984 47.5277C114.745 47.6768 114.556 47.8878 114.415 48.1605C114.275 48.429 114.204 48.7443 114.204 49.1065V55H111.481ZM132.374 55.1918C131.364 55.1918 130.494 54.9872 129.766 54.5781C129.041 54.1648 128.483 53.581 128.091 52.8267C127.699 52.0682 127.503 51.1712 127.503 50.1357C127.503 49.1257 127.699 48.2393 128.091 47.4766C128.483 46.7138 129.035 46.1193 129.746 45.6932C130.462 45.267 131.302 45.054 132.265 45.054C132.913 45.054 133.516 45.1584 134.074 45.3672C134.636 45.5717 135.126 45.8807 135.544 46.294C135.966 46.7074 136.294 47.2273 136.528 47.8537C136.763 48.4759 136.88 49.2045 136.88 50.0398V50.7876H128.589V49.1001H134.317C134.317 48.7081 134.232 48.3608 134.061 48.0582C133.891 47.7557 133.654 47.5192 133.352 47.3487C133.053 47.174 132.706 47.0866 132.31 47.0866C131.896 47.0866 131.53 47.1825 131.21 47.3743C130.895 47.5618 130.648 47.8153 130.469 48.1349C130.29 48.4503 130.198 48.8018 130.194 49.1896V50.794C130.194 51.2798 130.283 51.6996 130.462 52.0533C130.646 52.407 130.903 52.6797 131.236 52.8714C131.568 53.0632 131.962 53.1591 132.418 53.1591C132.721 53.1591 132.998 53.1165 133.249 53.0312C133.501 52.946 133.716 52.8182 133.895 52.6477C134.074 52.4773 134.21 52.2685 134.304 52.0213L136.822 52.1875C136.695 52.7926 136.433 53.321 136.036 53.7727C135.644 54.2202 135.137 54.5696 134.515 54.821C133.897 55.0682 133.183 55.1918 132.374 55.1918ZM138.657 55V45.1818H141.297V46.8949H141.399C141.578 46.2855 141.879 45.8253 142.3 45.5142C142.722 45.1989 143.208 45.0412 143.758 45.0412C143.894 45.0412 144.041 45.0497 144.199 45.0668C144.357 45.0838 144.495 45.1072 144.614 45.1371V47.5533C144.487 47.5149 144.31 47.4808 144.084 47.451C143.858 47.4212 143.651 47.4062 143.464 47.4062C143.063 47.4062 142.705 47.4936 142.39 47.6683C142.079 47.8388 141.832 48.0774 141.648 48.3842C141.469 48.6911 141.38 49.0447 141.38 49.4453V55H138.657ZM146.022 55V45.1818H148.745V55H146.022ZM147.39 43.9162C146.985 43.9162 146.638 43.782 146.348 43.5135C146.063 43.2408 145.92 42.9148 145.92 42.5355C145.92 42.1605 146.063 41.8388 146.348 41.5703C146.638 41.2976 146.985 41.1612 147.39 41.1612C147.795 41.1612 148.14 41.2976 148.426 41.5703C148.715 41.8388 148.86 42.1605 148.86 42.5355C148.86 42.9148 148.715 43.2408 148.426 43.5135C148.14 43.782 147.795 43.9162 147.39 43.9162ZM155.363 55.1918C154.357 55.1918 153.492 54.9787 152.767 54.5526C152.047 54.1222 151.493 53.5256 151.105 52.7628C150.722 52 150.53 51.1222 150.53 50.1293C150.53 49.1236 150.724 48.2415 151.112 47.483C151.504 46.7202 152.06 46.1257 152.78 45.6996C153.5 45.2692 154.357 45.054 155.35 45.054C156.206 45.054 156.956 45.2095 157.6 45.5206C158.243 45.8317 158.752 46.2685 159.127 46.831C159.502 47.3935 159.709 48.054 159.748 48.8125H157.178C157.105 48.3224 156.914 47.9283 156.603 47.63C156.296 47.3274 155.893 47.1761 155.395 47.1761C154.973 47.1761 154.604 47.2912 154.289 47.5213C153.978 47.7472 153.735 48.0774 153.56 48.5121C153.385 48.9467 153.298 49.473 153.298 50.0909C153.298 50.7173 153.383 51.25 153.554 51.6889C153.728 52.1278 153.973 52.4624 154.289 52.6925C154.604 52.9226 154.973 53.0376 155.395 53.0376C155.706 53.0376 155.985 52.9737 156.232 52.8459C156.483 52.718 156.69 52.5327 156.852 52.2898C157.018 52.0426 157.127 51.7464 157.178 51.4013H159.748C159.705 52.1513 159.5 52.8118 159.134 53.3828C158.772 53.9496 158.271 54.3928 157.632 54.7124C156.993 55.032 156.236 55.1918 155.363 55.1918ZM167.608 48.544V50.7045H161.638V48.544H167.608ZM172.651 41.9091V55H169.928V41.9091H172.651ZM174.833 55V45.1818H177.556V55H174.833ZM176.201 43.9162C175.796 43.9162 175.449 43.782 175.159 43.5135C174.873 43.2408 174.73 42.9148 174.73 42.5355C174.73 42.1605 174.873 41.8388 175.159 41.5703C175.449 41.2976 175.796 41.1612 176.201 41.1612C176.605 41.1612 176.951 41.2976 177.236 41.5703C177.526 41.8388 177.671 42.1605 177.671 42.5355C177.671 42.9148 177.526 43.2408 177.236 43.5135C176.951 43.782 176.605 43.9162 176.201 43.9162ZM184.959 45.1818V47.2273H179.047V45.1818H184.959ZM180.389 42.8295H183.112V51.983C183.112 52.2344 183.15 52.4304 183.227 52.571C183.304 52.7074 183.41 52.8033 183.547 52.8587C183.687 52.9141 183.849 52.9418 184.032 52.9418C184.16 52.9418 184.288 52.9311 184.416 52.9098C184.544 52.8842 184.642 52.8651 184.71 52.8523L185.138 54.8786C185.002 54.9212 184.81 54.9702 184.563 55.0256C184.316 55.0852 184.015 55.1214 183.662 55.1342C183.006 55.1598 182.43 55.0724 181.936 54.8722C181.446 54.6719 181.064 54.3608 180.792 53.9389C180.519 53.517 180.385 52.9844 180.389 52.3409V42.8295ZM191.102 55.1918C190.092 55.1918 189.223 54.9872 188.494 54.5781C187.77 54.1648 187.211 53.581 186.819 52.8267C186.427 52.0682 186.231 51.1712 186.231 50.1357C186.231 49.1257 186.427 48.2393 186.819 47.4766C187.211 46.7138 187.763 46.1193 188.475 45.6932C189.191 45.267 190.03 45.054 190.993 45.054C191.641 45.054 192.244 45.1584 192.802 45.3672C193.365 45.5717 193.855 45.8807 194.273 46.294C194.694 46.7074 195.023 47.2273 195.257 47.8537C195.491 48.4759 195.608 49.2045 195.608 50.0398V50.7876H187.318V49.1001H193.045C193.045 48.7081 192.96 48.3608 192.79 48.0582C192.619 47.7557 192.383 47.5192 192.08 47.3487C191.782 47.174 191.434 47.0866 191.038 47.0866C190.625 47.0866 190.258 47.1825 189.939 47.3743C189.623 47.5618 189.376 47.8153 189.197 48.1349C189.018 48.4503 188.927 48.8018 188.922 49.1896V50.794C188.922 51.2798 189.012 51.6996 189.191 52.0533C189.374 52.407 189.632 52.6797 189.964 52.8714C190.297 53.0632 190.691 53.1591 191.147 53.1591C191.449 53.1591 191.726 53.1165 191.978 53.0312C192.229 52.946 192.444 52.8182 192.623 52.6477C192.802 52.4773 192.939 52.2685 193.032 52.0213L195.551 52.1875C195.423 52.7926 195.161 53.321 194.765 53.7727C194.373 54.2202 193.866 54.5696 193.243 54.821C192.626 55.0682 191.912 55.1918 191.102 55.1918ZM197.385 55V45.1818H200.025V46.8949H200.128C200.307 46.2855 200.607 45.8253 201.029 45.5142C201.451 45.1989 201.937 45.0412 202.486 45.0412C202.623 45.0412 202.77 45.0497 202.927 45.0668C203.085 45.0838 203.224 45.1072 203.343 45.1371V47.5533C203.215 47.5149 203.038 47.4808 202.812 47.451C202.586 47.4212 202.38 47.4062 202.192 47.4062C201.792 47.4062 201.434 47.4936 201.118 47.6683C200.807 47.8388 200.56 48.0774 200.377 48.3842C200.198 48.6911 200.108 49.0447 200.108 49.4453V55H197.385ZM207.269 55.1854C206.643 55.1854 206.085 55.0767 205.594 54.8594C205.104 54.6378 204.717 54.3118 204.431 53.8814C204.15 53.4467 204.009 52.9055 204.009 52.2578C204.009 51.7124 204.109 51.2543 204.31 50.8835C204.51 50.5128 204.783 50.2145 205.128 49.9886C205.473 49.7628 205.865 49.5923 206.304 49.4773C206.747 49.3622 207.212 49.2812 207.697 49.2344C208.268 49.1747 208.729 49.1193 209.078 49.0682C209.428 49.0128 209.681 48.9318 209.839 48.8253C209.996 48.7187 210.075 48.5611 210.075 48.3523V48.3139C210.075 47.9091 209.947 47.5959 209.692 47.3743C209.44 47.1527 209.082 47.0419 208.618 47.0419C208.128 47.0419 207.738 47.1506 207.448 47.3679C207.158 47.581 206.967 47.8494 206.873 48.1733L204.354 47.9688C204.482 47.3722 204.734 46.8565 205.109 46.4219C205.484 45.983 205.967 45.6463 206.56 45.4119C207.156 45.1733 207.847 45.054 208.631 45.054C209.176 45.054 209.698 45.1179 210.197 45.2457C210.7 45.3736 211.145 45.5717 211.533 45.8402C211.925 46.1087 212.234 46.4538 212.46 46.8757C212.685 47.2933 212.798 47.794 212.798 48.3778V55H210.216V53.6385H210.139C209.982 53.9453 209.771 54.2159 209.506 54.4503C209.242 54.6804 208.925 54.8615 208.554 54.9936C208.183 55.1214 207.755 55.1854 207.269 55.1854ZM208.049 53.3061C208.45 53.3061 208.803 53.2273 209.11 53.0696C209.417 52.9077 209.658 52.6903 209.832 52.4176C210.007 52.1449 210.094 51.8359 210.094 51.4908V50.4489C210.009 50.5043 209.892 50.5554 209.743 50.6023C209.598 50.6449 209.434 50.6854 209.251 50.7237C209.067 50.7578 208.884 50.7898 208.701 50.8196C208.518 50.8452 208.352 50.8686 208.202 50.8899C207.883 50.9368 207.604 51.0114 207.365 51.1136C207.126 51.2159 206.941 51.3544 206.809 51.5291C206.677 51.6996 206.611 51.9126 206.611 52.1683C206.611 52.5391 206.745 52.8224 207.013 53.0185C207.286 53.2102 207.631 53.3061 208.049 53.3061ZM217.634 41.9091V55H214.911V41.9091H217.634Z" fill="white"/>
<rect x="73.5" y="32.5" width="159" height="32" rx="16" stroke="white"/>
<path d="M97.2557 90.9815L94.7628 91.1349C94.7202 90.9219 94.6286 90.7301 94.4879 90.5597C94.3473 90.3849 94.1619 90.2464 93.9318 90.1442C93.706 90.0376 93.4354 89.9844 93.12 89.9844C92.6982 89.9844 92.3423 90.0739 92.0526 90.2528C91.7628 90.4276 91.6179 90.6619 91.6179 90.956C91.6179 91.1903 91.7116 91.3885 91.8991 91.5504C92.0866 91.7124 92.4084 91.8423 92.8643 91.9403L94.6413 92.2983C95.5959 92.4943 96.3075 92.8097 96.7763 93.2443C97.245 93.679 97.4794 94.25 97.4794 94.9574C97.4794 95.6009 97.2898 96.1655 96.9105 96.6513C96.5355 97.1371 96.0199 97.5163 95.3636 97.7891C94.7116 98.0575 93.9595 98.1918 93.1072 98.1918C91.8075 98.1918 90.772 97.9212 90.0007 97.38C89.2337 96.8345 88.7841 96.093 88.652 95.1555L91.3303 95.0149C91.4112 95.4112 91.6072 95.7138 91.9183 95.9226C92.2294 96.1271 92.6278 96.2294 93.1136 96.2294C93.5909 96.2294 93.9744 96.1378 94.2642 95.9545C94.5582 95.767 94.7074 95.5263 94.7116 95.2322C94.7074 94.9851 94.603 94.7827 94.3984 94.625C94.1939 94.4631 93.8786 94.3395 93.4524 94.2543L91.7521 93.9155C90.7933 93.7237 90.0795 93.3913 89.6108 92.9183C89.1463 92.4453 88.9141 91.8423 88.9141 91.1094C88.9141 90.4787 89.0845 89.9354 89.4254 89.4794C89.7706 89.0234 90.2543 88.6719 90.8764 88.4247C91.5028 88.1776 92.2358 88.054 93.0753 88.054C94.3153 88.054 95.2912 88.3161 96.0028 88.8402C96.7188 89.3643 97.1364 90.0781 97.2557 90.9815ZM104.416 88.1818V90.2273H98.5037V88.1818H104.416ZM99.8461 85.8295H102.569V94.983C102.569 95.2344 102.607 95.4304 102.684 95.571C102.761 95.7074 102.867 95.8033 103.004 95.8587C103.144 95.9141 103.306 95.9418 103.49 95.9418C103.617 95.9418 103.745 95.9311 103.873 95.9098C104.001 95.8842 104.099 95.8651 104.167 95.8523L104.595 97.8786C104.459 97.9212 104.267 97.9702 104.02 98.0256C103.773 98.0852 103.472 98.1214 103.119 98.1342C102.463 98.1598 101.887 98.0724 101.393 97.8722C100.903 97.6719 100.521 97.3608 100.249 96.9389C99.976 96.517 99.8418 95.9844 99.8461 95.3409V85.8295ZM106.19 98V88.1818H108.83V89.8949H108.932C109.111 89.2855 109.412 88.8253 109.834 88.5142C110.256 88.1989 110.741 88.0412 111.291 88.0412C111.427 88.0412 111.574 88.0497 111.732 88.0668C111.89 88.0838 112.028 88.1072 112.148 88.1371V90.5533C112.02 90.5149 111.843 90.4808 111.617 90.451C111.391 90.4212 111.184 90.4062 110.997 90.4062C110.596 90.4062 110.238 90.4936 109.923 90.6683C109.612 90.8388 109.365 91.0774 109.182 91.3842C109.003 91.6911 108.913 92.0447 108.913 92.4453V98H106.19ZM113.555 98V88.1818H116.278V98H113.555ZM114.923 86.9162C114.518 86.9162 114.171 86.782 113.881 86.5135C113.596 86.2408 113.453 85.9148 113.453 85.5355C113.453 85.1605 113.596 84.8388 113.881 84.5703C114.171 84.2976 114.518 84.1612 114.923 84.1612C115.328 84.1612 115.673 84.2976 115.959 84.5703C116.249 84.8388 116.393 85.1605 116.393 85.5355C116.393 85.9148 116.249 86.2408 115.959 86.5135C115.673 86.782 115.328 86.9162 114.923 86.9162ZM121.183 92.3239V98H118.46V88.1818H121.055V89.9141H121.17C121.387 89.343 121.752 88.8913 122.263 88.5589C122.774 88.2223 123.394 88.054 124.123 88.054C124.805 88.054 125.399 88.2031 125.906 88.5014C126.414 88.7997 126.808 89.2259 127.089 89.7798C127.37 90.3295 127.511 90.9858 127.511 91.7486V98H124.788V92.2344C124.792 91.6335 124.639 91.1648 124.328 90.8281C124.017 90.4872 123.588 90.3168 123.043 90.3168C122.676 90.3168 122.352 90.3956 122.071 90.5533C121.794 90.7109 121.577 90.9411 121.419 91.2436C121.266 91.5419 121.187 91.902 121.183 92.3239ZM134.08 101.886C133.198 101.886 132.442 101.765 131.811 101.522C131.185 101.283 130.686 100.957 130.315 100.544C129.945 100.131 129.704 99.6662 129.593 99.1506L132.112 98.8118C132.188 99.0078 132.31 99.1911 132.476 99.3615C132.642 99.532 132.862 99.6683 133.134 99.7706C133.411 99.8771 133.748 99.9304 134.144 99.9304C134.737 99.9304 135.224 99.7855 135.608 99.4957C135.996 99.2102 136.19 98.7308 136.19 98.0575V96.2614H136.075C135.955 96.5341 135.776 96.7919 135.538 97.0348C135.299 97.2777 134.992 97.4759 134.617 97.6293C134.242 97.7827 133.795 97.8594 133.275 97.8594C132.538 97.8594 131.866 97.6889 131.261 97.348C130.661 97.0028 130.181 96.4766 129.823 95.7692C129.469 95.0575 129.293 94.1584 129.293 93.0717C129.293 91.9595 129.474 91.0305 129.836 90.2848C130.198 89.5391 130.68 88.9808 131.281 88.6101C131.886 88.2393 132.548 88.054 133.268 88.054C133.818 88.054 134.278 88.1477 134.649 88.3352C135.02 88.5185 135.318 88.7486 135.544 89.0256C135.774 89.2983 135.951 89.5668 136.075 89.831H136.177V88.1818H138.881V98.0959C138.881 98.9311 138.676 99.63 138.267 100.192C137.858 100.755 137.291 101.177 136.567 101.458C135.847 101.744 135.018 101.886 134.08 101.886ZM134.138 95.8139C134.577 95.8139 134.947 95.7053 135.25 95.4879C135.557 95.2663 135.791 94.951 135.953 94.5419C136.119 94.1286 136.202 93.6342 136.202 93.0589C136.202 92.4837 136.121 91.9851 135.96 91.5632C135.798 91.1371 135.563 90.8068 135.256 90.5724C134.95 90.3381 134.577 90.2209 134.138 90.2209C133.69 90.2209 133.313 90.3423 133.006 90.5852C132.7 90.8239 132.467 91.1562 132.31 91.5824C132.152 92.0085 132.073 92.5007 132.073 93.0589C132.073 93.6257 132.152 94.1158 132.31 94.5291C132.472 94.9382 132.704 95.2557 133.006 95.4815C133.313 95.7031 133.69 95.8139 134.138 95.8139ZM147.165 91.544V93.7045H141.195V91.544H147.165ZM152.208 84.9091V98H149.485V84.9091H152.208ZM154.389 98V88.1818H157.112V98H154.389ZM155.757 86.9162C155.352 86.9162 155.005 86.782 154.715 86.5135C154.43 86.2408 154.287 85.9148 154.287 85.5355C154.287 85.1605 154.43 84.8388 154.715 84.5703C155.005 84.2976 155.352 84.1612 155.757 84.1612C156.162 84.1612 156.507 84.2976 156.793 84.5703C157.083 84.8388 157.227 85.1605 157.227 85.5355C157.227 85.9148 157.083 86.2408 156.793 86.5135C156.507 86.782 156.162 86.9162 155.757 86.9162ZM164.516 88.1818V90.2273H158.603V88.1818H164.516ZM159.946 85.8295H162.669V94.983C162.669 95.2344 162.707 95.4304 162.784 95.571C162.86 95.7074 162.967 95.8033 163.103 95.8587C163.244 95.9141 163.406 95.9418 163.589 95.9418C163.717 95.9418 163.845 95.9311 163.973 95.9098C164.1 95.8842 164.199 95.8651 164.267 95.8523L164.695 97.8786C164.559 97.9212 164.367 97.9702 164.12 98.0256C163.873 98.0852 163.572 98.1214 163.218 98.1342C162.562 98.1598 161.987 98.0724 161.493 97.8722C161.002 97.6719 160.621 97.3608 160.348 96.9389C160.076 96.517 159.941 95.9844 159.946 95.3409V85.8295ZM170.659 98.1918C169.649 98.1918 168.779 97.9872 168.051 97.5781C167.326 97.1648 166.768 96.581 166.376 95.8267C165.984 95.0682 165.788 94.1712 165.788 93.1357C165.788 92.1257 165.984 91.2393 166.376 90.4766C166.768 89.7138 167.32 89.1193 168.032 88.6932C168.748 88.267 169.587 88.054 170.55 88.054C171.198 88.054 171.801 88.1584 172.359 88.3672C172.922 88.5717 173.412 88.8807 173.829 89.294C174.251 89.7074 174.579 90.2273 174.814 90.8537C175.048 91.4759 175.165 92.2045 175.165 93.0398V93.7876H166.875V92.1001H172.602C172.602 91.7081 172.517 91.3608 172.346 91.0582C172.176 90.7557 171.939 90.5192 171.637 90.3487C171.338 90.174 170.991 90.0866 170.595 90.0866C170.181 90.0866 169.815 90.1825 169.495 90.3743C169.18 90.5618 168.933 90.8153 168.754 91.1349C168.575 91.4503 168.483 91.8018 168.479 92.1896V93.794C168.479 94.2798 168.569 94.6996 168.748 95.0533C168.931 95.407 169.189 95.6797 169.521 95.8714C169.853 96.0632 170.248 96.1591 170.703 96.1591C171.006 96.1591 171.283 96.1165 171.534 96.0312C171.786 95.946 172.001 95.8182 172.18 95.6477C172.359 95.4773 172.495 95.2685 172.589 95.0213L175.108 95.1875C174.98 95.7926 174.718 96.321 174.321 96.7727C173.929 97.2202 173.422 97.5696 172.8 97.821C172.182 98.0682 171.468 98.1918 170.659 98.1918ZM176.942 98V88.1818H179.582V89.8949H179.684C179.863 89.2855 180.164 88.8253 180.586 88.5142C181.007 88.1989 181.493 88.0412 182.043 88.0412C182.179 88.0412 182.326 88.0497 182.484 88.0668C182.642 88.0838 182.78 88.1072 182.9 88.1371V90.5533C182.772 90.5149 182.595 90.4808 182.369 90.451C182.143 90.4212 181.936 90.4062 181.749 90.4062C181.348 90.4062 180.99 90.4936 180.675 90.6683C180.364 90.8388 180.117 91.0774 179.934 91.3842C179.755 91.6911 179.665 92.0447 179.665 92.4453V98H176.942ZM186.826 98.1854C186.199 98.1854 185.641 98.0767 185.151 97.8594C184.661 97.6378 184.273 97.3118 183.988 96.8814C183.706 96.4467 183.566 95.9055 183.566 95.2578C183.566 94.7124 183.666 94.2543 183.866 93.8835C184.067 93.5128 184.339 93.2145 184.684 92.9886C185.03 92.7628 185.422 92.5923 185.861 92.4773C186.304 92.3622 186.768 92.2812 187.254 92.2344C187.825 92.1747 188.285 92.1193 188.635 92.0682C188.984 92.0128 189.238 91.9318 189.395 91.8253C189.553 91.7187 189.632 91.5611 189.632 91.3523V91.3139C189.632 90.9091 189.504 90.5959 189.248 90.3743C188.997 90.1527 188.639 90.0419 188.175 90.0419C187.684 90.0419 187.295 90.1506 187.005 90.3679C186.715 90.581 186.523 90.8494 186.43 91.1733L183.911 90.9688C184.039 90.3722 184.29 89.8565 184.665 89.4219C185.04 88.983 185.524 88.6463 186.116 88.4119C186.713 88.1733 187.403 88.054 188.187 88.054C188.733 88.054 189.255 88.1179 189.753 88.2457C190.256 88.3736 190.702 88.5717 191.089 88.8402C191.481 89.1087 191.79 89.4538 192.016 89.8757C192.242 90.2933 192.355 90.794 192.355 91.3778V98H189.773V96.6385H189.696C189.538 96.9453 189.327 97.2159 189.063 97.4503C188.799 97.6804 188.481 97.8615 188.111 97.9936C187.74 98.1214 187.312 98.1854 186.826 98.1854ZM187.606 96.3061C188.006 96.3061 188.36 96.2273 188.667 96.0696C188.974 95.9077 189.214 95.6903 189.389 95.4176C189.564 95.1449 189.651 94.8359 189.651 94.4908V93.4489C189.566 93.5043 189.449 93.5554 189.3 93.6023C189.155 93.6449 188.991 93.6854 188.807 93.7237C188.624 93.7578 188.441 93.7898 188.258 93.8196C188.074 93.8452 187.908 93.8686 187.759 93.8899C187.439 93.9368 187.16 94.0114 186.922 94.1136C186.683 94.2159 186.498 94.3544 186.366 94.5291C186.233 94.6996 186.167 94.9126 186.167 95.1683C186.167 95.5391 186.302 95.8224 186.57 96.0185C186.843 96.2102 187.188 96.3061 187.606 96.3061ZM197.191 84.9091V98H194.468V84.9091H197.191Z" fill="white"/>
<rect x="73.5" y="75.5" width="139" height="32" rx="16" stroke="white"/>
<path d="M89.1378 270V256.909H97.8054V259.191H91.9055V262.31H97.2301V264.592H91.9055V270H89.1378ZM100.289 270H97.3228L101.842 256.909H105.409L109.922 270H106.956L103.676 259.901H103.574L100.289 270ZM100.103 264.854H107.109V267.015H100.103V264.854ZM111.497 270V256.909H114.265V267.718H119.877V270H111.497ZM128.812 260.674C128.76 260.158 128.541 259.758 128.153 259.472C127.765 259.187 127.239 259.044 126.574 259.044C126.123 259.044 125.741 259.108 125.43 259.236C125.119 259.359 124.881 259.532 124.714 259.754C124.552 259.975 124.471 260.227 124.471 260.508C124.463 260.742 124.512 260.947 124.618 261.121C124.729 261.296 124.881 261.447 125.072 261.575C125.264 261.699 125.486 261.808 125.737 261.901C125.988 261.991 126.257 262.067 126.542 262.131L127.719 262.413C128.29 262.54 128.814 262.711 129.291 262.924C129.768 263.137 130.182 263.399 130.531 263.71C130.881 264.021 131.151 264.388 131.343 264.81C131.539 265.232 131.639 265.715 131.643 266.261C131.639 267.062 131.434 267.756 131.03 268.344C130.629 268.928 130.05 269.382 129.291 269.706C128.537 270.026 127.627 270.185 126.562 270.185C125.505 270.185 124.584 270.023 123.8 269.7C123.02 269.376 122.411 268.896 121.972 268.261C121.537 267.622 121.309 266.832 121.288 265.89H123.966C123.996 266.329 124.122 266.695 124.344 266.989C124.569 267.279 124.87 267.499 125.245 267.648C125.624 267.793 126.052 267.865 126.53 267.865C126.998 267.865 127.405 267.797 127.751 267.661C128.1 267.524 128.371 267.335 128.562 267.092C128.754 266.849 128.85 266.57 128.85 266.254C128.85 265.96 128.763 265.713 128.588 265.513C128.417 265.312 128.166 265.142 127.834 265.001C127.506 264.861 127.103 264.733 126.626 264.618L125.2 264.26C124.096 263.991 123.225 263.572 122.586 263.001C121.947 262.43 121.629 261.661 121.633 260.693C121.629 259.901 121.84 259.208 122.266 258.616C122.697 258.023 123.287 257.561 124.037 257.229C124.787 256.896 125.639 256.73 126.594 256.73C127.565 256.73 128.413 256.896 129.138 257.229C129.866 257.561 130.433 258.023 130.838 258.616C131.243 259.208 131.452 259.894 131.464 260.674H128.812ZM133.505 270V256.909H142.326V259.191H136.273V262.31H141.872V264.592H136.273V267.718H142.352V270H133.505Z" fill="white"/>
<rect x="73.5" y="247.5" width="83" height="32" rx="16" stroke="white"/>
<path d="M73 49L63 43.2265V54.7735L73 49ZM12.5 50L64 50V48L12.5 48V50Z" fill="white"/>
<path d="M293.5 49L283.5 43.2265V54.7735L293.5 49ZM233 50L284.5 50V48L233 48V50Z" fill="white"/>
<path d="M213 92L258.376 92C263.899 92 268.376 87.5228 268.376 82V59C268.376 53.4772 272.853 49 278.376 49H280" stroke="white" stroke-width="2"/>
<path d="M146 178L258.333 178C263.856 178 268.333 173.523 268.333 168V59C268.333 53.4771 272.81 49 278.333 49H280" stroke="white" stroke-width="2"/>
<path d="M153 221L258.333 221C263.856 221 268.333 216.523 268.333 211L268.333 59C268.333 53.4772 272.81 49 278.333 49H280" stroke="white" stroke-width="2"/>
<path d="M156 262H258.286C263.808 262 268.286 257.523 268.286 252L268.286 59C268.286 53.4772 272.763 49 278.286 49H280" stroke="white" stroke-width="2"/>
<path d="M199 135H233.652H258.304C263.827 135 268.304 130.523 268.304 125V59C268.304 53.4772 272.781 49 278.304 49H280" stroke="white" stroke-width="2"/>
</svg>
