<svg width="427" height="194" viewBox="0 0 427 194" fill="none" xmlns="http://www.w3.org/2000/svg">
<path d="M1.08665 18V8.18182H3.72656V9.89489H3.82884C4.00781 9.28551 4.30824 8.82528 4.73011 8.5142C5.15199 8.19886 5.63778 8.04119 6.1875 8.04119C6.32386 8.04119 6.47088 8.04972 6.62855 8.06676C6.78622 8.08381 6.92472 8.10724 7.04403 8.13707V10.5533C6.91619 10.5149 6.73935 10.4808 6.51349 10.451C6.28764 10.4212 6.08097 10.4062 5.89347 10.4062C5.4929 10.4062 5.13494 10.4936 4.8196 10.6683C4.50852 10.8388 4.26136 11.0774 4.07812 11.3842C3.89915 11.6911 3.80966 12.0447 3.80966 12.4453V18H1.08665ZM12.4693 18.1918C11.4593 18.1918 10.59 17.9872 9.86133 17.5781C9.1369 17.1648 8.57866 16.581 8.18661 15.8267C7.79457 15.0682 7.59854 14.1712 7.59854 13.1357C7.59854 12.1257 7.79457 11.2393 8.18661 10.4766C8.57866 9.71378 9.1305 9.11932 9.84215 8.69318C10.5581 8.26705 11.3975 8.05398 12.3606 8.05398C13.0083 8.05398 13.6113 8.15838 14.1696 8.36719C14.7321 8.57173 15.2221 8.88068 15.6397 9.29403C16.0616 9.70739 16.3897 10.2273 16.6241 10.8537C16.8585 11.4759 16.9757 12.2045 16.9757 13.0398V13.7876H8.68519V12.1001H14.4125C14.4125 11.7081 14.3272 11.3608 14.1568 11.0582C13.9863 10.7557 13.7498 10.5192 13.4473 10.3487C13.149 10.174 12.8017 10.0866 12.4054 10.0866C11.992 10.0866 11.6255 10.1825 11.3059 10.3743C10.9906 10.5618 10.7434 10.8153 10.5645 11.1349C10.3855 11.4503 10.2939 11.8018 10.2896 12.1896V13.794C10.2896 14.2798 10.3791 14.6996 10.5581 15.0533C10.7413 15.407 10.9991 15.6797 11.3315 15.8714C11.6639 16.0632 12.0581 16.1591 12.514 16.1591C12.8166 16.1591 13.0936 16.1165 13.345 16.0312C13.5964 15.946 13.8116 15.8182 13.9906 15.6477C14.1696 15.4773 14.3059 15.2685 14.3997 15.0213L16.9181 15.1875C16.7903 15.7926 16.5282 16.321 16.1319 16.7727C15.7399 17.2202 15.2328 17.5696 14.6106 17.821C13.9927 18.0682 13.2789 18.1918 12.4693 18.1918ZM26.9217 10.9815L24.4288 11.1349C24.3862 10.9219 24.2946 10.7301 24.1539 10.5597C24.0133 10.3849 23.8279 10.2464 23.5978 10.1442C23.372 10.0376 23.1014 9.98438 22.786 9.98438C22.3642 9.98438 22.0083 10.0739 21.7186 10.2528C21.4288 10.4276 21.2839 10.6619 21.2839 10.956C21.2839 11.1903 21.3777 11.3885 21.5652 11.5504C21.7527 11.7124 22.0744 11.8423 22.5304 11.9403L24.3074 12.2983C25.2619 12.4943 25.9735 12.8097 26.4423 13.2443C26.911 13.679 27.1454 14.25 27.1454 14.9574C27.1454 15.6009 26.9558 16.1655 26.5765 16.6513C26.2015 17.1371 25.6859 17.5163 25.0297 17.7891C24.3777 18.0575 23.6255 18.1918 22.7733 18.1918C21.4735 18.1918 20.438 17.9212 19.6667 17.38C18.8997 16.8345 18.4501 16.093 18.318 15.1555L20.9963 15.0149C21.0772 15.4112 21.2733 15.7138 21.5843 15.9226C21.8954 16.1271 22.2939 16.2294 22.7797 16.2294C23.2569 16.2294 23.6404 16.1378 23.9302 15.9545C24.2243 15.767 24.3734 15.5263 24.3777 15.2322C24.3734 14.9851 24.269 14.7827 24.0645 14.625C23.8599 14.4631 23.5446 14.3395 23.1184 14.2543L21.4181 13.9155C20.4593 13.7237 19.7456 13.3913 19.2768 12.9183C18.8123 12.4453 18.5801 11.8423 18.5801 11.1094C18.5801 10.4787 18.7505 9.93537 19.0914 9.4794C19.4366 9.02344 19.9203 8.67188 20.5424 8.42472C21.1689 8.17756 21.9018 8.05398 22.7413 8.05398C23.9814 8.05398 24.9572 8.31605 25.6689 8.8402C26.3848 9.36435 26.8024 10.0781 26.9217 10.9815ZM35.1562 13.8196V8.18182H37.8793V18H35.2649V16.2166H35.1626C34.9411 16.7919 34.5724 17.2543 34.0568 17.6037C33.5455 17.9531 32.9212 18.1278 32.1839 18.1278C31.5277 18.1278 30.9503 17.9787 30.4517 17.6804C29.9531 17.3821 29.5632 16.9581 29.282 16.4084C29.005 15.8587 28.8643 15.2003 28.8601 14.4332V8.18182H31.5831V13.9474C31.5874 14.527 31.7429 14.9851 32.0497 15.3217C32.3565 15.6584 32.7678 15.8267 33.2834 15.8267C33.6115 15.8267 33.9183 15.7521 34.2038 15.603C34.4893 15.4496 34.7195 15.2237 34.8942 14.9254C35.0732 14.6271 35.1605 14.2585 35.1562 13.8196ZM42.7804 4.90909V18H40.0574V4.90909H42.7804ZM50.1839 8.18182V10.2273H44.2713V8.18182H50.1839ZM45.6136 5.82955H48.3366V14.983C48.3366 15.2344 48.375 15.4304 48.4517 15.571C48.5284 15.7074 48.6349 15.8033 48.7713 15.8587C48.9119 15.9141 49.0739 15.9418 49.2571 15.9418C49.3849 15.9418 49.5128 15.9311 49.6406 15.9098C49.7685 15.8842 49.8665 15.8651 49.9347 15.8523L50.3629 17.8786C50.2266 17.9212 50.0348 17.9702 49.7876 18.0256C49.5405 18.0852 49.2401 18.1214 48.8864 18.1342C48.2301 18.1598 47.6548 18.0724 47.1605 17.8722C46.6705 17.6719 46.2891 17.3608 46.0163 16.9389C45.7436 16.517 45.6094 15.9844 45.6136 15.3409V5.82955ZM57.7761 11.544V13.7045H51.8059V11.544H57.7761ZM64.5325 18.1918C63.5268 18.1918 62.6618 17.9787 61.9373 17.5526C61.2172 17.1222 60.6632 16.5256 60.2754 15.7628C59.8919 15 59.7001 14.1222 59.7001 13.1293C59.7001 12.1236 59.894 11.2415 60.2818 10.483C60.6738 9.72017 61.2299 9.12571 61.9501 8.69957C62.6703 8.26918 63.5268 8.05398 64.5197 8.05398C65.3762 8.05398 66.1262 8.20952 66.7697 8.5206C67.4132 8.83168 67.9224 9.26847 68.2974 9.83097C68.6724 10.3935 68.8791 11.054 68.9174 11.8125H66.3478C66.2754 11.3224 66.0836 10.9283 65.7726 10.63C65.4657 10.3274 65.063 10.1761 64.5645 10.1761C64.1426 10.1761 63.774 10.2912 63.4586 10.5213C63.1475 10.7472 62.9047 11.0774 62.7299 11.5121C62.5552 11.9467 62.4679 12.473 62.4679 13.0909C62.4679 13.7173 62.5531 14.25 62.7235 14.6889C62.8983 15.1278 63.1433 15.4624 63.4586 15.6925C63.774 15.9226 64.1426 16.0376 64.5645 16.0376C64.8755 16.0376 65.1547 15.9737 65.4018 15.8459C65.6532 15.718 65.8599 15.5327 66.0218 15.2898C66.188 15.0426 66.2967 14.7464 66.3478 14.4013H68.9174C68.8748 15.1513 68.6703 15.8118 68.3038 16.3828C67.9416 16.9496 67.4409 17.3928 66.8017 17.7124C66.1625 18.032 65.4061 18.1918 64.5325 18.1918ZM75.0969 18.1918C74.104 18.1918 73.2454 17.9808 72.521 17.5589C71.8008 17.1328 71.2447 16.5405 70.8526 15.782C70.4606 15.0192 70.2646 14.1349 70.2646 13.1293C70.2646 12.1151 70.4606 11.2287 70.8526 10.4702C71.2447 9.70739 71.8008 9.11506 72.521 8.69318C73.2454 8.26705 74.104 8.05398 75.0969 8.05398C76.0898 8.05398 76.9464 8.26705 77.6665 8.69318C78.391 9.11506 78.9492 9.70739 79.3413 10.4702C79.7333 11.2287 79.9293 12.1151 79.9293 13.1293C79.9293 14.1349 79.7333 15.0192 79.3413 15.782C78.9492 16.5405 78.391 17.1328 77.6665 17.5589C76.9464 17.9808 76.0898 18.1918 75.0969 18.1918ZM75.1097 16.0824C75.5614 16.0824 75.9386 15.9545 76.2411 15.6989C76.5437 15.4389 76.7717 15.0852 76.9251 14.6378C77.0827 14.1903 77.1616 13.6811 77.1616 13.1101C77.1616 12.5391 77.0827 12.0298 76.9251 11.5824C76.7717 11.1349 76.5437 10.7812 76.2411 10.5213C75.9386 10.2614 75.5614 10.1314 75.1097 10.1314C74.6538 10.1314 74.2702 10.2614 73.9592 10.5213C73.6523 10.7812 73.4201 11.1349 73.2624 11.5824C73.109 12.0298 73.0323 12.5391 73.0323 13.1101C73.0323 13.6811 73.109 14.1903 73.2624 14.6378C73.4201 15.0852 73.6523 15.4389 73.9592 15.6989C74.2702 15.9545 74.6538 16.0824 75.1097 16.0824ZM84.4229 4.90909V18H81.6999V4.90909H84.4229ZM92.9004 13.8196V8.18182H95.6234V18H93.0091V16.2166H92.9068C92.6852 16.7919 92.3166 17.2543 91.801 17.6037C91.2896 17.9531 90.6653 18.1278 89.9281 18.1278C89.2718 18.1278 88.6944 17.9787 88.1958 17.6804C87.6973 17.3821 87.3074 16.9581 87.0261 16.4084C86.7491 15.8587 86.6085 15.2003 86.6042 14.4332V8.18182H89.3272V13.9474C89.3315 14.527 89.487 14.9851 89.7939 15.3217C90.1007 15.6584 90.5119 15.8267 91.0275 15.8267C91.3556 15.8267 91.6625 15.7521 91.948 15.603C92.2335 15.4496 92.4636 15.2237 92.6383 14.9254C92.8173 14.6271 92.9047 14.2585 92.9004 13.8196ZM97.8015 18V8.18182H100.397V9.91406H100.512C100.716 9.33878 101.057 8.88494 101.534 8.55256C102.012 8.22017 102.583 8.05398 103.248 8.05398C103.921 8.05398 104.494 8.2223 104.967 8.55895C105.44 8.89133 105.755 9.34304 105.913 9.91406H106.015C106.216 9.35156 106.578 8.90199 107.102 8.56534C107.63 8.22443 108.255 8.05398 108.975 8.05398C109.891 8.05398 110.635 8.34588 111.206 8.92969C111.781 9.50923 112.069 10.3317 112.069 11.397V18H109.352V11.9339C109.352 11.3885 109.207 10.9794 108.917 10.7067C108.627 10.4339 108.265 10.2976 107.831 10.2976C107.336 10.2976 106.951 10.4553 106.674 10.7706C106.397 11.0817 106.258 11.4929 106.258 12.0043V18H103.618V11.8764C103.618 11.3949 103.48 11.0114 103.203 10.7259C102.93 10.4403 102.57 10.2976 102.123 10.2976C101.82 10.2976 101.547 10.3743 101.304 10.5277C101.066 10.6768 100.876 10.8878 100.735 11.1605C100.595 11.429 100.525 11.7443 100.525 12.1065V18H97.8015ZM116.942 12.3239V18H114.219V8.18182H116.815V9.91406H116.93C117.147 9.34304 117.511 8.89133 118.023 8.55895C118.534 8.2223 119.154 8.05398 119.883 8.05398C120.565 8.05398 121.159 8.20312 121.666 8.50142C122.173 8.79972 122.567 9.22585 122.849 9.77983C123.13 10.3295 123.271 10.9858 123.271 11.7486V18H120.548V12.2344C120.552 11.6335 120.398 11.1648 120.087 10.8281C119.776 10.4872 119.348 10.3168 118.803 10.3168C118.436 10.3168 118.112 10.3956 117.831 10.5533C117.554 10.7109 117.337 10.9411 117.179 11.2436C117.026 11.5419 116.947 11.902 116.942 12.3239Z" fill="white"/>
<circle cx="4" cy="49" r="3.5" stroke="white"/>
<circle cx="423" cy="49" r="3.5" stroke="white"/>
<path d="M71 136L61 130.226V141.774L71 136ZM8 50H22.1126V48H8V50ZM31.1126 59V126H33.1126V59H31.1126ZM42.1126 137H62V135H42.1126V137ZM31.1126 126C31.1126 132.075 36.0375 137 42.1126 137V135C37.1421 135 33.1126 130.971 33.1126 126H31.1126ZM22.1126 50C27.0832 50 31.1126 54.0294 31.1126 59H33.1126C33.1126 52.9249 28.1878 48 22.1126 48V50Z" fill="white"/>
<path d="M72 179L62 173.226V184.773L72 179ZM8 50H22.304V48H8V50ZM31.304 59V169H33.304V59H31.304ZM42.304 180H63V178H42.304V180ZM31.304 169C31.304 175.075 36.2289 180 42.304 180V178C37.3334 178 33.304 173.971 33.304 169H31.304ZM22.304 50C27.2746 50 31.304 54.0294 31.304 59H33.304C33.304 52.9249 28.3791 48 22.304 48V50Z" fill="white"/>
<path d="M88.2251 138.273L88.3849 135.799L86.3139 137.186L85.4574 135.678L87.6882 134.591L85.4574 133.504L86.3139 131.996L88.3849 133.383L88.2251 130.909H89.9446L89.7784 133.383L91.8494 131.996L92.706 133.504L90.4815 134.591L92.706 135.678L91.8494 137.186L89.7784 135.799L89.9446 138.273H88.2251Z" fill="white"/>
<rect x="73.5" y="118.5" width="32" height="32" rx="16" stroke="white"/>
<path d="M179.394 94H176.428L180.947 80.9091H184.514L189.027 94H186.061L182.782 83.9006H182.68L179.394 94ZM179.209 88.8544H186.214V91.0149H179.209V88.8544ZM197.405 84.674C197.354 84.1584 197.135 83.7578 196.747 83.4723C196.359 83.1868 195.833 83.044 195.168 83.044C194.716 83.044 194.335 83.108 194.024 83.2358C193.713 83.3594 193.474 83.532 193.308 83.7536C193.146 83.9751 193.065 84.2266 193.065 84.5078C193.057 84.7422 193.106 84.9467 193.212 85.1214C193.323 85.2962 193.474 85.4474 193.666 85.5753C193.858 85.6989 194.079 85.8075 194.331 85.9013C194.582 85.9908 194.851 86.0675 195.136 86.1314L196.312 86.4126C196.883 86.5405 197.407 86.7109 197.885 86.924C198.362 87.1371 198.775 87.3991 199.125 87.7102C199.474 88.0213 199.745 88.3878 199.937 88.8097C200.133 89.2315 200.233 89.7152 200.237 90.2607C200.233 91.0618 200.028 91.7564 199.623 92.3445C199.223 92.9283 198.643 93.3821 197.885 93.706C197.131 94.0256 196.221 94.1854 195.155 94.1854C194.099 94.1854 193.178 94.0234 192.394 93.6996C191.614 93.3757 191.005 92.8963 190.566 92.2614C190.131 91.6222 189.903 90.8317 189.882 89.8899H192.56C192.59 90.3288 192.716 90.6953 192.937 90.9893C193.163 91.2791 193.464 91.4986 193.839 91.6477C194.218 91.7926 194.646 91.8651 195.123 91.8651C195.592 91.8651 195.999 91.7969 196.344 91.6605C196.694 91.5241 196.964 91.3345 197.156 91.0916C197.348 90.8487 197.444 90.5696 197.444 90.2543C197.444 89.9602 197.356 89.7131 197.182 89.5128C197.011 89.3125 196.76 89.142 196.427 89.0014C196.099 88.8608 195.697 88.733 195.219 88.6179L193.794 88.2599C192.69 87.9915 191.819 87.5717 191.18 87.0007C190.54 86.4297 190.223 85.6605 190.227 84.6932C190.223 83.9006 190.434 83.2081 190.86 82.6158C191.29 82.0234 191.881 81.5611 192.631 81.2287C193.381 80.8963 194.233 80.7301 195.187 80.7301C196.159 80.7301 197.007 80.8963 197.731 81.2287C198.46 81.5611 199.027 82.0234 199.432 82.6158C199.836 83.2081 200.045 83.8942 200.058 84.674H197.405Z" fill="white"/>
<rect x="165.5" y="71.5" width="46" height="32" rx="16" stroke="white"/>
<path d="M279.225 181.273L279.385 178.799L277.314 180.186L276.457 178.678L278.688 177.591L276.457 176.504L277.314 174.996L279.385 176.383L279.225 173.909H280.945L280.778 176.383L282.849 174.996L283.706 176.504L281.482 177.591L283.706 178.678L282.849 180.186L280.778 178.799L280.945 181.273H279.225Z" fill="white"/>
<rect x="264.5" y="161.5" width="32" height="32" rx="16" stroke="white"/>
<path d="M228.678 180.166C228.256 180.166 227.894 180.017 227.592 179.719C227.293 179.416 227.144 179.054 227.144 178.632C227.144 178.214 227.293 177.857 227.592 177.558C227.894 177.26 228.256 177.111 228.678 177.111C229.087 177.111 229.445 177.26 229.752 177.558C230.059 177.857 230.212 178.214 230.212 178.632C230.212 178.913 230.14 179.171 229.995 179.406C229.854 179.636 229.669 179.821 229.439 179.962C229.209 180.098 228.955 180.166 228.678 180.166Z" fill="white"/>
<rect x="212.5" y="161.5" width="32" height="32" rx="16" stroke="white"/>
<path d="M88.3089 174.182V176.227H82.3963V174.182H88.3089ZM83.7386 171.83H86.4616V180.983C86.4616 181.234 86.5 181.43 86.5767 181.571C86.6534 181.707 86.7599 181.803 86.8963 181.859C87.0369 181.914 87.1989 181.942 87.3821 181.942C87.5099 181.942 87.6378 181.931 87.7656 181.91C87.8935 181.884 87.9915 181.865 88.0597 181.852L88.4879 183.879C88.3516 183.921 88.1598 183.97 87.9126 184.026C87.6655 184.085 87.3651 184.121 87.0114 184.134C86.3551 184.16 85.7798 184.072 85.2855 183.872C84.7955 183.672 84.4141 183.361 84.1413 182.939C83.8686 182.517 83.7344 181.984 83.7386 181.341V171.83ZM92.8825 184.185C92.256 184.185 91.6978 184.077 91.2077 183.859C90.7177 183.638 90.3299 183.312 90.0444 182.881C89.7631 182.447 89.6225 181.906 89.6225 181.258C89.6225 180.712 89.7227 180.254 89.9229 179.884C90.1232 179.513 90.396 179.214 90.7411 178.989C91.0863 178.763 91.4783 178.592 91.9173 178.477C92.3604 178.362 92.8249 178.281 93.3107 178.234C93.8817 178.175 94.342 178.119 94.6914 178.068C95.0408 178.013 95.2944 177.932 95.4521 177.825C95.6097 177.719 95.6886 177.561 95.6886 177.352V177.314C95.6886 176.909 95.5607 176.596 95.305 176.374C95.0536 176.153 94.6957 176.042 94.2312 176.042C93.7411 176.042 93.3512 176.151 93.0614 176.368C92.7717 176.581 92.5799 176.849 92.4862 177.173L89.9677 176.969C90.0955 176.372 90.3469 175.857 90.7219 175.422C91.0969 174.983 91.5806 174.646 92.1729 174.412C92.7695 174.173 93.4599 174.054 94.244 174.054C94.7894 174.054 95.3114 174.118 95.81 174.246C96.3129 174.374 96.7582 174.572 97.146 174.84C97.538 175.109 97.8469 175.454 98.0728 175.876C98.2987 176.293 98.4116 176.794 98.4116 177.378V184H95.8292V182.638H95.7525C95.5948 182.945 95.3839 183.216 95.1197 183.45C94.8555 183.68 94.538 183.862 94.1673 183.994C93.7965 184.121 93.3683 184.185 92.8825 184.185ZM93.6623 182.306C94.0629 182.306 94.4165 182.227 94.7234 182.07C95.0302 181.908 95.271 181.69 95.4457 181.418C95.6204 181.145 95.7077 180.836 95.7077 180.491V179.449C95.6225 179.504 95.5053 179.555 95.3562 179.602C95.2113 179.645 95.0472 179.685 94.864 179.724C94.6808 179.758 94.4975 179.79 94.3143 179.82C94.131 179.845 93.9648 179.869 93.8157 179.89C93.4961 179.937 93.217 180.011 92.9783 180.114C92.7397 180.216 92.5543 180.354 92.4222 180.529C92.2901 180.7 92.2241 180.913 92.2241 181.168C92.2241 181.539 92.3583 181.822 92.6268 182.018C92.8995 182.21 93.2447 182.306 93.6623 182.306ZM100.575 184V170.909H103.298V175.831H103.381C103.501 175.567 103.673 175.298 103.899 175.026C104.129 174.749 104.428 174.518 104.794 174.335C105.165 174.148 105.625 174.054 106.175 174.054C106.891 174.054 107.551 174.241 108.156 174.616C108.761 174.987 109.245 175.548 109.607 176.298C109.969 177.043 110.151 177.979 110.151 179.104C110.151 180.199 109.974 181.124 109.62 181.878C109.271 182.628 108.793 183.197 108.188 183.585C107.587 183.968 106.914 184.16 106.168 184.16C105.64 184.16 105.19 184.072 104.82 183.898C104.453 183.723 104.153 183.504 103.918 183.239C103.684 182.971 103.505 182.7 103.381 182.428H103.26V184H100.575ZM103.241 179.091C103.241 179.675 103.322 180.184 103.484 180.619C103.646 181.053 103.88 181.392 104.187 181.635C104.494 181.874 104.866 181.993 105.305 181.993C105.749 181.993 106.124 181.871 106.43 181.629C106.737 181.381 106.969 181.04 107.127 180.606C107.289 180.167 107.37 179.662 107.37 179.091C107.37 178.524 107.291 178.026 107.134 177.595C106.976 177.165 106.744 176.828 106.437 176.585C106.13 176.342 105.753 176.221 105.305 176.221C104.862 176.221 104.487 176.338 104.18 176.572C103.878 176.807 103.646 177.139 103.484 177.57C103.322 178 103.241 178.507 103.241 179.091ZM114.691 170.909V184H111.968V170.909H114.691ZM121.346 184.192C120.336 184.192 119.467 183.987 118.738 183.578C118.014 183.165 117.456 182.581 117.064 181.827C116.672 181.068 116.475 180.171 116.475 179.136C116.475 178.126 116.672 177.239 117.064 176.477C117.456 175.714 118.007 175.119 118.719 174.693C119.435 174.267 120.275 174.054 121.238 174.054C121.885 174.054 122.488 174.158 123.047 174.367C123.609 174.572 124.099 174.881 124.517 175.294C124.939 175.707 125.267 176.227 125.501 176.854C125.735 177.476 125.853 178.205 125.853 179.04V179.788H117.562V178.1H123.289C123.289 177.708 123.204 177.361 123.034 177.058C122.863 176.756 122.627 176.519 122.324 176.349C122.026 176.174 121.679 176.087 121.282 176.087C120.869 176.087 120.502 176.183 120.183 176.374C119.868 176.562 119.62 176.815 119.441 177.135C119.262 177.45 119.171 177.802 119.167 178.19V179.794C119.167 180.28 119.256 180.7 119.435 181.053C119.618 181.407 119.876 181.68 120.208 181.871C120.541 182.063 120.935 182.159 121.391 182.159C121.694 182.159 121.971 182.116 122.222 182.031C122.473 181.946 122.689 181.818 122.868 181.648C123.047 181.477 123.183 181.268 123.277 181.021L125.795 181.188C125.667 181.793 125.405 182.321 125.009 182.773C124.617 183.22 124.11 183.57 123.488 183.821C122.87 184.068 122.156 184.192 121.346 184.192ZM133.747 177.544V179.705H127.777V177.544H133.747ZM138.79 178.324V184H136.067V174.182H138.662V175.914H138.777C138.995 175.343 139.359 174.891 139.87 174.559C140.382 174.222 141.002 174.054 141.73 174.054C142.412 174.054 143.007 174.203 143.514 174.501C144.021 174.8 144.415 175.226 144.696 175.78C144.978 176.33 145.118 176.986 145.118 177.749V184H142.395V178.234C142.4 177.634 142.246 177.165 141.935 176.828C141.624 176.487 141.196 176.317 140.65 176.317C140.284 176.317 139.96 176.396 139.679 176.553C139.402 176.711 139.184 176.941 139.027 177.244C138.873 177.542 138.794 177.902 138.79 178.324ZM150.064 184.185C149.438 184.185 148.879 184.077 148.389 183.859C147.899 183.638 147.512 183.312 147.226 182.881C146.945 182.447 146.804 181.906 146.804 181.258C146.804 180.712 146.904 180.254 147.105 179.884C147.305 179.513 147.578 179.214 147.923 178.989C148.268 178.763 148.66 178.592 149.099 178.477C149.542 178.362 150.007 178.281 150.492 178.234C151.063 178.175 151.524 178.119 151.873 178.068C152.222 178.013 152.476 177.932 152.634 177.825C152.791 177.719 152.87 177.561 152.87 177.352V177.314C152.87 176.909 152.742 176.596 152.487 176.374C152.235 176.153 151.877 176.042 151.413 176.042C150.923 176.042 150.533 176.151 150.243 176.368C149.953 176.581 149.762 176.849 149.668 177.173L147.149 176.969C147.277 176.372 147.529 175.857 147.904 175.422C148.279 174.983 148.762 174.646 149.355 174.412C149.951 174.173 150.642 174.054 151.426 174.054C151.971 174.054 152.493 174.118 152.992 174.246C153.494 174.374 153.94 174.572 154.328 174.84C154.72 175.109 155.029 175.454 155.254 175.876C155.48 176.293 155.593 176.794 155.593 177.378V184H153.011V182.638H152.934C152.776 182.945 152.566 183.216 152.301 183.45C152.037 183.68 151.72 183.862 151.349 183.994C150.978 184.121 150.55 184.185 150.064 184.185ZM150.844 182.306C151.244 182.306 151.598 182.227 151.905 182.07C152.212 181.908 152.453 181.69 152.627 181.418C152.802 181.145 152.889 180.836 152.889 180.491V179.449C152.804 179.504 152.687 179.555 152.538 179.602C152.393 179.645 152.229 179.685 152.046 179.724C151.862 179.758 151.679 179.79 151.496 179.82C151.313 179.845 151.146 179.869 150.997 179.89C150.678 179.937 150.399 180.011 150.16 180.114C149.921 180.216 149.736 180.354 149.604 180.529C149.472 180.7 149.406 180.913 149.406 181.168C149.406 181.539 149.54 181.822 149.808 182.018C150.081 182.21 150.426 182.306 150.844 182.306ZM157.706 184V174.182H160.301V175.914H160.416C160.621 175.339 160.961 174.885 161.439 174.553C161.916 174.22 162.487 174.054 163.152 174.054C163.825 174.054 164.398 174.222 164.871 174.559C165.344 174.891 165.66 175.343 165.817 175.914H165.92C166.12 175.352 166.482 174.902 167.006 174.565C167.535 174.224 168.159 174.054 168.879 174.054C169.795 174.054 170.539 174.346 171.11 174.93C171.685 175.509 171.973 176.332 171.973 177.397V184H169.256V177.934C169.256 177.388 169.111 176.979 168.822 176.707C168.532 176.434 168.17 176.298 167.735 176.298C167.241 176.298 166.855 176.455 166.578 176.771C166.301 177.082 166.162 177.493 166.162 178.004V184H163.523V177.876C163.523 177.395 163.384 177.011 163.107 176.726C162.834 176.44 162.474 176.298 162.027 176.298C161.724 176.298 161.452 176.374 161.209 176.528C160.97 176.677 160.78 176.888 160.64 177.161C160.499 177.429 160.429 177.744 160.429 178.107V184H157.706ZM178.598 184.192C177.588 184.192 176.719 183.987 175.99 183.578C175.266 183.165 174.708 182.581 174.316 181.827C173.923 181.068 173.727 180.171 173.727 179.136C173.727 178.126 173.923 177.239 174.316 176.477C174.708 175.714 175.259 175.119 175.971 174.693C176.687 174.267 177.526 174.054 178.49 174.054C179.137 174.054 179.74 174.158 180.298 174.367C180.861 174.572 181.351 174.881 181.769 175.294C182.191 175.707 182.519 176.227 182.753 176.854C182.987 177.476 183.105 178.205 183.105 179.04V179.788H174.814V178.1H180.541C180.541 177.708 180.456 177.361 180.286 177.058C180.115 176.756 179.879 176.519 179.576 176.349C179.278 176.174 178.931 176.087 178.534 176.087C178.121 176.087 177.754 176.183 177.435 176.374C177.119 176.562 176.872 176.815 176.693 177.135C176.514 177.45 176.423 177.802 176.419 178.19V179.794C176.419 180.28 176.508 180.7 176.687 181.053C176.87 181.407 177.128 181.68 177.46 181.871C177.793 182.063 178.187 182.159 178.643 182.159C178.945 182.159 179.222 182.116 179.474 182.031C179.725 181.946 179.941 181.818 180.119 181.648C180.298 181.477 180.435 181.268 180.529 181.021L183.047 181.188C182.919 181.793 182.657 182.321 182.261 182.773C181.869 183.22 181.362 183.57 180.74 183.821C180.122 184.068 179.408 184.192 178.598 184.192Z" fill="white"/>
<rect x="73.5" y="161.5" width="119" height="32" rx="16" stroke="white"/>
<path d="M251.523 94.1918C250.517 94.1918 249.652 93.9787 248.928 93.5526C248.207 93.1222 247.653 92.5256 247.266 91.7628C246.882 91 246.69 90.1222 246.69 89.1293C246.69 88.1236 246.884 87.2415 247.272 86.483C247.664 85.7202 248.22 85.1257 248.94 84.6996C249.661 84.2692 250.517 84.054 251.51 84.054C252.366 84.054 253.116 84.2095 253.76 84.5206C254.403 84.8317 254.913 85.2685 255.288 85.831C255.663 86.3935 255.869 87.054 255.908 87.8125H253.338C253.266 87.3224 253.074 86.9283 252.763 86.63C252.456 86.3274 252.053 86.1761 251.555 86.1761C251.133 86.1761 250.764 86.2912 250.449 86.5213C250.138 86.7472 249.895 87.0774 249.72 87.5121C249.545 87.9467 249.458 88.473 249.458 89.0909C249.458 89.7173 249.543 90.25 249.714 90.6889C249.888 91.1278 250.134 91.4624 250.449 91.6925C250.764 91.9226 251.133 92.0376 251.555 92.0376C251.866 92.0376 252.145 91.9737 252.392 91.8459C252.643 91.718 252.85 91.5327 253.012 91.2898C253.178 91.0426 253.287 90.7464 253.338 90.4013H255.908C255.865 91.1513 255.661 91.8118 255.294 92.3828C254.932 92.9496 254.431 93.3928 253.792 93.7124C253.153 94.032 252.396 94.1918 251.523 94.1918ZM262.087 94.1918C261.094 94.1918 260.236 93.9808 259.511 93.5589C258.791 93.1328 258.235 92.5405 257.843 91.782C257.451 91.0192 257.255 90.1349 257.255 89.1293C257.255 88.1151 257.451 87.2287 257.843 86.4702C258.235 85.7074 258.791 85.1151 259.511 84.6932C260.236 84.267 261.094 84.054 262.087 84.054C263.08 84.054 263.937 84.267 264.657 84.6932C265.381 85.1151 265.939 85.7074 266.331 86.4702C266.724 87.2287 266.92 88.1151 266.92 89.1293C266.92 90.1349 266.724 91.0192 266.331 91.782C265.939 92.5405 265.381 93.1328 264.657 93.5589C263.937 93.9808 263.08 94.1918 262.087 94.1918ZM262.1 92.0824C262.552 92.0824 262.929 91.9545 263.231 91.6989C263.534 91.4389 263.762 91.0852 263.915 90.6378C264.073 90.1903 264.152 89.6811 264.152 89.1101C264.152 88.5391 264.073 88.0298 263.915 87.5824C263.762 87.1349 263.534 86.7812 263.231 86.5213C262.929 86.2614 262.552 86.1314 262.1 86.1314C261.644 86.1314 261.26 86.2614 260.949 86.5213C260.643 86.7812 260.41 87.1349 260.253 87.5824C260.099 88.0298 260.023 88.5391 260.023 89.1101C260.023 89.6811 260.099 90.1903 260.253 90.6378C260.41 91.0852 260.643 91.4389 260.949 91.6989C261.26 91.9545 261.644 92.0824 262.1 92.0824ZM271.413 80.9091V94H268.69V80.9091H271.413ZM279.891 89.8196V84.1818H282.614V94H279.999V92.2166H279.897C279.675 92.7919 279.307 93.2543 278.791 93.6037C278.28 93.9531 277.656 94.1278 276.918 94.1278C276.262 94.1278 275.685 93.9787 275.186 93.6804C274.688 93.3821 274.298 92.9581 274.016 92.4084C273.739 91.8587 273.599 91.2003 273.594 90.4332V84.1818H276.317V89.9474C276.322 90.527 276.477 90.9851 276.784 91.3217C277.091 91.6584 277.502 91.8267 278.018 91.8267C278.346 91.8267 278.653 91.7521 278.938 91.603C279.224 91.4496 279.454 91.2237 279.629 90.9254C279.808 90.6271 279.895 90.2585 279.891 89.8196ZM284.792 94V84.1818H287.387V85.9141H287.502C287.706 85.3388 288.047 84.8849 288.525 84.5526C289.002 84.2202 289.573 84.054 290.238 84.054C290.911 84.054 291.484 84.2223 291.957 84.5589C292.43 84.8913 292.746 85.343 292.903 85.9141H293.006C293.206 85.3516 293.568 84.902 294.092 84.5653C294.621 84.2244 295.245 84.054 295.965 84.054C296.881 84.054 297.625 84.3459 298.196 84.9297C298.771 85.5092 299.059 86.3317 299.059 87.397V94H296.342V87.9339C296.342 87.3885 296.197 86.9794 295.907 86.7067C295.618 86.4339 295.256 86.2976 294.821 86.2976C294.327 86.2976 293.941 86.4553 293.664 86.7706C293.387 87.0817 293.248 87.4929 293.248 88.0043V94H290.608V87.8764C290.608 87.3949 290.47 87.0114 290.193 86.7259C289.92 86.4403 289.56 86.2976 289.113 86.2976C288.81 86.2976 288.537 86.3743 288.295 86.5277C288.056 86.6768 287.866 86.8878 287.726 87.1605C287.585 87.429 287.515 87.7443 287.515 88.1065V94H284.792ZM303.933 88.3239V94H301.21V84.1818H303.805V85.9141H303.92C304.137 85.343 304.502 84.8913 305.013 84.5589C305.524 84.2223 306.144 84.054 306.873 84.054C307.555 84.054 308.149 84.2031 308.656 84.5014C309.164 84.7997 309.558 85.2259 309.839 85.7798C310.12 86.3295 310.261 86.9858 310.261 87.7486V94H307.538V88.2344C307.542 87.6335 307.389 87.1648 307.078 86.8281C306.767 86.4872 306.338 86.3168 305.793 86.3168C305.426 86.3168 305.102 86.3956 304.821 86.5533C304.544 86.7109 304.327 86.9411 304.169 87.2436C304.016 87.5419 303.937 87.902 303.933 88.3239ZM318.524 87.544V89.7045H312.554V87.544H318.524ZM323.644 94.1854C323.018 94.1854 322.46 94.0767 321.969 93.8594C321.479 93.6378 321.092 93.3118 320.806 92.8814C320.525 92.4467 320.384 91.9055 320.384 91.2578C320.384 90.7124 320.484 90.2543 320.685 89.8835C320.885 89.5128 321.158 89.2145 321.503 88.9886C321.848 88.7628 322.24 88.5923 322.679 88.4773C323.122 88.3622 323.587 88.2812 324.072 88.2344C324.643 88.1747 325.104 88.1193 325.453 88.0682C325.803 88.0128 326.056 87.9318 326.214 87.8253C326.371 87.7187 326.45 87.5611 326.45 87.3523V87.3139C326.45 86.9091 326.322 86.5959 326.067 86.3743C325.815 86.1527 325.457 86.0419 324.993 86.0419C324.503 86.0419 324.113 86.1506 323.823 86.3679C323.533 86.581 323.342 86.8494 323.248 87.1733L320.729 86.9688C320.857 86.3722 321.109 85.8565 321.484 85.4219C321.859 84.983 322.342 84.6463 322.935 84.4119C323.531 84.1733 324.222 84.054 325.006 84.054C325.551 84.054 326.073 84.1179 326.572 84.2457C327.075 84.3736 327.52 84.5717 327.908 84.8402C328.3 85.1087 328.609 85.4538 328.835 85.8757C329.06 86.2933 329.173 86.794 329.173 87.3778V94H326.591V92.6385H326.514C326.357 92.9453 326.146 93.2159 325.881 93.4503C325.617 93.6804 325.3 93.8615 324.929 93.9936C324.558 94.1214 324.13 94.1854 323.644 94.1854ZM324.424 92.3061C324.825 92.3061 325.178 92.2273 325.485 92.0696C325.792 91.9077 326.033 91.6903 326.207 91.4176C326.382 91.1449 326.469 90.8359 326.469 90.4908V89.4489C326.384 89.5043 326.267 89.5554 326.118 89.6023C325.973 89.6449 325.809 89.6854 325.626 89.7237C325.442 89.7578 325.259 89.7898 325.076 89.8196C324.893 89.8452 324.727 89.8686 324.577 89.8899C324.258 89.9368 323.979 90.0114 323.74 90.1136C323.501 90.2159 323.316 90.3544 323.184 90.5291C323.052 90.6996 322.986 90.9126 322.986 91.1683C322.986 91.5391 323.12 91.8224 323.388 92.0185C323.661 92.2102 324.006 92.3061 324.424 92.3061ZM334.009 80.9091V94H331.286V80.9091H334.009ZM336.19 94V84.1818H338.913V94H336.19ZM337.558 82.9162C337.153 82.9162 336.806 82.782 336.516 82.5135C336.231 82.2408 336.088 81.9148 336.088 81.5355C336.088 81.1605 336.231 80.8388 336.516 80.5703C336.806 80.2976 337.153 80.1612 337.558 80.1612C337.963 80.1612 338.308 80.2976 338.594 80.5703C338.883 80.8388 339.028 81.1605 339.028 81.5355C339.028 81.9148 338.883 82.2408 338.594 82.5135C338.308 82.782 337.963 82.9162 337.558 82.9162ZM343.894 94.1854C343.268 94.1854 342.71 94.0767 342.219 93.8594C341.729 93.6378 341.342 93.3118 341.056 92.8814C340.775 92.4467 340.634 91.9055 340.634 91.2578C340.634 90.7124 340.734 90.2543 340.935 89.8835C341.135 89.5128 341.408 89.2145 341.753 88.9886C342.098 88.7628 342.49 88.5923 342.929 88.4773C343.372 88.3622 343.837 88.2812 344.322 88.2344C344.893 88.1747 345.354 88.1193 345.703 88.0682C346.053 88.0128 346.306 87.9318 346.464 87.8253C346.621 87.7187 346.7 87.5611 346.7 87.3523V87.3139C346.7 86.9091 346.572 86.5959 346.317 86.3743C346.065 86.1527 345.707 86.0419 345.243 86.0419C344.753 86.0419 344.363 86.1506 344.073 86.3679C343.783 86.581 343.592 86.8494 343.498 87.1733L340.979 86.9688C341.107 86.3722 341.359 85.8565 341.734 85.4219C342.109 84.983 342.592 84.6463 343.185 84.4119C343.781 84.1733 344.472 84.054 345.256 84.054C345.801 84.054 346.323 84.1179 346.822 84.2457C347.325 84.3736 347.77 84.5717 348.158 84.8402C348.55 85.1087 348.859 85.4538 349.085 85.8757C349.31 86.2933 349.423 86.794 349.423 87.3778V94H346.841V92.6385H346.764C346.607 92.9453 346.396 93.2159 346.131 93.4503C345.867 93.6804 345.55 93.8615 345.179 93.9936C344.808 94.1214 344.38 94.1854 343.894 94.1854ZM344.674 92.3061C345.075 92.3061 345.428 92.2273 345.735 92.0696C346.042 91.9077 346.283 91.6903 346.457 91.4176C346.632 91.1449 346.719 90.8359 346.719 90.4908V89.4489C346.634 89.5043 346.517 89.5554 346.368 89.6023C346.223 89.6449 346.059 89.6854 345.876 89.7237C345.692 89.7578 345.509 89.7898 345.326 89.8196C345.143 89.8452 344.977 89.8686 344.827 89.8899C344.508 89.9368 344.229 90.0114 343.99 90.1136C343.751 90.2159 343.566 90.3544 343.434 90.5291C343.302 90.6996 343.236 90.9126 343.236 91.1683C343.236 91.5391 343.37 91.8224 343.638 92.0185C343.911 92.2102 344.256 92.3061 344.674 92.3061ZM359.705 86.9815L357.212 87.1349C357.169 86.9219 357.078 86.7301 356.937 86.5597C356.797 86.3849 356.611 86.2464 356.381 86.1442C356.155 86.0376 355.885 85.9844 355.569 85.9844C355.147 85.9844 354.792 86.0739 354.502 86.2528C354.212 86.4276 354.067 86.6619 354.067 86.956C354.067 87.1903 354.161 87.3885 354.348 87.5504C354.536 87.7124 354.858 87.8423 355.314 87.9403L357.091 88.2983C358.045 88.4943 358.757 88.8097 359.225 89.2443C359.694 89.679 359.929 90.25 359.929 90.9574C359.929 91.6009 359.739 92.1655 359.36 92.6513C358.985 93.1371 358.469 93.5163 357.813 93.7891C357.161 94.0575 356.409 94.1918 355.556 94.1918C354.257 94.1918 353.221 93.9212 352.45 93.38C351.683 92.8345 351.233 92.093 351.101 91.1555L353.779 91.0149C353.86 91.4112 354.056 91.7138 354.368 91.9226C354.679 92.1271 355.077 92.2294 355.563 92.2294C356.04 92.2294 356.424 92.1378 356.713 91.9545C357.007 91.767 357.157 91.5263 357.161 91.2322C357.157 90.9851 357.052 90.7827 356.848 90.625C356.643 90.4631 356.328 90.3395 355.902 90.2543L354.201 89.9155C353.243 89.7237 352.529 89.3913 352.06 88.9183C351.596 88.4453 351.363 87.8423 351.363 87.1094C351.363 86.4787 351.534 85.9354 351.875 85.4794C352.22 85.0234 352.703 84.6719 353.326 84.4247C353.952 84.1776 354.685 84.054 355.525 84.054C356.765 84.054 357.74 84.3161 358.452 84.8402C359.168 85.3643 359.586 86.0781 359.705 86.9815Z" fill="white"/>
<rect x="237.5" y="71.5" width="133" height="32" rx="16" stroke="white"/>
<path d="M83.5611 54.1918C82.5511 54.1918 81.6818 53.9872 80.9531 53.5781C80.2287 53.1648 79.6705 52.581 79.2784 51.8267C78.8864 51.0682 78.6903 50.1712 78.6903 49.1357C78.6903 48.1257 78.8864 47.2393 79.2784 46.4766C79.6705 45.7138 80.2223 45.1193 80.9339 44.6932C81.6499 44.267 82.4893 44.054 83.4524 44.054C84.1001 44.054 84.7031 44.1584 85.2614 44.3672C85.8239 44.5717 86.3139 44.8807 86.7315 45.294C87.1534 45.7074 87.4815 46.2273 87.7159 46.8537C87.9503 47.4759 88.0675 48.2045 88.0675 49.0398V49.7876H79.777V48.1001H85.5043C85.5043 47.7081 85.419 47.3608 85.2486 47.0582C85.0781 46.7557 84.8416 46.5192 84.5391 46.3487C84.2408 46.174 83.8935 46.0866 83.4972 46.0866C83.0838 46.0866 82.7173 46.1825 82.3977 46.3743C82.0824 46.5618 81.8352 46.8153 81.6562 47.1349C81.4773 47.4503 81.3857 47.8018 81.3814 48.1896V49.794C81.3814 50.2798 81.4709 50.6996 81.6499 51.0533C81.8331 51.407 82.0909 51.6797 82.4233 51.8714C82.7557 52.0632 83.1499 52.1591 83.6058 52.1591C83.9084 52.1591 84.1854 52.1165 84.4368 52.0312C84.6882 51.946 84.9034 51.8182 85.0824 51.6477C85.2614 51.4773 85.3977 51.2685 85.4915 51.0213L88.0099 51.1875C87.8821 51.7926 87.62 52.321 87.2237 52.7727C86.8317 53.2202 86.3246 53.5696 85.7024 53.821C85.0845 54.0682 84.3707 54.1918 83.5611 54.1918ZM91.9442 44.1818L93.7468 47.6143L95.5941 44.1818H98.3874L95.543 49.0909L98.4641 54H95.6836L93.7468 50.6058L91.842 54H89.0295L91.9442 49.0909L89.1317 44.1818H91.9442ZM100.005 57.6818V44.1818H102.689V45.831H102.811C102.93 45.5668 103.103 45.2983 103.328 45.0256C103.559 44.7486 103.857 44.5185 104.223 44.3352C104.594 44.1477 105.054 44.054 105.604 44.054C106.32 44.054 106.98 44.2415 107.586 44.6165C108.191 44.9872 108.674 45.5476 109.037 46.2976C109.399 47.0433 109.58 47.9787 109.58 49.1037C109.58 50.1989 109.403 51.1236 109.049 51.8778C108.7 52.6278 108.223 53.1967 107.618 53.5845C107.017 53.968 106.343 54.1598 105.598 54.1598C105.069 54.1598 104.62 54.0724 104.249 53.8977C103.882 53.723 103.582 53.5036 103.348 53.2393C103.113 52.9709 102.934 52.7003 102.811 52.4276H102.728V57.6818H100.005ZM102.67 49.0909C102.67 49.6747 102.751 50.1839 102.913 50.6186C103.075 51.0533 103.309 51.392 103.616 51.6349C103.923 51.8736 104.296 51.9929 104.735 51.9929C105.178 51.9929 105.553 51.8714 105.86 51.6286C106.167 51.3814 106.399 51.0405 106.556 50.6058C106.718 50.1669 106.799 49.6619 106.799 49.0909C106.799 48.5241 106.721 48.0256 106.563 47.5952C106.405 47.1648 106.173 46.8281 105.866 46.5852C105.559 46.3423 105.182 46.2209 104.735 46.2209C104.292 46.2209 103.917 46.3381 103.61 46.5724C103.307 46.8068 103.075 47.1392 102.913 47.5696C102.751 48 102.67 48.5071 102.67 49.0909ZM111.395 54V44.1818H114.035V45.8949H114.137C114.316 45.2855 114.617 44.8253 115.039 44.5142C115.461 44.1989 115.946 44.0412 116.496 44.0412C116.632 44.0412 116.779 44.0497 116.937 44.0668C117.095 44.0838 117.233 44.1072 117.353 44.1371V46.5533C117.225 46.5149 117.048 46.4808 116.822 46.451C116.596 46.4212 116.39 46.4062 116.202 46.4062C115.801 46.4062 115.444 46.4936 115.128 46.6683C114.817 46.8388 114.57 47.0774 114.387 47.3842C114.208 47.6911 114.118 48.0447 114.118 48.4453V54H111.395Z" fill="white"/>
<rect x="73.5" y="32.5" width="50" height="32" stroke="white"/>
<path d="M73 49L63 43.2265V54.7735L73 49ZM12.5 50L64 50V48L12.5 48V50Z" fill="white"/>
<path d="M237 87L227 81.2265V92.7735L237 87ZM212 88H228V86H212V88Z" fill="white"/>
<path d="M137.549 59H136.549H137.549ZM137.549 77H138.549H137.549ZM165 87L155 81.2265V92.7735L165 87ZM125 50H127.549V48H125V50ZM136.549 59L136.549 77H138.549L138.549 59H136.549ZM147.549 88H151.275V86H147.549V88ZM151.275 88H156V86H151.275V88ZM136.549 77C136.549 83.0751 141.474 88 147.549 88V86C142.578 86 138.549 81.9706 138.549 77H136.549ZM127.549 50C132.52 50 136.549 54.0294 136.549 59H138.549C138.549 52.9249 133.624 48 127.549 48V50Z" fill="white"/>
<path d="M212 178L202 172.226V183.774L212 178ZM193 179H203V177H193V179Z" fill="white"/>
<path d="M264 178L254 172.226V183.774L264 178ZM245 179H255V177H245V179Z" fill="white"/>
<path d="M294 49L284 43.2265L284 54.7735L294 49ZM124 50L285 50L285 48L124 48L124 50Z" fill="white"/>
<path d="M419 49L409 43.2265L409 54.7735L419 49ZM249 50L410 50L410 48L249 48L249 50Z" fill="white"/>
<path d="M373.5 134L373.5 135L373.5 134ZM383.5 124L382.5 124L383.5 124ZM383.5 59L384.5 59L383.5 59ZM393.5 49L393.5 48L393.5 49ZM419 49L409 43.2265L409 54.7735L419 49ZM356 135L373.5 135L373.5 133L356 133L356 135ZM384.5 124L384.5 59L382.5 59L382.5 124L384.5 124ZM393.5 50L410 50L410 48L393.5 48L393.5 50ZM384.5 59C384.5 54.0294 388.529 50 393.5 50L393.5 48C387.425 48 382.5 52.9249 382.5 59L384.5 59ZM373.5 135C379.575 135 384.5 130.075 384.5 124L382.5 124C382.5 128.97 378.471 133 373.5 133L373.5 135Z" fill="white"/>
<path d="M373.5 178L373.5 179L373.5 178ZM383.5 168L382.5 168L383.5 168ZM383.5 59L384.5 59L383.5 59ZM393.5 49L393.5 50L393.5 49ZM419 49L409 43.2265L409 54.7735L419 49ZM356 179L373.5 179L373.5 177L356 177L356 179ZM384.5 168L384.5 59L382.5 59L382.5 168L384.5 168ZM393.5 50L410 50L410 48L393.5 48L393.5 50ZM384.5 59C384.5 54.0294 388.529 50 393.5 50L393.5 48C387.425 48 382.5 52.9249 382.5 59L384.5 59ZM373.5 179C379.575 179 384.5 174.075 384.5 168L382.5 168C382.5 172.971 378.471 177 373.5 177L373.5 179Z" fill="white"/>
<path d="M360 134L350 128.226L350 139.774L360 134ZM106 135L351 135L351 133L106 133V135Z" fill="white"/>
<path d="M360 178L350 172.227L350 183.774L360 178ZM297 179L351 179L351 177L297 177L297 179Z" fill="white"/>
</svg>
