<svg width="678" height="267" viewBox="0 0 678 267" fill="none" xmlns="http://www.w3.org/2000/svg">
<path d="M1.08665 18V8.18182H3.72656V9.89489H3.82884C4.00781 9.28551 4.30824 8.82528 4.73011 8.5142C5.15199 8.19886 5.63778 8.04119 6.1875 8.04119C6.32386 8.04119 6.47088 8.04972 6.62855 8.06676C6.78622 8.08381 6.92472 8.10724 7.04403 8.13707V10.5533C6.91619 10.5149 6.73935 10.4808 6.51349 10.451C6.28764 10.4212 6.08097 10.4062 5.89347 10.4062C5.4929 10.4062 5.13494 10.4936 4.8196 10.6683C4.50852 10.8388 4.26136 11.0774 4.07812 11.3842C3.89915 11.6911 3.80966 12.0447 3.80966 12.4453V18H1.08665ZM12.4693 18.1918C11.4593 18.1918 10.59 17.9872 9.86133 17.5781C9.1369 17.1648 8.57866 16.581 8.18661 15.8267C7.79457 15.0682 7.59854 14.1712 7.59854 13.1357C7.59854 12.1257 7.79457 11.2393 8.18661 10.4766C8.57866 9.71378 9.1305 9.11932 9.84215 8.69318C10.5581 8.26705 11.3975 8.05398 12.3606 8.05398C13.0083 8.05398 13.6113 8.15838 14.1696 8.36719C14.7321 8.57173 15.2221 8.88068 15.6397 9.29403C16.0616 9.70739 16.3897 10.2273 16.6241 10.8537C16.8585 11.4759 16.9757 12.2045 16.9757 13.0398V13.7876H8.68519V12.1001H14.4125C14.4125 11.7081 14.3272 11.3608 14.1568 11.0582C13.9863 10.7557 13.7498 10.5192 13.4473 10.3487C13.149 10.174 12.8017 10.0866 12.4054 10.0866C11.992 10.0866 11.6255 10.1825 11.3059 10.3743C10.9906 10.5618 10.7434 10.8153 10.5645 11.1349C10.3855 11.4503 10.2939 11.8018 10.2896 12.1896V13.794C10.2896 14.2798 10.3791 14.6996 10.5581 15.0533C10.7413 15.407 10.9991 15.6797 11.3315 15.8714C11.6639 16.0632 12.0581 16.1591 12.514 16.1591C12.8166 16.1591 13.0936 16.1165 13.345 16.0312C13.5964 15.946 13.8116 15.8182 13.9906 15.6477C14.1696 15.4773 14.3059 15.2685 14.3997 15.0213L16.9181 15.1875C16.7903 15.7926 16.5282 16.321 16.1319 16.7727C15.7399 17.2202 15.2328 17.5696 14.6106 17.821C13.9927 18.0682 13.2789 18.1918 12.4693 18.1918ZM23.975 8.18182V10.2273H18.0623V8.18182H23.975ZM19.4047 5.82955H22.1277V14.983C22.1277 15.2344 22.166 15.4304 22.2427 15.571C22.3194 15.7074 22.426 15.8033 22.5623 15.8587C22.7029 15.9141 22.8649 15.9418 23.0481 15.9418C23.176 15.9418 23.3038 15.9311 23.4316 15.9098C23.5595 15.8842 23.6575 15.8651 23.7257 15.8523L24.1539 17.8786C24.0176 17.9212 23.8258 17.9702 23.5787 18.0256C23.3315 18.0852 23.0311 18.1214 22.6774 18.1342C22.0211 18.1598 21.4458 18.0724 20.9515 17.8722C20.4615 17.6719 20.0801 17.3608 19.8074 16.9389C19.5346 16.517 19.4004 15.9844 19.4047 15.3409V5.82955ZM32.0449 13.8196V8.18182H34.7679V18H32.1536V16.2166H32.0513C31.8297 16.7919 31.4611 17.2543 30.9455 17.6037C30.4341 17.9531 29.8098 18.1278 29.0726 18.1278C28.4164 18.1278 27.839 17.9787 27.3404 17.6804C26.8418 17.3821 26.4519 16.9581 26.1706 16.4084C25.8936 15.8587 25.753 15.2003 25.7488 14.4332V8.18182H28.4718V13.9474C28.476 14.527 28.6316 14.9851 28.9384 15.3217C29.2452 15.6584 29.6564 15.8267 30.1721 15.8267C30.5002 15.8267 30.807 15.7521 31.0925 15.603C31.378 15.4496 31.6081 15.2237 31.7828 14.9254C31.9618 14.6271 32.0492 14.2585 32.0449 13.8196ZM36.946 18V8.18182H39.5859V9.89489H39.6882C39.8672 9.28551 40.1676 8.82528 40.5895 8.5142C41.0114 8.19886 41.4972 8.04119 42.0469 8.04119C42.1832 8.04119 42.3303 8.04972 42.4879 8.06676C42.6456 8.08381 42.7841 8.10724 42.9034 8.13707V10.5533C42.7756 10.5149 42.5987 10.4808 42.3729 10.451C42.147 10.4212 41.9403 10.4062 41.7528 10.4062C41.3523 10.4062 40.9943 10.4936 40.679 10.6683C40.3679 10.8388 40.1207 11.0774 39.9375 11.3842C39.7585 11.6911 39.669 12.0447 39.669 12.4453V18H36.946ZM47.0343 12.3239V18H44.3113V8.18182H46.9064V9.91406H47.0215C47.2388 9.34304 47.6032 8.89133 48.1145 8.55895C48.6259 8.2223 49.2459 8.05398 49.9746 8.05398C50.6564 8.05398 51.2509 8.20312 51.758 8.50142C52.2651 8.79972 52.6593 9.22585 52.9405 9.77983C53.2218 10.3295 53.3624 10.9858 53.3624 11.7486V18H50.6394V12.2344C50.6436 11.6335 50.4902 11.1648 50.1792 10.8281C49.8681 10.4872 49.4398 10.3168 48.8944 10.3168C48.5279 10.3168 48.204 10.3956 47.9228 10.5533C47.6458 10.7109 47.4284 10.9411 47.2708 11.2436C47.1174 11.5419 47.0385 11.902 47.0343 12.3239ZM55.5085 18V8.18182H58.2315V18H55.5085ZM56.8764 6.91619C56.4716 6.91619 56.1243 6.78196 55.8345 6.51349C55.549 6.24077 55.4062 5.91477 55.4062 5.53551C55.4062 5.16051 55.549 4.83878 55.8345 4.57031C56.1243 4.29758 56.4716 4.16122 56.8764 4.16122C57.2813 4.16122 57.6264 4.29758 57.9119 4.57031C58.2017 4.83878 58.3466 5.16051 58.3466 5.53551C58.3466 5.91477 58.2017 6.24077 57.9119 6.51349C57.6264 6.78196 57.2813 6.91619 56.8764 6.91619ZM63.1358 12.3239V18H60.4128V8.18182H63.008V9.91406H63.123C63.3404 9.34304 63.7047 8.89133 64.2161 8.55895C64.7275 8.2223 65.3475 8.05398 66.0762 8.05398C66.758 8.05398 67.3525 8.20312 67.8596 8.50142C68.3667 8.79972 68.7608 9.22585 69.0421 9.77983C69.3233 10.3295 69.464 10.9858 69.464 11.7486V18H66.7409V12.2344C66.7452 11.6335 66.5918 11.1648 66.2807 10.8281C65.9696 10.4872 65.5414 10.3168 64.9959 10.3168C64.6294 10.3168 64.3056 10.3956 64.0243 10.5533C63.7473 10.7109 63.53 10.9411 63.3723 11.2436C63.2189 11.5419 63.1401 11.902 63.1358 12.3239ZM76.0334 21.8864C75.1513 21.8864 74.3949 21.7649 73.7642 21.522C73.1378 21.2834 72.6392 20.9574 72.2685 20.544C71.8977 20.1307 71.657 19.6662 71.5462 19.1506L74.0646 18.8118C74.1413 19.0078 74.2628 19.1911 74.429 19.3615C74.5952 19.532 74.8146 19.6683 75.0874 19.7706C75.3643 19.8771 75.701 19.9304 76.0973 19.9304C76.6896 19.9304 77.1776 19.7855 77.5611 19.4957C77.9489 19.2102 78.1428 18.7308 78.1428 18.0575V16.2614H78.0277C77.9084 16.5341 77.7294 16.7919 77.4908 17.0348C77.2521 17.2777 76.9453 17.4759 76.5703 17.6293C76.1953 17.7827 75.7479 17.8594 75.228 17.8594C74.4908 17.8594 73.8196 17.6889 73.2145 17.348C72.6136 17.0028 72.1342 16.4766 71.7763 15.7692C71.4226 15.0575 71.2457 14.1584 71.2457 13.0717C71.2457 11.9595 71.4268 11.0305 71.7891 10.2848C72.1513 9.53906 72.6328 8.98082 73.2337 8.61009C73.8388 8.23935 74.5014 8.05398 75.2216 8.05398C75.7713 8.05398 76.2315 8.14773 76.6023 8.33523C76.973 8.51847 77.2713 8.74858 77.4972 9.02557C77.7273 9.2983 77.9041 9.56676 78.0277 9.83097H78.13V8.18182H80.8338V18.0959C80.8338 18.9311 80.6293 19.63 80.2202 20.1925C79.8111 20.755 79.2443 21.1768 78.5199 21.4581C77.7997 21.7436 76.9709 21.8864 76.0334 21.8864ZM76.0909 15.8139C76.5298 15.8139 76.9006 15.7053 77.2031 15.4879C77.5099 15.2663 77.7443 14.951 77.9062 14.5419C78.0724 14.1286 78.1555 13.6342 78.1555 13.0589C78.1555 12.4837 78.0746 11.9851 77.9126 11.5632C77.7507 11.1371 77.5163 10.8068 77.2095 10.5724C76.9027 10.3381 76.5298 10.2209 76.0909 10.2209C75.6435 10.2209 75.2663 10.3423 74.9595 10.5852C74.6527 10.8239 74.4205 11.1562 74.2628 11.5824C74.1051 12.0085 74.0263 12.5007 74.0263 13.0589C74.0263 13.6257 74.1051 14.1158 74.2628 14.5291C74.4247 14.9382 74.657 15.2557 74.9595 15.4815C75.2663 15.7031 75.6435 15.8139 76.0909 15.8139ZM89.1179 11.544V13.7045H83.1477V11.544H89.1179ZM95.8743 18.1918C94.8686 18.1918 94.0036 17.9787 93.2791 17.5526C92.5589 17.1222 92.005 16.5256 91.6172 15.7628C91.2337 15 91.0419 14.1222 91.0419 13.1293C91.0419 12.1236 91.2358 11.2415 91.6236 10.483C92.0156 9.72017 92.5717 9.12571 93.2919 8.69957C94.0121 8.26918 94.8686 8.05398 95.8615 8.05398C96.718 8.05398 97.468 8.20952 98.1115 8.5206C98.755 8.83168 99.2642 9.26847 99.6392 9.83097C100.014 10.3935 100.221 11.054 100.259 11.8125H97.6896C97.6172 11.3224 97.4254 10.9283 97.1143 10.63C96.8075 10.3274 96.4048 10.1761 95.9062 10.1761C95.4844 10.1761 95.1158 10.2912 94.8004 10.5213C94.4893 10.7472 94.2464 11.0774 94.0717 11.5121C93.897 11.9467 93.8097 12.473 93.8097 13.0909C93.8097 13.7173 93.8949 14.25 94.0653 14.6889C94.2401 15.1278 94.4851 15.4624 94.8004 15.6925C95.1158 15.9226 95.4844 16.0376 95.9062 16.0376C96.2173 16.0376 96.4964 15.9737 96.7436 15.8459C96.995 15.718 97.2017 15.5327 97.3636 15.2898C97.5298 15.0426 97.6385 14.7464 97.6896 14.4013H100.259C100.217 15.1513 100.012 15.8118 99.6456 16.3828C99.2834 16.9496 98.7827 17.3928 98.1435 17.7124C97.5043 18.032 96.7479 18.1918 95.8743 18.1918ZM104.726 4.90909V18H102.003V4.90909H104.726ZM109.707 18.1854C109.08 18.1854 108.522 18.0767 108.032 17.8594C107.542 17.6378 107.154 17.3118 106.869 16.8814C106.587 16.4467 106.447 15.9055 106.447 15.2578C106.447 14.7124 106.547 14.2543 106.747 13.8835C106.947 13.5128 107.22 13.2145 107.565 12.9886C107.911 12.7628 108.303 12.5923 108.741 12.4773C109.185 12.3622 109.649 12.2812 110.135 12.2344C110.706 12.1747 111.166 12.1193 111.516 12.0682C111.865 12.0128 112.119 11.9318 112.276 11.8253C112.434 11.7187 112.513 11.5611 112.513 11.3523V11.3139C112.513 10.9091 112.385 10.5959 112.129 10.3743C111.878 10.1527 111.52 10.0419 111.055 10.0419C110.565 10.0419 110.175 10.1506 109.886 10.3679C109.596 10.581 109.404 10.8494 109.31 11.1733L106.792 10.9688C106.92 10.3722 107.171 9.85653 107.546 9.42188C107.921 8.98295 108.405 8.64631 108.997 8.41193C109.594 8.1733 110.284 8.05398 111.068 8.05398C111.614 8.05398 112.136 8.1179 112.634 8.24574C113.137 8.37358 113.582 8.57173 113.97 8.8402C114.362 9.10866 114.671 9.45384 114.897 9.87571C115.123 10.2933 115.236 10.794 115.236 11.3778V18H112.653V16.6385H112.577C112.419 16.9453 112.208 17.2159 111.944 17.4503C111.68 17.6804 111.362 17.8615 110.991 17.9936C110.621 18.1214 110.192 18.1854 109.707 18.1854ZM110.487 16.3061C110.887 16.3061 111.241 16.2273 111.548 16.0696C111.854 15.9077 112.095 15.6903 112.27 15.4176C112.445 15.1449 112.532 14.8359 112.532 14.4908V13.4489C112.447 13.5043 112.33 13.5554 112.18 13.6023C112.036 13.6449 111.871 13.6854 111.688 13.7237C111.505 13.7578 111.322 13.7898 111.138 13.8196C110.955 13.8452 110.789 13.8686 110.64 13.8899C110.32 13.9368 110.041 14.0114 109.803 14.1136C109.564 14.2159 109.379 14.3544 109.246 14.5291C109.114 14.6996 109.048 14.9126 109.048 15.1683C109.048 15.5391 109.183 15.8224 109.451 16.0185C109.724 16.2102 110.069 16.3061 110.487 16.3061ZM123.645 13.8196V8.18182H126.368V18H123.753V16.2166H123.651C123.429 16.7919 123.061 17.2543 122.545 17.6037C122.034 17.9531 121.409 18.1278 120.672 18.1278C120.016 18.1278 119.439 17.9787 118.94 17.6804C118.441 17.3821 118.051 16.9581 117.77 16.4084C117.493 15.8587 117.353 15.2003 117.348 14.4332V8.18182H120.071V13.9474C120.076 14.527 120.231 14.9851 120.538 15.3217C120.845 15.6584 121.256 15.8267 121.772 15.8267C122.1 15.8267 122.407 15.7521 122.692 15.603C122.978 15.4496 123.208 15.2237 123.382 14.9254C123.561 14.6271 123.649 14.2585 123.645 13.8196ZM136.715 10.9815L134.222 11.1349C134.179 10.9219 134.088 10.7301 133.947 10.5597C133.806 10.3849 133.621 10.2464 133.391 10.1442C133.165 10.0376 132.894 9.98438 132.579 9.98438C132.157 9.98438 131.801 10.0739 131.512 10.2528C131.222 10.4276 131.077 10.6619 131.077 10.956C131.077 11.1903 131.171 11.3885 131.358 11.5504C131.546 11.7124 131.867 11.8423 132.323 11.9403L134.1 12.2983C135.055 12.4943 135.767 12.8097 136.235 13.2443C136.704 13.679 136.938 14.25 136.938 14.9574C136.938 15.6009 136.749 16.1655 136.369 16.6513C135.994 17.1371 135.479 17.5163 134.823 17.7891C134.171 18.0575 133.419 18.1918 132.566 18.1918C131.267 18.1918 130.231 17.9212 129.46 17.38C128.693 16.8345 128.243 16.093 128.111 15.1555L130.789 15.0149C130.87 15.4112 131.066 15.7138 131.377 15.9226C131.688 16.1271 132.087 16.2294 132.573 16.2294C133.05 16.2294 133.433 16.1378 133.723 15.9545C134.017 15.767 134.166 15.5263 134.171 15.2322C134.166 14.9851 134.062 14.7827 133.857 14.625C133.653 14.4631 133.338 14.3395 132.911 14.2543L131.211 13.9155C130.252 13.7237 129.539 13.3913 129.07 12.9183C128.605 12.4453 128.373 11.8423 128.373 11.1094C128.373 10.4787 128.544 9.93537 128.884 9.4794C129.23 9.02344 129.713 8.67188 130.335 8.42472C130.962 8.17756 131.695 8.05398 132.534 8.05398C133.774 8.05398 134.75 8.31605 135.462 8.8402C136.178 9.36435 136.595 10.0781 136.715 10.9815ZM143.127 18.1918C142.118 18.1918 141.248 17.9872 140.52 17.5781C139.795 17.1648 139.237 16.581 138.845 15.8267C138.453 15.0682 138.257 14.1712 138.257 13.1357C138.257 12.1257 138.453 11.2393 138.845 10.4766C139.237 9.71378 139.789 9.11932 140.5 8.69318C141.216 8.26705 142.056 8.05398 143.019 8.05398C143.667 8.05398 144.27 8.15838 144.828 8.36719C145.39 8.57173 145.88 8.88068 146.298 9.29403C146.72 9.70739 147.048 10.2273 147.282 10.8537C147.517 11.4759 147.634 12.2045 147.634 13.0398V13.7876H139.343V12.1001H145.071C145.071 11.7081 144.985 11.3608 144.815 11.0582C144.645 10.7557 144.408 10.5192 144.105 10.3487C143.807 10.174 143.46 10.0866 143.064 10.0866C142.65 10.0866 142.284 10.1825 141.964 10.3743C141.649 10.5618 141.402 10.8153 141.223 11.1349C141.044 11.4503 140.952 11.8018 140.948 12.1896V13.794C140.948 14.2798 141.037 14.6996 141.216 15.0533C141.4 15.407 141.657 15.6797 141.99 15.8714C142.322 16.0632 142.716 16.1591 143.172 16.1591C143.475 16.1591 143.752 16.1165 144.003 16.0312C144.255 15.946 144.47 15.8182 144.649 15.6477C144.828 15.4773 144.964 15.2685 145.058 15.0213L147.576 15.1875C147.449 15.7926 147.186 16.321 146.79 16.7727C146.398 17.2202 145.891 17.5696 145.269 17.821C144.651 18.0682 143.937 18.1918 143.127 18.1918Z" fill="white"/>
<circle cx="7" cy="116" r="3.5" stroke="white"/>
<circle cx="674" cy="116" r="3.5" stroke="white"/>
<path d="M35 116L25 110.226V121.774L35 116ZM11 117H26V115H11V117Z" fill="white"/>
<path d="M618 172L608 166.226V177.774L618 172ZM594 173H609V171H594V173Z" fill="white"/>
<path d="M579 252L569 246.226V257.774L579 252ZM555 253H570V251H555V253Z" fill="white"/>
<path d="M239 116L229 110.226V121.774L239 116ZM169 117H230V115H169V117Z" fill="white"/>
<path d="M433 172L423 166.226V177.774L433 172ZM385 173H424V171H385V173Z" fill="white"/>
<path d="M331.5 172L321.5 166.226V177.774L331.5 172ZM288 117H292.5V115H288V117ZM301.5 126V162H303.5V126H301.5ZM312.5 173H322.5V171H312.5V173ZM301.5 162C301.5 168.075 306.425 173 312.5 173V171C307.529 171 303.5 166.971 303.5 162H301.5ZM292.5 117C297.471 117 301.5 121.029 301.5 126H303.5C303.5 119.925 298.575 115 292.5 115V117Z" fill="white"/>
<path d="M408.5 252L398.5 246.227V257.773L408.5 252ZM205 117H211.956V115H205V117ZM220.956 126V242H222.956V126H220.956ZM231.956 253H399.5V251H231.956V253ZM220.956 242C220.956 248.075 225.881 253 231.956 253V251C226.986 251 222.956 246.971 222.956 242H220.956ZM211.956 117C216.927 117 220.956 121.029 220.956 126H222.956C222.956 119.925 218.031 115 211.956 115V117Z" fill="white"/>
<path d="M433 172.5L423 166.726V178.274L433 172.5ZM288 117H292.333V115H288V117ZM301.333 126V200H303.333V126H301.333ZM312.333 211H401.5V209H312.333V211ZM412.5 200V182.5H410.5V200H412.5ZM421.5 173.5H424V171.5H421.5V173.5ZM412.5 182.5C412.5 177.529 416.529 173.5 421.5 173.5V171.5C415.425 171.5 410.5 176.425 410.5 182.5H412.5ZM401.5 211C407.575 211 412.5 206.075 412.5 200H410.5C410.5 204.971 406.471 209 401.5 209V211ZM301.333 200C301.333 206.075 306.258 211 312.333 211V209C307.363 209 303.333 204.971 303.333 200H301.333ZM292.333 117C297.304 117 301.333 121.029 301.333 126H303.333C303.333 119.925 298.408 115 292.333 115V117Z" fill="white"/>
<path d="M185 60.9989L185 61.9989L185 60.9989ZM185 116L185 115L185 116ZM193.5 116L183.5 110.226L183.5 121.773L193.5 116ZM409 59.9989L185 59.9989L185 61.9989L409 61.9989L409 59.9989ZM174 70.9989L174 106L176 106L176 70.9989L174 70.9989ZM174 106C174 112.075 178.925 116.999 185 117L185 115C180.029 115 176 110.97 176 106L174 106ZM185 59.9989C178.925 59.9989 174 64.9238 174 70.9989L176 70.9989C176 66.0284 180.029 61.9989 185 61.9989L185 59.9989Z" fill="white"/>
<path d="M503 116L493 110.226V121.774L503 116ZM288 117H494V115H288V117Z" fill="white"/>
<path d="M670 116L660 110.226V121.774L670 116ZM455 117H661V115H455V117Z" fill="white"/>
<path d="M670 116L660 110.226V121.774L670 116ZM441 253H622.5V251H441V253ZM633.5 242V126H631.5V242H633.5ZM642.5 117H661V115H642.5V117ZM633.5 126C633.5 121.029 637.529 117 642.5 117V115C636.425 115 631.5 119.925 631.5 126H633.5ZM622.5 253C628.575 253 633.5 248.075 633.5 242H631.5C631.5 246.971 627.471 251 622.5 251V253Z" fill="white"/>
<path d="M670 116L660 110.226V121.774L670 116ZM579 173H622.5V171H579V173ZM633.5 162V126H631.5V162H633.5ZM642.5 117H661V115H642.5V117ZM633.5 126C633.5 121.029 637.529 117 642.5 117V115C636.425 115 631.5 119.925 631.5 126H633.5ZM622.5 173C628.575 173 633.5 168.075 633.5 162H631.5C631.5 166.971 627.471 171 622.5 171V173Z" fill="white"/>
<path d="M441.5 61L451.5 66.7735V55.2265L441.5 61ZM455 117H616.5V115H455V117ZM627.5 106V71H625.5V106H627.5ZM616.5 60H450.5V62H616.5V60ZM627.5 71C627.5 64.9249 622.575 60 616.5 60V62C621.471 62 625.5 66.0294 625.5 71H627.5ZM616.5 117C622.575 117 627.5 112.075 627.5 106H625.5C625.5 110.971 621.471 115 616.5 115V117Z" fill="white"/>
<path d="M52.1378 122V108.909H57.3026C58.2912 108.909 59.1349 109.086 59.8338 109.44C60.5369 109.789 61.0717 110.286 61.4382 110.929C61.8089 111.568 61.9943 112.32 61.9943 113.185C61.9943 114.055 61.8068 114.803 61.4318 115.429C61.0568 116.051 60.5135 116.528 59.8018 116.861C59.0945 117.193 58.2379 117.359 57.2322 117.359H53.7741V115.135H56.7848C57.3132 115.135 57.7521 115.062 58.1016 114.918C58.451 114.773 58.7109 114.555 58.8814 114.266C59.0561 113.976 59.1435 113.616 59.1435 113.185C59.1435 112.751 59.0561 112.384 58.8814 112.086C58.7109 111.788 58.4489 111.562 58.0952 111.408C57.7457 111.251 57.3047 111.172 56.772 111.172H54.9055V122H52.1378ZM59.2074 116.043L62.4609 122H59.4055L56.2223 116.043H59.2074ZM63.9503 122V108.909H72.7713V111.191H66.718V114.31H72.3175V116.592H66.718V119.718H72.7969V122H63.9503ZM74.4732 111.191V108.909H85.2246V111.191H81.2168V122H78.481V111.191H74.4732ZM95.0811 108.909H97.8489V117.411C97.8489 118.365 97.6209 119.2 97.165 119.916C96.7132 120.632 96.0804 121.19 95.2665 121.591C94.4526 121.987 93.5044 122.185 92.4221 122.185C91.3354 122.185 90.3851 121.987 89.5712 121.591C88.7573 121.19 88.1245 120.632 87.6728 119.916C87.2211 119.2 86.9952 118.365 86.9952 117.411V108.909H89.763V117.174C89.763 117.673 89.8716 118.116 90.089 118.504C90.3105 118.891 90.6216 119.196 91.0222 119.418C91.4228 119.639 91.8894 119.75 92.4221 119.75C92.959 119.75 93.4256 119.639 93.8219 119.418C94.2225 119.196 94.5314 118.891 94.7488 118.504C94.9703 118.116 95.0811 117.673 95.0811 117.174V108.909ZM100.126 122V108.909H105.291C106.279 108.909 107.123 109.086 107.822 109.44C108.525 109.789 109.06 110.286 109.426 110.929C109.797 111.568 109.983 112.32 109.983 113.185C109.983 114.055 109.795 114.803 109.42 115.429C109.045 116.051 108.502 116.528 107.79 116.861C107.083 117.193 106.226 117.359 105.221 117.359H101.762V115.135H104.773C105.301 115.135 105.74 115.062 106.09 114.918C106.439 114.773 106.699 114.555 106.87 114.266C107.044 113.976 107.132 113.616 107.132 113.185C107.132 112.751 107.044 112.384 106.87 112.086C106.699 111.788 106.437 111.562 106.083 111.408C105.734 111.251 105.293 111.172 104.76 111.172H102.894V122H100.126ZM107.196 116.043L110.449 122H107.394L104.211 116.043H107.196ZM122.888 108.909V122H120.498L114.802 113.761H114.706V122H111.939V108.909H114.368L120.018 117.142H120.133V108.909H122.888ZM127.943 108.909V122H125.175V108.909H127.943ZM141.169 108.909V122H138.779L133.083 113.761H132.988V122H130.22V108.909H132.649L138.299 117.142H138.414V108.909H141.169ZM152.137 113.141C152.047 112.83 151.921 112.555 151.759 112.316C151.597 112.073 151.399 111.869 151.165 111.702C150.935 111.532 150.671 111.402 150.372 111.312C150.078 111.223 149.752 111.178 149.394 111.178C148.725 111.178 148.137 111.344 147.63 111.677C147.127 112.009 146.735 112.493 146.454 113.128C146.173 113.759 146.032 114.53 146.032 115.442C146.032 116.354 146.171 117.129 146.448 117.768C146.725 118.408 147.117 118.896 147.624 119.232C148.131 119.565 148.73 119.731 149.42 119.731C150.046 119.731 150.581 119.62 151.024 119.398C151.472 119.173 151.813 118.855 152.047 118.446C152.286 118.037 152.405 117.553 152.405 116.995L152.968 117.078H149.593V114.994H155.07V116.643C155.07 117.794 154.828 118.783 154.342 119.609C153.856 120.432 153.187 121.067 152.335 121.514C151.482 121.957 150.507 122.179 149.407 122.179C148.18 122.179 147.102 121.908 146.173 121.367C145.244 120.822 144.519 120.048 143.999 119.047C143.484 118.041 143.226 116.848 143.226 115.467C143.226 114.406 143.379 113.46 143.686 112.629C143.997 111.794 144.432 111.087 144.99 110.507C145.548 109.928 146.198 109.487 146.94 109.184C147.681 108.881 148.485 108.73 149.35 108.73C150.091 108.73 150.781 108.839 151.421 109.056C152.06 109.269 152.627 109.572 153.121 109.964C153.619 110.356 154.026 110.822 154.342 111.364C154.657 111.901 154.86 112.493 154.949 113.141H152.137Z" fill="white"/>
<rect x="36.5" y="100.5" width="132" height="32" rx="16" stroke="white"/>
<path d="M453.523 177.192C452.517 177.192 451.652 176.979 450.928 176.553C450.207 176.122 449.653 175.526 449.266 174.763C448.882 174 448.69 173.122 448.69 172.129C448.69 171.124 448.884 170.241 449.272 169.483C449.664 168.72 450.22 168.126 450.94 167.7C451.661 167.269 452.517 167.054 453.51 167.054C454.366 167.054 455.116 167.21 455.76 167.521C456.403 167.832 456.913 168.268 457.288 168.831C457.663 169.393 457.869 170.054 457.908 170.812H455.338C455.266 170.322 455.074 169.928 454.763 169.63C454.456 169.327 454.053 169.176 453.555 169.176C453.133 169.176 452.764 169.291 452.449 169.521C452.138 169.747 451.895 170.077 451.72 170.512C451.545 170.947 451.458 171.473 451.458 172.091C451.458 172.717 451.543 173.25 451.714 173.689C451.888 174.128 452.134 174.462 452.449 174.692C452.764 174.923 453.133 175.038 453.555 175.038C453.866 175.038 454.145 174.974 454.392 174.846C454.643 174.718 454.85 174.533 455.012 174.29C455.178 174.043 455.287 173.746 455.338 173.401H457.908C457.865 174.151 457.661 174.812 457.294 175.383C456.932 175.95 456.431 176.393 455.792 176.712C455.153 177.032 454.396 177.192 453.523 177.192ZM464.087 177.192C463.094 177.192 462.236 176.981 461.511 176.559C460.791 176.133 460.235 175.54 459.843 174.782C459.451 174.019 459.255 173.135 459.255 172.129C459.255 171.115 459.451 170.229 459.843 169.47C460.235 168.707 460.791 168.115 461.511 167.693C462.236 167.267 463.094 167.054 464.087 167.054C465.08 167.054 465.937 167.267 466.657 167.693C467.381 168.115 467.939 168.707 468.331 169.47C468.724 170.229 468.92 171.115 468.92 172.129C468.92 173.135 468.724 174.019 468.331 174.782C467.939 175.54 467.381 176.133 466.657 176.559C465.937 176.981 465.08 177.192 464.087 177.192ZM464.1 175.082C464.552 175.082 464.929 174.955 465.231 174.699C465.534 174.439 465.762 174.085 465.915 173.638C466.073 173.19 466.152 172.681 466.152 172.11C466.152 171.539 466.073 171.03 465.915 170.582C465.762 170.135 465.534 169.781 465.231 169.521C464.929 169.261 464.552 169.131 464.1 169.131C463.644 169.131 463.26 169.261 462.949 169.521C462.643 169.781 462.41 170.135 462.253 170.582C462.099 171.03 462.023 171.539 462.023 172.11C462.023 172.681 462.099 173.19 462.253 173.638C462.41 174.085 462.643 174.439 462.949 174.699C463.26 174.955 463.644 175.082 464.1 175.082ZM473.413 163.909V177H470.69V163.909H473.413ZM481.891 172.82V167.182H484.614V177H481.999V175.217H481.897C481.675 175.792 481.307 176.254 480.791 176.604C480.28 176.953 479.656 177.128 478.918 177.128C478.262 177.128 477.685 176.979 477.186 176.68C476.688 176.382 476.298 175.958 476.016 175.408C475.739 174.859 475.599 174.2 475.594 173.433V167.182H478.317V172.947C478.322 173.527 478.477 173.985 478.784 174.322C479.091 174.658 479.502 174.827 480.018 174.827C480.346 174.827 480.653 174.752 480.938 174.603C481.224 174.45 481.454 174.224 481.629 173.925C481.808 173.627 481.895 173.259 481.891 172.82ZM486.792 177V167.182H489.387V168.914H489.502C489.706 168.339 490.047 167.885 490.525 167.553C491.002 167.22 491.573 167.054 492.238 167.054C492.911 167.054 493.484 167.222 493.957 167.559C494.43 167.891 494.746 168.343 494.903 168.914H495.006C495.206 168.352 495.568 167.902 496.092 167.565C496.621 167.224 497.245 167.054 497.965 167.054C498.881 167.054 499.625 167.346 500.196 167.93C500.771 168.509 501.059 169.332 501.059 170.397V177H498.342V170.934C498.342 170.388 498.197 169.979 497.907 169.707C497.618 169.434 497.256 169.298 496.821 169.298C496.327 169.298 495.941 169.455 495.664 169.771C495.387 170.082 495.248 170.493 495.248 171.004V177H492.608V170.876C492.608 170.395 492.47 170.011 492.193 169.726C491.92 169.44 491.56 169.298 491.113 169.298C490.81 169.298 490.537 169.374 490.295 169.528C490.056 169.677 489.866 169.888 489.726 170.161C489.585 170.429 489.515 170.744 489.515 171.107V177H486.792ZM505.933 171.324V177H503.21V167.182H505.805V168.914H505.92C506.137 168.343 506.502 167.891 507.013 167.559C507.524 167.222 508.144 167.054 508.873 167.054C509.555 167.054 510.149 167.203 510.656 167.501C511.164 167.8 511.558 168.226 511.839 168.78C512.12 169.33 512.261 169.986 512.261 170.749V177H509.538V171.234C509.542 170.634 509.389 170.165 509.078 169.828C508.767 169.487 508.338 169.317 507.793 169.317C507.426 169.317 507.102 169.396 506.821 169.553C506.544 169.711 506.327 169.941 506.169 170.244C506.016 170.542 505.937 170.902 505.933 171.324ZM520.524 170.544V172.705H514.554V170.544H520.524ZM525.644 177.185C525.018 177.185 524.46 177.077 523.969 176.859C523.479 176.638 523.092 176.312 522.806 175.881C522.525 175.447 522.384 174.906 522.384 174.258C522.384 173.712 522.484 173.254 522.685 172.884C522.885 172.513 523.158 172.214 523.503 171.989C523.848 171.763 524.24 171.592 524.679 171.477C525.122 171.362 525.587 171.281 526.072 171.234C526.643 171.175 527.104 171.119 527.453 171.068C527.803 171.013 528.056 170.932 528.214 170.825C528.371 170.719 528.45 170.561 528.45 170.352V170.314C528.45 169.909 528.322 169.596 528.067 169.374C527.815 169.153 527.457 169.042 526.993 169.042C526.503 169.042 526.113 169.151 525.823 169.368C525.533 169.581 525.342 169.849 525.248 170.173L522.729 169.969C522.857 169.372 523.109 168.857 523.484 168.422C523.859 167.983 524.342 167.646 524.935 167.412C525.531 167.173 526.222 167.054 527.006 167.054C527.551 167.054 528.073 167.118 528.572 167.246C529.075 167.374 529.52 167.572 529.908 167.84C530.3 168.109 530.609 168.454 530.835 168.876C531.06 169.293 531.173 169.794 531.173 170.378V177H528.591V175.638H528.514C528.357 175.945 528.146 176.216 527.881 176.45C527.617 176.68 527.3 176.862 526.929 176.994C526.558 177.121 526.13 177.185 525.644 177.185ZM526.424 175.306C526.825 175.306 527.178 175.227 527.485 175.07C527.792 174.908 528.033 174.69 528.207 174.418C528.382 174.145 528.469 173.836 528.469 173.491V172.449C528.384 172.504 528.267 172.555 528.118 172.602C527.973 172.645 527.809 172.685 527.626 172.724C527.442 172.758 527.259 172.79 527.076 172.82C526.893 172.845 526.727 172.869 526.577 172.89C526.258 172.937 525.979 173.011 525.74 173.114C525.501 173.216 525.316 173.354 525.184 173.529C525.052 173.7 524.986 173.913 524.986 174.168C524.986 174.539 525.12 174.822 525.388 175.018C525.661 175.21 526.006 175.306 526.424 175.306ZM536.009 163.909V177H533.286V163.909H536.009ZM538.19 177V167.182H540.913V177H538.19ZM539.558 165.916C539.153 165.916 538.806 165.782 538.516 165.513C538.231 165.241 538.088 164.915 538.088 164.536C538.088 164.161 538.231 163.839 538.516 163.57C538.806 163.298 539.153 163.161 539.558 163.161C539.963 163.161 540.308 163.298 540.594 163.57C540.883 163.839 541.028 164.161 541.028 164.536C541.028 164.915 540.883 165.241 540.594 165.513C540.308 165.782 539.963 165.916 539.558 165.916ZM545.894 177.185C545.268 177.185 544.71 177.077 544.219 176.859C543.729 176.638 543.342 176.312 543.056 175.881C542.775 175.447 542.634 174.906 542.634 174.258C542.634 173.712 542.734 173.254 542.935 172.884C543.135 172.513 543.408 172.214 543.753 171.989C544.098 171.763 544.49 171.592 544.929 171.477C545.372 171.362 545.837 171.281 546.322 171.234C546.893 171.175 547.354 171.119 547.703 171.068C548.053 171.013 548.306 170.932 548.464 170.825C548.621 170.719 548.7 170.561 548.7 170.352V170.314C548.7 169.909 548.572 169.596 548.317 169.374C548.065 169.153 547.707 169.042 547.243 169.042C546.753 169.042 546.363 169.151 546.073 169.368C545.783 169.581 545.592 169.849 545.498 170.173L542.979 169.969C543.107 169.372 543.359 168.857 543.734 168.422C544.109 167.983 544.592 167.646 545.185 167.412C545.781 167.173 546.472 167.054 547.256 167.054C547.801 167.054 548.323 167.118 548.822 167.246C549.325 167.374 549.77 167.572 550.158 167.84C550.55 168.109 550.859 168.454 551.085 168.876C551.31 169.293 551.423 169.794 551.423 170.378V177H548.841V175.638H548.764C548.607 175.945 548.396 176.216 548.131 176.45C547.867 176.68 547.55 176.862 547.179 176.994C546.808 177.121 546.38 177.185 545.894 177.185ZM546.674 175.306C547.075 175.306 547.428 175.227 547.735 175.07C548.042 174.908 548.283 174.69 548.457 174.418C548.632 174.145 548.719 173.836 548.719 173.491V172.449C548.634 172.504 548.517 172.555 548.368 172.602C548.223 172.645 548.059 172.685 547.876 172.724C547.692 172.758 547.509 172.79 547.326 172.82C547.143 172.845 546.977 172.869 546.827 172.89C546.508 172.937 546.229 173.011 545.99 173.114C545.751 173.216 545.566 173.354 545.434 173.529C545.302 173.7 545.236 173.913 545.236 174.168C545.236 174.539 545.37 174.822 545.638 175.018C545.911 175.21 546.256 175.306 546.674 175.306ZM561.705 169.982L559.212 170.135C559.169 169.922 559.078 169.73 558.937 169.56C558.797 169.385 558.611 169.246 558.381 169.144C558.155 169.038 557.885 168.984 557.569 168.984C557.147 168.984 556.792 169.074 556.502 169.253C556.212 169.428 556.067 169.662 556.067 169.956C556.067 170.19 556.161 170.388 556.348 170.55C556.536 170.712 556.858 170.842 557.314 170.94L559.091 171.298C560.045 171.494 560.757 171.81 561.225 172.244C561.694 172.679 561.929 173.25 561.929 173.957C561.929 174.601 561.739 175.165 561.36 175.651C560.985 176.137 560.469 176.516 559.813 176.789C559.161 177.058 558.409 177.192 557.556 177.192C556.257 177.192 555.221 176.921 554.45 176.38C553.683 175.835 553.233 175.093 553.101 174.156L555.779 174.015C555.86 174.411 556.056 174.714 556.368 174.923C556.679 175.127 557.077 175.229 557.563 175.229C558.04 175.229 558.424 175.138 558.713 174.955C559.007 174.767 559.157 174.526 559.161 174.232C559.157 173.985 559.052 173.783 558.848 173.625C558.643 173.463 558.328 173.339 557.902 173.254L556.201 172.915C555.243 172.724 554.529 172.391 554.06 171.918C553.596 171.445 553.363 170.842 553.363 170.109C553.363 169.479 553.534 168.935 553.875 168.479C554.22 168.023 554.703 167.672 555.326 167.425C555.952 167.178 556.685 167.054 557.525 167.054C558.765 167.054 559.74 167.316 560.452 167.84C561.168 168.364 561.586 169.078 561.705 169.982Z" fill="white"/>
<rect x="433.5" y="155.5" width="145" height="32" rx="16" stroke="white"/>
<path d="M349.394 177H346.428L350.947 163.909H354.514L359.027 177H356.061L352.782 166.901H352.68L349.394 177ZM349.209 171.854H356.214V174.015H349.209V171.854ZM367.405 167.674C367.354 167.158 367.135 166.758 366.747 166.472C366.359 166.187 365.833 166.044 365.168 166.044C364.716 166.044 364.335 166.108 364.024 166.236C363.713 166.359 363.474 166.532 363.308 166.754C363.146 166.975 363.065 167.227 363.065 167.508C363.057 167.742 363.106 167.947 363.212 168.121C363.323 168.296 363.474 168.447 363.666 168.575C363.858 168.699 364.079 168.808 364.331 168.901C364.582 168.991 364.851 169.067 365.136 169.131L366.312 169.413C366.883 169.54 367.407 169.711 367.885 169.924C368.362 170.137 368.775 170.399 369.125 170.71C369.474 171.021 369.745 171.388 369.937 171.81C370.133 172.232 370.233 172.715 370.237 173.261C370.233 174.062 370.028 174.756 369.623 175.344C369.223 175.928 368.643 176.382 367.885 176.706C367.131 177.026 366.221 177.185 365.155 177.185C364.099 177.185 363.178 177.023 362.394 176.7C361.614 176.376 361.005 175.896 360.566 175.261C360.131 174.622 359.903 173.832 359.882 172.89H362.56C362.59 173.329 362.716 173.695 362.937 173.989C363.163 174.279 363.464 174.499 363.839 174.648C364.218 174.793 364.646 174.865 365.123 174.865C365.592 174.865 365.999 174.797 366.344 174.661C366.694 174.524 366.964 174.335 367.156 174.092C367.348 173.849 367.444 173.57 367.444 173.254C367.444 172.96 367.356 172.713 367.182 172.513C367.011 172.312 366.76 172.142 366.427 172.001C366.099 171.861 365.697 171.733 365.219 171.618L363.794 171.26C362.69 170.991 361.819 170.572 361.18 170.001C360.54 169.43 360.223 168.661 360.227 167.693C360.223 166.901 360.434 166.208 360.86 165.616C361.29 165.023 361.881 164.561 362.631 164.229C363.381 163.896 364.233 163.73 365.187 163.73C366.159 163.73 367.007 163.896 367.731 164.229C368.46 164.561 369.027 165.023 369.432 165.616C369.836 166.208 370.045 166.894 370.058 167.674H367.405Z" fill="white"/>
<rect x="331.5" y="155.5" width="53" height="32" rx="16" stroke="white"/>
<path d="M426.046 58.2102L425.976 58.9134C425.92 59.4759 425.814 60.0362 425.656 60.5945C425.503 61.157 425.341 61.6662 425.17 62.1222C425.004 62.5781 424.87 62.9361 424.768 63.196H423.004C423.067 62.9446 423.155 62.593 423.266 62.1413C423.376 61.6939 423.481 61.1911 423.579 60.6328C423.677 60.0746 423.739 59.5057 423.764 58.9261L423.796 58.2102H426.046Z" fill="white"/>
<rect x="409.5" y="44.5" width="31" height="32" rx="15.5" stroke="white"/>
<path d="M424.225 254.273L424.385 251.799L422.314 253.186L421.457 251.678L423.688 250.591L421.457 249.504L422.314 247.996L424.385 249.383L424.225 246.909H425.945L425.778 249.383L427.849 247.996L428.706 249.504L426.482 250.591L428.706 251.678L427.849 253.186L425.778 251.799L425.945 254.273H424.225Z" fill="white"/>
<rect x="409.5" y="234.5" width="31" height="32" rx="15.5" stroke="white"/>
<path d="M249.561 121.192C248.551 121.192 247.682 120.987 246.953 120.578C246.229 120.165 245.67 119.581 245.278 118.827C244.886 118.068 244.69 117.171 244.69 116.136C244.69 115.126 244.886 114.239 245.278 113.477C245.67 112.714 246.222 112.119 246.934 111.693C247.65 111.267 248.489 111.054 249.452 111.054C250.1 111.054 250.703 111.158 251.261 111.367C251.824 111.572 252.314 111.881 252.732 112.294C253.153 112.707 253.482 113.227 253.716 113.854C253.95 114.476 254.067 115.205 254.067 116.04V116.788H245.777V115.1H251.504C251.504 114.708 251.419 114.361 251.249 114.058C251.078 113.756 250.842 113.519 250.539 113.349C250.241 113.174 249.893 113.087 249.497 113.087C249.084 113.087 248.717 113.183 248.398 113.374C248.082 113.562 247.835 113.815 247.656 114.135C247.477 114.45 247.386 114.802 247.381 115.19V116.794C247.381 117.28 247.471 117.7 247.65 118.053C247.833 118.407 248.091 118.68 248.423 118.871C248.756 119.063 249.15 119.159 249.606 119.159C249.908 119.159 250.185 119.116 250.437 119.031C250.688 118.946 250.903 118.818 251.082 118.648C251.261 118.477 251.398 118.268 251.491 118.021L254.01 118.188C253.882 118.793 253.62 119.321 253.224 119.773C252.832 120.22 252.325 120.57 251.702 120.821C251.085 121.068 250.371 121.192 249.561 121.192ZM257.944 111.182L259.747 114.614L261.594 111.182H264.387L261.543 116.091L264.464 121H261.684L259.747 117.606L257.842 121H255.029L257.944 116.091L255.132 111.182H257.944ZM266.005 124.682V111.182H268.689V112.831H268.811C268.93 112.567 269.103 112.298 269.328 112.026C269.559 111.749 269.857 111.518 270.223 111.335C270.594 111.148 271.054 111.054 271.604 111.054C272.32 111.054 272.98 111.241 273.586 111.616C274.191 111.987 274.674 112.548 275.037 113.298C275.399 114.043 275.58 114.979 275.58 116.104C275.58 117.199 275.403 118.124 275.049 118.878C274.7 119.628 274.223 120.197 273.618 120.585C273.017 120.968 272.343 121.16 271.598 121.16C271.069 121.16 270.62 121.072 270.249 120.898C269.882 120.723 269.582 120.504 269.348 120.239C269.113 119.971 268.934 119.7 268.811 119.428H268.728V124.682H266.005ZM268.67 116.091C268.67 116.675 268.751 117.184 268.913 117.619C269.075 118.053 269.309 118.392 269.616 118.635C269.923 118.874 270.296 118.993 270.735 118.993C271.178 118.993 271.553 118.871 271.86 118.629C272.167 118.381 272.399 118.04 272.556 117.606C272.718 117.167 272.799 116.662 272.799 116.091C272.799 115.524 272.721 115.026 272.563 114.595C272.405 114.165 272.173 113.828 271.866 113.585C271.559 113.342 271.182 113.221 270.735 113.221C270.292 113.221 269.917 113.338 269.61 113.572C269.307 113.807 269.075 114.139 268.913 114.57C268.751 115 268.67 115.507 268.67 116.091ZM277.395 121V111.182H280.035V112.895H280.137C280.316 112.286 280.617 111.825 281.039 111.514C281.461 111.199 281.946 111.041 282.496 111.041C282.632 111.041 282.779 111.05 282.937 111.067C283.095 111.084 283.233 111.107 283.353 111.137V113.553C283.225 113.515 283.048 113.481 282.822 113.451C282.596 113.421 282.39 113.406 282.202 113.406C281.801 113.406 281.444 113.494 281.128 113.668C280.817 113.839 280.57 114.077 280.387 114.384C280.208 114.691 280.118 115.045 280.118 115.445V121H277.395Z" fill="white"/>
<rect x="240.5" y="100.5" width="47" height="32" stroke="white"/>
</svg>
