<svg width="561" height="301" viewBox="0 0 561 301" fill="none" xmlns="http://www.w3.org/2000/svg">
<circle cx="557" cy="68" r="3.5" stroke="white"/>
<circle cx="4" cy="68" r="3.5" stroke="white"/>
<path d="M228.394 73H225.428L229.947 59.9091H233.514L238.027 73H235.061L231.782 62.9006H231.68L228.394 73ZM228.209 67.8544H235.214V70.0149H228.209V67.8544ZM246.405 63.674C246.354 63.1584 246.135 62.7578 245.747 62.4723C245.359 62.1868 244.833 62.044 244.168 62.044C243.716 62.044 243.335 62.108 243.024 62.2358C242.713 62.3594 242.474 62.532 242.308 62.7536C242.146 62.9751 242.065 63.2266 242.065 63.5078C242.057 63.7422 242.106 63.9467 242.212 64.1214C242.323 64.2962 242.474 64.4474 242.666 64.5753C242.858 64.6989 243.079 64.8075 243.331 64.9013C243.582 64.9908 243.851 65.0675 244.136 65.1314L245.312 65.4126C245.883 65.5405 246.407 65.7109 246.885 65.924C247.362 66.1371 247.775 66.3991 248.125 66.7102C248.474 67.0213 248.745 67.3878 248.937 67.8097C249.133 68.2315 249.233 68.7152 249.237 69.2607C249.233 70.0618 249.028 70.7564 248.623 71.3445C248.223 71.9283 247.643 72.3821 246.885 72.706C246.131 73.0256 245.221 73.1854 244.155 73.1854C243.099 73.1854 242.178 73.0234 241.394 72.6996C240.614 72.3757 240.005 71.8963 239.566 71.2614C239.131 70.6222 238.903 69.8317 238.882 68.8899H241.56C241.59 69.3288 241.716 69.6953 241.937 69.9893C242.163 70.2791 242.464 70.4986 242.839 70.6477C243.218 70.7926 243.646 70.8651 244.123 70.8651C244.592 70.8651 244.999 70.7969 245.344 70.6605C245.694 70.5241 245.964 70.3345 246.156 70.0916C246.348 69.8487 246.444 69.5696 246.444 69.2543C246.444 68.9602 246.356 68.7131 246.182 68.5128C246.011 68.3125 245.76 68.142 245.427 68.0014C245.099 67.8608 244.697 67.733 244.219 67.6179L242.794 67.2599C241.69 66.9915 240.819 66.5717 240.18 66.0007C239.54 65.4297 239.223 64.6605 239.227 63.6932C239.223 62.9006 239.434 62.2081 239.86 61.6158C240.29 61.0234 240.881 60.5611 241.631 60.2287C242.381 59.8963 243.233 59.7301 244.187 59.7301C245.159 59.7301 246.007 59.8963 246.731 60.2287C247.46 60.5611 248.027 61.0234 248.432 61.6158C248.836 62.2081 249.045 62.8942 249.058 63.674H246.405Z" fill="white"/>
<rect x="213.5" y="50.5" width="48" height="32" rx="16" stroke="white"/>
<path d="M68.6875 166.752C68.6875 165.167 68.8984 163.707 69.3203 162.374C69.7464 161.04 70.3963 159.804 71.2699 158.666H73.8714C73.5391 159.088 73.2301 159.604 72.9446 160.213C72.6591 160.818 72.4098 161.483 72.1967 162.207C71.9837 162.932 71.8175 163.682 71.6982 164.457C71.5788 165.229 71.5192 165.994 71.5192 166.752C71.5192 167.762 71.6214 168.783 71.826 169.814C72.0348 170.841 72.3161 171.795 72.6697 172.678C73.0277 173.56 73.4283 174.282 73.8714 174.844H71.2699C70.3963 173.707 69.7464 172.471 69.3203 171.137C68.8984 169.803 68.6875 168.342 68.6875 166.752Z" fill="white"/>
<rect x="55.5" y="150.5" width="32" height="32" rx="16" stroke="white"/>
<path d="M281.676 166.752C281.676 168.342 281.463 169.803 281.037 171.137C280.615 172.471 279.967 173.707 279.094 174.844H276.492C276.825 174.423 277.134 173.907 277.419 173.298C277.705 172.688 277.954 172.023 278.167 171.303C278.38 170.579 278.546 169.829 278.665 169.053C278.785 168.278 278.844 167.511 278.844 166.752C278.844 165.742 278.74 164.724 278.531 163.697C278.327 162.665 278.045 161.711 277.688 160.833C277.334 159.951 276.935 159.229 276.492 158.666H279.094C279.967 159.804 280.615 161.04 281.037 162.374C281.463 163.707 281.676 165.167 281.676 166.752Z" fill="white"/>
<rect x="262.5" y="150.5" width="32" height="32" rx="16" stroke="white"/>
<path d="M132.256 164.982L129.763 165.135C129.72 164.922 129.629 164.73 129.488 164.56C129.347 164.385 129.162 164.246 128.932 164.144C128.706 164.038 128.435 163.984 128.12 163.984C127.698 163.984 127.342 164.074 127.053 164.253C126.763 164.428 126.618 164.662 126.618 164.956C126.618 165.19 126.712 165.388 126.899 165.55C127.087 165.712 127.408 165.842 127.864 165.94L129.641 166.298C130.596 166.494 131.308 166.81 131.776 167.244C132.245 167.679 132.479 168.25 132.479 168.957C132.479 169.601 132.29 170.165 131.911 170.651C131.536 171.137 131.02 171.516 130.364 171.789C129.712 172.058 128.96 172.192 128.107 172.192C126.808 172.192 125.772 171.921 125.001 171.38C124.234 170.835 123.784 170.093 123.652 169.156L126.33 169.015C126.411 169.411 126.607 169.714 126.918 169.923C127.229 170.127 127.628 170.229 128.114 170.229C128.591 170.229 128.974 170.138 129.264 169.955C129.558 169.767 129.707 169.526 129.712 169.232C129.707 168.985 129.603 168.783 129.398 168.625C129.194 168.463 128.879 168.339 128.452 168.254L126.752 167.915C125.793 167.724 125.08 167.391 124.611 166.918C124.146 166.445 123.914 165.842 123.914 165.109C123.914 164.479 124.085 163.935 124.425 163.479C124.771 163.023 125.254 162.672 125.876 162.425C126.503 162.178 127.236 162.054 128.075 162.054C129.315 162.054 130.291 162.316 131.003 162.84C131.719 163.364 132.136 164.078 132.256 164.982ZM138.669 172.192C137.659 172.192 136.789 171.987 136.061 171.578C135.336 171.165 134.778 170.581 134.386 169.827C133.994 169.068 133.798 168.171 133.798 167.136C133.798 166.126 133.994 165.239 134.386 164.477C134.778 163.714 135.33 163.119 136.041 162.693C136.757 162.267 137.597 162.054 138.56 162.054C139.208 162.054 139.811 162.158 140.369 162.367C140.931 162.572 141.421 162.881 141.839 163.294C142.261 163.707 142.589 164.227 142.823 164.854C143.058 165.476 143.175 166.205 143.175 167.04V167.788H134.884V166.1H140.612C140.612 165.708 140.526 165.361 140.356 165.058C140.186 164.756 139.949 164.519 139.646 164.349C139.348 164.174 139.001 164.087 138.605 164.087C138.191 164.087 137.825 164.183 137.505 164.374C137.19 164.562 136.943 164.815 136.764 165.135C136.585 165.45 136.493 165.802 136.489 166.19V167.794C136.489 168.28 136.578 168.7 136.757 169.053C136.941 169.407 137.198 169.68 137.531 169.871C137.863 170.063 138.257 170.159 138.713 170.159C139.016 170.159 139.293 170.116 139.544 170.031C139.796 169.946 140.011 169.818 140.19 169.648C140.369 169.477 140.505 169.268 140.599 169.021L143.117 169.188C142.99 169.793 142.727 170.321 142.331 170.773C141.939 171.22 141.432 171.57 140.81 171.821C140.192 172.068 139.478 172.192 138.669 172.192ZM147.675 158.909V172H144.952V158.909H147.675ZM154.331 172.192C153.321 172.192 152.451 171.987 151.723 171.578C150.998 171.165 150.44 170.581 150.048 169.827C149.656 169.068 149.46 168.171 149.46 167.136C149.46 166.126 149.656 165.239 150.048 164.477C150.44 163.714 150.992 163.119 151.703 162.693C152.419 162.267 153.259 162.054 154.222 162.054C154.87 162.054 155.473 162.158 156.031 162.367C156.593 162.572 157.083 162.881 157.501 163.294C157.923 163.707 158.251 164.227 158.485 164.854C158.72 165.476 158.837 166.205 158.837 167.04V167.788H150.547V166.1H156.274C156.274 165.708 156.189 165.361 156.018 165.058C155.848 164.756 155.611 164.519 155.309 164.349C155.01 164.174 154.663 164.087 154.267 164.087C153.853 164.087 153.487 164.183 153.167 164.374C152.852 164.562 152.605 164.815 152.426 165.135C152.247 165.45 152.155 165.802 152.151 166.19V167.794C152.151 168.28 152.24 168.7 152.419 169.053C152.603 169.407 152.86 169.68 153.193 169.871C153.525 170.063 153.919 170.159 154.375 170.159C154.678 170.159 154.955 170.116 155.206 170.031C155.458 169.946 155.673 169.818 155.852 169.648C156.031 169.477 156.167 169.268 156.261 169.021L158.779 169.188C158.652 169.793 158.39 170.321 157.993 170.773C157.601 171.22 157.094 171.57 156.472 171.821C155.854 172.068 155.14 172.192 154.331 172.192ZM165.05 172.192C164.044 172.192 163.179 171.979 162.455 171.553C161.735 171.122 161.181 170.526 160.793 169.763C160.409 169 160.218 168.122 160.218 167.129C160.218 166.124 160.412 165.241 160.799 164.483C161.191 163.72 161.748 163.126 162.468 162.7C163.188 162.269 164.044 162.054 165.037 162.054C165.894 162.054 166.644 162.21 167.287 162.521C167.931 162.832 168.44 163.268 168.815 163.831C169.19 164.393 169.397 165.054 169.435 165.812H166.865C166.793 165.322 166.601 164.928 166.29 164.63C165.983 164.327 165.581 164.176 165.082 164.176C164.66 164.176 164.292 164.291 163.976 164.521C163.665 164.747 163.422 165.077 163.248 165.512C163.073 165.947 162.985 166.473 162.985 167.091C162.985 167.717 163.071 168.25 163.241 168.689C163.416 169.128 163.661 169.462 163.976 169.692C164.292 169.923 164.66 170.038 165.082 170.038C165.393 170.038 165.672 169.974 165.919 169.846C166.171 169.718 166.377 169.533 166.539 169.29C166.706 169.043 166.814 168.746 166.865 168.401H169.435C169.392 169.151 169.188 169.812 168.821 170.383C168.459 170.95 167.958 171.393 167.319 171.712C166.68 172.032 165.924 172.192 165.05 172.192ZM176.401 162.182V164.227H170.488V162.182H176.401ZM171.83 159.83H174.553V168.983C174.553 169.234 174.592 169.43 174.669 169.571C174.745 169.707 174.852 169.803 174.988 169.859C175.129 169.914 175.291 169.942 175.474 169.942C175.602 169.942 175.73 169.931 175.857 169.91C175.985 169.884 176.083 169.865 176.151 169.852L176.58 171.879C176.443 171.921 176.252 171.97 176.004 172.026C175.757 172.085 175.457 172.121 175.103 172.134C174.447 172.16 173.872 172.072 173.377 171.872C172.887 171.672 172.506 171.361 172.233 170.939C171.96 170.517 171.826 169.984 171.83 169.341V159.83ZM183.993 165.544V167.705H178.023V165.544H183.993ZM194.482 164.982L191.989 165.135C191.947 164.922 191.855 164.73 191.714 164.56C191.574 164.385 191.388 164.246 191.158 164.144C190.933 164.038 190.662 163.984 190.347 163.984C189.925 163.984 189.569 164.074 189.279 164.253C188.989 164.428 188.844 164.662 188.844 164.956C188.844 165.19 188.938 165.388 189.126 165.55C189.313 165.712 189.635 165.842 190.091 165.94L191.868 166.298C192.822 166.494 193.534 166.81 194.003 167.244C194.472 167.679 194.706 168.25 194.706 168.957C194.706 169.601 194.516 170.165 194.137 170.651C193.762 171.137 193.246 171.516 192.59 171.789C191.938 172.058 191.186 172.192 190.334 172.192C189.034 172.192 187.999 171.921 187.227 171.38C186.46 170.835 186.011 170.093 185.879 169.156L188.557 169.015C188.638 169.411 188.834 169.714 189.145 169.923C189.456 170.127 189.854 170.229 190.34 170.229C190.817 170.229 191.201 170.138 191.491 169.955C191.785 169.767 191.934 169.526 191.938 169.232C191.934 168.985 191.83 168.783 191.625 168.625C191.42 168.463 191.105 168.339 190.679 168.254L188.979 167.915C188.02 167.724 187.306 167.391 186.837 166.918C186.373 166.445 186.141 165.842 186.141 165.109C186.141 164.479 186.311 163.935 186.652 163.479C186.997 163.023 187.481 162.672 188.103 162.425C188.729 162.178 189.462 162.054 190.302 162.054C191.542 162.054 192.518 162.316 193.229 162.84C193.945 163.364 194.363 164.078 194.482 164.982ZM201.643 162.182V164.227H195.73V162.182H201.643ZM197.073 159.83H199.796V168.983C199.796 169.234 199.834 169.43 199.911 169.571C199.987 169.707 200.094 169.803 200.23 169.859C200.371 169.914 200.533 169.942 200.716 169.942C200.844 169.942 200.972 169.931 201.1 169.91C201.227 169.884 201.325 169.865 201.394 169.852L201.822 171.879C201.686 171.921 201.494 171.97 201.247 172.026C200.999 172.085 200.699 172.121 200.345 172.134C199.689 172.16 199.114 172.072 198.619 171.872C198.129 171.672 197.748 171.361 197.475 170.939C197.203 170.517 197.068 169.984 197.073 169.341V159.83ZM203.417 172V162.182H206.012V163.914H206.127C206.331 163.339 206.672 162.885 207.15 162.553C207.627 162.22 208.198 162.054 208.863 162.054C209.536 162.054 210.109 162.222 210.582 162.559C211.055 162.891 211.371 163.343 211.528 163.914H211.631C211.831 163.352 212.193 162.902 212.717 162.565C213.246 162.224 213.87 162.054 214.59 162.054C215.506 162.054 216.25 162.346 216.821 162.93C217.396 163.509 217.684 164.332 217.684 165.397V172H214.967V165.934C214.967 165.388 214.822 164.979 214.532 164.707C214.243 164.434 213.881 164.298 213.446 164.298C212.952 164.298 212.566 164.455 212.289 164.771C212.012 165.082 211.873 165.493 211.873 166.004V172H209.233V165.876C209.233 165.395 209.095 165.011 208.818 164.726C208.545 164.44 208.185 164.298 207.738 164.298C207.435 164.298 207.162 164.374 206.92 164.528C206.681 164.677 206.491 164.888 206.351 165.161C206.21 165.429 206.14 165.744 206.14 166.107V172H203.417ZM225.057 162.182V164.227H219.144V162.182H225.057ZM220.487 159.83H223.21V168.983C223.21 169.234 223.248 169.43 223.325 169.571C223.401 169.707 223.508 169.803 223.644 169.859C223.785 169.914 223.947 169.942 224.13 169.942C224.258 169.942 224.386 169.931 224.514 169.91C224.642 169.884 224.74 169.865 224.808 169.852L225.236 171.879C225.1 171.921 224.908 171.97 224.661 172.026C224.414 172.085 224.113 172.121 223.759 172.134C223.103 172.16 222.528 172.072 222.034 171.872C221.544 171.672 221.162 171.361 220.889 170.939C220.617 170.517 220.482 169.984 220.487 169.341V159.83Z" fill="white"/>
<rect x="118.5" y="150.5" width="113" height="32" stroke="white"/>
<path d="M150.087 280.182H152.81V290.486C152.81 291.244 152.661 291.858 152.362 292.327C152.064 292.795 151.636 293.138 151.077 293.356C150.523 293.573 149.861 293.682 149.089 293.682C148.996 293.682 148.906 293.68 148.821 293.675C148.732 293.675 148.638 293.673 148.54 293.669V291.54C148.612 291.545 148.676 291.547 148.732 291.547C148.783 291.551 148.838 291.553 148.898 291.553C149.337 291.553 149.643 291.46 149.818 291.272C149.997 291.089 150.087 290.812 150.087 290.441V280.182ZM151.442 278.916C151.041 278.916 150.696 278.782 150.406 278.513C150.116 278.241 149.972 277.915 149.972 277.536C149.972 277.161 150.116 276.839 150.406 276.57C150.696 276.298 151.041 276.161 151.442 276.161C151.851 276.161 152.198 276.298 152.484 276.57C152.773 276.839 152.918 277.161 152.918 277.536C152.918 277.915 152.773 278.241 152.484 278.513C152.198 278.782 151.851 278.916 151.442 278.916ZM159.427 290.192C158.434 290.192 157.575 289.981 156.851 289.559C156.131 289.133 155.575 288.54 155.183 287.782C154.791 287.019 154.595 286.135 154.595 285.129C154.595 284.115 154.791 283.229 155.183 282.47C155.575 281.707 156.131 281.115 156.851 280.693C157.575 280.267 158.434 280.054 159.427 280.054C160.42 280.054 161.276 280.267 161.997 280.693C162.721 281.115 163.279 281.707 163.671 282.47C164.063 283.229 164.259 284.115 164.259 285.129C164.259 286.135 164.063 287.019 163.671 287.782C163.279 288.54 162.721 289.133 161.997 289.559C161.276 289.981 160.42 290.192 159.427 290.192ZM159.44 288.082C159.892 288.082 160.269 287.955 160.571 287.699C160.874 287.439 161.102 287.085 161.255 286.638C161.413 286.19 161.492 285.681 161.492 285.11C161.492 284.539 161.413 284.03 161.255 283.582C161.102 283.135 160.874 282.781 160.571 282.521C160.269 282.261 159.892 282.131 159.44 282.131C158.984 282.131 158.6 282.261 158.289 282.521C157.982 282.781 157.75 283.135 157.593 283.582C157.439 284.03 157.362 284.539 157.362 285.11C157.362 285.681 157.439 286.19 157.593 286.638C157.75 287.085 157.982 287.439 158.289 287.699C158.6 287.955 158.984 288.082 159.44 288.082ZM166.03 290V280.182H168.753V290H166.03ZM167.398 278.916C166.993 278.916 166.646 278.782 166.356 278.513C166.07 278.241 165.928 277.915 165.928 277.536C165.928 277.161 166.07 276.839 166.356 276.57C166.646 276.298 166.993 276.161 167.398 276.161C167.803 276.161 168.148 276.298 168.433 276.57C168.723 276.839 168.868 277.161 168.868 277.536C168.868 277.915 168.723 278.241 168.433 278.513C168.148 278.782 167.803 278.916 167.398 278.916ZM173.657 284.324V290H170.934V280.182H173.529V281.914H173.645C173.862 281.343 174.226 280.891 174.738 280.559C175.249 280.222 175.869 280.054 176.598 280.054C177.279 280.054 177.874 280.203 178.381 280.501C178.888 280.8 179.282 281.226 179.564 281.78C179.845 282.33 179.985 282.986 179.985 283.749V290H177.262V284.234C177.267 283.634 177.113 283.165 176.802 282.828C176.491 282.487 176.063 282.317 175.517 282.317C175.151 282.317 174.827 282.396 174.546 282.553C174.269 282.711 174.051 282.941 173.894 283.244C173.74 283.542 173.662 283.902 173.657 284.324ZM188.249 283.544V285.705H182.279V283.544H188.249ZM195.005 290.192C193.999 290.192 193.134 289.979 192.41 289.553C191.69 289.122 191.136 288.526 190.748 287.763C190.365 287 190.173 286.122 190.173 285.129C190.173 284.124 190.367 283.241 190.754 282.483C191.146 281.72 191.703 281.126 192.423 280.7C193.143 280.269 193.999 280.054 194.992 280.054C195.849 280.054 196.599 280.21 197.242 280.521C197.886 280.832 198.395 281.268 198.77 281.831C199.145 282.393 199.352 283.054 199.39 283.812H196.82C196.748 283.322 196.556 282.928 196.245 282.63C195.938 282.327 195.536 282.176 195.037 282.176C194.615 282.176 194.247 282.291 193.931 282.521C193.62 282.747 193.377 283.077 193.203 283.512C193.028 283.947 192.941 284.473 192.941 285.091C192.941 285.717 193.026 286.25 193.196 286.689C193.371 287.128 193.616 287.462 193.931 287.692C194.247 287.923 194.615 288.038 195.037 288.038C195.348 288.038 195.627 287.974 195.874 287.846C196.126 287.718 196.333 287.533 196.494 287.29C196.661 287.043 196.769 286.746 196.82 286.401H199.39C199.347 287.151 199.143 287.812 198.776 288.383C198.414 288.95 197.914 289.393 197.274 289.712C196.635 290.032 195.879 290.192 195.005 290.192ZM203.857 276.909V290H201.134V276.909H203.857ZM208.838 290.185C208.211 290.185 207.653 290.077 207.163 289.859C206.673 289.638 206.285 289.312 205.999 288.881C205.718 288.447 205.578 287.906 205.578 287.258C205.578 286.712 205.678 286.254 205.878 285.884C206.078 285.513 206.351 285.214 206.696 284.989C207.041 284.763 207.433 284.592 207.872 284.477C208.316 284.362 208.78 284.281 209.266 284.234C209.837 284.175 210.297 284.119 210.646 284.068C210.996 284.013 211.249 283.932 211.407 283.825C211.565 283.719 211.644 283.561 211.644 283.352V283.314C211.644 282.909 211.516 282.596 211.26 282.374C211.009 282.153 210.651 282.042 210.186 282.042C209.696 282.042 209.306 282.151 209.017 282.368C208.727 282.581 208.535 282.849 208.441 283.173L205.923 282.969C206.051 282.372 206.302 281.857 206.677 281.422C207.052 280.983 207.536 280.646 208.128 280.412C208.725 280.173 209.415 280.054 210.199 280.054C210.744 280.054 211.267 280.118 211.765 280.246C212.268 280.374 212.713 280.572 213.101 280.84C213.493 281.109 213.802 281.454 214.028 281.876C214.254 282.293 214.367 282.794 214.367 283.378V290H211.784V288.638H211.708C211.55 288.945 211.339 289.216 211.075 289.45C210.811 289.68 210.493 289.862 210.122 289.994C209.752 290.121 209.323 290.185 208.838 290.185ZM209.617 288.306C210.018 288.306 210.372 288.227 210.678 288.07C210.985 287.908 211.226 287.69 211.401 287.418C211.575 287.145 211.663 286.836 211.663 286.491V285.449C211.578 285.504 211.46 285.555 211.311 285.602C211.166 285.645 211.002 285.685 210.819 285.724C210.636 285.758 210.453 285.79 210.269 285.82C210.086 285.845 209.92 285.869 209.771 285.89C209.451 285.937 209.172 286.011 208.933 286.114C208.695 286.216 208.509 286.354 208.377 286.529C208.245 286.7 208.179 286.913 208.179 287.168C208.179 287.539 208.313 287.822 208.582 288.018C208.855 288.21 209.2 288.306 209.617 288.306ZM222.775 285.82V280.182H225.498V290H222.884V288.217H222.782C222.56 288.792 222.192 289.254 221.676 289.604C221.165 289.953 220.54 290.128 219.803 290.128C219.147 290.128 218.569 289.979 218.071 289.68C217.572 289.382 217.182 288.958 216.901 288.408C216.624 287.859 216.483 287.2 216.479 286.433V280.182H219.202V285.947C219.206 286.527 219.362 286.985 219.669 287.322C219.976 287.658 220.387 287.827 220.903 287.827C221.231 287.827 221.537 287.752 221.823 287.603C222.108 287.45 222.339 287.224 222.513 286.925C222.692 286.627 222.78 286.259 222.775 285.82ZM235.846 282.982L233.353 283.135C233.31 282.922 233.218 282.73 233.078 282.56C232.937 282.385 232.752 282.246 232.522 282.144C232.296 282.038 232.025 281.984 231.71 281.984C231.288 281.984 230.932 282.074 230.642 282.253C230.353 282.428 230.208 282.662 230.208 282.956C230.208 283.19 230.301 283.388 230.489 283.55C230.676 283.712 230.998 283.842 231.454 283.94L233.231 284.298C234.186 284.494 234.897 284.81 235.366 285.244C235.835 285.679 236.069 286.25 236.069 286.957C236.069 287.601 235.88 288.165 235.5 288.651C235.125 289.137 234.61 289.516 233.953 289.789C233.301 290.058 232.549 290.192 231.697 290.192C230.397 290.192 229.362 289.921 228.591 289.38C227.824 288.835 227.374 288.093 227.242 287.156L229.92 287.015C230.001 287.411 230.197 287.714 230.508 287.923C230.819 288.127 231.218 288.229 231.703 288.229C232.181 288.229 232.564 288.138 232.854 287.955C233.148 287.767 233.297 287.526 233.301 287.232C233.297 286.985 233.193 286.783 232.988 286.625C232.784 286.463 232.468 286.339 232.042 286.254L230.342 285.915C229.383 285.724 228.669 285.391 228.201 284.918C227.736 284.445 227.504 283.842 227.504 283.109C227.504 282.479 227.674 281.935 228.015 281.479C228.36 281.023 228.844 280.672 229.466 280.425C230.093 280.178 230.826 280.054 231.665 280.054C232.905 280.054 233.881 280.316 234.593 280.84C235.309 281.364 235.726 282.078 235.846 282.982ZM242.258 290.192C241.248 290.192 240.379 289.987 239.65 289.578C238.926 289.165 238.368 288.581 237.976 287.827C237.584 287.068 237.388 286.171 237.388 285.136C237.388 284.126 237.584 283.239 237.976 282.477C238.368 281.714 238.92 281.119 239.631 280.693C240.347 280.267 241.187 280.054 242.15 280.054C242.797 280.054 243.4 280.158 243.959 280.367C244.521 280.572 245.011 280.881 245.429 281.294C245.851 281.707 246.179 282.227 246.413 282.854C246.648 283.476 246.765 284.205 246.765 285.04V285.788H238.474V284.1H244.202C244.202 283.708 244.116 283.361 243.946 283.058C243.775 282.756 243.539 282.519 243.236 282.349C242.938 282.174 242.591 282.087 242.194 282.087C241.781 282.087 241.415 282.183 241.095 282.374C240.78 282.562 240.532 282.815 240.354 283.135C240.175 283.45 240.083 283.802 240.079 284.19V285.794C240.079 286.28 240.168 286.7 240.347 287.053C240.53 287.407 240.788 287.68 241.121 287.871C241.453 288.063 241.847 288.159 242.303 288.159C242.606 288.159 242.883 288.116 243.134 288.031C243.385 287.946 243.601 287.818 243.78 287.648C243.959 287.477 244.095 287.268 244.189 287.021L246.707 287.188C246.579 287.793 246.317 288.321 245.921 288.773C245.529 289.22 245.022 289.57 244.4 289.821C243.782 290.068 243.068 290.192 242.258 290.192Z" fill="white"/>
<rect x="144.5" y="268.5" width="106" height="32" stroke="white"/>
<path d="M313.309 63.1818V65.2273H307.396V63.1818H313.309ZM308.739 60.8295H311.462V69.983C311.462 70.2344 311.5 70.4304 311.577 70.571C311.653 70.7074 311.76 70.8033 311.896 70.8587C312.037 70.9141 312.199 70.9418 312.382 70.9418C312.51 70.9418 312.638 70.9311 312.766 70.9098C312.893 70.8842 312.991 70.8651 313.06 70.8523L313.488 72.8786C313.352 72.9212 313.16 72.9702 312.913 73.0256C312.665 73.0852 312.365 73.1214 312.011 73.1342C311.355 73.1598 310.78 73.0724 310.286 72.8722C309.795 72.6719 309.414 72.3608 309.141 71.9389C308.869 71.517 308.734 70.9844 308.739 70.3409V60.8295ZM317.882 73.1854C317.256 73.1854 316.698 73.0767 316.208 72.8594C315.718 72.6378 315.33 72.3118 315.044 71.8814C314.763 71.4467 314.623 70.9055 314.623 70.2578C314.623 69.7124 314.723 69.2543 314.923 68.8835C315.123 68.5128 315.396 68.2145 315.741 67.9886C316.086 67.7628 316.478 67.5923 316.917 67.4773C317.36 67.3622 317.825 67.2812 318.311 67.2344C318.882 67.1747 319.342 67.1193 319.691 67.0682C320.041 67.0128 320.294 66.9318 320.452 66.8253C320.61 66.7187 320.689 66.5611 320.689 66.3523V66.3139C320.689 65.9091 320.561 65.5959 320.305 65.3743C320.054 65.1527 319.696 65.0419 319.231 65.0419C318.741 65.0419 318.351 65.1506 318.061 65.3679C317.772 65.581 317.58 65.8494 317.486 66.1733L314.968 65.9688C315.096 65.3722 315.347 64.8565 315.722 64.4219C316.097 63.983 316.581 63.6463 317.173 63.4119C317.77 63.1733 318.46 63.054 319.244 63.054C319.789 63.054 320.311 63.1179 320.81 63.2457C321.313 63.3736 321.758 63.5717 322.146 63.8402C322.538 64.1087 322.847 64.4538 323.073 64.8757C323.299 65.2933 323.412 65.794 323.412 66.3778V73H320.829V71.6385H320.752C320.595 71.9453 320.384 72.2159 320.12 72.4503C319.855 72.6804 319.538 72.8615 319.167 72.9936C318.797 73.1214 318.368 73.1854 317.882 73.1854ZM318.662 71.3061C319.063 71.3061 319.417 71.2273 319.723 71.0696C320.03 70.9077 320.271 70.6903 320.446 70.4176C320.62 70.1449 320.708 69.8359 320.708 69.4908V68.4489C320.623 68.5043 320.505 68.5554 320.356 68.6023C320.211 68.6449 320.047 68.6854 319.864 68.7237C319.681 68.7578 319.498 68.7898 319.314 68.8196C319.131 68.8452 318.965 68.8686 318.816 68.8899C318.496 68.9368 318.217 69.0114 317.978 69.1136C317.74 69.2159 317.554 69.3544 317.422 69.5291C317.29 69.6996 317.224 69.9126 317.224 70.1683C317.224 70.5391 317.358 70.8224 317.627 71.0185C317.9 71.2102 318.245 71.3061 318.662 71.3061ZM325.575 73V59.9091H328.298V64.831H328.381C328.501 64.5668 328.673 64.2983 328.899 64.0256C329.129 63.7486 329.428 63.5185 329.794 63.3352C330.165 63.1477 330.625 63.054 331.175 63.054C331.891 63.054 332.551 63.2415 333.156 63.6165C333.761 63.9872 334.245 64.5476 334.607 65.2976C334.969 66.0433 335.151 66.9787 335.151 68.1037C335.151 69.1989 334.974 70.1236 334.62 70.8778C334.271 71.6278 333.793 72.1967 333.188 72.5845C332.587 72.968 331.914 73.1598 331.168 73.1598C330.64 73.1598 330.19 73.0724 329.82 72.8977C329.453 72.723 329.153 72.5036 328.918 72.2393C328.684 71.9709 328.505 71.7003 328.381 71.4276H328.26V73H325.575ZM328.241 68.0909C328.241 68.6747 328.322 69.1839 328.484 69.6186C328.646 70.0533 328.88 70.392 329.187 70.6349C329.494 70.8736 329.866 70.9929 330.305 70.9929C330.749 70.9929 331.124 70.8714 331.43 70.6286C331.737 70.3814 331.969 70.0405 332.127 69.6058C332.289 69.1669 332.37 68.6619 332.37 68.0909C332.37 67.5241 332.291 67.0256 332.134 66.5952C331.976 66.1648 331.744 65.8281 331.437 65.5852C331.13 65.3423 330.753 65.2209 330.305 65.2209C329.862 65.2209 329.487 65.3381 329.18 65.5724C328.878 65.8068 328.646 66.1392 328.484 66.5696C328.322 67 328.241 67.5071 328.241 68.0909ZM339.691 59.9091V73H336.968V59.9091H339.691ZM346.346 73.1918C345.336 73.1918 344.467 72.9872 343.738 72.5781C343.014 72.1648 342.456 71.581 342.064 70.8267C341.672 70.0682 341.475 69.1712 341.475 68.1357C341.475 67.1257 341.672 66.2393 342.064 65.4766C342.456 64.7138 343.007 64.1193 343.719 63.6932C344.435 63.267 345.275 63.054 346.238 63.054C346.885 63.054 347.488 63.1584 348.047 63.3672C348.609 63.5717 349.099 63.8807 349.517 64.294C349.939 64.7074 350.267 65.2273 350.501 65.8537C350.735 66.4759 350.853 67.2045 350.853 68.0398V68.7876H342.562V67.1001H348.289C348.289 66.7081 348.204 66.3608 348.034 66.0582C347.863 65.7557 347.627 65.5192 347.324 65.3487C347.026 65.174 346.679 65.0866 346.282 65.0866C345.869 65.0866 345.502 65.1825 345.183 65.3743C344.868 65.5618 344.62 65.8153 344.441 66.1349C344.262 66.4503 344.171 66.8018 344.167 67.1896V68.794C344.167 69.2798 344.256 69.6996 344.435 70.0533C344.618 70.407 344.876 70.6797 345.208 70.8714C345.541 71.0632 345.935 71.1591 346.391 71.1591C346.694 71.1591 346.971 71.1165 347.222 71.0312C347.473 70.946 347.689 70.8182 347.868 70.6477C348.047 70.4773 348.183 70.2685 348.277 70.0213L350.795 70.1875C350.667 70.7926 350.405 71.321 350.009 71.7727C349.617 72.2202 349.11 72.5696 348.488 72.821C347.87 73.0682 347.156 73.1918 346.346 73.1918ZM358.747 66.544V68.7045H352.777V66.544H358.747ZM363.867 73.1854C363.24 73.1854 362.682 73.0767 362.192 72.8594C361.702 72.6378 361.314 72.3118 361.029 71.8814C360.748 71.4467 360.607 70.9055 360.607 70.2578C360.607 69.7124 360.707 69.2543 360.907 68.8835C361.108 68.5128 361.38 68.2145 361.725 67.9886C362.071 67.7628 362.463 67.5923 362.902 67.4773C363.345 67.3622 363.809 67.2812 364.295 67.2344C364.866 67.1747 365.326 67.1193 365.676 67.0682C366.025 67.0128 366.279 66.9318 366.436 66.8253C366.594 66.7187 366.673 66.5611 366.673 66.3523V66.3139C366.673 65.9091 366.545 65.5959 366.289 65.3743C366.038 65.1527 365.68 65.0419 365.216 65.0419C364.725 65.0419 364.336 65.1506 364.046 65.3679C363.756 65.581 363.564 65.8494 363.471 66.1733L360.952 65.9688C361.08 65.3722 361.331 64.8565 361.706 64.4219C362.081 63.983 362.565 63.6463 363.157 63.4119C363.754 63.1733 364.444 63.054 365.228 63.054C365.774 63.054 366.296 63.1179 366.794 63.2457C367.297 63.3736 367.743 63.5717 368.13 63.8402C368.522 64.1087 368.831 64.4538 369.057 64.8757C369.283 65.2933 369.396 65.794 369.396 66.3778V73H366.814V71.6385H366.737C366.579 71.9453 366.368 72.2159 366.104 72.4503C365.84 72.6804 365.522 72.8615 365.152 72.9936C364.781 73.1214 364.353 73.1854 363.867 73.1854ZM364.647 71.3061C365.047 71.3061 365.401 71.2273 365.708 71.0696C366.015 70.9077 366.255 70.6903 366.43 70.4176C366.605 70.1449 366.692 69.8359 366.692 69.4908V68.4489C366.607 68.5043 366.49 68.5554 366.341 68.6023C366.196 68.6449 366.032 68.6854 365.848 68.7237C365.665 68.7578 365.482 68.7898 365.299 68.8196C365.115 68.8452 364.949 68.8686 364.8 68.8899C364.48 68.9368 364.201 69.0114 363.963 69.1136C363.724 69.2159 363.539 69.3544 363.407 69.5291C363.275 69.6996 363.208 69.9126 363.208 70.1683C363.208 70.5391 363.343 70.8224 363.611 71.0185C363.884 71.2102 364.229 71.3061 364.647 71.3061ZM374.232 59.9091V73H371.509V59.9091H374.232ZM376.413 73V63.1818H379.136V73H376.413ZM377.781 61.9162C377.376 61.9162 377.029 61.782 376.739 61.5135C376.453 61.2408 376.311 60.9148 376.311 60.5355C376.311 60.1605 376.453 59.8388 376.739 59.5703C377.029 59.2976 377.376 59.1612 377.781 59.1612C378.186 59.1612 378.531 59.2976 378.816 59.5703C379.106 59.8388 379.251 60.1605 379.251 60.5355C379.251 60.9148 379.106 61.2408 378.816 61.5135C378.531 61.782 378.186 61.9162 377.781 61.9162ZM384.117 73.1854C383.49 73.1854 382.932 73.0767 382.442 72.8594C381.952 72.6378 381.564 72.3118 381.279 71.8814C380.998 71.4467 380.857 70.9055 380.857 70.2578C380.857 69.7124 380.957 69.2543 381.157 68.8835C381.358 68.5128 381.63 68.2145 381.975 67.9886C382.321 67.7628 382.713 67.5923 383.152 67.4773C383.595 67.3622 384.059 67.2812 384.545 67.2344C385.116 67.1747 385.576 67.1193 385.926 67.0682C386.275 67.0128 386.529 66.9318 386.686 66.8253C386.844 66.7187 386.923 66.5611 386.923 66.3523V66.3139C386.923 65.9091 386.795 65.5959 386.539 65.3743C386.288 65.1527 385.93 65.0419 385.466 65.0419C384.975 65.0419 384.586 65.1506 384.296 65.3679C384.006 65.581 383.814 65.8494 383.721 66.1733L381.202 65.9688C381.33 65.3722 381.581 64.8565 381.956 64.4219C382.331 63.983 382.815 63.6463 383.407 63.4119C384.004 63.1733 384.694 63.054 385.478 63.054C386.024 63.054 386.546 63.1179 387.044 63.2457C387.547 63.3736 387.993 63.5717 388.38 63.8402C388.772 64.1087 389.081 64.4538 389.307 64.8757C389.533 65.2933 389.646 65.794 389.646 66.3778V73H387.064V71.6385H386.987C386.829 71.9453 386.618 72.2159 386.354 72.4503C386.09 72.6804 385.772 72.8615 385.402 72.9936C385.031 73.1214 384.603 73.1854 384.117 73.1854ZM384.897 71.3061C385.297 71.3061 385.651 71.2273 385.958 71.0696C386.265 70.9077 386.505 70.6903 386.68 70.4176C386.855 70.1449 386.942 69.8359 386.942 69.4908V68.4489C386.857 68.5043 386.74 68.5554 386.591 68.6023C386.446 68.6449 386.282 68.6854 386.098 68.7237C385.915 68.7578 385.732 68.7898 385.549 68.8196C385.365 68.8452 385.199 68.8686 385.05 68.8899C384.73 68.9368 384.451 69.0114 384.213 69.1136C383.974 69.2159 383.789 69.3544 383.657 69.5291C383.525 69.6996 383.458 69.9126 383.458 70.1683C383.458 70.5391 383.593 70.8224 383.861 71.0185C384.134 71.2102 384.479 71.3061 384.897 71.3061ZM399.928 65.9815L397.435 66.1349C397.392 65.9219 397.3 65.7301 397.16 65.5597C397.019 65.3849 396.834 65.2464 396.604 65.1442C396.378 65.0376 396.107 64.9844 395.792 64.9844C395.37 64.9844 395.014 65.0739 394.724 65.2528C394.435 65.4276 394.29 65.6619 394.29 65.956C394.29 66.1903 394.384 66.3885 394.571 66.5504C394.759 66.7124 395.08 66.8423 395.536 66.9403L397.313 67.2983C398.268 67.4943 398.979 67.8097 399.448 68.2443C399.917 68.679 400.151 69.25 400.151 69.9574C400.151 70.6009 399.962 71.1655 399.582 71.6513C399.207 72.1371 398.692 72.5163 398.036 72.7891C397.384 73.0575 396.631 73.1918 395.779 73.1918C394.479 73.1918 393.444 72.9212 392.673 72.38C391.906 71.8345 391.456 71.093 391.324 70.1555L394.002 70.0149C394.083 70.4112 394.279 70.7138 394.59 70.9226C394.901 71.1271 395.3 71.2294 395.786 71.2294C396.263 71.2294 396.646 71.1378 396.936 70.9545C397.23 70.767 397.379 70.5263 397.384 70.2322C397.379 69.9851 397.275 69.7827 397.07 69.625C396.866 69.4631 396.55 69.3395 396.124 69.2543L394.424 68.9155C393.465 68.7237 392.751 68.3913 392.283 67.9183C391.818 67.4453 391.586 66.8423 391.586 66.1094C391.586 65.4787 391.756 64.9354 392.097 64.4794C392.442 64.0234 392.926 63.6719 393.548 63.4247C394.175 63.1776 394.908 63.054 395.747 63.054C396.987 63.054 397.963 63.3161 398.675 63.8402C399.391 64.3643 399.808 65.0781 399.928 65.9815Z" fill="white"/>
<rect x="292.5" y="50.5" width="119" height="32" rx="16" stroke="white"/>
<path d="M77.3089 63.1818V65.2273H71.3963V63.1818H77.3089ZM72.7386 60.8295H75.4616V69.983C75.4616 70.2344 75.5 70.4304 75.5767 70.571C75.6534 70.7074 75.7599 70.8033 75.8963 70.8587C76.0369 70.9141 76.1989 70.9418 76.3821 70.9418C76.5099 70.9418 76.6378 70.9311 76.7656 70.9098C76.8935 70.8842 76.9915 70.8651 77.0597 70.8523L77.4879 72.8786C77.3516 72.9212 77.1598 72.9702 76.9126 73.0256C76.6655 73.0852 76.3651 73.1214 76.0114 73.1342C75.3551 73.1598 74.7798 73.0724 74.2855 72.8722C73.7955 72.6719 73.4141 72.3608 73.1413 71.9389C72.8686 71.517 72.7344 70.9844 72.7386 70.3409V60.8295ZM81.8825 73.1854C81.256 73.1854 80.6978 73.0767 80.2077 72.8594C79.7177 72.6378 79.3299 72.3118 79.0444 71.8814C78.7631 71.4467 78.6225 70.9055 78.6225 70.2578C78.6225 69.7124 78.7227 69.2543 78.9229 68.8835C79.1232 68.5128 79.396 68.2145 79.7411 67.9886C80.0863 67.7628 80.4783 67.5923 80.9173 67.4773C81.3604 67.3622 81.8249 67.2812 82.3107 67.2344C82.8817 67.1747 83.342 67.1193 83.6914 67.0682C84.0408 67.0128 84.2944 66.9318 84.4521 66.8253C84.6097 66.7187 84.6886 66.5611 84.6886 66.3523V66.3139C84.6886 65.9091 84.5607 65.5959 84.305 65.3743C84.0536 65.1527 83.6957 65.0419 83.2312 65.0419C82.7411 65.0419 82.3512 65.1506 82.0614 65.3679C81.7717 65.581 81.5799 65.8494 81.4862 66.1733L78.9677 65.9688C79.0955 65.3722 79.3469 64.8565 79.7219 64.4219C80.0969 63.983 80.5806 63.6463 81.1729 63.4119C81.7695 63.1733 82.4599 63.054 83.244 63.054C83.7894 63.054 84.3114 63.1179 84.81 63.2457C85.3129 63.3736 85.7582 63.5717 86.146 63.8402C86.538 64.1087 86.8469 64.4538 87.0728 64.8757C87.2987 65.2933 87.4116 65.794 87.4116 66.3778V73H84.8292V71.6385H84.7525C84.5948 71.9453 84.3839 72.2159 84.1197 72.4503C83.8555 72.6804 83.538 72.8615 83.1673 72.9936C82.7965 73.1214 82.3683 73.1854 81.8825 73.1854ZM82.6623 71.3061C83.0629 71.3061 83.4165 71.2273 83.7234 71.0696C84.0302 70.9077 84.271 70.6903 84.4457 70.4176C84.6204 70.1449 84.7077 69.8359 84.7077 69.4908V68.4489C84.6225 68.5043 84.5053 68.5554 84.3562 68.6023C84.2113 68.6449 84.0472 68.6854 83.864 68.7237C83.6808 68.7578 83.4975 68.7898 83.3143 68.8196C83.131 68.8452 82.9648 68.8686 82.8157 68.8899C82.4961 68.9368 82.217 69.0114 81.9783 69.1136C81.7397 69.2159 81.5543 69.3544 81.4222 69.5291C81.2901 69.6996 81.2241 69.9126 81.2241 70.1683C81.2241 70.5391 81.3583 70.8224 81.6268 71.0185C81.8995 71.2102 82.2447 71.3061 82.6623 71.3061ZM89.5753 73V59.9091H92.2983V64.831H92.3814C92.5007 64.5668 92.6733 64.2983 92.8991 64.0256C93.1293 63.7486 93.4276 63.5185 93.794 63.3352C94.1648 63.1477 94.625 63.054 95.1747 63.054C95.8906 63.054 96.5511 63.2415 97.1562 63.6165C97.7614 63.9872 98.245 64.5476 98.6072 65.2976C98.9695 66.0433 99.1506 66.9787 99.1506 68.1037C99.1506 69.1989 98.9737 70.1236 98.62 70.8778C98.2706 71.6278 97.7933 72.1967 97.1882 72.5845C96.5874 72.968 95.9141 73.1598 95.1683 73.1598C94.6399 73.1598 94.1903 73.0724 93.8196 72.8977C93.4531 72.723 93.1527 72.5036 92.9183 72.2393C92.6839 71.9709 92.505 71.7003 92.3814 71.4276H92.2599V73H89.5753ZM92.2408 68.0909C92.2408 68.6747 92.3217 69.1839 92.4837 69.6186C92.6456 70.0533 92.88 70.392 93.1868 70.6349C93.4936 70.8736 93.8665 70.9929 94.3054 70.9929C94.7486 70.9929 95.1236 70.8714 95.4304 70.6286C95.7372 70.3814 95.9695 70.0405 96.1271 69.6058C96.2891 69.1669 96.37 68.6619 96.37 68.0909C96.37 67.5241 96.2912 67.0256 96.1335 66.5952C95.9759 66.1648 95.7436 65.8281 95.4368 65.5852C95.13 65.3423 94.7528 65.2209 94.3054 65.2209C93.8622 65.2209 93.4872 65.3381 93.1804 65.5724C92.8778 65.8068 92.6456 66.1392 92.4837 66.5696C92.3217 67 92.2408 67.5071 92.2408 68.0909ZM103.691 59.9091V73H100.968V59.9091H103.691ZM110.346 73.1918C109.336 73.1918 108.467 72.9872 107.738 72.5781C107.014 72.1648 106.456 71.581 106.064 70.8267C105.672 70.0682 105.475 69.1712 105.475 68.1357C105.475 67.1257 105.672 66.2393 106.064 65.4766C106.456 64.7138 107.007 64.1193 107.719 63.6932C108.435 63.267 109.275 63.054 110.238 63.054C110.885 63.054 111.488 63.1584 112.047 63.3672C112.609 63.5717 113.099 63.8807 113.517 64.294C113.939 64.7074 114.267 65.2273 114.501 65.8537C114.735 66.4759 114.853 67.2045 114.853 68.0398V68.7876H106.562V67.1001H112.289C112.289 66.7081 112.204 66.3608 112.034 66.0582C111.863 65.7557 111.627 65.5192 111.324 65.3487C111.026 65.174 110.679 65.0866 110.282 65.0866C109.869 65.0866 109.502 65.1825 109.183 65.3743C108.868 65.5618 108.62 65.8153 108.441 66.1349C108.262 66.4503 108.171 66.8018 108.167 67.1896V68.794C108.167 69.2798 108.256 69.6996 108.435 70.0533C108.618 70.407 108.876 70.6797 109.208 70.8714C109.541 71.0632 109.935 71.1591 110.391 71.1591C110.694 71.1591 110.971 71.1165 111.222 71.0312C111.473 70.946 111.689 70.8182 111.868 70.6477C112.047 70.4773 112.183 70.2685 112.277 70.0213L114.795 70.1875C114.667 70.7926 114.405 71.321 114.009 71.7727C113.617 72.2202 113.11 72.5696 112.488 72.821C111.87 73.0682 111.156 73.1918 110.346 73.1918ZM122.747 66.544V68.7045H116.777V66.544H122.747ZM127.79 67.3239V73H125.067V63.1818H127.662V64.9141H127.777C127.995 64.343 128.359 63.8913 128.87 63.5589C129.382 63.2223 130.002 63.054 130.73 63.054C131.412 63.054 132.007 63.2031 132.514 63.5014C133.021 63.7997 133.415 64.2259 133.696 64.7798C133.978 65.3295 134.118 65.9858 134.118 66.7486V73H131.395V67.2344C131.4 66.6335 131.246 66.1648 130.935 65.8281C130.624 65.4872 130.196 65.3168 129.65 65.3168C129.284 65.3168 128.96 65.3956 128.679 65.5533C128.402 65.7109 128.184 65.9411 128.027 66.2436C127.873 66.5419 127.794 66.902 127.79 67.3239ZM139.064 73.1854C138.438 73.1854 137.879 73.0767 137.389 72.8594C136.899 72.6378 136.512 72.3118 136.226 71.8814C135.945 71.4467 135.804 70.9055 135.804 70.2578C135.804 69.7124 135.904 69.2543 136.105 68.8835C136.305 68.5128 136.578 68.2145 136.923 67.9886C137.268 67.7628 137.66 67.5923 138.099 67.4773C138.542 67.3622 139.007 67.2812 139.492 67.2344C140.063 67.1747 140.524 67.1193 140.873 67.0682C141.222 67.0128 141.476 66.9318 141.634 66.8253C141.791 66.7187 141.87 66.5611 141.87 66.3523V66.3139C141.87 65.9091 141.742 65.5959 141.487 65.3743C141.235 65.1527 140.877 65.0419 140.413 65.0419C139.923 65.0419 139.533 65.1506 139.243 65.3679C138.953 65.581 138.762 65.8494 138.668 66.1733L136.149 65.9688C136.277 65.3722 136.529 64.8565 136.904 64.4219C137.279 63.983 137.762 63.6463 138.355 63.4119C138.951 63.1733 139.642 63.054 140.426 63.054C140.971 63.054 141.493 63.1179 141.992 63.2457C142.494 63.3736 142.94 63.5717 143.328 63.8402C143.72 64.1087 144.029 64.4538 144.254 64.8757C144.48 65.2933 144.593 65.794 144.593 66.3778V73H142.011V71.6385H141.934C141.776 71.9453 141.566 72.2159 141.301 72.4503C141.037 72.6804 140.72 72.8615 140.349 72.9936C139.978 73.1214 139.55 73.1854 139.064 73.1854ZM139.844 71.3061C140.244 71.3061 140.598 71.2273 140.905 71.0696C141.212 70.9077 141.453 70.6903 141.627 70.4176C141.802 70.1449 141.889 69.8359 141.889 69.4908V68.4489C141.804 68.5043 141.687 68.5554 141.538 68.6023C141.393 68.6449 141.229 68.6854 141.046 68.7237C140.862 68.7578 140.679 68.7898 140.496 68.8196C140.313 68.8452 140.146 68.8686 139.997 68.8899C139.678 68.9368 139.399 69.0114 139.16 69.1136C138.921 69.2159 138.736 69.3544 138.604 69.5291C138.472 69.6996 138.406 69.9126 138.406 70.1683C138.406 70.5391 138.54 70.8224 138.808 71.0185C139.081 71.2102 139.426 71.3061 139.844 71.3061ZM146.706 73V63.1818H149.301V64.9141H149.416C149.621 64.3388 149.961 63.8849 150.439 63.5526C150.916 63.2202 151.487 63.054 152.152 63.054C152.825 63.054 153.398 63.2223 153.871 63.5589C154.344 63.8913 154.66 64.343 154.817 64.9141H154.92C155.12 64.3516 155.482 63.902 156.006 63.5653C156.535 63.2244 157.159 63.054 157.879 63.054C158.795 63.054 159.539 63.3459 160.11 63.9297C160.685 64.5092 160.973 65.3317 160.973 66.397V73H158.256V66.9339C158.256 66.3885 158.111 65.9794 157.822 65.7067C157.532 65.4339 157.17 65.2976 156.735 65.2976C156.241 65.2976 155.855 65.4553 155.578 65.7706C155.301 66.0817 155.162 66.4929 155.162 67.0043V73H152.523V66.8764C152.523 66.3949 152.384 66.0114 152.107 65.7259C151.834 65.4403 151.474 65.2976 151.027 65.2976C150.724 65.2976 150.452 65.3743 150.209 65.5277C149.97 65.6768 149.78 65.8878 149.64 66.1605C149.499 66.429 149.429 66.7443 149.429 67.1065V73H146.706ZM167.598 73.1918C166.588 73.1918 165.719 72.9872 164.99 72.5781C164.266 72.1648 163.708 71.581 163.316 70.8267C162.923 70.0682 162.727 69.1712 162.727 68.1357C162.727 67.1257 162.923 66.2393 163.316 65.4766C163.708 64.7138 164.259 64.1193 164.971 63.6932C165.687 63.267 166.526 63.054 167.49 63.054C168.137 63.054 168.74 63.1584 169.298 63.3672C169.861 63.5717 170.351 63.8807 170.769 64.294C171.191 64.7074 171.519 65.2273 171.753 65.8537C171.987 66.4759 172.105 67.2045 172.105 68.0398V68.7876H163.814V67.1001H169.541C169.541 66.7081 169.456 66.3608 169.286 66.0582C169.115 65.7557 168.879 65.5192 168.576 65.3487C168.278 65.174 167.931 65.0866 167.534 65.0866C167.121 65.0866 166.754 65.1825 166.435 65.3743C166.119 65.5618 165.872 65.8153 165.693 66.1349C165.514 66.4503 165.423 66.8018 165.419 67.1896V68.794C165.419 69.2798 165.508 69.6996 165.687 70.0533C165.87 70.407 166.128 70.6797 166.46 70.8714C166.793 71.0632 167.187 71.1591 167.643 71.1591C167.945 71.1591 168.222 71.1165 168.474 71.0312C168.725 70.946 168.941 70.8182 169.119 70.6477C169.298 70.4773 169.435 70.2685 169.529 70.0213L172.047 70.1875C171.919 70.7926 171.657 71.321 171.261 71.7727C170.869 72.2202 170.362 72.5696 169.74 72.821C169.122 73.0682 168.408 73.1918 167.598 73.1918Z" fill="white"/>
<rect x="61.5" y="50.5" width="121" height="32" rx="16" stroke="white"/>
<path d="M292 68L282 62.2265V73.7735L292 68ZM262 69H283V67H262V69Z" fill="white"/>
<path d="M337.394 124H334.428L338.947 110.909H342.514L347.027 124H344.061L340.782 113.901H340.68L337.394 124ZM337.209 118.854H344.214V121.015H337.209V118.854ZM355.405 114.674C355.354 114.158 355.135 113.758 354.747 113.472C354.359 113.187 353.833 113.044 353.168 113.044C352.716 113.044 352.335 113.108 352.024 113.236C351.713 113.359 351.474 113.532 351.308 113.754C351.146 113.975 351.065 114.227 351.065 114.508C351.057 114.742 351.106 114.947 351.212 115.121C351.323 115.296 351.474 115.447 351.666 115.575C351.858 115.699 352.079 115.808 352.331 115.901C352.582 115.991 352.851 116.067 353.136 116.131L354.312 116.413C354.883 116.54 355.407 116.711 355.885 116.924C356.362 117.137 356.775 117.399 357.125 117.71C357.474 118.021 357.745 118.388 357.937 118.81C358.133 119.232 358.233 119.715 358.237 120.261C358.233 121.062 358.028 121.756 357.623 122.344C357.223 122.928 356.643 123.382 355.885 123.706C355.131 124.026 354.221 124.185 353.155 124.185C352.099 124.185 351.178 124.023 350.394 123.7C349.614 123.376 349.005 122.896 348.566 122.261C348.131 121.622 347.903 120.832 347.882 119.89H350.56C350.59 120.329 350.716 120.695 350.937 120.989C351.163 121.279 351.464 121.499 351.839 121.648C352.218 121.793 352.646 121.865 353.123 121.865C353.592 121.865 353.999 121.797 354.344 121.661C354.694 121.524 354.964 121.335 355.156 121.092C355.348 120.849 355.444 120.57 355.444 120.254C355.444 119.96 355.356 119.713 355.182 119.513C355.011 119.312 354.76 119.142 354.427 119.001C354.099 118.861 353.697 118.733 353.219 118.618L351.794 118.26C350.69 117.991 349.819 117.572 349.18 117.001C348.54 116.43 348.223 115.661 348.227 114.693C348.223 113.901 348.434 113.208 348.86 112.616C349.29 112.023 349.881 111.561 350.631 111.229C351.381 110.896 352.233 110.73 353.187 110.73C354.159 110.73 355.007 110.896 355.731 111.229C356.46 111.561 357.027 112.023 357.432 112.616C357.836 113.208 358.045 113.894 358.058 114.674H355.405Z" fill="white"/>
<rect x="322.5" y="101.5" width="48" height="32" rx="16" stroke="white"/>
<path d="M422.309 114.182V116.227H416.396V114.182H422.309ZM417.739 111.83H420.462V120.983C420.462 121.234 420.5 121.43 420.577 121.571C420.653 121.707 420.76 121.803 420.896 121.859C421.037 121.914 421.199 121.942 421.382 121.942C421.51 121.942 421.638 121.931 421.766 121.91C421.893 121.884 421.991 121.865 422.06 121.852L422.488 123.879C422.352 123.921 422.16 123.97 421.913 124.026C421.665 124.085 421.365 124.121 421.011 124.134C420.355 124.16 419.78 124.072 419.286 123.872C418.795 123.672 418.414 123.361 418.141 122.939C417.869 122.517 417.734 121.984 417.739 121.341V111.83ZM426.882 124.185C426.256 124.185 425.698 124.077 425.208 123.859C424.718 123.638 424.33 123.312 424.044 122.881C423.763 122.447 423.623 121.906 423.623 121.258C423.623 120.712 423.723 120.254 423.923 119.884C424.123 119.513 424.396 119.214 424.741 118.989C425.086 118.763 425.478 118.592 425.917 118.477C426.36 118.362 426.825 118.281 427.311 118.234C427.882 118.175 428.342 118.119 428.691 118.068C429.041 118.013 429.294 117.932 429.452 117.825C429.61 117.719 429.689 117.561 429.689 117.352V117.314C429.689 116.909 429.561 116.596 429.305 116.374C429.054 116.153 428.696 116.042 428.231 116.042C427.741 116.042 427.351 116.151 427.061 116.368C426.772 116.581 426.58 116.849 426.486 117.173L423.968 116.969C424.096 116.372 424.347 115.857 424.722 115.422C425.097 114.983 425.581 114.646 426.173 114.412C426.77 114.173 427.46 114.054 428.244 114.054C428.789 114.054 429.311 114.118 429.81 114.246C430.313 114.374 430.758 114.572 431.146 114.84C431.538 115.109 431.847 115.454 432.073 115.876C432.299 116.293 432.412 116.794 432.412 117.378V124H429.829V122.638H429.752C429.595 122.945 429.384 123.216 429.12 123.45C428.855 123.68 428.538 123.862 428.167 123.994C427.797 124.121 427.368 124.185 426.882 124.185ZM427.662 122.306C428.063 122.306 428.417 122.227 428.723 122.07C429.03 121.908 429.271 121.69 429.446 121.418C429.62 121.145 429.708 120.836 429.708 120.491V119.449C429.623 119.504 429.505 119.555 429.356 119.602C429.211 119.645 429.047 119.685 428.864 119.724C428.681 119.758 428.498 119.79 428.314 119.82C428.131 119.845 427.965 119.869 427.816 119.89C427.496 119.937 427.217 120.011 426.978 120.114C426.74 120.216 426.554 120.354 426.422 120.529C426.29 120.7 426.224 120.913 426.224 121.168C426.224 121.539 426.358 121.822 426.627 122.018C426.9 122.21 427.245 122.306 427.662 122.306ZM434.575 124V110.909H437.298V115.831H437.381C437.501 115.567 437.673 115.298 437.899 115.026C438.129 114.749 438.428 114.518 438.794 114.335C439.165 114.148 439.625 114.054 440.175 114.054C440.891 114.054 441.551 114.241 442.156 114.616C442.761 114.987 443.245 115.548 443.607 116.298C443.969 117.043 444.151 117.979 444.151 119.104C444.151 120.199 443.974 121.124 443.62 121.878C443.271 122.628 442.793 123.197 442.188 123.585C441.587 123.968 440.914 124.16 440.168 124.16C439.64 124.16 439.19 124.072 438.82 123.898C438.453 123.723 438.153 123.504 437.918 123.239C437.684 122.971 437.505 122.7 437.381 122.428H437.26V124H434.575ZM437.241 119.091C437.241 119.675 437.322 120.184 437.484 120.619C437.646 121.053 437.88 121.392 438.187 121.635C438.494 121.874 438.866 121.993 439.305 121.993C439.749 121.993 440.124 121.871 440.43 121.629C440.737 121.381 440.969 121.04 441.127 120.606C441.289 120.167 441.37 119.662 441.37 119.091C441.37 118.524 441.291 118.026 441.134 117.595C440.976 117.165 440.744 116.828 440.437 116.585C440.13 116.342 439.753 116.221 439.305 116.221C438.862 116.221 438.487 116.338 438.18 116.572C437.878 116.807 437.646 117.139 437.484 117.57C437.322 118 437.241 118.507 437.241 119.091ZM448.691 110.909V124H445.968V110.909H448.691ZM455.346 124.192C454.336 124.192 453.467 123.987 452.738 123.578C452.014 123.165 451.456 122.581 451.064 121.827C450.672 121.068 450.475 120.171 450.475 119.136C450.475 118.126 450.672 117.239 451.064 116.477C451.456 115.714 452.007 115.119 452.719 114.693C453.435 114.267 454.275 114.054 455.238 114.054C455.885 114.054 456.488 114.158 457.047 114.367C457.609 114.572 458.099 114.881 458.517 115.294C458.939 115.707 459.267 116.227 459.501 116.854C459.735 117.476 459.853 118.205 459.853 119.04V119.788H451.562V118.1H457.289C457.289 117.708 457.204 117.361 457.034 117.058C456.863 116.756 456.627 116.519 456.324 116.349C456.026 116.174 455.679 116.087 455.282 116.087C454.869 116.087 454.502 116.183 454.183 116.374C453.868 116.562 453.62 116.815 453.441 117.135C453.262 117.45 453.171 117.802 453.167 118.19V119.794C453.167 120.28 453.256 120.7 453.435 121.053C453.618 121.407 453.876 121.68 454.208 121.871C454.541 122.063 454.935 122.159 455.391 122.159C455.694 122.159 455.971 122.116 456.222 122.031C456.473 121.946 456.689 121.818 456.868 121.648C457.047 121.477 457.183 121.268 457.277 121.021L459.795 121.188C459.667 121.793 459.405 122.321 459.009 122.773C458.617 123.22 458.11 123.57 457.488 123.821C456.87 124.068 456.156 124.192 455.346 124.192ZM467.747 117.544V119.705H461.777V117.544H467.747ZM472.867 124.185C472.24 124.185 471.682 124.077 471.192 123.859C470.702 123.638 470.314 123.312 470.029 122.881C469.748 122.447 469.607 121.906 469.607 121.258C469.607 120.712 469.707 120.254 469.907 119.884C470.108 119.513 470.38 119.214 470.725 118.989C471.071 118.763 471.463 118.592 471.902 118.477C472.345 118.362 472.809 118.281 473.295 118.234C473.866 118.175 474.326 118.119 474.676 118.068C475.025 118.013 475.279 117.932 475.436 117.825C475.594 117.719 475.673 117.561 475.673 117.352V117.314C475.673 116.909 475.545 116.596 475.289 116.374C475.038 116.153 474.68 116.042 474.216 116.042C473.725 116.042 473.336 116.151 473.046 116.368C472.756 116.581 472.564 116.849 472.471 117.173L469.952 116.969C470.08 116.372 470.331 115.857 470.706 115.422C471.081 114.983 471.565 114.646 472.157 114.412C472.754 114.173 473.444 114.054 474.228 114.054C474.774 114.054 475.296 114.118 475.794 114.246C476.297 114.374 476.743 114.572 477.13 114.84C477.522 115.109 477.831 115.454 478.057 115.876C478.283 116.293 478.396 116.794 478.396 117.378V124H475.814V122.638H475.737C475.579 122.945 475.368 123.216 475.104 123.45C474.84 123.68 474.522 123.862 474.152 123.994C473.781 124.121 473.353 124.185 472.867 124.185ZM473.647 122.306C474.047 122.306 474.401 122.227 474.708 122.07C475.015 121.908 475.255 121.69 475.43 121.418C475.605 121.145 475.692 120.836 475.692 120.491V119.449C475.607 119.504 475.49 119.555 475.341 119.602C475.196 119.645 475.032 119.685 474.848 119.724C474.665 119.758 474.482 119.79 474.299 119.82C474.115 119.845 473.949 119.869 473.8 119.89C473.48 119.937 473.201 120.011 472.963 120.114C472.724 120.216 472.539 120.354 472.407 120.529C472.275 120.7 472.208 120.913 472.208 121.168C472.208 121.539 472.343 121.822 472.611 122.018C472.884 122.21 473.229 122.306 473.647 122.306ZM483.232 110.909V124H480.509V110.909H483.232ZM485.413 124V114.182H488.136V124H485.413ZM486.781 112.916C486.376 112.916 486.029 112.782 485.739 112.513C485.453 112.241 485.311 111.915 485.311 111.536C485.311 111.161 485.453 110.839 485.739 110.57C486.029 110.298 486.376 110.161 486.781 110.161C487.186 110.161 487.531 110.298 487.816 110.57C488.106 110.839 488.251 111.161 488.251 111.536C488.251 111.915 488.106 112.241 487.816 112.513C487.531 112.782 487.186 112.916 486.781 112.916ZM493.117 124.185C492.49 124.185 491.932 124.077 491.442 123.859C490.952 123.638 490.564 123.312 490.279 122.881C489.998 122.447 489.857 121.906 489.857 121.258C489.857 120.712 489.957 120.254 490.157 119.884C490.358 119.513 490.63 119.214 490.975 118.989C491.321 118.763 491.713 118.592 492.152 118.477C492.595 118.362 493.059 118.281 493.545 118.234C494.116 118.175 494.576 118.119 494.926 118.068C495.275 118.013 495.529 117.932 495.686 117.825C495.844 117.719 495.923 117.561 495.923 117.352V117.314C495.923 116.909 495.795 116.596 495.539 116.374C495.288 116.153 494.93 116.042 494.466 116.042C493.975 116.042 493.586 116.151 493.296 116.368C493.006 116.581 492.814 116.849 492.721 117.173L490.202 116.969C490.33 116.372 490.581 115.857 490.956 115.422C491.331 114.983 491.815 114.646 492.407 114.412C493.004 114.173 493.694 114.054 494.478 114.054C495.024 114.054 495.546 114.118 496.044 114.246C496.547 114.374 496.993 114.572 497.38 114.84C497.772 115.109 498.081 115.454 498.307 115.876C498.533 116.293 498.646 116.794 498.646 117.378V124H496.064V122.638H495.987C495.829 122.945 495.618 123.216 495.354 123.45C495.09 123.68 494.772 123.862 494.402 123.994C494.031 124.121 493.603 124.185 493.117 124.185ZM493.897 122.306C494.297 122.306 494.651 122.227 494.958 122.07C495.265 121.908 495.505 121.69 495.68 121.418C495.855 121.145 495.942 120.836 495.942 120.491V119.449C495.857 119.504 495.74 119.555 495.591 119.602C495.446 119.645 495.282 119.685 495.098 119.724C494.915 119.758 494.732 119.79 494.549 119.82C494.365 119.845 494.199 119.869 494.05 119.89C493.73 119.937 493.451 120.011 493.213 120.114C492.974 120.216 492.789 120.354 492.657 120.529C492.525 120.7 492.458 120.913 492.458 121.168C492.458 121.539 492.593 121.822 492.861 122.018C493.134 122.21 493.479 122.306 493.897 122.306ZM508.928 116.982L506.435 117.135C506.392 116.922 506.3 116.73 506.16 116.56C506.019 116.385 505.834 116.246 505.604 116.144C505.378 116.038 505.107 115.984 504.792 115.984C504.37 115.984 504.014 116.074 503.724 116.253C503.435 116.428 503.29 116.662 503.29 116.956C503.29 117.19 503.384 117.388 503.571 117.55C503.759 117.712 504.08 117.842 504.536 117.94L506.313 118.298C507.268 118.494 507.979 118.81 508.448 119.244C508.917 119.679 509.151 120.25 509.151 120.957C509.151 121.601 508.962 122.165 508.582 122.651C508.207 123.137 507.692 123.516 507.036 123.789C506.384 124.058 505.631 124.192 504.779 124.192C503.479 124.192 502.444 123.921 501.673 123.38C500.906 122.835 500.456 122.093 500.324 121.156L503.002 121.015C503.083 121.411 503.279 121.714 503.59 121.923C503.901 122.127 504.3 122.229 504.786 122.229C505.263 122.229 505.646 122.138 505.936 121.955C506.23 121.767 506.379 121.526 506.384 121.232C506.379 120.985 506.275 120.783 506.07 120.625C505.866 120.463 505.55 120.339 505.124 120.254L503.424 119.915C502.465 119.724 501.751 119.391 501.283 118.918C500.818 118.445 500.586 117.842 500.586 117.109C500.586 116.479 500.756 115.935 501.097 115.479C501.442 115.023 501.926 114.672 502.548 114.425C503.175 114.178 503.908 114.054 504.747 114.054C505.987 114.054 506.963 114.316 507.675 114.84C508.391 115.364 508.808 116.078 508.928 116.982Z" fill="white"/>
<rect x="401.5" y="101.5" width="119" height="32" rx="16" stroke="white"/>
<path d="M401 119L391 113.226V124.774L401 119ZM371 120H392V118H371V120Z" fill="white"/>
<path d="M412 68H551" stroke="white" stroke-width="2"/>
<path d="M213 68L203 62.2265V73.7735L213 68ZM183 69H204V67H183V69Z" fill="white"/>
<path d="M118 167L108 161.226V172.774L118 167ZM88 168H109V166H88V168Z" fill="white"/>
<path d="M262 167L252 161.226V172.774L262 167ZM232 168H253V166H232V168Z" fill="white"/>
<path d="M68.6875 223.752C68.6875 222.167 68.8984 220.707 69.3203 219.374C69.7464 218.04 70.3963 216.804 71.2699 215.666H73.8714C73.5391 216.088 73.2301 216.604 72.9446 217.213C72.6591 217.818 72.4098 218.483 72.1967 219.207C71.9837 219.932 71.8175 220.682 71.6982 221.457C71.5788 222.229 71.5192 222.994 71.5192 223.752C71.5192 224.762 71.6214 225.783 71.826 226.814C72.0348 227.841 72.3161 228.795 72.6697 229.678C73.0277 230.56 73.4283 231.282 73.8714 231.844H71.2699C70.3963 230.707 69.7464 229.471 69.3203 228.137C68.8984 226.803 68.6875 225.342 68.6875 223.752Z" fill="white"/>
<rect x="55.5" y="207.5" width="32" height="32" rx="16" stroke="white"/>
<path d="M341.676 223.752C341.676 225.342 341.463 226.803 341.037 228.137C340.615 229.471 339.967 230.707 339.094 231.844H336.492C336.825 231.423 337.134 230.907 337.419 230.298C337.705 229.688 337.954 229.023 338.167 228.303C338.38 227.579 338.546 226.829 338.665 226.053C338.785 225.278 338.844 224.511 338.844 223.752C338.844 222.742 338.74 221.724 338.531 220.697C338.327 219.665 338.045 218.711 337.688 217.833C337.334 216.951 336.935 216.229 336.492 215.666H339.094C339.967 216.804 340.615 218.04 341.037 219.374C341.463 220.707 341.676 222.167 341.676 223.752Z" fill="white"/>
<rect x="322.5" y="207.5" width="32" height="32" rx="16" stroke="white"/>
<path d="M129.309 219.182V221.227H123.396V219.182H129.309ZM124.739 216.83H127.462V225.983C127.462 226.234 127.5 226.43 127.577 226.571C127.653 226.707 127.76 226.803 127.896 226.859C128.037 226.914 128.199 226.942 128.382 226.942C128.51 226.942 128.638 226.931 128.766 226.91C128.893 226.884 128.991 226.865 129.06 226.852L129.488 228.879C129.352 228.921 129.16 228.97 128.913 229.026C128.665 229.085 128.365 229.121 128.011 229.134C127.355 229.16 126.78 229.072 126.286 228.872C125.795 228.672 125.414 228.361 125.141 227.939C124.869 227.517 124.734 226.984 124.739 226.341V216.83ZM133.882 229.185C133.256 229.185 132.698 229.077 132.208 228.859C131.718 228.638 131.33 228.312 131.044 227.881C130.763 227.447 130.623 226.906 130.623 226.258C130.623 225.712 130.723 225.254 130.923 224.884C131.123 224.513 131.396 224.214 131.741 223.989C132.086 223.763 132.478 223.592 132.917 223.477C133.36 223.362 133.825 223.281 134.311 223.234C134.882 223.175 135.342 223.119 135.691 223.068C136.041 223.013 136.294 222.932 136.452 222.825C136.61 222.719 136.689 222.561 136.689 222.352V222.314C136.689 221.909 136.561 221.596 136.305 221.374C136.054 221.153 135.696 221.042 135.231 221.042C134.741 221.042 134.351 221.151 134.061 221.368C133.772 221.581 133.58 221.849 133.486 222.173L130.968 221.969C131.096 221.372 131.347 220.857 131.722 220.422C132.097 219.983 132.581 219.646 133.173 219.412C133.77 219.173 134.46 219.054 135.244 219.054C135.789 219.054 136.311 219.118 136.81 219.246C137.313 219.374 137.758 219.572 138.146 219.84C138.538 220.109 138.847 220.454 139.073 220.876C139.299 221.293 139.412 221.794 139.412 222.378V229H136.829V227.638H136.752C136.595 227.945 136.384 228.216 136.12 228.45C135.855 228.68 135.538 228.862 135.167 228.994C134.797 229.121 134.368 229.185 133.882 229.185ZM134.662 227.306C135.063 227.306 135.417 227.227 135.723 227.07C136.03 226.908 136.271 226.69 136.446 226.418C136.62 226.145 136.708 225.836 136.708 225.491V224.449C136.623 224.504 136.505 224.555 136.356 224.602C136.211 224.645 136.047 224.685 135.864 224.724C135.681 224.758 135.498 224.79 135.314 224.82C135.131 224.845 134.965 224.869 134.816 224.89C134.496 224.937 134.217 225.011 133.978 225.114C133.74 225.216 133.554 225.354 133.422 225.529C133.29 225.7 133.224 225.913 133.224 226.168C133.224 226.539 133.358 226.822 133.627 227.018C133.9 227.21 134.245 227.306 134.662 227.306ZM141.575 229V215.909H144.298V220.831H144.381C144.501 220.567 144.673 220.298 144.899 220.026C145.129 219.749 145.428 219.518 145.794 219.335C146.165 219.148 146.625 219.054 147.175 219.054C147.891 219.054 148.551 219.241 149.156 219.616C149.761 219.987 150.245 220.548 150.607 221.298C150.969 222.043 151.151 222.979 151.151 224.104C151.151 225.199 150.974 226.124 150.62 226.878C150.271 227.628 149.793 228.197 149.188 228.585C148.587 228.968 147.914 229.16 147.168 229.16C146.64 229.16 146.19 229.072 145.82 228.898C145.453 228.723 145.153 228.504 144.918 228.239C144.684 227.971 144.505 227.7 144.381 227.428H144.26V229H141.575ZM144.241 224.091C144.241 224.675 144.322 225.184 144.484 225.619C144.646 226.053 144.88 226.392 145.187 226.635C145.494 226.874 145.866 226.993 146.305 226.993C146.749 226.993 147.124 226.871 147.43 226.629C147.737 226.381 147.969 226.04 148.127 225.606C148.289 225.167 148.37 224.662 148.37 224.091C148.37 223.524 148.291 223.026 148.134 222.595C147.976 222.165 147.744 221.828 147.437 221.585C147.13 221.342 146.753 221.221 146.305 221.221C145.862 221.221 145.487 221.338 145.18 221.572C144.878 221.807 144.646 222.139 144.484 222.57C144.322 223 144.241 223.507 144.241 224.091ZM155.691 215.909V229H152.968V215.909H155.691ZM162.346 229.192C161.336 229.192 160.467 228.987 159.738 228.578C159.014 228.165 158.456 227.581 158.064 226.827C157.672 226.068 157.475 225.171 157.475 224.136C157.475 223.126 157.672 222.239 158.064 221.477C158.456 220.714 159.007 220.119 159.719 219.693C160.435 219.267 161.275 219.054 162.238 219.054C162.885 219.054 163.488 219.158 164.047 219.367C164.609 219.572 165.099 219.881 165.517 220.294C165.939 220.707 166.267 221.227 166.501 221.854C166.735 222.476 166.853 223.205 166.853 224.04V224.788H158.562V223.1H164.289C164.289 222.708 164.204 222.361 164.034 222.058C163.863 221.756 163.627 221.519 163.324 221.349C163.026 221.174 162.679 221.087 162.282 221.087C161.869 221.087 161.502 221.183 161.183 221.374C160.868 221.562 160.62 221.815 160.441 222.135C160.262 222.45 160.171 222.802 160.167 223.19V224.794C160.167 225.28 160.256 225.7 160.435 226.053C160.618 226.407 160.876 226.68 161.208 226.871C161.541 227.063 161.935 227.159 162.391 227.159C162.694 227.159 162.971 227.116 163.222 227.031C163.473 226.946 163.689 226.818 163.868 226.648C164.047 226.477 164.183 226.268 164.277 226.021L166.795 226.188C166.667 226.793 166.405 227.321 166.009 227.773C165.617 228.22 165.11 228.57 164.488 228.821C163.87 229.068 163.156 229.192 162.346 229.192ZM174.747 222.544V224.705H168.777V222.544H174.747ZM181.503 229.192C180.51 229.192 179.652 228.981 178.927 228.559C178.207 228.133 177.651 227.54 177.259 226.782C176.867 226.019 176.671 225.135 176.671 224.129C176.671 223.115 176.867 222.229 177.259 221.47C177.651 220.707 178.207 220.115 178.927 219.693C179.652 219.267 180.51 219.054 181.503 219.054C182.496 219.054 183.353 219.267 184.073 219.693C184.797 220.115 185.355 220.707 185.748 221.47C186.14 222.229 186.336 223.115 186.336 224.129C186.336 225.135 186.14 226.019 185.748 226.782C185.355 227.54 184.797 228.133 184.073 228.559C183.353 228.981 182.496 229.192 181.503 229.192ZM181.516 227.082C181.968 227.082 182.345 226.955 182.647 226.699C182.95 226.439 183.178 226.085 183.331 225.638C183.489 225.19 183.568 224.681 183.568 224.11C183.568 223.539 183.489 223.03 183.331 222.582C183.178 222.135 182.95 221.781 182.647 221.521C182.345 221.261 181.968 221.131 181.516 221.131C181.06 221.131 180.676 221.261 180.365 221.521C180.059 221.781 179.826 222.135 179.669 222.582C179.515 223.03 179.439 223.539 179.439 224.11C179.439 224.681 179.515 225.19 179.669 225.638C179.826 226.085 180.059 226.439 180.365 226.699C180.676 226.955 181.06 227.082 181.516 227.082ZM188.106 229V219.182H190.746V220.895H190.848C191.027 220.286 191.328 219.825 191.75 219.514C192.172 219.199 192.657 219.041 193.207 219.041C193.343 219.041 193.49 219.05 193.648 219.067C193.806 219.084 193.944 219.107 194.064 219.137V221.553C193.936 221.515 193.759 221.481 193.533 221.451C193.307 221.421 193.1 221.406 192.913 221.406C192.512 221.406 192.154 221.494 191.839 221.668C191.528 221.839 191.281 222.077 191.098 222.384C190.919 222.691 190.829 223.045 190.829 223.445V229H188.106ZM201.29 222.544V224.705H195.32V222.544H201.29ZM211.779 221.982L209.286 222.135C209.244 221.922 209.152 221.73 209.011 221.56C208.871 221.385 208.685 221.246 208.455 221.144C208.229 221.038 207.959 220.984 207.643 220.984C207.222 220.984 206.866 221.074 206.576 221.253C206.286 221.428 206.141 221.662 206.141 221.956C206.141 222.19 206.235 222.388 206.423 222.55C206.61 222.712 206.932 222.842 207.388 222.94L209.165 223.298C210.119 223.494 210.831 223.81 211.3 224.244C211.768 224.679 212.003 225.25 212.003 225.957C212.003 226.601 211.813 227.165 211.434 227.651C211.059 228.137 210.543 228.516 209.887 228.789C209.235 229.058 208.483 229.192 207.631 229.192C206.331 229.192 205.295 228.921 204.524 228.38C203.757 227.835 203.308 227.093 203.175 226.156L205.854 226.015C205.935 226.411 206.131 226.714 206.442 226.923C206.753 227.127 207.151 227.229 207.637 227.229C208.114 227.229 208.498 227.138 208.788 226.955C209.082 226.767 209.231 226.526 209.235 226.232C209.231 225.985 209.126 225.783 208.922 225.625C208.717 225.463 208.402 225.339 207.976 225.254L206.276 224.915C205.317 224.724 204.603 224.391 204.134 223.918C203.67 223.445 203.438 222.842 203.438 222.109C203.438 221.479 203.608 220.935 203.949 220.479C204.294 220.023 204.778 219.672 205.4 219.425C206.026 219.178 206.759 219.054 207.599 219.054C208.839 219.054 209.815 219.316 210.526 219.84C211.242 220.364 211.66 221.078 211.779 221.982ZM220.014 224.82V219.182H222.737V229H220.122V227.217H220.02C219.798 227.792 219.43 228.254 218.914 228.604C218.403 228.953 217.779 229.128 217.041 229.128C216.385 229.128 215.808 228.979 215.309 228.68C214.811 228.382 214.421 227.958 214.139 227.408C213.862 226.859 213.722 226.2 213.718 225.433V219.182H216.441V224.947C216.445 225.527 216.6 225.985 216.907 226.322C217.214 226.658 217.625 226.827 218.141 226.827C218.469 226.827 218.776 226.752 219.061 226.603C219.347 226.45 219.577 226.224 219.752 225.925C219.931 225.627 220.018 225.259 220.014 224.82ZM224.966 229V215.909H227.689V220.831H227.772C227.891 220.567 228.064 220.298 228.29 220.026C228.52 219.749 228.818 219.518 229.185 219.335C229.555 219.148 230.016 219.054 230.565 219.054C231.281 219.054 231.942 219.241 232.547 219.616C233.152 219.987 233.636 220.548 233.998 221.298C234.36 222.043 234.541 222.979 234.541 224.104C234.541 225.199 234.364 226.124 234.011 226.878C233.661 227.628 233.184 228.197 232.579 228.585C231.978 228.968 231.305 229.16 230.559 229.16C230.031 229.16 229.581 229.072 229.21 228.898C228.844 228.723 228.543 228.504 228.309 228.239C228.075 227.971 227.896 227.7 227.772 227.428H227.651V229H224.966ZM227.631 224.091C227.631 224.675 227.712 225.184 227.874 225.619C228.036 226.053 228.271 226.392 228.577 226.635C228.884 226.874 229.257 226.993 229.696 226.993C230.139 226.993 230.514 226.871 230.821 226.629C231.128 226.381 231.36 226.04 231.518 225.606C231.68 225.167 231.761 224.662 231.761 224.091C231.761 223.524 231.682 223.026 231.524 222.595C231.366 222.165 231.134 221.828 230.827 221.585C230.521 221.342 230.143 221.221 229.696 221.221C229.253 221.221 228.878 221.338 228.571 221.572C228.268 221.807 228.036 222.139 227.874 222.57C227.712 223 227.631 223.507 227.631 224.091ZM242.846 232.682V227.428H242.763C242.635 227.7 242.454 227.971 242.22 228.239C241.99 228.504 241.689 228.723 241.318 228.898C240.952 229.072 240.504 229.16 239.976 229.16C239.23 229.16 238.555 228.968 237.95 228.585C237.349 228.197 236.872 227.628 236.518 226.878C236.169 226.124 235.994 225.199 235.994 224.104C235.994 222.979 236.175 222.043 236.537 221.298C236.899 220.548 237.381 219.987 237.982 219.616C238.587 219.241 239.249 219.054 239.97 219.054C240.519 219.054 240.977 219.148 241.344 219.335C241.715 219.518 242.013 219.749 242.239 220.026C242.469 220.298 242.644 220.567 242.763 220.831H242.878V219.182H245.563V232.682H242.846ZM240.839 226.993C241.278 226.993 241.649 226.874 241.951 226.635C242.258 226.392 242.492 226.053 242.654 225.619C242.82 225.184 242.904 224.675 242.904 224.091C242.904 223.507 242.823 223 242.661 222.57C242.499 222.139 242.264 221.807 241.958 221.572C241.651 221.338 241.278 221.221 240.839 221.221C240.392 221.221 240.014 221.342 239.708 221.585C239.401 221.828 239.169 222.165 239.011 222.595C238.853 223.026 238.774 223.524 238.774 224.091C238.774 224.662 238.853 225.167 239.011 225.606C239.173 226.04 239.405 226.381 239.708 226.629C240.014 226.871 240.392 226.993 240.839 226.993ZM254.045 224.82V219.182H256.768V229H254.154V227.217H254.051C253.83 227.792 253.461 228.254 252.945 228.604C252.434 228.953 251.81 229.128 251.073 229.128C250.416 229.128 249.839 228.979 249.34 228.68C248.842 228.382 248.452 227.958 248.171 227.408C247.894 226.859 247.753 226.2 247.749 225.433V219.182H250.472V224.947C250.476 225.527 250.632 225.985 250.938 226.322C251.245 226.658 251.656 226.827 252.172 226.827C252.5 226.827 252.807 226.752 253.093 226.603C253.378 226.45 253.608 226.224 253.783 225.925C253.962 225.627 254.049 225.259 254.045 224.82ZM263.42 229.192C262.411 229.192 261.541 228.987 260.812 228.578C260.088 228.165 259.53 227.581 259.138 226.827C258.746 226.068 258.55 225.171 258.55 224.136C258.55 223.126 258.746 222.239 259.138 221.477C259.53 220.714 260.082 220.119 260.793 219.693C261.509 219.267 262.349 219.054 263.312 219.054C263.96 219.054 264.563 219.158 265.121 219.367C265.683 219.572 266.173 219.881 266.591 220.294C267.013 220.707 267.341 221.227 267.575 221.854C267.81 222.476 267.927 223.205 267.927 224.04V224.788H259.636V223.1H265.364C265.364 222.708 265.278 222.361 265.108 222.058C264.938 221.756 264.701 221.519 264.398 221.349C264.1 221.174 263.753 221.087 263.357 221.087C262.943 221.087 262.577 221.183 262.257 221.374C261.942 221.562 261.695 221.815 261.516 222.135C261.337 222.45 261.245 222.802 261.241 223.19V224.794C261.241 225.28 261.33 225.7 261.509 226.053C261.692 226.407 261.95 226.68 262.283 226.871C262.615 227.063 263.009 227.159 263.465 227.159C263.768 227.159 264.045 227.116 264.296 227.031C264.548 226.946 264.763 226.818 264.942 226.648C265.121 226.477 265.257 226.268 265.351 226.021L267.869 226.188C267.741 226.793 267.479 227.321 267.083 227.773C266.691 228.22 266.184 228.57 265.562 228.821C264.944 229.068 264.23 229.192 263.42 229.192ZM269.704 229V219.182H272.344V220.895H272.446C272.625 220.286 272.925 219.825 273.347 219.514C273.769 219.199 274.255 219.041 274.805 219.041C274.941 219.041 275.088 219.05 275.246 219.067C275.403 219.084 275.542 219.107 275.661 219.137V221.553C275.533 221.515 275.357 221.481 275.131 221.451C274.905 221.421 274.698 221.406 274.511 221.406C274.11 221.406 273.752 221.494 273.437 221.668C273.126 221.839 272.879 222.077 272.695 222.384C272.516 222.691 272.427 223.045 272.427 223.445V229H269.704ZM279.049 232.682C278.704 232.682 278.38 232.654 278.077 232.599C277.779 232.548 277.532 232.482 277.336 232.401L277.95 230.368C278.269 230.466 278.557 230.519 278.812 230.528C279.072 230.536 279.296 230.477 279.484 230.349C279.675 230.221 279.831 230.004 279.95 229.697L280.11 229.281L276.588 219.182H279.452L281.484 226.392H281.587L283.638 219.182H286.521L282.705 230.061C282.522 230.589 282.273 231.05 281.957 231.442C281.646 231.838 281.252 232.143 280.775 232.356C280.298 232.573 279.722 232.682 279.049 232.682Z" fill="white"/>
<rect x="118.5" y="207.5" width="173" height="32" stroke="white"/>
<path d="M118 224L108 218.226V229.774L118 224ZM88 225H109V223H88V225Z" fill="white"/>
<path d="M144 285L134 279.226V290.774L144 285ZM88 225H93V223H88V225ZM102 234V275H104V234H102ZM113 286H135V284H113V286ZM102 275C102 281.075 106.925 286 113 286V284C108.029 284 104 279.971 104 275H102ZM93 225C97.9706 225 102 229.029 102 234H104C104 227.925 99.0751 223 93 223V225Z" fill="white"/>
<path d="M322 224L312 218.226V229.774L322 224ZM292 225H313V223H292V225Z" fill="white"/>
<path d="M322 224L312 218.226V229.774L322 224ZM251 286H289V284H251V286ZM300 275V234H298V275H300ZM309 225H313V223H309V225ZM300 234C300 229.029 304.029 225 309 225V223C302.925 223 298 227.925 298 234H300ZM289 286C295.075 286 300 281.075 300 275H298C298 279.971 293.971 284 289 284V286Z" fill="white"/>
<path d="M323 118.5L313 112.726V124.274L323 118.5ZM303.5 159.5V128.5H301.5V159.5H303.5ZM312.5 119.5H314V117.5H312.5V119.5ZM303.5 128.5C303.5 123.529 307.529 119.5 312.5 119.5V117.5C306.425 117.5 301.5 122.425 301.5 128.5H303.5ZM295 168C299.694 168 303.5 164.194 303.5 159.5H301.5C301.5 163.09 298.59 166 295 166V168Z" fill="white"/>
<path d="M553 68L543 62.2265V73.7735L553 68ZM520 117.5H522.5V115.5H520V117.5ZM533.5 106.5V78H531.5V106.5H533.5ZM542.5 69H544V67H542.5V69ZM533.5 78C533.5 73.0294 537.529 69 542.5 69V67C536.425 67 531.5 71.9249 531.5 78H533.5ZM522.5 117.5C528.575 117.5 533.5 112.575 533.5 106.5H531.5C531.5 111.471 527.471 115.5 522.5 115.5V117.5Z" fill="white"/>
<path d="M553 68L543 62.2265V73.7735L553 68ZM353.5 168H522.5V166H353.5V168ZM533.5 157V78H531.5V157H533.5ZM542.5 69H544V67H542.5V69ZM533.5 78C533.5 73.0294 537.529 69 542.5 69V67C536.425 67 531.5 71.9249 531.5 78H533.5ZM522.5 168C528.575 168 533.5 163.075 533.5 157H531.5C531.5 161.971 527.471 166 522.5 166V168Z" fill="white"/>
<path d="M553 68L543 62.2265V73.7735L553 68ZM354 225H522.551V223H354V225ZM533.551 214V78H531.551V214H533.551ZM542.551 69H544V67H542.551V69ZM533.551 78C533.551 73.0294 537.581 69 542.551 69V67C536.476 67 531.551 71.9249 531.551 78H533.551ZM522.551 225C528.626 225 533.551 220.075 533.551 214H531.551C531.551 218.971 527.522 223 522.551 223V225Z" fill="white"/>
<path d="M401 119L391 113.226V124.774L401 119ZM295 168H362.5V166H295V168ZM373.5 157V129H371.5V157H373.5ZM382.5 120H392V118H382.5V120ZM373.5 129C373.5 124.029 377.529 120 382.5 120V118C376.425 118 371.5 122.925 371.5 129H373.5ZM362.5 168C368.575 168 373.5 163.075 373.5 157H371.5C371.5 161.971 367.471 166 362.5 166V168Z" fill="white"/>
<path d="M61 68L51 62.2265L51 73.7735L61 68ZM8 69L52 69L52 67L8 67L8 69Z" fill="white"/>
<path d="M30.2366 78L31.2366 78L30.2366 78ZM30.2366 158L29.2366 158L30.2366 158ZM55 168L45 162.226L45 173.774L55 168ZM19.1183 68L19.1183 67L19.1183 68ZM29.2366 78L29.2366 158L31.2366 158L31.2366 78L29.2366 78ZM40.2366 169L46 169L46 167L40.2366 167L40.2366 169ZM8 69L19.1183 69L19.1183 67L8 67L8 69ZM19.1183 69L20.2366 69L20.2366 67L19.1183 67L19.1183 69ZM29.2366 158C29.2366 164.075 34.1614 169 40.2366 169L40.2366 167C35.266 167 31.2366 162.971 31.2366 158L29.2366 158ZM31.2366 78C31.2366 71.9249 26.3117 67 20.2366 67L20.2366 69C25.2071 69 29.2366 73.0294 29.2366 78L31.2366 78Z" fill="white"/>
<path d="M20.2366 68L20.2366 69L20.2366 68ZM30.2366 78L29.2366 78L30.2366 78ZM30.2366 214L29.2366 214L30.2366 214ZM55 224L45 218.226L45 229.773L55 224ZM8 69L20.2366 69L20.2366 67L8 67L8 69ZM29.2366 78L29.2366 214L31.2366 214L31.2366 78L29.2366 78ZM40.2366 225L46 225L46 223L40.2366 223L40.2366 225ZM29.2366 214C29.2366 220.075 34.1614 225 40.2366 225L40.2366 223C35.266 223 31.2366 218.971 31.2366 214L29.2366 214ZM20.2366 69C25.2071 69 29.2366 73.0294 29.2366 78L31.2366 78C31.2366 71.9249 26.3117 67 20.2366 67L20.2366 69Z" fill="white"/>
<path d="M250 40H255C260.523 40 265 44.4772 265 50V58C265 63.5228 269.477 68 275 68H278.5" stroke="white" stroke-width="2"/>
<path d="M553.5 68L543.5 62.2265V73.7735L553.5 68ZM228 41H430.5V39H228V41ZM439.5 50V58H441.5V50H439.5ZM450.5 69H544.5V67H450.5V69ZM439.5 58C439.5 64.0751 444.425 69 450.5 69V67C445.529 67 441.5 62.9706 441.5 58H439.5ZM430.5 41C435.471 41 439.5 45.0294 439.5 50H441.5C441.5 43.9249 436.575 39 430.5 39V41Z" fill="white"/>
<path d="M243 40L233 34.2265V45.7735L243 40ZM183 69H188V67H183V69ZM199 58V50H197V58H199ZM208 41H234V39H208V41ZM199 50C199 45.0294 203.029 41 208 41V39C201.925 39 197 43.9249 197 50H199ZM188 69C194.075 69 199 64.0751 199 58H197C197 62.9706 192.971 67 188 67V69Z" fill="white"/>
<path d="M6.30895 8.18182V10.2273H0.396307V8.18182H6.30895ZM1.73864 5.82955H4.46165V14.983C4.46165 15.2344 4.5 15.4304 4.5767 15.571C4.65341 15.7074 4.75994 15.8033 4.89631 15.8587C5.03693 15.9141 5.19886 15.9418 5.3821 15.9418C5.50994 15.9418 5.63778 15.9311 5.76562 15.9098C5.89347 15.8842 5.99148 15.8651 6.05966 15.8523L6.48793 17.8786C6.35156 17.9212 6.1598 17.9702 5.91264 18.0256C5.66548 18.0852 5.36506 18.1214 5.01136 18.1342C4.35511 18.1598 3.77983 18.0724 3.28551 17.8722C2.79545 17.6719 2.41406 17.3608 2.14134 16.9389C1.86861 16.517 1.73438 15.9844 1.73864 15.3409V5.82955ZM10.8825 18.1854C10.256 18.1854 9.6978 18.0767 9.20774 17.8594C8.71768 17.6378 8.3299 17.3118 8.04439 16.8814C7.76314 16.4467 7.62251 15.9055 7.62251 15.2578C7.62251 14.7124 7.72266 14.2543 7.92294 13.8835C8.12322 13.5128 8.39595 13.2145 8.74112 12.9886C9.08629 12.7628 9.47834 12.5923 9.91726 12.4773C10.3604 12.3622 10.8249 12.2812 11.3107 12.2344C11.8817 12.1747 12.342 12.1193 12.6914 12.0682C13.0408 12.0128 13.2944 11.9318 13.4521 11.8253C13.6097 11.7187 13.6886 11.5611 13.6886 11.3523V11.3139C13.6886 10.9091 13.5607 10.5959 13.305 10.3743C13.0536 10.1527 12.6957 10.0419 12.2312 10.0419C11.7411 10.0419 11.3512 10.1506 11.0614 10.3679C10.7717 10.581 10.5799 10.8494 10.4862 11.1733L7.96768 10.9688C8.09553 10.3722 8.34695 9.85653 8.72195 9.42188C9.09695 8.98295 9.58061 8.64631 10.1729 8.41193C10.7695 8.1733 11.4599 8.05398 12.244 8.05398C12.7894 8.05398 13.3114 8.1179 13.81 8.24574C14.3129 8.37358 14.7582 8.57173 15.146 8.8402C15.538 9.10866 15.8469 9.45384 16.0728 9.87571C16.2987 10.2933 16.4116 10.794 16.4116 11.3778V18H13.8292V16.6385H13.7525C13.5948 16.9453 13.3839 17.2159 13.1197 17.4503C12.8555 17.6804 12.538 17.8615 12.1673 17.9936C11.7965 18.1214 11.3683 18.1854 10.8825 18.1854ZM11.6623 16.3061C12.0629 16.3061 12.4165 16.2273 12.7234 16.0696C13.0302 15.9077 13.271 15.6903 13.4457 15.4176C13.6204 15.1449 13.7077 14.8359 13.7077 14.4908V13.4489C13.6225 13.5043 13.5053 13.5554 13.3562 13.6023C13.2113 13.6449 13.0472 13.6854 12.864 13.7237C12.6808 13.7578 12.4975 13.7898 12.3143 13.8196C12.131 13.8452 11.9648 13.8686 11.8157 13.8899C11.4961 13.9368 11.217 14.0114 10.9783 14.1136C10.7397 14.2159 10.5543 14.3544 10.4222 14.5291C10.2901 14.6996 10.2241 14.9126 10.2241 15.1683C10.2241 15.5391 10.3583 15.8224 10.6268 16.0185C10.8995 16.2102 11.2447 16.3061 11.6623 16.3061ZM18.5753 18V4.90909H21.2983V9.83097H21.3814C21.5007 9.56676 21.6733 9.2983 21.8991 9.02557C22.1293 8.74858 22.4276 8.51847 22.794 8.33523C23.1648 8.14773 23.625 8.05398 24.1747 8.05398C24.8906 8.05398 25.5511 8.24148 26.1562 8.61648C26.7614 8.98722 27.245 9.54759 27.6072 10.2976C27.9695 11.0433 28.1506 11.9787 28.1506 13.1037C28.1506 14.1989 27.9737 15.1236 27.62 15.8778C27.2706 16.6278 26.7933 17.1967 26.1882 17.5845C25.5874 17.968 24.9141 18.1598 24.1683 18.1598C23.6399 18.1598 23.1903 18.0724 22.8196 17.8977C22.4531 17.723 22.1527 17.5036 21.9183 17.2393C21.6839 16.9709 21.505 16.7003 21.3814 16.4276H21.2599V18H18.5753ZM21.2408 13.0909C21.2408 13.6747 21.3217 14.1839 21.4837 14.6186C21.6456 15.0533 21.88 15.392 22.1868 15.6349C22.4936 15.8736 22.8665 15.9929 23.3054 15.9929C23.7486 15.9929 24.1236 15.8714 24.4304 15.6286C24.7372 15.3814 24.9695 15.0405 25.1271 14.6058C25.2891 14.1669 25.37 13.6619 25.37 13.0909C25.37 12.5241 25.2912 12.0256 25.1335 11.5952C24.9759 11.1648 24.7436 10.8281 24.4368 10.5852C24.13 10.3423 23.7528 10.2209 23.3054 10.2209C22.8622 10.2209 22.4872 10.3381 22.1804 10.5724C21.8778 10.8068 21.6456 11.1392 21.4837 11.5696C21.3217 12 21.2408 12.5071 21.2408 13.0909ZM32.6905 4.90909V18H29.9675V4.90909H32.6905ZM39.3462 18.1918C38.3363 18.1918 37.467 17.9872 36.7383 17.5781C36.0138 17.1648 35.4556 16.581 35.0636 15.8267C34.6715 15.0682 34.4755 14.1712 34.4755 13.1357C34.4755 12.1257 34.6715 11.2393 35.0636 10.4766C35.4556 9.71378 36.0075 9.11932 36.7191 8.69318C37.435 8.26705 38.2745 8.05398 39.2376 8.05398C39.8853 8.05398 40.4883 8.15838 41.0465 8.36719C41.609 8.57173 42.0991 8.88068 42.5167 9.29403C42.9386 9.70739 43.2667 10.2273 43.5011 10.8537C43.7354 11.4759 43.8526 12.2045 43.8526 13.0398V13.7876H35.5621V12.1001H41.2894C41.2894 11.7081 41.2042 11.3608 41.0337 11.0582C40.8633 10.7557 40.6268 10.5192 40.3242 10.3487C40.0259 10.174 39.6786 10.0866 39.2823 10.0866C38.869 10.0866 38.5025 10.1825 38.1829 10.3743C37.8675 10.5618 37.6204 10.8153 37.4414 11.1349C37.2624 11.4503 37.1708 11.8018 37.1665 12.1896V13.794C37.1665 14.2798 37.256 14.6996 37.435 15.0533C37.6183 15.407 37.8761 15.6797 38.2085 15.8714C38.5408 16.0632 38.935 16.1591 39.391 16.1591C39.6935 16.1591 39.9705 16.1165 40.2219 16.0312C40.4734 15.946 40.6886 15.8182 40.8675 15.6477C41.0465 15.4773 41.1829 15.2685 41.2766 15.0213L43.7951 15.1875C43.6673 15.7926 43.4052 16.321 43.0089 16.7727C42.6168 17.2202 42.1097 17.5696 41.4876 17.821C40.8697 18.0682 40.1559 18.1918 39.3462 18.1918ZM51.7468 11.544V13.7045H45.7766V11.544H51.7468ZM58.5032 18.1918C57.5103 18.1918 56.6516 17.9808 55.9272 17.5589C55.207 17.1328 54.6509 16.5405 54.2589 15.782C53.8668 15.0192 53.6708 14.1349 53.6708 13.1293C53.6708 12.1151 53.8668 11.2287 54.2589 10.4702C54.6509 9.70739 55.207 9.11506 55.9272 8.69318C56.6516 8.26705 57.5103 8.05398 58.5032 8.05398C59.4961 8.05398 60.3526 8.26705 61.0728 8.69318C61.7972 9.11506 62.3555 9.70739 62.7475 10.4702C63.1396 11.2287 63.3356 12.1151 63.3356 13.1293C63.3356 14.1349 63.1396 15.0192 62.7475 15.782C62.3555 16.5405 61.7972 17.1328 61.0728 17.5589C60.3526 17.9808 59.4961 18.1918 58.5032 18.1918ZM58.516 16.0824C58.9677 16.0824 59.3448 15.9545 59.6474 15.6989C59.9499 15.4389 60.1779 15.0852 60.3313 14.6378C60.489 14.1903 60.5678 13.6811 60.5678 13.1101C60.5678 12.5391 60.489 12.0298 60.3313 11.5824C60.1779 11.1349 59.9499 10.7812 59.6474 10.5213C59.3448 10.2614 58.9677 10.1314 58.516 10.1314C58.06 10.1314 57.6765 10.2614 57.3654 10.5213C57.0586 10.7812 56.8263 11.1349 56.6687 11.5824C56.5153 12.0298 56.4386 12.5391 56.4386 13.1101C56.4386 13.6811 56.5153 14.1903 56.6687 14.6378C56.8263 15.0852 57.0586 15.4389 57.3654 15.6989C57.6765 15.9545 58.06 16.0824 58.516 16.0824ZM65.1062 18V8.18182H67.7461V9.89489H67.8484C68.0273 9.28551 68.3278 8.82528 68.7496 8.5142C69.1715 8.19886 69.6573 8.04119 70.207 8.04119C70.3434 8.04119 70.4904 8.04972 70.6481 8.06676C70.8058 8.08381 70.9442 8.10724 71.0636 8.13707V10.5533C70.9357 10.5149 70.7589 10.4808 70.533 10.451C70.3072 10.4212 70.1005 10.4062 69.913 10.4062C69.5124 10.4062 69.1545 10.4936 68.8391 10.6683C68.5281 10.8388 68.2809 11.0774 68.0977 11.3842C67.9187 11.6911 67.8292 12.0447 67.8292 12.4453V18H65.1062ZM78.2898 11.544V13.7045H72.3196V11.544H78.2898ZM88.7791 10.9815L86.2862 11.1349C86.2436 10.9219 86.152 10.7301 86.0114 10.5597C85.8707 10.3849 85.6854 10.2464 85.4553 10.1442C85.2294 10.0376 84.9588 9.98438 84.6435 9.98438C84.2216 9.98438 83.8658 10.0739 83.576 10.2528C83.2862 10.4276 83.1413 10.6619 83.1413 10.956C83.1413 11.1903 83.2351 11.3885 83.4226 11.5504C83.6101 11.7124 83.9318 11.8423 84.3878 11.9403L86.1648 12.2983C87.1193 12.4943 87.831 12.8097 88.2997 13.2443C88.7685 13.679 89.0028 14.25 89.0028 14.9574C89.0028 15.6009 88.8132 16.1655 88.4339 16.6513C88.0589 17.1371 87.5433 17.5163 86.8871 17.7891C86.2351 18.0575 85.483 18.1918 84.6307 18.1918C83.331 18.1918 82.2955 17.9212 81.5241 17.38C80.7571 16.8345 80.3075 16.093 80.1754 15.1555L82.8537 15.0149C82.9347 15.4112 83.1307 15.7138 83.4418 15.9226C83.7528 16.1271 84.1513 16.2294 84.6371 16.2294C85.1143 16.2294 85.4979 16.1378 85.7876 15.9545C86.0817 15.767 86.2308 15.5263 86.2351 15.2322C86.2308 14.9851 86.1264 14.7827 85.9219 14.625C85.7173 14.4631 85.402 14.3395 84.9759 14.2543L83.2756 13.9155C82.3168 13.7237 81.603 13.3913 81.1342 12.9183C80.6697 12.4453 80.4375 11.8423 80.4375 11.1094C80.4375 10.4787 80.608 9.93537 80.9489 9.4794C81.294 9.02344 81.7777 8.67188 82.3999 8.42472C83.0263 8.17756 83.7592 8.05398 84.5987 8.05398C85.8388 8.05398 86.8146 8.31605 87.5263 8.8402C88.2422 9.36435 88.6598 10.0781 88.7791 10.9815ZM97.0137 13.8196V8.18182H99.7367V18H97.1223V16.2166H97.0201C96.7985 16.7919 96.4299 17.2543 95.9142 17.6037C95.4029 17.9531 94.7786 18.1278 94.0414 18.1278C93.3851 18.1278 92.8077 17.9787 92.3091 17.6804C91.8105 17.3821 91.4206 16.9581 91.1394 16.4084C90.8624 15.8587 90.7218 15.2003 90.7175 14.4332V8.18182H93.4405V13.9474C93.4448 14.527 93.6003 14.9851 93.9071 15.3217C94.214 15.6584 94.6252 15.8267 95.1408 15.8267C95.4689 15.8267 95.7757 15.7521 96.0613 15.603C96.3468 15.4496 96.5769 15.2237 96.7516 14.9254C96.9306 14.6271 97.0179 14.2585 97.0137 13.8196ZM101.966 18V4.90909H104.689V9.83097H104.772C104.891 9.56676 105.064 9.2983 105.29 9.02557C105.52 8.74858 105.818 8.51847 106.185 8.33523C106.555 8.14773 107.016 8.05398 107.565 8.05398C108.281 8.05398 108.942 8.24148 109.547 8.61648C110.152 8.98722 110.636 9.54759 110.998 10.2976C111.36 11.0433 111.541 11.9787 111.541 13.1037C111.541 14.1989 111.364 15.1236 111.011 15.8778C110.661 16.6278 110.184 17.1967 109.579 17.5845C108.978 17.968 108.305 18.1598 107.559 18.1598C107.031 18.1598 106.581 18.0724 106.21 17.8977C105.844 17.723 105.543 17.5036 105.309 17.2393C105.075 16.9709 104.896 16.7003 104.772 16.4276H104.651V18H101.966ZM104.631 13.0909C104.631 13.6747 104.712 14.1839 104.874 14.6186C105.036 15.0533 105.271 15.392 105.577 15.6349C105.884 15.8736 106.257 15.9929 106.696 15.9929C107.139 15.9929 107.514 15.8714 107.821 15.6286C108.128 15.3814 108.36 15.0405 108.518 14.6058C108.68 14.1669 108.761 13.6619 108.761 13.0909C108.761 12.5241 108.682 12.0256 108.524 11.5952C108.366 11.1648 108.134 10.8281 107.827 10.5852C107.521 10.3423 107.143 10.2209 106.696 10.2209C106.253 10.2209 105.878 10.3381 105.571 10.5724C105.268 10.8068 105.036 11.1392 104.874 11.5696C104.712 12 104.631 12.5071 104.631 13.0909ZM119.846 21.6818V16.4276H119.763C119.635 16.7003 119.454 16.9709 119.22 17.2393C118.99 17.5036 118.689 17.723 118.318 17.8977C117.952 18.0724 117.504 18.1598 116.976 18.1598C116.23 18.1598 115.555 17.968 114.95 17.5845C114.349 17.1967 113.872 16.6278 113.518 15.8778C113.169 15.1236 112.994 14.1989 112.994 13.1037C112.994 11.9787 113.175 11.0433 113.537 10.2976C113.899 9.54759 114.381 8.98722 114.982 8.61648C115.587 8.24148 116.249 8.05398 116.97 8.05398C117.519 8.05398 117.977 8.14773 118.344 8.33523C118.715 8.51847 119.013 8.74858 119.239 9.02557C119.469 9.2983 119.644 9.56676 119.763 9.83097H119.878V8.18182H122.563V21.6818H119.846ZM117.839 15.9929C118.278 15.9929 118.649 15.8736 118.951 15.6349C119.258 15.392 119.492 15.0533 119.654 14.6186C119.82 14.1839 119.904 13.6747 119.904 13.0909C119.904 12.5071 119.823 12 119.661 11.5696C119.499 11.1392 119.264 10.8068 118.958 10.5724C118.651 10.3381 118.278 10.2209 117.839 10.2209C117.392 10.2209 117.014 10.3423 116.708 10.5852C116.401 10.8281 116.169 11.1648 116.011 11.5952C115.853 12.0256 115.774 12.5241 115.774 13.0909C115.774 13.6619 115.853 14.1669 116.011 14.6058C116.173 15.0405 116.405 15.3814 116.708 15.6286C117.014 15.8714 117.392 15.9929 117.839 15.9929ZM131.045 13.8196V8.18182H133.768V18H131.154V16.2166H131.051C130.83 16.7919 130.461 17.2543 129.945 17.6037C129.434 17.9531 128.81 18.1278 128.073 18.1278C127.416 18.1278 126.839 17.9787 126.34 17.6804C125.842 17.3821 125.452 16.9581 125.171 16.4084C124.894 15.8587 124.753 15.2003 124.749 14.4332V8.18182H127.472V13.9474C127.476 14.527 127.632 14.9851 127.938 15.3217C128.245 15.6584 128.656 15.8267 129.172 15.8267C129.5 15.8267 129.807 15.7521 130.093 15.603C130.378 15.4496 130.608 15.2237 130.783 14.9254C130.962 14.6271 131.049 14.2585 131.045 13.8196ZM140.42 18.1918C139.411 18.1918 138.541 17.9872 137.812 17.5781C137.088 17.1648 136.53 16.581 136.138 15.8267C135.746 15.0682 135.55 14.1712 135.55 13.1357C135.55 12.1257 135.746 11.2393 136.138 10.4766C136.53 9.71378 137.082 9.11932 137.793 8.69318C138.509 8.26705 139.349 8.05398 140.312 8.05398C140.96 8.05398 141.563 8.15838 142.121 8.36719C142.683 8.57173 143.173 8.88068 143.591 9.29403C144.013 9.70739 144.341 10.2273 144.575 10.8537C144.81 11.4759 144.927 12.2045 144.927 13.0398V13.7876H136.636V12.1001H142.364C142.364 11.7081 142.278 11.3608 142.108 11.0582C141.938 10.7557 141.701 10.5192 141.398 10.3487C141.1 10.174 140.753 10.0866 140.357 10.0866C139.943 10.0866 139.577 10.1825 139.257 10.3743C138.942 10.5618 138.695 10.8153 138.516 11.1349C138.337 11.4503 138.245 11.8018 138.241 12.1896V13.794C138.241 14.2798 138.33 14.6996 138.509 15.0533C138.692 15.407 138.95 15.6797 139.283 15.8714C139.615 16.0632 140.009 16.1591 140.465 16.1591C140.768 16.1591 141.045 16.1165 141.296 16.0312C141.548 15.946 141.763 15.8182 141.942 15.6477C142.121 15.4773 142.257 15.2685 142.351 15.0213L144.869 15.1875C144.741 15.7926 144.479 16.321 144.083 16.7727C143.691 17.2202 143.184 17.5696 142.562 17.821C141.944 18.0682 141.23 18.1918 140.42 18.1918ZM146.704 18V8.18182H149.344V9.89489H149.446C149.625 9.28551 149.925 8.82528 150.347 8.5142C150.769 8.19886 151.255 8.04119 151.805 8.04119C151.941 8.04119 152.088 8.04972 152.246 8.06676C152.403 8.08381 152.542 8.10724 152.661 8.13707V10.5533C152.533 10.5149 152.357 10.4808 152.131 10.451C151.905 10.4212 151.698 10.4062 151.511 10.4062C151.11 10.4062 150.752 10.4936 150.437 10.6683C150.126 10.8388 149.879 11.0774 149.695 11.3842C149.516 11.6911 149.427 12.0447 149.427 12.4453V18H146.704ZM156.049 21.6818C155.704 21.6818 155.38 21.6541 155.077 21.5987C154.779 21.5476 154.532 21.4815 154.336 21.4006L154.95 19.3679C155.269 19.4659 155.557 19.5192 155.812 19.5277C156.072 19.5362 156.296 19.4766 156.484 19.3487C156.675 19.2209 156.831 19.0036 156.95 18.6967L157.11 18.2812L153.588 8.18182H156.452L158.484 15.392H158.587L160.638 8.18182H163.521L159.705 19.0611C159.522 19.5895 159.273 20.0497 158.957 20.4418C158.646 20.8381 158.252 21.1428 157.775 21.3558C157.298 21.5732 156.722 21.6818 156.049 21.6818Z" fill="white"/>
</svg>
