<svg width="1019" height="492" viewBox="0 0 1019 492" fill="none" xmlns="http://www.w3.org/2000/svg">
<path d="M7.38281 13.8196V8.18182H10.1058V18H7.49148V16.2166H7.3892C7.16761 16.7919 6.79901 17.2543 6.28338 17.6037C5.77202 17.9531 5.14773 18.1278 4.41051 18.1278C3.75426 18.1278 3.17685 17.9787 2.67827 17.6804C2.17969 17.3821 1.78977 16.9581 1.50852 16.4084C1.23153 15.8587 1.09091 15.2003 1.08665 14.4332V8.18182H3.80966V13.9474C3.81392 14.527 3.96946 14.9851 4.27628 15.3217C4.5831 15.6584 4.99432 15.8267 5.50994 15.8267C5.83807 15.8267 6.14489 15.7521 6.4304 15.603C6.71591 15.4496 6.94602 15.2237 7.12074 14.9254C7.29972 14.6271 7.38707 14.2585 7.38281 13.8196ZM12.2839 21.6818V8.18182H14.9686V9.83097H15.09C15.2093 9.56676 15.3819 9.2983 15.6078 9.02557C15.8379 8.74858 16.1362 8.51847 16.5027 8.33523C16.8734 8.14773 17.3336 8.05398 17.8833 8.05398C18.5993 8.05398 19.2598 8.24148 19.8649 8.61648C20.47 8.98722 20.9537 9.54759 21.3159 10.2976C21.6781 11.0433 21.8592 11.9787 21.8592 13.1037C21.8592 14.1989 21.6824 15.1236 21.3287 15.8778C20.9792 16.6278 20.502 17.1967 19.8968 17.5845C19.296 17.968 18.6227 18.1598 17.877 18.1598C17.3485 18.1598 16.899 18.0724 16.5282 17.8977C16.1618 17.723 15.8613 17.5036 15.627 17.2393C15.3926 16.9709 15.2136 16.7003 15.09 16.4276H15.0069V21.6818H12.2839ZM14.9494 13.0909C14.9494 13.6747 15.0304 14.1839 15.1923 14.6186C15.3542 15.0533 15.5886 15.392 15.8954 15.6349C16.2022 15.8736 16.5751 15.9929 17.014 15.9929C17.4572 15.9929 17.8322 15.8714 18.139 15.6286C18.4458 15.3814 18.6781 15.0405 18.8358 14.6058C18.9977 14.1669 19.0787 13.6619 19.0787 13.0909C19.0787 12.5241 18.9998 12.0256 18.8422 11.5952C18.6845 11.1648 18.4522 10.8281 18.1454 10.5852C17.8386 10.3423 17.4615 10.2209 17.014 10.2209C16.5708 10.2209 16.1958 10.3381 15.889 10.5724C15.5865 10.8068 15.3542 11.1392 15.1923 11.5696C15.0304 12 14.9494 12.5071 14.9494 13.0909ZM31.8436 10.9815L29.3507 11.1349C29.3081 10.9219 29.2164 10.7301 29.0758 10.5597C28.9352 10.3849 28.7498 10.2464 28.5197 10.1442C28.2939 10.0376 28.0233 9.98438 27.7079 9.98438C27.286 9.98438 26.9302 10.0739 26.6404 10.2528C26.3507 10.4276 26.2058 10.6619 26.2058 10.956C26.2058 11.1903 26.2995 11.3885 26.487 11.5504C26.6745 11.7124 26.9963 11.8423 27.4522 11.9403L29.2292 12.2983C30.1838 12.4943 30.8954 12.8097 31.3642 13.2443C31.8329 13.679 32.0673 14.25 32.0673 14.9574C32.0673 15.6009 31.8777 16.1655 31.4984 16.6513C31.1234 17.1371 30.6078 17.5163 29.9515 17.7891C29.2995 18.0575 28.5474 18.1918 27.6951 18.1918C26.3954 18.1918 25.3599 17.9212 24.5886 17.38C23.8216 16.8345 23.372 16.093 23.2399 15.1555L25.9181 15.0149C25.9991 15.4112 26.1951 15.7138 26.5062 15.9226C26.8173 16.1271 27.2157 16.2294 27.7015 16.2294C28.1788 16.2294 28.5623 16.1378 28.8521 15.9545C29.1461 15.767 29.2953 15.5263 29.2995 15.2322C29.2953 14.9851 29.1909 14.7827 28.9863 14.625C28.7818 14.4631 28.4664 14.3395 28.0403 14.2543L26.34 13.9155C25.3812 13.7237 24.6674 13.3913 24.1987 12.9183C23.7342 12.4453 23.502 11.8423 23.502 11.1094C23.502 10.4787 23.6724 9.93537 24.0133 9.4794C24.3585 9.02344 24.8422 8.67188 25.4643 8.42472C26.0907 8.17756 26.8237 8.05398 27.6632 8.05398C28.9032 8.05398 29.8791 8.31605 30.5907 8.8402C31.3066 9.36435 31.7243 10.0781 31.8436 10.9815ZM38.2564 18.1918C37.2464 18.1918 36.3771 17.9872 35.6484 17.5781C34.924 17.1648 34.3658 16.581 33.9737 15.8267C33.5817 15.0682 33.3857 14.1712 33.3857 13.1357C33.3857 12.1257 33.5817 11.2393 33.9737 10.4766C34.3658 9.71378 34.9176 9.11932 35.6293 8.69318C36.3452 8.26705 37.1847 8.05398 38.1477 8.05398C38.7955 8.05398 39.3984 8.15838 39.9567 8.36719C40.5192 8.57173 41.0092 8.88068 41.4268 9.29403C41.8487 9.70739 42.1768 10.2273 42.4112 10.8537C42.6456 11.4759 42.7628 12.2045 42.7628 13.0398V13.7876H34.4723V12.1001H40.1996C40.1996 11.7081 40.1143 11.3608 39.9439 11.0582C39.7734 10.7557 39.5369 10.5192 39.2344 10.3487C38.9361 10.174 38.5888 10.0866 38.1925 10.0866C37.7791 10.0866 37.4126 10.1825 37.093 10.3743C36.7777 10.5618 36.5305 10.8153 36.3516 11.1349C36.1726 11.4503 36.081 11.8018 36.0767 12.1896V13.794C36.0767 14.2798 36.1662 14.6996 36.3452 15.0533C36.5284 15.407 36.7862 15.6797 37.1186 15.8714C37.451 16.0632 37.8452 16.1591 38.3011 16.1591C38.6037 16.1591 38.8807 16.1165 39.1321 16.0312C39.3835 15.946 39.5987 15.8182 39.7777 15.6477C39.9567 15.4773 40.093 15.2685 40.1868 15.0213L42.7053 15.1875C42.5774 15.7926 42.3153 16.321 41.919 16.7727C41.527 17.2202 41.0199 17.5696 40.3977 17.821C39.7798 18.0682 39.0661 18.1918 38.2564 18.1918ZM44.5398 18V8.18182H47.1797V9.89489H47.282C47.4609 9.28551 47.7614 8.82528 48.1832 8.5142C48.6051 8.19886 49.0909 8.04119 49.6406 8.04119C49.777 8.04119 49.924 8.04972 50.0817 8.06676C50.2393 8.08381 50.3778 8.10724 50.4972 8.13707V10.5533C50.3693 10.5149 50.1925 10.4808 49.9666 10.451C49.7408 10.4212 49.5341 10.4062 49.3466 10.4062C48.946 10.4062 48.5881 10.4936 48.2727 10.6683C47.9616 10.8388 47.7145 11.0774 47.5312 11.3842C47.3523 11.6911 47.2628 12.0447 47.2628 12.4453V18H44.5398ZM57.6195 8.18182V10.2273H51.7069V8.18182H57.6195ZM53.0492 5.82955H55.7722V14.983C55.7722 15.2344 55.8105 15.4304 55.8873 15.571C55.964 15.7074 56.0705 15.8033 56.2069 15.8587C56.3475 15.9141 56.5094 15.9418 56.6926 15.9418C56.8205 15.9418 56.9483 15.9311 57.0762 15.9098C57.204 15.8842 57.302 15.8651 57.3702 15.8523L57.7985 17.8786C57.6621 17.9212 57.4703 17.9702 57.2232 18.0256C56.976 18.0852 56.6756 18.1214 56.3219 18.1342C55.6657 18.1598 55.0904 18.0724 54.5961 17.8722C54.106 17.6719 53.7246 17.3608 53.4519 16.9389C53.1792 16.517 53.0449 15.9844 53.0492 15.3409V5.82955ZM65.2116 11.544V13.7045H59.2415V11.544H65.2116ZM71.968 18.1918C70.9624 18.1918 70.0973 17.9787 69.3729 17.5526C68.6527 17.1222 68.0987 16.5256 67.7109 15.7628C67.3274 15 67.1357 14.1222 67.1357 13.1293C67.1357 12.1236 67.3295 11.2415 67.7173 10.483C68.1094 9.72017 68.6655 9.12571 69.3857 8.69957C70.1058 8.26918 70.9624 8.05398 71.9553 8.05398C72.8118 8.05398 73.5618 8.20952 74.2053 8.5206C74.8487 8.83168 75.358 9.26847 75.733 9.83097C76.108 10.3935 76.3146 11.054 76.353 11.8125H73.7834C73.7109 11.3224 73.5192 10.9283 73.2081 10.63C72.9013 10.3274 72.4986 10.1761 72 10.1761C71.5781 10.1761 71.2095 10.2912 70.8942 10.5213C70.5831 10.7472 70.3402 11.0774 70.1655 11.5121C69.9908 11.9467 69.9034 12.473 69.9034 13.0909C69.9034 13.7173 69.9886 14.25 70.1591 14.6889C70.3338 15.1278 70.5788 15.4624 70.8942 15.6925C71.2095 15.9226 71.5781 16.0376 72 16.0376C72.3111 16.0376 72.5902 15.9737 72.8374 15.8459C73.0888 15.718 73.2955 15.5327 73.4574 15.2898C73.6236 15.0426 73.7322 14.7464 73.7834 14.4013H76.353C76.3104 15.1513 76.1058 15.8118 75.7393 16.3828C75.3771 16.9496 74.8764 17.3928 74.2372 17.7124C73.598 18.032 72.8416 18.1918 71.968 18.1918ZM80.8194 4.90909V18H78.0964V4.90909H80.8194ZM85.8004 18.1854C85.174 18.1854 84.6158 18.0767 84.1257 17.8594C83.6357 17.6378 83.2479 17.3118 82.9624 16.8814C82.6811 16.4467 82.5405 15.9055 82.5405 15.2578C82.5405 14.7124 82.6406 14.2543 82.8409 13.8835C83.0412 13.5128 83.3139 13.2145 83.6591 12.9886C84.0043 12.7628 84.3963 12.5923 84.8352 12.4773C85.2784 12.3622 85.7429 12.2812 86.2287 12.2344C86.7997 12.1747 87.2599 12.1193 87.6094 12.0682C87.9588 12.0128 88.2124 11.9318 88.37 11.8253C88.5277 11.7187 88.6065 11.5611 88.6065 11.3523V11.3139C88.6065 10.9091 88.4787 10.5959 88.223 10.3743C87.9716 10.1527 87.6136 10.0419 87.1491 10.0419C86.6591 10.0419 86.2692 10.1506 85.9794 10.3679C85.6896 10.581 85.4979 10.8494 85.4041 11.1733L82.8857 10.9688C83.0135 10.3722 83.2649 9.85653 83.6399 9.42188C84.0149 8.98295 84.4986 8.64631 85.0909 8.41193C85.6875 8.1733 86.3778 8.05398 87.1619 8.05398C87.7074 8.05398 88.2294 8.1179 88.728 8.24574C89.2308 8.37358 89.6761 8.57173 90.0639 8.8402C90.456 9.10866 90.7649 9.45384 90.9908 9.87571C91.2166 10.2933 91.3295 10.794 91.3295 11.3778V18H88.7472V16.6385H88.6705C88.5128 16.9453 88.3018 17.2159 88.0376 17.4503C87.7734 17.6804 87.456 17.8615 87.0852 17.9936C86.7145 18.1214 86.2862 18.1854 85.8004 18.1854ZM86.5803 16.3061C86.9808 16.3061 87.3345 16.2273 87.6413 16.0696C87.9482 15.9077 88.1889 15.6903 88.3636 15.4176C88.5384 15.1449 88.6257 14.8359 88.6257 14.4908V13.4489C88.5405 13.5043 88.4233 13.5554 88.2741 13.6023C88.1293 13.6449 87.9652 13.6854 87.782 13.7237C87.5987 13.7578 87.4155 13.7898 87.2322 13.8196C87.049 13.8452 86.8828 13.8686 86.7337 13.8899C86.4141 13.9368 86.1349 14.0114 85.8963 14.1136C85.6577 14.2159 85.4723 14.3544 85.3402 14.5291C85.2081 14.6996 85.142 14.9126 85.142 15.1683C85.142 15.5391 85.2763 15.8224 85.5447 16.0185C85.8175 16.2102 86.1626 16.3061 86.5803 16.3061ZM99.7383 13.8196V8.18182H102.461V18H99.8469V16.2166H99.7447C99.5231 16.7919 99.1545 17.2543 98.6388 17.6037C98.1275 17.9531 97.5032 18.1278 96.766 18.1278C96.1097 18.1278 95.5323 17.9787 95.0337 17.6804C94.5352 17.3821 94.1452 16.9581 93.864 16.4084C93.587 15.8587 93.4464 15.2003 93.4421 14.4332V8.18182H96.1651V13.9474C96.1694 14.527 96.3249 14.9851 96.6317 15.3217C96.9386 15.6584 97.3498 15.8267 97.8654 15.8267C98.1935 15.8267 98.5004 15.7521 98.7859 15.603C99.0714 15.4496 99.3015 15.2237 99.4762 14.9254C99.6552 14.6271 99.7425 14.2585 99.7383 13.8196ZM112.808 10.9815L110.316 11.1349C110.273 10.9219 110.181 10.7301 110.041 10.5597C109.9 10.3849 109.715 10.2464 109.485 10.1442C109.259 10.0376 108.988 9.98438 108.673 9.98438C108.251 9.98438 107.895 10.0739 107.605 10.2528C107.316 10.4276 107.171 10.6619 107.171 10.956C107.171 11.1903 107.264 11.3885 107.452 11.5504C107.639 11.7124 107.961 11.8423 108.417 11.9403L110.194 12.2983C111.149 12.4943 111.86 12.8097 112.329 13.2443C112.798 13.679 113.032 14.25 113.032 14.9574C113.032 15.6009 112.843 16.1655 112.463 16.6513C112.088 17.1371 111.573 17.5163 110.916 17.7891C110.264 18.0575 109.512 18.1918 108.66 18.1918C107.36 18.1918 106.325 17.9212 105.553 17.38C104.786 16.8345 104.337 16.093 104.205 15.1555L106.883 15.0149C106.964 15.4112 107.16 15.7138 107.471 15.9226C107.782 16.1271 108.181 16.2294 108.666 16.2294C109.144 16.2294 109.527 16.1378 109.817 15.9545C110.111 15.767 110.26 15.5263 110.264 15.2322C110.26 14.9851 110.156 14.7827 109.951 14.625C109.747 14.4631 109.431 14.3395 109.005 14.2543L107.305 13.9155C106.346 13.7237 105.632 13.3913 105.164 12.9183C104.699 12.4453 104.467 11.8423 104.467 11.1094C104.467 10.4787 104.637 9.93537 104.978 9.4794C105.323 9.02344 105.807 8.67188 106.429 8.42472C107.056 8.17756 107.789 8.05398 108.628 8.05398C109.868 8.05398 110.844 8.31605 111.556 8.8402C112.271 9.36435 112.689 10.0781 112.808 10.9815ZM119.221 18.1918C118.211 18.1918 117.342 17.9872 116.613 17.5781C115.889 17.1648 115.331 16.581 114.939 15.8267C114.547 15.0682 114.35 14.1712 114.35 13.1357C114.35 12.1257 114.547 11.2393 114.939 10.4766C115.331 9.71378 115.882 9.11932 116.594 8.69318C117.31 8.26705 118.15 8.05398 119.113 8.05398C119.76 8.05398 120.363 8.15838 120.922 8.36719C121.484 8.57173 121.974 8.88068 122.392 9.29403C122.814 9.70739 123.142 10.2273 123.376 10.8537C123.61 11.4759 123.728 12.2045 123.728 13.0398V13.7876H115.437V12.1001H121.164C121.164 11.7081 121.079 11.3608 120.909 11.0582C120.738 10.7557 120.502 10.5192 120.199 10.3487C119.901 10.174 119.554 10.0866 119.157 10.0866C118.744 10.0866 118.377 10.1825 118.058 10.3743C117.743 10.5618 117.495 10.8153 117.316 11.1349C117.137 11.4503 117.046 11.8018 117.042 12.1896V13.794C117.042 14.2798 117.131 14.6996 117.31 15.0533C117.493 15.407 117.751 15.6797 118.083 15.8714C118.416 16.0632 118.81 16.1591 119.266 16.1591C119.569 16.1591 119.846 16.1165 120.097 16.0312C120.348 15.946 120.564 15.8182 120.743 15.6477C120.922 15.4773 121.058 15.2685 121.152 15.0213L123.67 15.1875C123.542 15.7926 123.28 16.321 122.884 16.7727C122.492 17.2202 121.985 17.5696 121.363 17.821C120.745 18.0682 120.031 18.1918 119.221 18.1918Z" fill="white"/>
<circle cx="4" cy="95" r="3.5" stroke="white"/>
<circle cx="1015" cy="309" r="3.5" stroke="white"/>
<path d="M32 95L22 89.2265V100.774L32 95ZM8 96H23V94H8V96Z" fill="white"/>
<path d="M120 95L110 89.2265V100.774L120 95ZM87 96H111V94H87V96Z" fill="white"/>
<path d="M287 360L277 354.226V365.774L287 360ZM355 476H230V478H355V476ZM221 467V370H219V467H221ZM230 361H278V359H230V361ZM221 370C221 365.029 225.029 361 230 361V359C223.925 359 219 363.925 219 370H221ZM230 476C225.029 476 221 471.971 221 467H219C219 473.075 223.925 478 230 478V476Z" fill="white"/>
<path d="M287 360L277 354.226V365.774L287 360ZM209 361H278V359H209V361Z" fill="white"/>
<path d="M287.5 416.5L277.5 410.726V422.274L287.5 416.5ZM209 361H246V359H209V361ZM255 370V406.5H257V370H255ZM266 417.5H278.5V415.5H266V417.5ZM255 406.5C255 412.575 259.925 417.5 266 417.5V415.5C261.029 415.5 257 411.471 257 406.5H255ZM246 361C250.971 361 255 365.029 255 370H257C257 363.925 252.075 359 246 359V361Z" fill="white"/>
<path d="M511 360L501 354.226V365.774L511 360ZM434 361H502V359H434V361Z" fill="white"/>
<path d="M511 360L501 354.226V365.774L511 360ZM457 418H460.5V416H457V418ZM471.5 407V370H469.5V407H471.5ZM480.5 361H502V359H480.5V361ZM471.5 370C471.5 365.029 475.529 361 480.5 361V359C474.425 359 469.5 363.925 469.5 370H471.5ZM460.5 418C466.575 418 471.5 413.075 471.5 407H469.5C469.5 411.971 465.471 416 460.5 416V418Z" fill="white"/>
<path d="M151 360L141 354.226V365.774L151 360ZM129 361H142V359H129V361Z" fill="white"/>
<path d="M1011 309L1001 303.226V314.774L1011 309ZM142 310H1002V308H142V310Z" fill="white"/>
<path d="M32 95L22 89.2265V100.774L32 95ZM142 310H908.5V308H142V310ZM919.5 299V66.5H917.5V299H919.5ZM908.5 55.5H21V57.5H908.5V55.5ZM10 66.5V85H12V66.5H10ZM21 96H23V94H21V96ZM10 85C10 91.0751 14.9249 96 21 96V94C16.0294 94 12 89.9706 12 85H10ZM21 55.5C14.9249 55.5 10 60.4249 10 66.5H12C12 61.5294 16.0294 57.5 21 57.5V55.5ZM919.5 66.5C919.5 60.4249 914.575 55.5 908.5 55.5V57.5C913.471 57.5 917.5 61.5294 917.5 66.5H919.5ZM908.5 310C914.575 310 919.5 305.075 919.5 299H917.5C917.5 303.971 913.471 308 908.5 308V310Z" fill="white"/>
<path d="M814 95L804 89.2265V100.774L814 95ZM247 96H805V94H247V96Z" fill="white"/>
<path d="M32.5 308.5L22.5 302.727V314.273L32.5 308.5ZM868 96H880V94H868V96ZM889 105V250H891V105H889ZM880 259H22.5V261H880V259ZM11.5 270V298.5H13.5V270H11.5ZM22.5 309.5H23.5V307.5H22.5V309.5ZM11.5 298.5C11.5 304.575 16.4249 309.5 22.5 309.5V307.5C17.5294 307.5 13.5 303.471 13.5 298.5H11.5ZM22.5 259C16.4248 259 11.5 263.925 11.5 270H13.5C13.5 265.029 17.5294 261 22.5 261V259ZM889 250C889 254.971 884.971 259 880 259V261C886.075 261 891 256.075 891 250H889ZM880 96C884.971 96 889 100.029 889 105H891C891 98.9249 886.075 94 880 94V96Z" fill="white"/>
<path d="M32.5 360.5L22.5 354.727V366.273L32.5 360.5ZM868 96H880V94H868V96ZM889 105V250H891V105H889ZM880 259H22.5V261H880V259ZM11.5 270V350.5H13.5V270H11.5ZM22.5 361.5H23.5V359.5H22.5V361.5ZM11.5 350.5C11.5 356.575 16.4249 361.5 22.5 361.5V359.5C17.5294 359.5 13.5 355.471 13.5 350.5H11.5ZM22.5 259C16.4248 259 11.5 263.925 11.5 270H13.5C13.5 265.029 17.5294 261 22.5 261V259ZM889 250C889 254.971 884.971 259 880 259V261C886.075 261 891 256.075 891 250H889ZM880 96C884.971 96 889 100.029 889 105H891C891 98.9249 886.075 94 880 94V96Z" fill="white"/>
<path d="M58.1676 95.4545C58.1676 96.8821 57.897 98.0966 57.3558 99.098C56.8189 100.099 56.0859 100.864 55.157 101.393C54.2322 101.917 53.1925 102.179 52.0376 102.179C50.8743 102.179 49.8303 101.915 48.9055 101.386C47.9808 100.858 47.25 100.093 46.7131 99.0916C46.1761 98.0902 45.9077 96.8778 45.9077 95.4545C45.9077 94.027 46.1761 92.8125 46.7131 91.8111C47.25 90.8097 47.9808 90.0469 48.9055 89.5227C49.8303 88.9943 50.8743 88.7301 52.0376 88.7301C53.1925 88.7301 54.2322 88.9943 55.157 89.5227C56.0859 90.0469 56.8189 90.8097 57.3558 91.8111C57.897 92.8125 58.1676 94.027 58.1676 95.4545ZM55.3615 95.4545C55.3615 94.5298 55.223 93.75 54.946 93.1151C54.6733 92.4801 54.2876 91.9986 53.7891 91.6705C53.2905 91.3423 52.7067 91.1783 52.0376 91.1783C51.3686 91.1783 50.7848 91.3423 50.2862 91.6705C49.7876 91.9986 49.3999 92.4801 49.1229 93.1151C48.8501 93.75 48.7138 94.5298 48.7138 95.4545C48.7138 96.3793 48.8501 97.1591 49.1229 97.794C49.3999 98.429 49.7876 98.9105 50.2862 99.2386C50.7848 99.5668 51.3686 99.7308 52.0376 99.7308C52.7067 99.7308 53.2905 99.5668 53.7891 99.2386C54.2876 98.9105 54.6733 98.429 54.946 97.794C55.223 97.1591 55.3615 96.3793 55.3615 95.4545ZM71.1674 88.9091V102H68.7768L63.0815 93.7607H62.9856V102H60.2179V88.9091H62.6468L68.2974 97.142H68.4125V88.9091H71.1674Z" fill="white"/>
<rect x="33.5" y="79.5" width="53" height="32" rx="16" stroke="white"/>
<path d="M832.778 103H828.138V89.9091H832.817C834.134 89.9091 835.267 90.1712 836.217 90.6953C837.168 91.2152 837.898 91.9631 838.41 92.9389C838.925 93.9148 839.183 95.0824 839.183 96.4418C839.183 97.8054 838.925 98.9773 838.41 99.9574C837.898 100.937 837.163 101.69 836.205 102.214C835.25 102.738 834.108 103 832.778 103ZM830.906 100.629H832.663C833.482 100.629 834.17 100.484 834.728 100.194C835.29 99.8999 835.712 99.446 835.994 98.8324C836.279 98.2145 836.422 97.4176 836.422 96.4418C836.422 95.4744 836.279 94.6839 835.994 94.0703C835.712 93.4567 835.293 93.005 834.734 92.7152C834.176 92.4254 833.488 92.2805 832.67 92.2805H830.906V100.629ZM853.263 96.4545C853.263 97.8821 852.993 99.0966 852.452 100.098C851.915 101.099 851.182 101.864 850.253 102.393C849.328 102.917 848.288 103.179 847.133 103.179C845.97 103.179 844.926 102.915 844.001 102.386C843.077 101.858 842.346 101.093 841.809 100.092C841.272 99.0902 841.003 97.8778 841.003 96.4545C841.003 95.027 841.272 93.8125 841.809 92.8111C842.346 91.8097 843.077 91.0469 844.001 90.5227C844.926 89.9943 845.97 89.7301 847.133 89.7301C848.288 89.7301 849.328 89.9943 850.253 90.5227C851.182 91.0469 851.915 91.8097 852.452 92.8111C852.993 93.8125 853.263 95.027 853.263 96.4545ZM850.457 96.4545C850.457 95.5298 850.319 94.75 850.042 94.1151C849.769 93.4801 849.383 92.9986 848.885 92.6705C848.386 92.3423 847.802 92.1783 847.133 92.1783C846.464 92.1783 845.881 92.3423 845.382 92.6705C844.883 92.9986 844.496 93.4801 844.219 94.1151C843.946 94.75 843.809 95.5298 843.809 96.4545C843.809 97.3793 843.946 98.1591 844.219 98.794C844.496 99.429 844.883 99.9105 845.382 100.239C845.881 100.567 846.464 100.731 847.133 100.731C847.802 100.731 848.386 100.567 848.885 100.239C849.383 99.9105 849.769 99.429 850.042 98.794C850.319 98.1591 850.457 97.3793 850.457 96.4545Z" fill="white"/>
<rect x="814.5" y="79.5" width="53" height="32" rx="16" stroke="white"/>
<path d="M144.688 93.4922H141.888C141.837 93.13 141.733 92.8082 141.575 92.527C141.418 92.2415 141.215 91.9986 140.968 91.7983C140.721 91.598 140.435 91.4446 140.112 91.3381C139.792 91.2315 139.445 91.1783 139.07 91.1783C138.392 91.1783 137.802 91.3466 137.299 91.6832C136.796 92.0156 136.406 92.5014 136.129 93.1406C135.852 93.7756 135.714 94.5469 135.714 95.4545C135.714 96.3878 135.852 97.1719 136.129 97.8068C136.411 98.4418 136.803 98.9212 137.305 99.245C137.808 99.5689 138.39 99.7308 139.05 99.7308C139.421 99.7308 139.764 99.6818 140.08 99.5838C140.399 99.4858 140.683 99.343 140.93 99.1555C141.177 98.9638 141.381 98.7315 141.543 98.4588C141.71 98.1861 141.825 97.875 141.888 97.5256L144.688 97.5384C144.616 98.1392 144.435 98.7188 144.145 99.277C143.859 99.831 143.474 100.327 142.988 100.766C142.506 101.201 141.931 101.546 141.262 101.802C140.597 102.053 139.845 102.179 139.006 102.179C137.838 102.179 136.794 101.915 135.874 101.386C134.957 100.858 134.233 100.093 133.7 99.0916C133.172 98.0902 132.908 96.8778 132.908 95.4545C132.908 94.027 133.176 92.8125 133.713 91.8111C134.25 90.8097 134.979 90.0469 135.899 89.5227C136.82 88.9943 137.855 88.7301 139.006 88.7301C139.764 88.7301 140.467 88.8366 141.115 89.0497C141.767 89.2628 142.344 89.5739 142.847 89.983C143.35 90.3878 143.759 90.8842 144.075 91.4723C144.394 92.0604 144.599 92.7337 144.688 93.4922ZM158.703 95.4545C158.703 96.8821 158.432 98.0966 157.891 99.098C157.354 100.099 156.621 100.864 155.692 101.393C154.767 101.917 153.728 102.179 152.573 102.179C151.409 102.179 150.365 101.915 149.441 101.386C148.516 100.858 147.785 100.093 147.248 99.0916C146.711 98.0902 146.443 96.8778 146.443 95.4545C146.443 94.027 146.711 92.8125 147.248 91.8111C147.785 90.8097 148.516 90.0469 149.441 89.5227C150.365 88.9943 151.409 88.7301 152.573 88.7301C153.728 88.7301 154.767 88.9943 155.692 89.5227C156.621 90.0469 157.354 90.8097 157.891 91.8111C158.432 92.8125 158.703 94.027 158.703 95.4545ZM155.897 95.4545C155.897 94.5298 155.758 93.75 155.481 93.1151C155.208 92.4801 154.823 91.9986 154.324 91.6705C153.826 91.3423 153.242 91.1783 152.573 91.1783C151.904 91.1783 151.32 91.3423 150.821 91.6705C150.323 91.9986 149.935 92.4801 149.658 93.1151C149.385 93.75 149.249 94.5298 149.249 95.4545C149.249 96.3793 149.385 97.1591 149.658 97.794C149.935 98.429 150.323 98.9105 150.821 99.2386C151.32 99.5668 151.904 99.7308 152.573 99.7308C153.242 99.7308 153.826 99.5668 154.324 99.2386C154.823 98.9105 155.208 98.429 155.481 97.794C155.758 97.1591 155.897 96.3793 155.897 95.4545ZM171.703 88.9091V102H169.312L163.617 93.7607H163.521V102H160.753V88.9091H163.182L168.833 97.142H168.948V88.9091H171.703ZM173.989 102V88.9091H182.657V91.1911H176.757V94.3104H182.082V96.5923H176.757V102H173.989ZM184.519 102V88.9091H187.286V99.718H192.899V102H184.519ZM197.499 88.9091V102H194.732V88.9091H197.499ZM211.327 93.4922H208.527C208.476 93.13 208.372 92.8082 208.214 92.527C208.056 92.2415 207.854 91.9986 207.607 91.7983C207.36 91.598 207.074 91.4446 206.75 91.3381C206.431 91.2315 206.083 91.1783 205.708 91.1783C205.031 91.1783 204.441 91.3466 203.938 91.6832C203.435 92.0156 203.045 92.5014 202.768 93.1406C202.491 93.7756 202.352 94.5469 202.352 95.4545C202.352 96.3878 202.491 97.1719 202.768 97.8068C203.049 98.4418 203.441 98.9212 203.944 99.245C204.447 99.5689 205.029 99.7308 205.689 99.7308C206.06 99.7308 206.403 99.6818 206.718 99.5838C207.038 99.4858 207.321 99.343 207.568 99.1555C207.816 98.9638 208.02 98.7315 208.182 98.4588C208.348 98.1861 208.463 97.875 208.527 97.5256L211.327 97.5384C211.254 98.1392 211.073 98.7188 210.784 99.277C210.498 99.831 210.112 100.327 209.627 100.766C209.145 101.201 208.57 101.546 207.901 101.802C207.236 102.053 206.484 102.179 205.644 102.179C204.477 102.179 203.433 101.915 202.512 101.386C201.596 100.858 200.872 100.093 200.339 99.0916C199.811 98.0902 199.546 96.8778 199.546 95.4545C199.546 94.027 199.815 92.8125 200.352 91.8111C200.889 90.8097 201.617 90.0469 202.538 89.5227C203.458 88.9943 204.494 88.7301 205.644 88.7301C206.403 88.7301 207.106 88.8366 207.754 89.0497C208.406 89.2628 208.983 89.5739 209.486 89.983C209.989 90.3878 210.398 90.8842 210.713 91.4723C211.033 92.0604 211.237 92.7337 211.327 93.4922ZM212.813 91.1911V88.9091H223.564V91.1911H219.557V102H216.821V91.1911H212.813Z" fill="white"/>
<rect x="120.5" y="79.5" width="116" height="32" rx="16" stroke="white"/>
<path d="M57.0874 301.909V315H54.6967L49.0014 306.761H48.9055V315H46.1378V301.909H48.5668L54.2173 310.142H54.3324V301.909H57.0874ZM71.4039 308.455C71.4039 309.882 71.1333 311.097 70.5922 312.098C70.0552 313.099 69.3223 313.864 68.3933 314.393C67.4686 314.917 66.4288 315.179 65.274 315.179C64.1106 315.179 63.0666 314.915 62.1419 314.386C61.2172 313.858 60.4863 313.093 59.9494 312.092C59.4125 311.09 59.144 309.878 59.144 308.455C59.144 307.027 59.4125 305.812 59.9494 304.811C60.4863 303.81 61.2172 303.047 62.1419 302.523C63.0666 301.994 64.1106 301.73 65.274 301.73C66.4288 301.73 67.4686 301.994 68.3933 302.523C69.3223 303.047 70.0552 303.81 70.5922 304.811C71.1333 305.812 71.4039 307.027 71.4039 308.455ZM68.5978 308.455C68.5978 307.53 68.4593 306.75 68.1824 306.115C67.9096 305.48 67.524 304.999 67.0254 304.67C66.5268 304.342 65.943 304.178 65.274 304.178C64.6049 304.178 64.0211 304.342 63.5226 304.67C63.024 304.999 62.6362 305.48 62.3592 306.115C62.0865 306.75 61.9501 307.53 61.9501 308.455C61.9501 309.379 62.0865 310.159 62.3592 310.794C62.6362 311.429 63.024 311.911 63.5226 312.239C64.0211 312.567 64.6049 312.731 65.274 312.731C65.943 312.731 66.5268 312.567 67.0254 312.239C67.524 311.911 67.9096 311.429 68.1824 310.794C68.4593 310.159 68.5978 309.379 68.5978 308.455ZM72.358 304.191V301.909H83.1094V304.191H79.1016V315H76.3658V304.191H72.358ZM84.88 315V301.909H87.6477V307.31H93.2663V301.909H96.0277V315H93.2663V309.592H87.6477V315H84.88ZM101.077 301.909V315H98.3097V301.909H101.077ZM114.304 301.909V315H111.914L106.218 306.761H106.122V315H103.355V301.909H105.784L111.434 310.142H111.549V301.909H114.304ZM125.271 306.141C125.182 305.83 125.056 305.555 124.894 305.316C124.732 305.073 124.534 304.869 124.3 304.702C124.07 304.532 123.805 304.402 123.507 304.312C123.213 304.223 122.887 304.178 122.529 304.178C121.86 304.178 121.272 304.344 120.765 304.677C120.262 305.009 119.87 305.493 119.589 306.128C119.308 306.759 119.167 307.53 119.167 308.442C119.167 309.354 119.305 310.129 119.582 310.768C119.859 311.408 120.251 311.896 120.759 312.232C121.266 312.565 121.864 312.731 122.555 312.731C123.181 312.731 123.716 312.62 124.159 312.398C124.607 312.173 124.947 311.855 125.182 311.446C125.42 311.037 125.54 310.553 125.54 309.995L126.102 310.078H122.727V307.994H128.205V309.643C128.205 310.794 127.962 311.783 127.477 312.609C126.991 313.432 126.322 314.067 125.469 314.514C124.617 314.957 123.641 315.179 122.542 315.179C121.315 315.179 120.237 314.908 119.308 314.367C118.379 313.822 117.654 313.048 117.134 312.047C116.619 311.041 116.361 309.848 116.361 308.467C116.361 307.406 116.514 306.46 116.821 305.629C117.132 304.794 117.567 304.087 118.125 303.507C118.683 302.928 119.333 302.487 120.075 302.184C120.816 301.881 121.619 301.73 122.484 301.73C123.226 301.73 123.916 301.839 124.555 302.056C125.195 302.269 125.761 302.572 126.256 302.964C126.754 303.356 127.161 303.822 127.477 304.364C127.792 304.901 127.994 305.493 128.084 306.141H125.271Z" fill="white"/>
<rect x="33.5" y="292.5" width="108" height="32" rx="16" stroke="white"/>
<path d="M304.523 366.192C303.517 366.192 302.652 365.979 301.928 365.553C301.207 365.122 300.653 364.526 300.266 363.763C299.882 363 299.69 362.122 299.69 361.129C299.69 360.124 299.884 359.241 300.272 358.483C300.664 357.72 301.22 357.126 301.94 356.7C302.661 356.269 303.517 356.054 304.51 356.054C305.366 356.054 306.116 356.21 306.76 356.521C307.403 356.832 307.913 357.268 308.288 357.831C308.663 358.393 308.869 359.054 308.908 359.812H306.338C306.266 359.322 306.074 358.928 305.763 358.63C305.456 358.327 305.053 358.176 304.555 358.176C304.133 358.176 303.764 358.291 303.449 358.521C303.138 358.747 302.895 359.077 302.72 359.512C302.545 359.947 302.458 360.473 302.458 361.091C302.458 361.717 302.543 362.25 302.714 362.689C302.888 363.128 303.134 363.462 303.449 363.692C303.764 363.923 304.133 364.038 304.555 364.038C304.866 364.038 305.145 363.974 305.392 363.846C305.643 363.718 305.85 363.533 306.012 363.29C306.178 363.043 306.287 362.746 306.338 362.401H308.908C308.865 363.151 308.661 363.812 308.294 364.383C307.932 364.95 307.431 365.393 306.792 365.712C306.153 366.032 305.396 366.192 304.523 366.192ZM315.087 366.192C314.094 366.192 313.236 365.981 312.511 365.559C311.791 365.133 311.235 364.54 310.843 363.782C310.451 363.019 310.255 362.135 310.255 361.129C310.255 360.115 310.451 359.229 310.843 358.47C311.235 357.707 311.791 357.115 312.511 356.693C313.236 356.267 314.094 356.054 315.087 356.054C316.08 356.054 316.937 356.267 317.657 356.693C318.381 357.115 318.939 357.707 319.331 358.47C319.724 359.229 319.92 360.115 319.92 361.129C319.92 362.135 319.724 363.019 319.331 363.782C318.939 364.54 318.381 365.133 317.657 365.559C316.937 365.981 316.08 366.192 315.087 366.192ZM315.1 364.082C315.552 364.082 315.929 363.955 316.231 363.699C316.534 363.439 316.762 363.085 316.915 362.638C317.073 362.19 317.152 361.681 317.152 361.11C317.152 360.539 317.073 360.03 316.915 359.582C316.762 359.135 316.534 358.781 316.231 358.521C315.929 358.261 315.552 358.131 315.1 358.131C314.644 358.131 314.26 358.261 313.949 358.521C313.643 358.781 313.41 359.135 313.253 359.582C313.099 360.03 313.023 360.539 313.023 361.11C313.023 361.681 313.099 362.19 313.253 362.638C313.41 363.085 313.643 363.439 313.949 363.699C314.26 363.955 314.644 364.082 315.1 364.082ZM324.413 352.909V366H321.69V352.909H324.413ZM332.891 361.82V356.182H335.614V366H332.999V364.217H332.897C332.675 364.792 332.307 365.254 331.791 365.604C331.28 365.953 330.656 366.128 329.918 366.128C329.262 366.128 328.685 365.979 328.186 365.68C327.688 365.382 327.298 364.958 327.016 364.408C326.739 363.859 326.599 363.2 326.594 362.433V356.182H329.317V361.947C329.322 362.527 329.477 362.985 329.784 363.322C330.091 363.658 330.502 363.827 331.018 363.827C331.346 363.827 331.653 363.752 331.938 363.603C332.224 363.45 332.454 363.224 332.629 362.925C332.808 362.627 332.895 362.259 332.891 361.82ZM337.792 366V356.182H340.387V357.914H340.502C340.706 357.339 341.047 356.885 341.525 356.553C342.002 356.22 342.573 356.054 343.238 356.054C343.911 356.054 344.484 356.222 344.957 356.559C345.43 356.891 345.746 357.343 345.903 357.914H346.006C346.206 357.352 346.568 356.902 347.092 356.565C347.621 356.224 348.245 356.054 348.965 356.054C349.881 356.054 350.625 356.346 351.196 356.93C351.771 357.509 352.059 358.332 352.059 359.397V366H349.342V359.934C349.342 359.388 349.197 358.979 348.907 358.707C348.618 358.434 348.256 358.298 347.821 358.298C347.327 358.298 346.941 358.455 346.664 358.771C346.387 359.082 346.248 359.493 346.248 360.004V366H343.608V359.876C343.608 359.395 343.47 359.011 343.193 358.726C342.92 358.44 342.56 358.298 342.113 358.298C341.81 358.298 341.537 358.374 341.295 358.528C341.056 358.677 340.866 358.888 340.726 359.161C340.585 359.429 340.515 359.744 340.515 360.107V366H337.792ZM356.933 360.324V366H354.21V356.182H356.805V357.914H356.92C357.137 357.343 357.502 356.891 358.013 356.559C358.524 356.222 359.144 356.054 359.873 356.054C360.555 356.054 361.149 356.203 361.656 356.501C362.164 356.8 362.558 357.226 362.839 357.78C363.12 358.33 363.261 358.986 363.261 359.749V366H360.538V360.234C360.542 359.634 360.389 359.165 360.078 358.828C359.767 358.487 359.338 358.317 358.793 358.317C358.426 358.317 358.102 358.396 357.821 358.553C357.544 358.711 357.327 358.941 357.169 359.244C357.016 359.542 356.937 359.902 356.933 360.324ZM371.524 359.544V361.705H365.554V359.544H371.524ZM376.567 360.324V366H373.844V356.182H376.44V357.914H376.555C376.772 357.343 377.136 356.891 377.648 356.559C378.159 356.222 378.779 356.054 379.508 356.054C380.19 356.054 380.784 356.203 381.291 356.501C381.798 356.8 382.192 357.226 382.474 357.78C382.755 358.33 382.896 358.986 382.896 359.749V366H380.173V360.234C380.177 359.634 380.023 359.165 379.712 358.828C379.401 358.487 378.973 358.317 378.428 358.317C378.061 358.317 377.737 358.396 377.456 358.553C377.179 358.711 376.962 358.941 376.804 359.244C376.651 359.542 376.572 359.902 376.567 360.324ZM387.841 366.185C387.215 366.185 386.657 366.077 386.167 365.859C385.677 365.638 385.289 365.312 385.003 364.881C384.722 364.447 384.581 363.906 384.581 363.258C384.581 362.712 384.682 362.254 384.882 361.884C385.082 361.513 385.355 361.214 385.7 360.989C386.045 360.763 386.437 360.592 386.876 360.477C387.319 360.362 387.784 360.281 388.27 360.234C388.841 360.175 389.301 360.119 389.65 360.068C390 360.013 390.253 359.932 390.411 359.825C390.569 359.719 390.648 359.561 390.648 359.352V359.314C390.648 358.909 390.52 358.596 390.264 358.374C390.013 358.153 389.655 358.042 389.19 358.042C388.7 358.042 388.31 358.151 388.02 358.368C387.731 358.581 387.539 358.849 387.445 359.173L384.927 358.969C385.055 358.372 385.306 357.857 385.681 357.422C386.056 356.983 386.54 356.646 387.132 356.412C387.729 356.173 388.419 356.054 389.203 356.054C389.748 356.054 390.27 356.118 390.769 356.246C391.272 356.374 391.717 356.572 392.105 356.84C392.497 357.109 392.806 357.454 393.032 357.876C393.258 358.293 393.371 358.794 393.371 359.378V366H390.788V364.638H390.711C390.554 364.945 390.343 365.216 390.079 365.45C389.814 365.68 389.497 365.862 389.126 365.994C388.756 366.121 388.327 366.185 387.841 366.185ZM388.621 364.306C389.022 364.306 389.376 364.227 389.682 364.07C389.989 363.908 390.23 363.69 390.405 363.418C390.579 363.145 390.667 362.836 390.667 362.491V361.449C390.581 361.504 390.464 361.555 390.315 361.602C390.17 361.645 390.006 361.685 389.823 361.724C389.64 361.758 389.456 361.79 389.273 361.82C389.09 361.845 388.924 361.869 388.775 361.89C388.455 361.937 388.176 362.011 387.937 362.114C387.699 362.216 387.513 362.354 387.381 362.529C387.249 362.7 387.183 362.913 387.183 363.168C387.183 363.539 387.317 363.822 387.586 364.018C387.858 364.21 388.204 364.306 388.621 364.306ZM395.483 366V356.182H398.078V357.914H398.193C398.398 357.339 398.739 356.885 399.216 356.553C399.693 356.22 400.264 356.054 400.929 356.054C401.602 356.054 402.176 356.222 402.649 356.559C403.122 356.891 403.437 357.343 403.595 357.914H403.697C403.897 357.352 404.259 356.902 404.784 356.565C405.312 356.224 405.936 356.054 406.656 356.054C407.573 356.054 408.316 356.346 408.887 356.93C409.463 357.509 409.75 358.332 409.75 359.397V366H407.034V359.934C407.034 359.388 406.889 358.979 406.599 358.707C406.309 358.434 405.947 358.298 405.512 358.298C405.018 358.298 404.632 358.455 404.355 358.771C404.078 359.082 403.94 359.493 403.94 360.004V366H401.3V359.876C401.3 359.395 401.161 359.011 400.884 358.726C400.612 358.44 400.252 358.298 399.804 358.298C399.502 358.298 399.229 358.374 398.986 358.528C398.747 358.677 398.558 358.888 398.417 359.161C398.276 359.429 398.206 359.744 398.206 360.107V366H395.483ZM416.376 366.192C415.366 366.192 414.496 365.987 413.768 365.578C413.043 365.165 412.485 364.581 412.093 363.827C411.701 363.068 411.505 362.171 411.505 361.136C411.505 360.126 411.701 359.239 412.093 358.477C412.485 357.714 413.037 357.119 413.748 356.693C414.464 356.267 415.304 356.054 416.267 356.054C416.915 356.054 417.518 356.158 418.076 356.367C418.638 356.572 419.128 356.881 419.546 357.294C419.968 357.707 420.296 358.227 420.53 358.854C420.765 359.476 420.882 360.205 420.882 361.04V361.788H412.591V360.1H418.319C418.319 359.708 418.233 359.361 418.063 359.058C417.893 358.756 417.656 358.519 417.354 358.349C417.055 358.174 416.708 358.087 416.312 358.087C415.898 358.087 415.532 358.183 415.212 358.374C414.897 358.562 414.65 358.815 414.471 359.135C414.292 359.45 414.2 359.802 414.196 360.19V361.794C414.196 362.28 414.285 362.7 414.464 363.053C414.648 363.407 414.905 363.68 415.238 363.871C415.57 364.063 415.964 364.159 416.42 364.159C416.723 364.159 417 364.116 417.251 364.031C417.503 363.946 417.718 363.818 417.897 363.648C418.076 363.477 418.212 363.268 418.306 363.021L420.824 363.188C420.697 363.793 420.434 364.321 420.038 364.773C419.646 365.22 419.139 365.57 418.517 365.821C417.899 366.068 417.185 366.192 416.376 366.192Z" fill="white"/>
<rect x="287.5" y="343.5" width="146" height="32" rx="16" stroke="white"/>
<path d="M299.523 423.192C298.517 423.192 297.652 422.979 296.928 422.553C296.207 422.122 295.653 421.526 295.266 420.763C294.882 420 294.69 419.122 294.69 418.129C294.69 417.124 294.884 416.241 295.272 415.483C295.664 414.72 296.22 414.126 296.94 413.7C297.661 413.269 298.517 413.054 299.51 413.054C300.366 413.054 301.116 413.21 301.76 413.521C302.403 413.832 302.913 414.268 303.288 414.831C303.663 415.393 303.869 416.054 303.908 416.812H301.338C301.266 416.322 301.074 415.928 300.763 415.63C300.456 415.327 300.053 415.176 299.555 415.176C299.133 415.176 298.764 415.291 298.449 415.521C298.138 415.747 297.895 416.077 297.72 416.512C297.545 416.947 297.458 417.473 297.458 418.091C297.458 418.717 297.543 419.25 297.714 419.689C297.888 420.128 298.134 420.462 298.449 420.692C298.764 420.923 299.133 421.038 299.555 421.038C299.866 421.038 300.145 420.974 300.392 420.846C300.643 420.718 300.85 420.533 301.012 420.29C301.178 420.043 301.287 419.746 301.338 419.401H303.908C303.865 420.151 303.661 420.812 303.294 421.383C302.932 421.95 302.431 422.393 301.792 422.712C301.153 423.032 300.396 423.192 299.523 423.192ZM310.087 423.192C309.094 423.192 308.236 422.981 307.511 422.559C306.791 422.133 306.235 421.54 305.843 420.782C305.451 420.019 305.255 419.135 305.255 418.129C305.255 417.115 305.451 416.229 305.843 415.47C306.235 414.707 306.791 414.115 307.511 413.693C308.236 413.267 309.094 413.054 310.087 413.054C311.08 413.054 311.937 413.267 312.657 413.693C313.381 414.115 313.939 414.707 314.331 415.47C314.724 416.229 314.92 417.115 314.92 418.129C314.92 419.135 314.724 420.019 314.331 420.782C313.939 421.54 313.381 422.133 312.657 422.559C311.937 422.981 311.08 423.192 310.087 423.192ZM310.1 421.082C310.552 421.082 310.929 420.955 311.231 420.699C311.534 420.439 311.762 420.085 311.915 419.638C312.073 419.19 312.152 418.681 312.152 418.11C312.152 417.539 312.073 417.03 311.915 416.582C311.762 416.135 311.534 415.781 311.231 415.521C310.929 415.261 310.552 415.131 310.1 415.131C309.644 415.131 309.26 415.261 308.949 415.521C308.643 415.781 308.41 416.135 308.253 416.582C308.099 417.03 308.023 417.539 308.023 418.11C308.023 418.681 308.099 419.19 308.253 419.638C308.41 420.085 308.643 420.439 308.949 420.699C309.26 420.955 309.644 421.082 310.1 421.082ZM319.413 409.909V423H316.69V409.909H319.413ZM327.891 418.82V413.182H330.614V423H327.999V421.217H327.897C327.675 421.792 327.307 422.254 326.791 422.604C326.28 422.953 325.656 423.128 324.918 423.128C324.262 423.128 323.685 422.979 323.186 422.68C322.688 422.382 322.298 421.958 322.016 421.408C321.739 420.859 321.599 420.2 321.594 419.433V413.182H324.317V418.947C324.322 419.527 324.477 419.985 324.784 420.322C325.091 420.658 325.502 420.827 326.018 420.827C326.346 420.827 326.653 420.752 326.938 420.603C327.224 420.45 327.454 420.224 327.629 419.925C327.808 419.627 327.895 419.259 327.891 418.82ZM332.792 423V413.182H335.387V414.914H335.502C335.706 414.339 336.047 413.885 336.525 413.553C337.002 413.22 337.573 413.054 338.238 413.054C338.911 413.054 339.484 413.222 339.957 413.559C340.43 413.891 340.746 414.343 340.903 414.914H341.006C341.206 414.352 341.568 413.902 342.092 413.565C342.621 413.224 343.245 413.054 343.965 413.054C344.881 413.054 345.625 413.346 346.196 413.93C346.771 414.509 347.059 415.332 347.059 416.397V423H344.342V416.934C344.342 416.388 344.197 415.979 343.907 415.707C343.618 415.434 343.256 415.298 342.821 415.298C342.327 415.298 341.941 415.455 341.664 415.771C341.387 416.082 341.248 416.493 341.248 417.004V423H338.608V416.876C338.608 416.395 338.47 416.011 338.193 415.726C337.92 415.44 337.56 415.298 337.113 415.298C336.81 415.298 336.537 415.374 336.295 415.528C336.056 415.677 335.866 415.888 335.726 416.161C335.585 416.429 335.515 416.744 335.515 417.107V423H332.792ZM351.933 417.324V423H349.21V413.182H351.805V414.914H351.92C352.137 414.343 352.502 413.891 353.013 413.559C353.524 413.222 354.144 413.054 354.873 413.054C355.555 413.054 356.149 413.203 356.656 413.501C357.164 413.8 357.558 414.226 357.839 414.78C358.12 415.33 358.261 415.986 358.261 416.749V423H355.538V417.234C355.542 416.634 355.389 416.165 355.078 415.828C354.767 415.487 354.338 415.317 353.793 415.317C353.426 415.317 353.102 415.396 352.821 415.553C352.544 415.711 352.327 415.941 352.169 416.244C352.016 416.542 351.937 416.902 351.933 417.324ZM366.524 416.544V418.705H360.554V416.544H366.524ZM371.567 417.324V423H368.844V413.182H371.44V414.914H371.555C371.772 414.343 372.136 413.891 372.648 413.559C373.159 413.222 373.779 413.054 374.508 413.054C375.19 413.054 375.784 413.203 376.291 413.501C376.798 413.8 377.192 414.226 377.474 414.78C377.755 415.33 377.896 415.986 377.896 416.749V423H375.173V417.234C375.177 416.634 375.023 416.165 374.712 415.828C374.401 415.487 373.973 415.317 373.428 415.317C373.061 415.317 372.737 415.396 372.456 415.553C372.179 415.711 371.962 415.941 371.804 416.244C371.651 416.542 371.572 416.902 371.567 417.324ZM382.841 423.185C382.215 423.185 381.657 423.077 381.167 422.859C380.677 422.638 380.289 422.312 380.003 421.881C379.722 421.447 379.581 420.906 379.581 420.258C379.581 419.712 379.682 419.254 379.882 418.884C380.082 418.513 380.355 418.214 380.7 417.989C381.045 417.763 381.437 417.592 381.876 417.477C382.319 417.362 382.784 417.281 383.27 417.234C383.841 417.175 384.301 417.119 384.65 417.068C385 417.013 385.253 416.932 385.411 416.825C385.569 416.719 385.648 416.561 385.648 416.352V416.314C385.648 415.909 385.52 415.596 385.264 415.374C385.013 415.153 384.655 415.042 384.19 415.042C383.7 415.042 383.31 415.151 383.02 415.368C382.731 415.581 382.539 415.849 382.445 416.173L379.927 415.969C380.055 415.372 380.306 414.857 380.681 414.422C381.056 413.983 381.54 413.646 382.132 413.412C382.729 413.173 383.419 413.054 384.203 413.054C384.748 413.054 385.27 413.118 385.769 413.246C386.272 413.374 386.717 413.572 387.105 413.84C387.497 414.109 387.806 414.454 388.032 414.876C388.258 415.293 388.371 415.794 388.371 416.378V423H385.788V421.638H385.711C385.554 421.945 385.343 422.216 385.079 422.45C384.814 422.68 384.497 422.862 384.126 422.994C383.756 423.121 383.327 423.185 382.841 423.185ZM383.621 421.306C384.022 421.306 384.376 421.227 384.682 421.07C384.989 420.908 385.23 420.69 385.405 420.418C385.579 420.145 385.667 419.836 385.667 419.491V418.449C385.581 418.504 385.464 418.555 385.315 418.602C385.17 418.645 385.006 418.685 384.823 418.724C384.64 418.758 384.456 418.79 384.273 418.82C384.09 418.845 383.924 418.869 383.775 418.89C383.455 418.937 383.176 419.011 382.937 419.114C382.699 419.216 382.513 419.354 382.381 419.529C382.249 419.7 382.183 419.913 382.183 420.168C382.183 420.539 382.317 420.822 382.586 421.018C382.858 421.21 383.204 421.306 383.621 421.306ZM390.483 423V413.182H393.078V414.914H393.193C393.398 414.339 393.739 413.885 394.216 413.553C394.693 413.22 395.264 413.054 395.929 413.054C396.602 413.054 397.176 413.222 397.649 413.559C398.122 413.891 398.437 414.343 398.595 414.914H398.697C398.897 414.352 399.259 413.902 399.784 413.565C400.312 413.224 400.936 413.054 401.656 413.054C402.573 413.054 403.316 413.346 403.887 413.93C404.463 414.509 404.75 415.332 404.75 416.397V423H402.034V416.934C402.034 416.388 401.889 415.979 401.599 415.707C401.309 415.434 400.947 415.298 400.512 415.298C400.018 415.298 399.632 415.455 399.355 415.771C399.078 416.082 398.94 416.493 398.94 417.004V423H396.3V416.876C396.3 416.395 396.161 416.011 395.884 415.726C395.612 415.44 395.252 415.298 394.804 415.298C394.502 415.298 394.229 415.374 393.986 415.528C393.747 415.677 393.558 415.888 393.417 416.161C393.276 416.429 393.206 416.744 393.206 417.107V423H390.483ZM411.376 423.192C410.366 423.192 409.496 422.987 408.768 422.578C408.043 422.165 407.485 421.581 407.093 420.827C406.701 420.068 406.505 419.171 406.505 418.136C406.505 417.126 406.701 416.239 407.093 415.477C407.485 414.714 408.037 414.119 408.748 413.693C409.464 413.267 410.304 413.054 411.267 413.054C411.915 413.054 412.518 413.158 413.076 413.367C413.638 413.572 414.128 413.881 414.546 414.294C414.968 414.707 415.296 415.227 415.53 415.854C415.765 416.476 415.882 417.205 415.882 418.04V418.788H407.591V417.1H413.319C413.319 416.708 413.233 416.361 413.063 416.058C412.893 415.756 412.656 415.519 412.354 415.349C412.055 415.174 411.708 415.087 411.312 415.087C410.898 415.087 410.532 415.183 410.212 415.374C409.897 415.562 409.65 415.815 409.471 416.135C409.292 416.45 409.2 416.802 409.196 417.19V418.794C409.196 419.28 409.285 419.7 409.464 420.053C409.648 420.407 409.905 420.68 410.238 420.871C410.57 421.063 410.964 421.159 411.42 421.159C411.723 421.159 412 421.116 412.251 421.031C412.503 420.946 412.718 420.818 412.897 420.648C413.076 420.477 413.212 420.268 413.306 420.021L415.824 420.188C415.697 420.793 415.434 421.321 415.038 421.773C414.646 422.22 414.139 422.57 413.517 422.821C412.899 423.068 412.185 423.192 411.376 423.192ZM423.776 416.544V418.705H417.806V416.544H423.776ZM428.819 409.909V423H426.096V409.909H428.819ZM431.001 423V413.182H433.724V423H431.001ZM432.369 411.916C431.964 411.916 431.616 411.782 431.327 411.513C431.041 411.241 430.898 410.915 430.898 410.536C430.898 410.161 431.041 409.839 431.327 409.57C431.616 409.298 431.964 409.161 432.369 409.161C432.773 409.161 433.119 409.298 433.404 409.57C433.694 409.839 433.839 410.161 433.839 410.536C433.839 410.915 433.694 411.241 433.404 411.513C433.119 411.782 432.773 411.916 432.369 411.916ZM444.074 415.982L441.581 416.135C441.539 415.922 441.447 415.73 441.306 415.56C441.166 415.385 440.98 415.246 440.75 415.144C440.524 415.038 440.254 414.984 439.938 414.984C439.517 414.984 439.161 415.074 438.871 415.253C438.581 415.428 438.436 415.662 438.436 415.956C438.436 416.19 438.53 416.388 438.718 416.55C438.905 416.712 439.227 416.842 439.683 416.94L441.46 417.298C442.414 417.494 443.126 417.81 443.595 418.244C444.063 418.679 444.298 419.25 444.298 419.957C444.298 420.601 444.108 421.165 443.729 421.651C443.354 422.137 442.838 422.516 442.182 422.789C441.53 423.058 440.778 423.192 439.926 423.192C438.626 423.192 437.59 422.921 436.819 422.38C436.052 421.835 435.602 421.093 435.47 420.156L438.149 420.015C438.23 420.411 438.426 420.714 438.737 420.923C439.048 421.127 439.446 421.229 439.932 421.229C440.409 421.229 440.793 421.138 441.083 420.955C441.377 420.767 441.526 420.526 441.53 420.232C441.526 419.985 441.421 419.783 441.217 419.625C441.012 419.463 440.697 419.339 440.271 419.254L438.57 418.915C437.612 418.724 436.898 418.391 436.429 417.918C435.965 417.445 435.732 416.842 435.732 416.109C435.732 415.479 435.903 414.935 436.244 414.479C436.589 414.023 437.073 413.672 437.695 413.425C438.321 413.178 439.054 413.054 439.894 413.054C441.134 413.054 442.11 413.316 442.821 413.84C443.537 414.364 443.955 415.078 444.074 415.982ZM451.235 413.182V415.227H445.322V413.182H451.235ZM446.664 410.83H449.387V419.983C449.387 420.234 449.426 420.43 449.502 420.571C449.579 420.707 449.686 420.803 449.822 420.859C449.963 420.914 450.125 420.942 450.308 420.942C450.436 420.942 450.564 420.931 450.691 420.91C450.819 420.884 450.917 420.865 450.985 420.852L451.414 422.879C451.277 422.921 451.086 422.97 450.838 423.026C450.591 423.085 450.291 423.121 449.937 423.134C449.281 423.16 448.706 423.072 448.211 422.872C447.721 422.672 447.34 422.361 447.067 421.939C446.794 421.517 446.66 420.984 446.664 420.341V410.83Z" fill="white"/>
<rect x="288.5" y="400.5" width="168" height="32" stroke="white"/>
<path d="M54.2237 352.909H56.9915V361.411C56.9915 362.365 56.7635 363.2 56.3075 363.916C55.8558 364.632 55.223 365.19 54.4091 365.591C53.5952 365.987 52.647 366.185 51.5646 366.185C50.478 366.185 49.5277 365.987 48.7138 365.591C47.8999 365.19 47.267 364.632 46.8153 363.916C46.3636 363.2 46.1378 362.365 46.1378 361.411V352.909H48.9055V361.174C48.9055 361.673 49.0142 362.116 49.2315 362.504C49.4531 362.891 49.7642 363.196 50.1648 363.418C50.5653 363.639 51.032 363.75 51.5646 363.75C52.1016 363.75 52.5682 363.639 52.9645 363.418C53.3651 363.196 53.674 362.891 53.8913 362.504C54.1129 362.116 54.2237 361.673 54.2237 361.174V352.909ZM59.2686 366V352.909H64.4334C65.4263 352.909 66.2722 353.099 66.9711 353.478C67.6699 353.853 68.2026 354.375 68.5691 355.044C68.9398 355.709 69.1252 356.476 69.1252 357.345C69.1252 358.214 68.9377 358.982 68.5627 359.646C68.1877 360.311 67.6444 360.829 66.9327 361.2C66.2253 361.57 65.3688 361.756 64.3631 361.756H61.0712V359.538H63.9157C64.4483 359.538 64.8873 359.446 65.2324 359.263C65.5819 359.075 65.8418 358.817 66.0123 358.489C66.187 358.157 66.2743 357.776 66.2743 357.345C66.2743 356.911 66.187 356.531 66.0123 356.207C65.8418 355.879 65.5819 355.626 65.2324 355.447C64.883 355.263 64.4398 355.172 63.9029 355.172H62.0364V366H59.2686ZM75.5636 366H70.9229V352.909H75.6019C76.9187 352.909 78.0522 353.171 79.0025 353.695C79.9528 354.215 80.6836 354.963 81.195 355.939C81.7106 356.915 81.9684 358.082 81.9684 359.442C81.9684 360.805 81.7106 361.977 81.195 362.957C80.6836 363.937 79.9485 364.69 78.9897 365.214C78.0352 365.738 76.8931 366 75.5636 366ZM73.6907 363.629H75.4485C76.2667 363.629 76.9549 363.484 77.5131 363.194C78.0756 362.9 78.4975 362.446 78.7788 361.832C79.0643 361.214 79.207 360.418 79.207 359.442C79.207 358.474 79.0643 357.684 78.7788 357.07C78.4975 356.457 78.0778 356.005 77.5195 355.715C76.9613 355.425 76.2731 355.281 75.4549 355.281H73.6907V363.629ZM85.5368 366H82.5708L87.09 352.909H90.6568L95.1696 366H92.2037L88.9245 355.901H88.8223L85.5368 366ZM85.3514 360.854H92.3571V363.015H85.3514V360.854ZM94.647 355.191V352.909H105.398V355.191H101.391V366H98.6548V355.191H94.647ZM107.169 366V352.909H115.99V355.191H109.937V358.31H115.536V360.592H109.937V363.718H116.016V366H107.169Z" fill="white"/>
<rect x="33.5" y="343.5" width="95" height="32" rx="16" stroke="white"/>
<path d="M171.239 356.674C171.188 356.158 170.969 355.758 170.581 355.472C170.193 355.187 169.667 355.044 169.002 355.044C168.55 355.044 168.169 355.108 167.858 355.236C167.547 355.359 167.308 355.532 167.142 355.754C166.98 355.975 166.899 356.227 166.899 356.508C166.891 356.742 166.94 356.947 167.046 357.121C167.157 357.296 167.308 357.447 167.5 357.575C167.692 357.699 167.913 357.808 168.165 357.901C168.416 357.991 168.685 358.067 168.97 358.131L170.146 358.413C170.717 358.54 171.241 358.711 171.719 358.924C172.196 359.137 172.609 359.399 172.959 359.71C173.308 360.021 173.579 360.388 173.771 360.81C173.967 361.232 174.067 361.715 174.071 362.261C174.067 363.062 173.862 363.756 173.457 364.344C173.057 364.928 172.477 365.382 171.719 365.706C170.964 366.026 170.055 366.185 168.989 366.185C167.933 366.185 167.012 366.023 166.228 365.7C165.448 365.376 164.839 364.896 164.4 364.261C163.965 363.622 163.737 362.832 163.716 361.89H166.394C166.424 362.329 166.55 362.695 166.771 362.989C166.997 363.279 167.298 363.499 167.673 363.648C168.052 363.793 168.48 363.865 168.957 363.865C169.426 363.865 169.833 363.797 170.178 363.661C170.528 363.524 170.798 363.335 170.99 363.092C171.182 362.849 171.278 362.57 171.278 362.254C171.278 361.96 171.19 361.713 171.016 361.513C170.845 361.312 170.594 361.142 170.261 361.001C169.933 360.861 169.531 360.733 169.053 360.618L167.628 360.26C166.524 359.991 165.653 359.572 165.013 359.001C164.374 358.43 164.057 357.661 164.061 356.693C164.057 355.901 164.268 355.208 164.694 354.616C165.124 354.023 165.714 353.561 166.464 353.229C167.214 352.896 168.067 352.73 169.021 352.73C169.993 352.73 170.841 352.896 171.565 353.229C172.294 353.561 172.861 354.023 173.266 354.616C173.67 355.208 173.879 355.894 173.892 356.674H171.239ZM175.933 366V352.909H184.754V355.191H178.7V358.31H184.3V360.592H178.7V363.718H184.779V366H175.933ZM186.456 355.191V352.909H197.207V355.191H193.199V366H190.463V355.191H186.456Z" fill="white"/>
<rect x="151.5" y="343.5" width="57" height="32" rx="16" stroke="white"/>
<path d="M613.085 231L609.339 217.909H612.362L614.529 227.005H614.638L617.028 217.909H619.617L622.001 227.024H622.116L624.283 217.909H627.307L623.561 231H620.864L618.371 222.441H618.268L615.782 231H613.085ZM628.788 231V217.909H631.556V223.31H637.175V217.909H639.936V231H637.175V225.592H631.556V231H628.788ZM642.218 231V217.909H651.039V220.191H644.986V223.31H650.585V225.592H644.986V228.718H651.064V231H642.218ZM653.239 231V217.909H658.404C659.393 217.909 660.237 218.086 660.935 218.44C661.638 218.789 662.173 219.286 662.54 219.929C662.911 220.568 663.096 221.32 663.096 222.185C663.096 223.055 662.908 223.803 662.533 224.429C662.158 225.051 661.615 225.528 660.903 225.861C660.196 226.193 659.339 226.359 658.334 226.359H654.876V224.135H657.886C658.415 224.135 658.854 224.062 659.203 223.918C659.553 223.773 659.813 223.555 659.983 223.266C660.158 222.976 660.245 222.616 660.245 222.185C660.245 221.751 660.158 221.384 659.983 221.086C659.813 220.788 659.55 220.562 659.197 220.408C658.847 220.251 658.406 220.172 657.874 220.172H656.007V231H653.239ZM660.309 225.043L663.562 231H660.507L657.324 225.043H660.309ZM665.052 231V217.909H673.873V220.191H667.82V223.31H673.419V225.592H667.82V228.718H673.898V231H665.052Z" fill="white"/>
<rect x="596.5" y="207.5" width="92" height="32" rx="16" stroke="white"/>
<path d="M722.561 228.192C721.551 228.192 720.682 227.987 719.953 227.578C719.229 227.165 718.67 226.581 718.278 225.827C717.886 225.068 717.69 224.171 717.69 223.136C717.69 222.126 717.886 221.239 718.278 220.477C718.67 219.714 719.222 219.119 719.934 218.693C720.65 218.267 721.489 218.054 722.452 218.054C723.1 218.054 723.703 218.158 724.261 218.367C724.824 218.572 725.314 218.881 725.732 219.294C726.153 219.707 726.482 220.227 726.716 220.854C726.95 221.476 727.067 222.205 727.067 223.04V223.788H718.777V222.1H724.504C724.504 221.708 724.419 221.361 724.249 221.058C724.078 220.756 723.842 220.519 723.539 220.349C723.241 220.174 722.893 220.087 722.497 220.087C722.084 220.087 721.717 220.183 721.398 220.374C721.082 220.562 720.835 220.815 720.656 221.135C720.477 221.45 720.386 221.802 720.381 222.19V223.794C720.381 224.28 720.471 224.7 720.65 225.053C720.833 225.407 721.091 225.68 721.423 225.871C721.756 226.063 722.15 226.159 722.606 226.159C722.908 226.159 723.185 226.116 723.437 226.031C723.688 225.946 723.903 225.818 724.082 225.648C724.261 225.477 724.398 225.268 724.491 225.021L727.01 225.188C726.882 225.793 726.62 226.321 726.224 226.773C725.832 227.22 725.325 227.57 724.702 227.821C724.085 228.068 723.371 228.192 722.561 228.192ZM730.944 218.182L732.747 221.614L734.594 218.182H737.387L734.543 223.091L737.464 228H734.684L732.747 224.606L730.842 228H728.029L730.944 223.091L728.132 218.182H730.944ZM739.005 231.682V218.182H741.689V219.831H741.811C741.93 219.567 742.103 219.298 742.328 219.026C742.559 218.749 742.857 218.518 743.223 218.335C743.594 218.148 744.054 218.054 744.604 218.054C745.32 218.054 745.98 218.241 746.586 218.616C747.191 218.987 747.674 219.548 748.037 220.298C748.399 221.043 748.58 221.979 748.58 223.104C748.58 224.199 748.403 225.124 748.049 225.878C747.7 226.628 747.223 227.197 746.618 227.585C746.017 227.968 745.343 228.16 744.598 228.16C744.069 228.16 743.62 228.072 743.249 227.898C742.882 227.723 742.582 227.504 742.348 227.239C742.113 226.971 741.934 226.7 741.811 226.428H741.728V231.682H739.005ZM741.67 223.091C741.67 223.675 741.751 224.184 741.913 224.619C742.075 225.053 742.309 225.392 742.616 225.635C742.923 225.874 743.296 225.993 743.735 225.993C744.178 225.993 744.553 225.871 744.86 225.629C745.167 225.381 745.399 225.04 745.556 224.606C745.718 224.167 745.799 223.662 745.799 223.091C745.799 222.524 745.721 222.026 745.563 221.595C745.405 221.165 745.173 220.828 744.866 220.585C744.559 220.342 744.182 220.221 743.735 220.221C743.292 220.221 742.917 220.338 742.61 220.572C742.307 220.807 742.075 221.139 741.913 221.57C741.751 222 741.67 222.507 741.67 223.091ZM750.395 228V218.182H753.035V219.895H753.137C753.316 219.286 753.617 218.825 754.039 218.514C754.461 218.199 754.946 218.041 755.496 218.041C755.632 218.041 755.779 218.05 755.937 218.067C756.095 218.084 756.233 218.107 756.353 218.137V220.553C756.225 220.515 756.048 220.481 755.822 220.451C755.596 220.421 755.39 220.406 755.202 220.406C754.801 220.406 754.444 220.494 754.128 220.668C753.817 220.839 753.57 221.077 753.387 221.384C753.208 221.691 753.118 222.045 753.118 222.445V228H750.395Z" fill="white"/>
<rect x="713.5" y="207.5" width="47" height="32" stroke="white"/>
<path d="M572.561 364.192C571.551 364.192 570.682 363.987 569.953 363.578C569.229 363.165 568.67 362.581 568.278 361.827C567.886 361.068 567.69 360.171 567.69 359.136C567.69 358.126 567.886 357.239 568.278 356.477C568.67 355.714 569.222 355.119 569.934 354.693C570.65 354.267 571.489 354.054 572.452 354.054C573.1 354.054 573.703 354.158 574.261 354.367C574.824 354.572 575.314 354.881 575.732 355.294C576.153 355.707 576.482 356.227 576.716 356.854C576.95 357.476 577.067 358.205 577.067 359.04V359.788H568.777V358.1H574.504C574.504 357.708 574.419 357.361 574.249 357.058C574.078 356.756 573.842 356.519 573.539 356.349C573.241 356.174 572.893 356.087 572.497 356.087C572.084 356.087 571.717 356.183 571.398 356.374C571.082 356.562 570.835 356.815 570.656 357.135C570.477 357.45 570.386 357.802 570.381 358.19V359.794C570.381 360.28 570.471 360.7 570.65 361.053C570.833 361.407 571.091 361.68 571.423 361.871C571.756 362.063 572.15 362.159 572.606 362.159C572.908 362.159 573.185 362.116 573.437 362.031C573.688 361.946 573.903 361.818 574.082 361.648C574.261 361.477 574.398 361.268 574.491 361.021L577.01 361.188C576.882 361.793 576.62 362.321 576.224 362.773C575.832 363.22 575.325 363.57 574.702 363.821C574.085 364.068 573.371 364.192 572.561 364.192ZM580.944 354.182L582.747 357.614L584.594 354.182H587.387L584.543 359.091L587.464 364H584.684L582.747 360.606L580.842 364H578.029L580.944 359.091L578.132 354.182H580.944ZM589.005 367.682V354.182H591.689V355.831H591.811C591.93 355.567 592.103 355.298 592.328 355.026C592.559 354.749 592.857 354.518 593.223 354.335C593.594 354.148 594.054 354.054 594.604 354.054C595.32 354.054 595.98 354.241 596.586 354.616C597.191 354.987 597.674 355.548 598.037 356.298C598.399 357.043 598.58 357.979 598.58 359.104C598.58 360.199 598.403 361.124 598.049 361.878C597.7 362.628 597.223 363.197 596.618 363.585C596.017 363.968 595.343 364.16 594.598 364.16C594.069 364.16 593.62 364.072 593.249 363.898C592.882 363.723 592.582 363.504 592.348 363.239C592.113 362.971 591.934 362.7 591.811 362.428H591.728V367.682H589.005ZM591.67 359.091C591.67 359.675 591.751 360.184 591.913 360.619C592.075 361.053 592.309 361.392 592.616 361.635C592.923 361.874 593.296 361.993 593.735 361.993C594.178 361.993 594.553 361.871 594.86 361.629C595.167 361.381 595.399 361.04 595.556 360.606C595.718 360.167 595.799 359.662 595.799 359.091C595.799 358.524 595.721 358.026 595.563 357.595C595.405 357.165 595.173 356.828 594.866 356.585C594.559 356.342 594.182 356.221 593.735 356.221C593.292 356.221 592.917 356.338 592.61 356.572C592.307 356.807 592.075 357.139 591.913 357.57C591.751 358 591.67 358.507 591.67 359.091ZM600.395 364V354.182H603.035V355.895H603.137C603.316 355.286 603.617 354.825 604.039 354.514C604.461 354.199 604.946 354.041 605.496 354.041C605.632 354.041 605.779 354.05 605.937 354.067C606.095 354.084 606.233 354.107 606.353 354.137V356.553C606.225 356.515 606.048 356.481 605.822 356.451C605.596 356.421 605.39 356.406 605.202 356.406C604.801 356.406 604.444 356.494 604.128 356.668C603.817 356.839 603.57 357.077 603.387 357.384C603.208 357.691 603.118 358.045 603.118 358.445V364H600.395Z" fill="white"/>
<rect x="563.5" y="343.5" width="47" height="32" stroke="white"/>
<path d="M713 225L703 219.226V230.774L713 225ZM689 226H704V224H689V226Z" fill="white"/>
<path d="M677.085 367L673.339 353.909H676.362L678.529 363.005H678.638L681.028 353.909H683.617L686.001 363.024H686.116L688.283 353.909H691.307L687.561 367H684.864L682.371 358.441H682.268L679.782 367H677.085ZM692.788 367V353.909H695.556V359.31H701.175V353.909H703.936V367H701.175V361.592H695.556V367H692.788ZM706.218 367V353.909H715.039V356.191H708.986V359.31H714.585V361.592H708.986V364.718H715.064V367H706.218ZM717.239 367V353.909H722.404C723.393 353.909 724.237 354.086 724.935 354.44C725.638 354.789 726.173 355.286 726.54 355.929C726.911 356.568 727.096 357.32 727.096 358.185C727.096 359.055 726.908 359.803 726.533 360.429C726.158 361.051 725.615 361.528 724.903 361.861C724.196 362.193 723.339 362.359 722.334 362.359H718.876V360.135H721.886C722.415 360.135 722.854 360.062 723.203 359.918C723.553 359.773 723.813 359.555 723.983 359.266C724.158 358.976 724.245 358.616 724.245 358.185C724.245 357.751 724.158 357.384 723.983 357.086C723.813 356.788 723.55 356.562 723.197 356.408C722.847 356.251 722.406 356.172 721.874 356.172H720.007V367H717.239ZM724.309 361.043L727.562 367H724.507L721.324 361.043H724.309ZM729.052 367V353.909H737.873V356.191H731.82V359.31H737.419V361.592H731.82V364.718H737.898V367H729.052Z" fill="white"/>
<rect x="660.5" y="343.5" width="92" height="32" rx="16" stroke="white"/>
<path d="M786.561 364.192C785.551 364.192 784.682 363.987 783.953 363.578C783.229 363.165 782.67 362.581 782.278 361.827C781.886 361.068 781.69 360.171 781.69 359.136C781.69 358.126 781.886 357.239 782.278 356.477C782.67 355.714 783.222 355.119 783.934 354.693C784.65 354.267 785.489 354.054 786.452 354.054C787.1 354.054 787.703 354.158 788.261 354.367C788.824 354.572 789.314 354.881 789.732 355.294C790.153 355.707 790.482 356.227 790.716 356.854C790.95 357.476 791.067 358.205 791.067 359.04V359.788H782.777V358.1H788.504C788.504 357.708 788.419 357.361 788.249 357.058C788.078 356.756 787.842 356.519 787.539 356.349C787.241 356.174 786.893 356.087 786.497 356.087C786.084 356.087 785.717 356.183 785.398 356.374C785.082 356.562 784.835 356.815 784.656 357.135C784.477 357.45 784.386 357.802 784.381 358.19V359.794C784.381 360.28 784.471 360.7 784.65 361.053C784.833 361.407 785.091 361.68 785.423 361.871C785.756 362.063 786.15 362.159 786.606 362.159C786.908 362.159 787.185 362.116 787.437 362.031C787.688 361.946 787.903 361.818 788.082 361.648C788.261 361.477 788.398 361.268 788.491 361.021L791.01 361.188C790.882 361.793 790.62 362.321 790.224 362.773C789.832 363.22 789.325 363.57 788.702 363.821C788.085 364.068 787.371 364.192 786.561 364.192ZM794.944 354.182L796.747 357.614L798.594 354.182H801.387L798.543 359.091L801.464 364H798.684L796.747 360.606L794.842 364H792.029L794.944 359.091L792.132 354.182H794.944ZM803.005 367.682V354.182H805.689V355.831H805.811C805.93 355.567 806.103 355.298 806.328 355.026C806.559 354.749 806.857 354.518 807.223 354.335C807.594 354.148 808.054 354.054 808.604 354.054C809.32 354.054 809.98 354.241 810.586 354.616C811.191 354.987 811.674 355.548 812.037 356.298C812.399 357.043 812.58 357.979 812.58 359.104C812.58 360.199 812.403 361.124 812.049 361.878C811.7 362.628 811.223 363.197 810.618 363.585C810.017 363.968 809.343 364.16 808.598 364.16C808.069 364.16 807.62 364.072 807.249 363.898C806.882 363.723 806.582 363.504 806.348 363.239C806.113 362.971 805.934 362.7 805.811 362.428H805.728V367.682H803.005ZM805.67 359.091C805.67 359.675 805.751 360.184 805.913 360.619C806.075 361.053 806.309 361.392 806.616 361.635C806.923 361.874 807.296 361.993 807.735 361.993C808.178 361.993 808.553 361.871 808.86 361.629C809.167 361.381 809.399 361.04 809.556 360.606C809.718 360.167 809.799 359.662 809.799 359.091C809.799 358.524 809.721 358.026 809.563 357.595C809.405 357.165 809.173 356.828 808.866 356.585C808.559 356.342 808.182 356.221 807.735 356.221C807.292 356.221 806.917 356.338 806.61 356.572C806.307 356.807 806.075 357.139 805.913 357.57C805.751 358 805.67 358.507 805.67 359.091ZM814.395 364V354.182H817.035V355.895H817.137C817.316 355.286 817.617 354.825 818.039 354.514C818.461 354.199 818.946 354.041 819.496 354.041C819.632 354.041 819.779 354.05 819.937 354.067C820.095 354.084 820.233 354.107 820.353 354.137V356.553C820.225 356.515 820.048 356.481 819.822 356.451C819.596 356.421 819.39 356.406 819.202 356.406C818.801 356.406 818.444 356.494 818.128 356.668C817.817 356.839 817.57 357.077 817.387 357.384C817.208 357.691 817.118 358.045 817.118 358.445V364H814.395Z" fill="white"/>
<rect x="777.5" y="343.5" width="47" height="32" stroke="white"/>
<path d="M777 361L767 355.226V366.774L777 361ZM753 362H768V360H753V362Z" fill="white"/>
<path d="M1011 309L1001 303.226V314.774L1011 309ZM825 362H851V360H825V362ZM862 351V319H860V351H862ZM871 310L1002 310V308L871 308V310ZM862 319C862 314.029 866.029 310 871 310V308C864.925 308 860 312.925 860 319H862ZM851 362C857.075 362 862 357.075 862 351H860C860 355.971 855.971 360 851 360V362Z" fill="white"/>
<path d="M660 361L650 355.226V366.774L660 361ZM611 362H651V360H611V362Z" fill="white"/>
<path d="M1011 309L1001 303.226V314.774L1011 309ZM611 362H625.5V360H611V362ZM636.5 351V319H634.5V351H636.5ZM645.5 310L1002 310V308L645.5 308V310ZM636.5 319C636.5 314.029 640.529 310 645.5 310V308C639.425 308 634.5 312.925 634.5 319H636.5ZM625.5 362C631.575 362 636.5 357.075 636.5 351H634.5C634.5 355.971 630.471 360 625.5 360V362Z" fill="white"/>
<path d="M391.5 477L401.5 482.774L401.5 471.226L391.5 477ZM611 362H619.5V360H611V362ZM628.5 371V467H630.5V371H628.5ZM619.5 476L400.5 476V478L619.5 478V476ZM628.5 467C628.5 471.971 624.471 476 619.5 476V478C625.575 478 630.5 473.075 630.5 467H628.5ZM619.5 362C624.471 362 628.5 366.029 628.5 371H630.5C630.5 364.925 625.575 360 619.5 360V362Z" fill="white"/>
<path d="M563 361L553 355.226V366.774L563 361ZM545 362H554V360H545V362Z" fill="white"/>
<path d="M429.046 223.71L428.976 224.413C428.92 224.976 428.814 225.536 428.656 226.094C428.503 226.657 428.341 227.166 428.17 227.622C428.004 228.078 427.87 228.436 427.768 228.696H426.004C426.067 228.445 426.155 228.093 426.266 227.641C426.376 227.194 426.481 226.691 426.579 226.133C426.677 225.575 426.739 225.006 426.764 224.426L426.796 223.71H429.046Z" fill="white"/>
<circle cx="17.5" cy="17.5" r="17" transform="matrix(1 0 0 -1 411 242.5)" stroke="white"/>
<path d="M373.046 473.21L372.976 473.913C372.92 474.476 372.814 475.036 372.656 475.594C372.503 476.157 372.341 476.666 372.17 477.122C372.004 477.578 371.87 477.936 371.768 478.196H370.004C370.067 477.945 370.155 477.593 370.266 477.141C370.376 476.694 370.481 476.191 370.579 475.633C370.677 475.075 370.739 474.506 370.764 473.926L370.796 473.21H373.046Z" fill="white"/>
<circle cx="17.5" cy="17.5" r="17" transform="matrix(1 0 0 -1 355 492)" stroke="white"/>
<path d="M523.7 358.774V356.505H532.528V358.774H523.7ZM523.7 363.018V360.749H532.528V363.018H523.7Z" fill="white"/>
<circle cx="17.5" cy="17.5" r="17" transform="matrix(1 0 0 -1 511 378)" stroke="white"/>
<path d="M334 225.5L334 226.5L334 225.5ZM324 215.5L323 215.5L324 215.5ZM324 178L325 178L324 178ZM334 168L334 167L334 168ZM347 168L337 162.226L337 173.774L347 168ZM411 224.5L334 224.5L334 226.5L411 226.5L411 224.5ZM325 215.5L325 178L323 178L323 215.5L325 215.5ZM334 169L338 169L338 167L334 167L334 169ZM325 178C325 173.029 329.029 169 334 169L334 167C327.925 167 323 171.925 323 178L325 178ZM334 224.5C329.029 224.5 325 220.471 325 215.5L323 215.5C323 221.575 327.925 226.5 334 226.5L334 224.5Z" fill="white"/>
<path d="M446.5 225L456.5 230.774V219.226L446.5 225ZM502 169H506V167H502V169ZM515 178V215H517V178H515ZM506 224H455.5V226H506V224ZM515 215C515 219.971 510.971 224 506 224V226C512.075 226 517 221.075 517 215H515ZM506 169C510.971 169 515 173.029 515 178H517C517 171.925 512.075 167 506 167V169Z" fill="white"/>
<circle cx="300.5" cy="167.5" r="16" stroke="white"/>
<path d="M297.688 167.752C297.688 166.167 297.898 164.707 298.32 163.374C298.746 162.04 299.396 160.804 300.27 159.666H302.871C302.539 160.088 302.23 160.604 301.945 161.213C301.659 161.818 301.41 162.483 301.197 163.207C300.984 163.932 300.817 164.682 300.698 165.457C300.579 166.229 300.519 166.994 300.519 167.752C300.519 168.762 300.621 169.783 300.826 170.814C301.035 171.841 301.316 172.795 301.67 173.678C302.028 174.56 302.428 175.282 302.871 175.844H300.27C299.396 174.707 298.746 173.471 298.32 172.137C297.898 170.803 297.688 169.342 297.688 167.752Z" fill="white"/>
<circle cx="554" cy="167.5" r="16" stroke="white"/>
<path d="M557.176 167.752C557.176 169.342 556.963 170.803 556.537 172.137C556.115 173.471 555.467 174.707 554.594 175.844H551.992C552.325 175.423 552.634 174.907 552.919 174.298C553.205 173.688 553.454 173.023 553.667 172.303C553.88 171.579 554.046 170.829 554.165 170.053C554.285 169.278 554.344 168.511 554.344 167.752C554.344 166.742 554.24 165.724 554.031 164.697C553.827 163.665 553.545 162.711 553.188 161.833C552.834 160.951 552.435 160.229 551.992 159.666H554.594C555.467 160.804 556.115 162.04 556.537 163.374C556.963 164.707 557.176 166.167 557.176 167.752Z" fill="white"/>
<path d="M351.087 173V163.182H353.81V173H351.087ZM352.455 161.916C352.05 161.916 351.702 161.782 351.413 161.513C351.127 161.241 350.984 160.915 350.984 160.536C350.984 160.161 351.127 159.839 351.413 159.57C351.702 159.298 352.05 159.161 352.455 159.161C352.859 159.161 353.205 159.298 353.49 159.57C353.78 159.839 353.925 160.161 353.925 160.536C353.925 160.915 353.78 161.241 353.49 161.513C353.205 161.782 352.859 161.916 352.455 161.916ZM358.714 167.324V173H355.991V163.182H358.586V164.914H358.701C358.919 164.343 359.283 163.891 359.794 163.559C360.306 163.222 360.926 163.054 361.654 163.054C362.336 163.054 362.931 163.203 363.438 163.501C363.945 163.8 364.339 164.226 364.62 164.78C364.901 165.33 365.042 165.986 365.042 166.749V173H362.319V167.234C362.323 166.634 362.17 166.165 361.859 165.828C361.548 165.487 361.119 165.317 360.574 165.317C360.208 165.317 359.884 165.396 359.602 165.553C359.325 165.711 359.108 165.941 358.95 166.244C358.797 166.542 358.718 166.902 358.714 167.324ZM370.806 173.16C370.06 173.16 369.385 172.968 368.78 172.585C368.179 172.197 367.702 171.628 367.348 170.878C366.999 170.124 366.824 169.199 366.824 168.104C366.824 166.979 367.005 166.043 367.367 165.298C367.729 164.548 368.211 163.987 368.812 163.616C369.417 163.241 370.08 163.054 370.8 163.054C371.349 163.054 371.808 163.148 372.174 163.335C372.545 163.518 372.843 163.749 373.069 164.026C373.299 164.298 373.474 164.567 373.593 164.831H373.676V159.909H376.393V173H373.708V171.428H373.593C373.465 171.7 373.284 171.971 373.05 172.239C372.82 172.504 372.519 172.723 372.148 172.898C371.782 173.072 371.335 173.16 370.806 173.16ZM371.669 170.993C372.108 170.993 372.479 170.874 372.781 170.635C373.088 170.392 373.322 170.053 373.484 169.619C373.651 169.184 373.734 168.675 373.734 168.091C373.734 167.507 373.653 167 373.491 166.57C373.329 166.139 373.094 165.807 372.788 165.572C372.481 165.338 372.108 165.221 371.669 165.221C371.222 165.221 370.844 165.342 370.538 165.585C370.231 165.828 369.999 166.165 369.841 166.595C369.683 167.026 369.604 167.524 369.604 168.091C369.604 168.662 369.683 169.167 369.841 169.606C370.003 170.04 370.235 170.381 370.538 170.629C370.844 170.871 371.222 170.993 371.669 170.993ZM383.106 173.192C382.096 173.192 381.227 172.987 380.498 172.578C379.774 172.165 379.215 171.581 378.823 170.827C378.431 170.068 378.235 169.171 378.235 168.136C378.235 167.126 378.431 166.239 378.823 165.477C379.215 164.714 379.767 164.119 380.479 163.693C381.195 163.267 382.034 163.054 382.997 163.054C383.645 163.054 384.248 163.158 384.806 163.367C385.369 163.572 385.859 163.881 386.276 164.294C386.698 164.707 387.026 165.227 387.261 165.854C387.495 166.476 387.612 167.205 387.612 168.04V168.788H379.322V167.1H385.049C385.049 166.708 384.964 166.361 384.794 166.058C384.623 165.756 384.387 165.519 384.084 165.349C383.786 165.174 383.438 165.087 383.042 165.087C382.629 165.087 382.262 165.183 381.943 165.374C381.627 165.562 381.38 165.815 381.201 166.135C381.022 166.45 380.931 166.802 380.926 167.19V168.794C380.926 169.28 381.016 169.7 381.195 170.053C381.378 170.407 381.636 170.68 381.968 170.871C382.301 171.063 382.695 171.159 383.151 171.159C383.453 171.159 383.73 171.116 383.982 171.031C384.233 170.946 384.448 170.818 384.627 170.648C384.806 170.477 384.943 170.268 385.036 170.021L387.555 170.188C387.427 170.793 387.165 171.321 386.769 171.773C386.377 172.22 385.869 172.57 385.247 172.821C384.629 173.068 383.916 173.192 383.106 173.192ZM391.489 163.182L393.292 166.614L395.139 163.182H397.932L395.088 168.091L398.009 173H395.229L393.292 169.606L391.387 173H388.574L391.489 168.091L388.677 163.182H391.489ZM403.672 173.192C402.662 173.192 401.793 172.987 401.064 172.578C400.34 172.165 399.782 171.581 399.39 170.827C398.998 170.068 398.802 169.171 398.802 168.136C398.802 167.126 398.998 166.239 399.39 165.477C399.782 164.714 400.334 164.119 401.045 163.693C401.761 163.267 402.601 163.054 403.564 163.054C404.211 163.054 404.814 163.158 405.373 163.367C405.935 163.572 406.425 163.881 406.843 164.294C407.265 164.707 407.593 165.227 407.827 165.854C408.062 166.476 408.179 167.205 408.179 168.04V168.788H399.888V167.1H405.616C405.616 166.708 405.53 166.361 405.36 166.058C405.189 165.756 404.953 165.519 404.65 165.349C404.352 165.174 404.005 165.087 403.608 165.087C403.195 165.087 402.829 165.183 402.509 165.374C402.194 165.562 401.947 165.815 401.768 166.135C401.589 166.45 401.497 166.802 401.493 167.19V168.794C401.493 169.28 401.582 169.7 401.761 170.053C401.944 170.407 402.202 170.68 402.535 170.871C402.867 171.063 403.261 171.159 403.717 171.159C404.02 171.159 404.297 171.116 404.548 171.031C404.8 170.946 405.015 170.818 405.194 170.648C405.373 170.477 405.509 170.268 405.603 170.021L408.121 170.188C407.993 170.793 407.731 171.321 407.335 171.773C406.943 172.22 406.436 172.57 405.814 172.821C405.196 173.068 404.482 173.192 403.672 173.192ZM413.574 173.16C412.828 173.16 412.153 172.968 411.547 172.585C410.947 172.197 410.469 171.628 410.116 170.878C409.766 170.124 409.591 169.199 409.591 168.104C409.591 166.979 409.773 166.043 410.135 165.298C410.497 164.548 410.979 163.987 411.579 163.616C412.184 163.241 412.847 163.054 413.567 163.054C414.117 163.054 414.575 163.148 414.942 163.335C415.312 163.518 415.611 163.749 415.836 164.026C416.067 164.298 416.241 164.567 416.361 164.831H416.444V159.909H419.16V173H416.476V171.428H416.361C416.233 171.7 416.052 171.971 415.817 172.239C415.587 172.504 415.287 172.723 414.916 172.898C414.55 173.072 414.102 173.16 413.574 173.16ZM414.437 170.993C414.876 170.993 415.246 170.874 415.549 170.635C415.856 170.392 416.09 170.053 416.252 169.619C416.418 169.184 416.501 168.675 416.501 168.091C416.501 167.507 416.42 167 416.258 166.57C416.096 166.139 415.862 165.807 415.555 165.572C415.248 165.338 414.876 165.221 414.437 165.221C413.989 165.221 413.612 165.342 413.305 165.585C412.998 165.828 412.766 166.165 412.608 166.595C412.451 167.026 412.372 167.524 412.372 168.091C412.372 168.662 412.451 169.167 412.608 169.606C412.77 170.04 413.003 170.381 413.305 170.629C413.612 170.871 413.989 170.993 414.437 170.993ZM427.516 166.544V168.705H421.546V166.544H427.516ZM434.273 173.192C433.267 173.192 432.402 172.979 431.678 172.553C430.957 172.122 430.403 171.526 430.016 170.763C429.632 170 429.44 169.122 429.44 168.129C429.44 167.124 429.634 166.241 430.022 165.483C430.414 164.72 430.97 164.126 431.69 163.7C432.411 163.269 433.267 163.054 434.26 163.054C435.116 163.054 435.866 163.21 436.51 163.521C437.153 163.832 437.663 164.268 438.038 164.831C438.413 165.393 438.619 166.054 438.658 166.812H436.088C436.016 166.322 435.824 165.928 435.513 165.63C435.206 165.327 434.803 165.176 434.305 165.176C433.883 165.176 433.514 165.291 433.199 165.521C432.888 165.747 432.645 166.077 432.47 166.512C432.295 166.947 432.208 167.473 432.208 168.091C432.208 168.717 432.293 169.25 432.464 169.689C432.638 170.128 432.884 170.462 433.199 170.692C433.514 170.923 433.883 171.038 434.305 171.038C434.616 171.038 434.895 170.974 435.142 170.846C435.393 170.718 435.6 170.533 435.762 170.29C435.928 170.043 436.037 169.746 436.088 169.401H438.658C438.615 170.151 438.411 170.812 438.044 171.383C437.682 171.95 437.181 172.393 436.542 172.712C435.903 173.032 435.146 173.192 434.273 173.192ZM444.837 173.192C443.844 173.192 442.986 172.981 442.261 172.559C441.541 172.133 440.985 171.54 440.593 170.782C440.201 170.019 440.005 169.135 440.005 168.129C440.005 167.115 440.201 166.229 440.593 165.47C440.985 164.707 441.541 164.115 442.261 163.693C442.986 163.267 443.844 163.054 444.837 163.054C445.83 163.054 446.687 163.267 447.407 163.693C448.131 164.115 448.689 164.707 449.081 165.47C449.474 166.229 449.67 167.115 449.67 168.129C449.67 169.135 449.474 170.019 449.081 170.782C448.689 171.54 448.131 172.133 447.407 172.559C446.687 172.981 445.83 173.192 444.837 173.192ZM444.85 171.082C445.302 171.082 445.679 170.955 445.981 170.699C446.284 170.439 446.512 170.085 446.665 169.638C446.823 169.19 446.902 168.681 446.902 168.11C446.902 167.539 446.823 167.03 446.665 166.582C446.512 166.135 446.284 165.781 445.981 165.521C445.679 165.261 445.302 165.131 444.85 165.131C444.394 165.131 444.01 165.261 443.699 165.521C443.393 165.781 443.16 166.135 443.003 166.582C442.849 167.03 442.773 167.539 442.773 168.11C442.773 168.681 442.849 169.19 443.003 169.638C443.16 170.085 443.393 170.439 443.699 170.699C444.01 170.955 444.394 171.082 444.85 171.082ZM454.163 159.909V173H451.44V159.909H454.163ZM462.641 168.82V163.182H465.364V173H462.749V171.217H462.647C462.425 171.792 462.057 172.254 461.541 172.604C461.03 172.953 460.406 173.128 459.668 173.128C459.012 173.128 458.435 172.979 457.936 172.68C457.438 172.382 457.048 171.958 456.766 171.408C456.489 170.859 456.349 170.2 456.344 169.433V163.182H459.067V168.947C459.072 169.527 459.227 169.985 459.534 170.322C459.841 170.658 460.252 170.827 460.768 170.827C461.096 170.827 461.403 170.752 461.688 170.603C461.974 170.45 462.204 170.224 462.379 169.925C462.558 169.627 462.645 169.259 462.641 168.82ZM467.542 173V163.182H470.137V164.914H470.252C470.456 164.339 470.797 163.885 471.275 163.553C471.752 163.22 472.323 163.054 472.988 163.054C473.661 163.054 474.234 163.222 474.707 163.559C475.18 163.891 475.496 164.343 475.653 164.914H475.756C475.956 164.352 476.318 163.902 476.842 163.565C477.371 163.224 477.995 163.054 478.715 163.054C479.631 163.054 480.375 163.346 480.946 163.93C481.521 164.509 481.809 165.332 481.809 166.397V173H479.092V166.934C479.092 166.388 478.947 165.979 478.657 165.707C478.368 165.434 478.006 165.298 477.571 165.298C477.077 165.298 476.691 165.455 476.414 165.771C476.137 166.082 475.998 166.493 475.998 167.004V173H473.358V166.876C473.358 166.395 473.22 166.011 472.943 165.726C472.67 165.44 472.31 165.298 471.863 165.298C471.56 165.298 471.287 165.374 471.045 165.528C470.806 165.677 470.616 165.888 470.476 166.161C470.335 166.429 470.265 166.744 470.265 167.107V173H467.542ZM486.683 167.324V173H483.96V163.182H486.555V164.914H486.67C486.887 164.343 487.252 163.891 487.763 163.559C488.274 163.222 488.894 163.054 489.623 163.054C490.305 163.054 490.899 163.203 491.406 163.501C491.914 163.8 492.308 164.226 492.589 164.78C492.87 165.33 493.011 165.986 493.011 166.749V173H490.288V167.234C490.292 166.634 490.139 166.165 489.828 165.828C489.517 165.487 489.088 165.317 488.543 165.317C488.176 165.317 487.852 165.396 487.571 165.553C487.294 165.711 487.077 165.941 486.919 166.244C486.766 166.542 486.687 166.902 486.683 167.324Z" fill="white"/>
<rect x="347.5" y="151.5" width="152" height="32" stroke="white"/>
<path d="M347 168L337 162.226V173.774L347 168ZM317 169H338V167H317V169Z" fill="white"/>
<path d="M284 168L274 162.226V173.774L284 168ZM266 169H275V167H266V169ZM237 95.5H246V93.5H237V95.5ZM255 104.5V158H257V104.5H255ZM246 95.5C250.971 95.5 255 99.5294 255 104.5H257C257 98.4249 252.075 93.5 246 93.5V95.5ZM266 167C261.029 167 257 162.971 257 158H255C255 164.075 259.925 169 266 169V167Z" fill="white"/>
<path d="M596 225L586 219.226V230.774L596 225ZM570 167H570.511V165H570V167ZM579.511 176V215H581.511V176H579.511ZM570.511 167C575.481 167 579.511 171.029 579.511 176H581.511C581.511 169.925 576.586 165 570.511 165V167ZM590.511 224C585.54 224 581.511 219.971 581.511 215H579.511C579.511 221.075 584.436 226 590.511 226V224Z" fill="white"/>
<path d="M814 95L804 100.774V89.2265L814 95ZM792.426 94H805V96H792.426V94ZM761 224H772.426V226H761V224ZM781.426 215V105H783.426V215H781.426ZM772.426 224C777.396 224 781.426 219.971 781.426 215H783.426C783.426 221.075 778.501 226 772.426 226V224ZM792.426 96C787.455 96 783.426 100.029 783.426 105H781.426C781.426 98.9249 786.35 94 792.426 94V96Z" fill="white"/>
<path d="M814 95L804 100.774V89.2265L814 95ZM792.426 94H805V96H792.426V94ZM569.5 165L772.426 165V167L569.5 167V165ZM781.426 156V105H783.426V156H781.426ZM772.426 165C777.396 165 781.426 160.971 781.426 156H783.426C783.426 162.075 778.501 167 772.426 167V165ZM792.426 96C787.455 96 783.426 100.029 783.426 105H781.426C781.426 98.9249 786.35 94 792.426 94V96Z" fill="white"/>
<path d="M537 168L527 162.226L527 173.774L537 168ZM499 169L528 169L528 167L499 167L499 169Z" fill="white"/>
</svg>
