<?xml version="1.0" encoding="UTF-8" standalone="no"?>
<!DOCTYPE svg PUBLIC "-//W3C//DTD SVG 1.1//EN"
 "http://www.w3.org/Graphics/SVG/1.1/DTD/svg11.dtd">
<!-- Generated by graphviz version 2.43.0 (0)
 -->
<!-- Title: %3 Pages: 1 -->
<svg width="272pt" height="216pt"
 viewBox="0.00 0.00 272.00 216.00" xmlns="http://www.w3.org/2000/svg" xmlns:xlink="http://www.w3.org/1999/xlink">
<g id="graph0" class="graph" transform="scale(1 1) rotate(0) translate(4 212)">
<title>%3</title>
<polygon fill="white" stroke="#000000" points="-4,4 -4,-212 268,-212 268,4 -4,4"/>
<text text-anchor="start" x="8" y="-189.6" font-family="Times,serif" font-size="18.00">Kwil Module Dependencies</text>
<!-- kwildb -->
<g id="node1" class="node">
<title>kwildb</title>
<path fill="dodgerblue" stroke="black" d="M122.25,-108C122.25,-108 78.25,-108 78.25,-108 72.25,-108 66.25,-102 66.25,-96 66.25,-96 66.25,-84 66.25,-84 66.25,-78 72.25,-72 78.25,-72 78.25,-72 122.25,-72 122.25,-72 128.25,-72 134.25,-78 134.25,-84 134.25,-84 134.25,-96 134.25,-96 134.25,-102 128.25,-108 122.25,-108"/>
<text text-anchor="middle" x="100.25" y="-86.3" font-family="Times,serif" font-size="14.00">kwil&#45;db</text>
</g>
<!-- test -->
<g id="node4" class="node">
<title>test</title>
<path fill="lightsalmon" stroke="black" d="M84.25,-36C84.25,-36 54.25,-36 54.25,-36 48.25,-36 42.25,-30 42.25,-24 42.25,-24 42.25,-12 42.25,-12 42.25,-6 48.25,0 54.25,0 54.25,0 84.25,0 84.25,0 90.25,0 96.25,-6 96.25,-12 96.25,-12 96.25,-24 96.25,-24 96.25,-30 90.25,-36 84.25,-36"/>
<text text-anchor="middle" x="69.25" y="-14.3" font-family="Times,serif" font-size="14.00">test</text>
</g>
<!-- kwildb&#45;&gt;test -->
<g id="edge3" class="edge">
<title>kwildb&#45;&gt;test</title>
<path fill="none" stroke="black" d="M81.25,-61.83C81.25,-61.83 81.25,-36.41 81.25,-36.41"/>
<polygon fill="black" stroke="black" points="77.75,-61.83 81.25,-71.83 84.75,-61.83 77.75,-61.83"/>
</g>
<!-- core -->
<g id="node2" class="node">
<title>core</title>
<path fill="aquamarine" stroke="black" d="M104.25,-180C104.25,-180 34.25,-180 34.25,-180 28.25,-180 22.25,-174 22.25,-168 22.25,-168 22.25,-156 22.25,-156 22.25,-150 28.25,-144 34.25,-144 34.25,-144 104.25,-144 104.25,-144 110.25,-144 116.25,-150 116.25,-156 116.25,-156 116.25,-168 116.25,-168 116.25,-174 110.25,-180 104.25,-180"/>
<text text-anchor="middle" x="69.25" y="-158.3" font-family="Times,serif" font-size="14.00">core (SDK)</text>
</g>
<!-- core&#45;&gt;kwildb -->
<g id="edge1" class="edge">
<title>core&#45;&gt;kwildb</title>
<path fill="none" stroke="black" d="M91.25,-133.83C91.25,-133.83 91.25,-108.41 91.25,-108.41"/>
<polygon fill="black" stroke="black" points="87.75,-133.83 91.25,-143.83 94.75,-133.83 87.75,-133.83"/>
</g>
<!-- core&#45;&gt;test -->
<g id="edge2" class="edge">
<title>core&#45;&gt;test</title>
<path fill="none" stroke="black" d="M54.25,-133.76C54.25,-133.76 54.25,-36.09 54.25,-36.09"/>
<polygon fill="black" stroke="black" points="50.75,-133.76 54.25,-143.76 57.75,-133.76 50.75,-133.76"/>
</g>
<!-- parse -->
<g id="node3" class="node">
<title>parse</title>
<path fill="cadetblue" stroke="black" d="M195.25,-180C195.25,-180 163.25,-180 163.25,-180 157.25,-180 151.25,-174 151.25,-168 151.25,-168 151.25,-156 151.25,-156 151.25,-150 157.25,-144 163.25,-144 163.25,-144 195.25,-144 195.25,-144 201.25,-144 207.25,-150 207.25,-156 207.25,-156 207.25,-168 207.25,-168 207.25,-174 201.25,-180 195.25,-180"/>
<text text-anchor="middle" x="179.25" y="-158.3" font-family="Times,serif" font-size="14.00">parse</text>
</g>
<!-- parse&#45;&gt;kwildb -->
<g id="edge4" class="edge">
<title>parse&#45;&gt;kwildb</title>
<path fill="none" stroke="black" d="M140.98,-162C140.98,-162 125.25,-162 125.25,-162 125.25,-162 125.25,-129.5 125.25,-108.17"/>
<polygon fill="black" stroke="black" points="140.98,-165.5 150.98,-162 140.98,-158.5 140.98,-165.5"/>
</g>
<!-- kuneiform -->
<g id="node5" class="node">
<title>kuneiform</title>
<path fill="lightgray" stroke="black" d="M229.75,-108C229.75,-108 164.75,-108 164.75,-108 158.75,-108 152.75,-102 152.75,-96 152.75,-96 152.75,-84 152.75,-84 152.75,-78 158.75,-72 164.75,-72 164.75,-72 229.75,-72 229.75,-72 235.75,-72 241.75,-78 241.75,-84 241.75,-84 241.75,-96 241.75,-96 241.75,-102 235.75,-108 229.75,-108"/>
<text text-anchor="middle" x="197.25" y="-86.3" font-family="Times,serif" font-size="14.00">kuneiform</text>
</g>
<!-- parse&#45;&gt;kuneiform -->
<g id="edge5" class="edge">
<title>parse&#45;&gt;kuneiform</title>
<path fill="none" stroke="gray" d="M180,-133.83C180,-133.83 180,-108.41 180,-108.41"/>
<polygon fill="gray" stroke="gray" points="176.5,-133.83 180,-143.83 183.5,-133.83 176.5,-133.83"/>
</g>
</g>
</svg>
