<?xml version="1.0" encoding="UTF-8" standalone="no"?>
<!DOCTYPE svg PUBLIC "-//W3C//DTD SVG 1.1//EN"
 "http://www.w3.org/Graphics/SVG/1.1/DTD/svg11.dtd">
<!-- Generated by graphviz version 2.43.0 (0)
 -->
<!-- Title: %3 Pages: 1 -->
<svg width="272pt" height="216pt"
 viewBox="0.00 0.00 272.00 216.00" xmlns="http://www.w3.org/2000/svg" xmlns:xlink="http://www.w3.org/1999/xlink">
<g id="graph0" class="graph" transform="scale(1 1) rotate(0) translate(4 212)">
<title>%3</title>
<polygon fill="white" stroke="#000000" points="-4,4 -4,-212 268,-212 268,4 -4,4"/>
<text text-anchor="start" x="8" y="-189.6" font-family="Times,serif" font-size="18.00">Kwil Module Dependencies</text>
<!-- kwildb -->
<g id="node1" class="node">
<title>kwildb</title>
<path fill="dodgerblue" stroke="black" d="M179,-108C179,-108 135,-108 135,-108 129,-108 123,-102 123,-96 123,-96 123,-84 123,-84 123,-78 129,-72 135,-72 135,-72 179,-72 179,-72 185,-72 191,-78 191,-84 191,-84 191,-96 191,-96 191,-102 185,-108 179,-108"/>
<text text-anchor="middle" x="157" y="-86.3" font-family="Times,serif" font-size="14.00">kwil&#45;db</text>
</g>
<!-- test -->
<g id="node4" class="node">
<title>test</title>
<path fill="lightsalmon" stroke="black" d="M141,-36C141,-36 111,-36 111,-36 105,-36 99,-30 99,-24 99,-24 99,-12 99,-12 99,-6 105,0 111,0 111,0 141,0 141,0 147,0 153,-6 153,-12 153,-12 153,-24 153,-24 153,-30 147,-36 141,-36"/>
<text text-anchor="middle" x="126" y="-14.3" font-family="Times,serif" font-size="14.00">test</text>
</g>
<!-- kwildb&#45;&gt;test -->
<g id="edge4" class="edge">
<title>kwildb&#45;&gt;test</title>
<path fill="none" stroke="black" d="M138,-61.83C138,-61.83 138,-36.41 138,-36.41"/>
<polygon fill="black" stroke="black" points="134.5,-61.83 138,-71.83 141.5,-61.83 134.5,-61.83"/>
</g>
<!-- core -->
<g id="node2" class="node">
<title>core</title>
<path fill="aquamarine" stroke="black" d="M130,-180C130,-180 60,-180 60,-180 54,-180 48,-174 48,-168 48,-168 48,-156 48,-156 48,-150 54,-144 60,-144 60,-144 130,-144 130,-144 136,-144 142,-150 142,-156 142,-156 142,-168 142,-168 142,-174 136,-180 130,-180"/>
<text text-anchor="middle" x="95" y="-158.3" font-family="Times,serif" font-size="14.00">core (SDK)</text>
</g>
<!-- core&#45;&gt;kwildb -->
<g id="edge1" class="edge">
<title>core&#45;&gt;kwildb</title>
<path fill="none" stroke="black" d="M132.5,-133.83C132.5,-133.83 132.5,-108.41 132.5,-108.41"/>
<polygon fill="black" stroke="black" points="129,-133.83 132.5,-143.83 136,-133.83 129,-133.83"/>
</g>
<!-- parse -->
<g id="node3" class="node">
<title>parse</title>
<path fill="cadetblue" stroke="black" d="M204,-180C204,-180 172,-180 172,-180 166,-180 160,-174 160,-168 160,-168 160,-156 160,-156 160,-150 166,-144 172,-144 172,-144 204,-144 204,-144 210,-144 216,-150 216,-156 216,-156 216,-168 216,-168 216,-174 210,-180 204,-180"/>
<text text-anchor="middle" x="188" y="-158.3" font-family="Times,serif" font-size="14.00">parse</text>
</g>
<!-- core&#45;&gt;parse -->
<g id="edge2" class="edge">
<title>core&#45;&gt;parse</title>
<path fill="none" stroke="black" d="M152.04,-162C152.04,-162 159.96,-162 159.96,-162"/>
<polygon fill="black" stroke="black" points="152.04,-158.5 142.04,-162 152.04,-165.5 152.04,-158.5"/>
</g>
<!-- core&#45;&gt;test -->
<g id="edge3" class="edge">
<title>core&#45;&gt;test</title>
<path fill="none" stroke="black" d="M111,-133.76C111,-133.76 111,-36.09 111,-36.09"/>
<polygon fill="black" stroke="black" points="107.5,-133.76 111,-143.76 114.5,-133.76 107.5,-133.76"/>
</g>
<!-- parse&#45;&gt;kwildb -->
<g id="edge5" class="edge">
<title>parse&#45;&gt;kwildb</title>
<path fill="none" stroke="black" d="M175.5,-133.83C175.5,-133.83 175.5,-108.41 175.5,-108.41"/>
<polygon fill="black" stroke="black" points="172,-133.83 175.5,-143.83 179,-133.83 172,-133.83"/>
</g>
</g>
</svg>
