<?xml version="1.0" standalone="no"?>
<svg xmlns="http://www.w3.org/2000/svg" xmlns:xlink="http://www.w3.org/1999/xlink" width="226pt" height="218pt" viewBox="0.00 0.00 225.95 217.60">
<g id="graph0" class="graph" transform="translate(4,213.60000610351562) scale(1)" data-name="">
<polygon fill="white" stroke="none" points="-4,4 -4,-213.6 221.95,-213.6 221.95,4 -4,4"/>
<text text-anchor="start" x="8" y="-189.4" font-family="Times,serif" font-size="18.00">Kwil Module Dependencies</text>
<!-- kwildb -->
<g id="node1" class="node" pointer-events="visible" data-name="kwildb">

<path fill="dodgerblue" stroke="black" d="M56.9,-108C56.9,-108 21.79,-108 21.79,-108 15.79,-108 9.79,-102 9.79,-96 9.79,-96 9.79,-84 9.79,-84 9.79,-78 15.79,-72 21.79,-72 21.79,-72 56.9,-72 56.9,-72 62.9,-72 68.9,-78 68.9,-84 68.9,-84 68.9,-96 68.9,-96 68.9,-102 62.9,-108 56.9,-108"/>
<text text-anchor="middle" x="39.35" y="-85.8" font-family="Times,serif" font-size="14.00">kwil-db</text>
</g>
<!-- test -->
<g id="node4" class="node" pointer-events="visible" data-name="test">

<path fill="lightsalmon" stroke="black" d="M54.35,-36C54.35,-36 24.35,-36 24.35,-36 18.35,-36 12.35,-30 12.35,-24 12.35,-24 12.35,-12 12.35,-12 12.35,-6 18.35,0 24.35,0 24.35,0 54.35,0 54.35,0 60.35,0 66.35,-6 66.35,-12 66.35,-12 66.35,-24 66.35,-24 66.35,-30 60.35,-36 54.35,-36"/>
<text text-anchor="middle" x="39.35" y="-13.8" font-family="Times,serif" font-size="14.00">test</text>
</g>
<!-- kwildb&#45;&gt;test -->
<g id="edge4" class="edge" data-name="kwildb-&gt;test">

<path fill="none" stroke="black" d="M39.35,-60.32C39.35,-60.32 39.35,-36.41 39.35,-36.41"/>
<polygon fill="black" stroke="black" points="35.85,-60.32 39.35,-70.32 42.85,-60.32 35.85,-60.32"/>
</g>
<!-- core -->
<g id="node2" class="node" pointer-events="visible" data-name="core">

<path fill="aquamarine" stroke="black" d="M125.77,-180C125.77,-180 68.93,-180 68.93,-180 62.93,-180 56.93,-174 56.93,-168 56.93,-168 56.93,-156 56.93,-156 56.93,-150 62.93,-144 68.93,-144 68.93,-144 125.77,-144 125.77,-144 131.77,-144 137.77,-150 137.77,-156 137.77,-156 137.77,-168 137.77,-168 137.77,-174 131.77,-180 125.77,-180"/>
<text text-anchor="middle" x="97.35" y="-157.8" font-family="Times,serif" font-size="14.00">core (SDK)</text>
</g>
<!-- core&#45;&gt;kwildb -->
<g id="edge1" class="edge" data-name="core-&gt;kwildb">

<path fill="none" stroke="black" d="M63,-132.32C63,-132.32 63,-108.41 63,-108.41"/>
<polygon fill="black" stroke="black" points="59.5,-132.32 63,-142.32 66.5,-132.32 59.5,-132.32"/>
</g>
<!-- clientex -->
<g id="node3" class="node" pointer-events="visible" data-name="clientex">

<path fill="lightslategray" stroke="black" d="M196.4,-36C196.4,-36 96.29,-36 96.29,-36 90.29,-36 84.29,-30 84.29,-24 84.29,-24 84.29,-12 84.29,-12 84.29,-6 90.29,0 96.29,0 96.29,0 196.4,0 196.4,0 202.4,0 208.4,-6 208.4,-12 208.4,-12 208.4,-24 208.4,-24 208.4,-30 202.4,-36 196.4,-36"/>
<text text-anchor="middle" x="146.35" y="-13.8" font-family="Times,serif" font-size="14.00">client-example-app</text>
</g>
<!-- core&#45;&gt;clientex -->
<g id="edge3" class="edge" data-name="core-&gt;clientex">

<path fill="none" stroke="black" d="M111.06,-132.25C111.06,-132.25 111.06,-36.09 111.06,-36.09"/>
<polygon fill="black" stroke="black" points="107.56,-132.25 111.06,-142.25 114.56,-132.25 107.56,-132.25"/>
</g>
<!-- core&#45;&gt;test -->
<g id="edge2" class="edge" data-name="core-&gt;test">

<path fill="none" stroke="black" d="M76.72,-132.25C76.72,-132.25 76.72,-18 76.72,-18 76.72,-18 72.3,-18 66.51,-18"/>
<polygon fill="black" stroke="black" points="73.22,-132.25 76.72,-142.25 80.22,-132.25 73.22,-132.25"/>
</g>
</g>
</svg>